#N canvas 0 23 1388 575 10;
#X obj 162 420 vline~, f 18;
#X floatatom 359 238 5 1 10000 2 _att - -;
#X floatatom 391 238 5 1 10000 2 dec - -;
#X floatatom 423 238 5 0 1 2 sus - -;
#X floatatom 455 238 5 1 10000 2 rel - -;
#X obj 351 136 loadbang;
#X obj 351 157 t b b b b, f 33;
#X obj 208 179 / 127;
#X obj 234 279 *;
#X obj 208 238 t f f;
#X text 136 483 |;
#X text 136 494 |;
#X text 136 505 |;
#X text 136 516 |;
#X text 136 527 |;
#X text 136 438 |;
#X text 136 449 |;
#X text 136 460 |;
#X text 136 471 |;
#X text 141 536 ------------------------------------------;
#X text 139 431 ------------------------------------------;
#X text 389 485 |;
#X text 389 496 |;
#X text 389 507 |;
#X text 389 518 |;
#X text 389 529 |;
#X text 389 440 |;
#X text 389 451 |;
#X text 389 462 |;
#X text 389 473 |;
#X text 383 89 |;
#X text 383 100 |;
#X text 383 111 |;
#X text 383 44 |;
#X text 383 55 |;
#X text 383 66 |;
#X text 383 77 |;
#X text 58 38 -------------------------------------------------------
;
#X text 56 91 |;
#X text 56 102 |;
#X text 56 113 |;
#X text 56 46 |;
#X text 56 57 |;
#X text 56 68 |;
#X text 56 79 |;
#X text 57 118 -------------------------------------------------------
;
#X obj 162 449 outlet~;
#X obj 225 89 inlet;
#X obj 359 204 r \$0-att;
#X obj 417 206 r \$0-dec;
#X obj 479 206 r \$0-sus;
#X obj 547 206 r \$0-rel;
#X obj 492 81 inlet;
#X obj 548 81 inlet;
#X obj 611 81 inlet;
#X obj 679 81 inlet;
#X obj 492 105 s \$0-att;
#X obj 548 105 s \$0-dec;
#X obj 611 105 s \$0-sus;
#X obj 679 105 s \$0-rel;
#X text 776 81 |;
#X text 776 92 |;
#X text 776 103 |;
#X text 776 36 |;
#X text 776 47 |;
#X text 776 58 |;
#X text 776 69 |;
#X text 449 28 -------------------------------------------------------
;
#X text 439 83 |;
#X text 439 94 |;
#X text 439 105 |;
#X text 439 38 |;
#X text 439 49 |;
#X text 439 60 |;
#X text 439 71 |;
#X text 448 117 -------------------------------------------------------
;
#X text 448 44 I moved these here and created send&receives so the
the leftmost inlet triggers the envelope (basically it made things
tidier;
#X text 794 557 sjf \, SAE London \, 2020;
#X obj 443 286 t b f;
#X obj 443 307 +;
#X obj 162 367 pack 0 0 0 0 0 0;
#X text 30 272 1 - max amplitude;
#X text 29 290 2 - att time;
#X text 28 308 3 - sustain*maxamp;
#X text 27 325 4 - dec time;
#X msg 162 391 \$1 \$2 \, \$3 \$4 \$2 \, 0 \$5 \$6;
#X text 26 342 5 - release;
#X text 25 363 6 - att+ decay;
#X msg 470 183 0;
#X msg 415 181 1;
#X msg 351 179 0;
#X msg 530 184 1;
#X connect 0 0 46 0;
#X connect 1 0 80 1;
#X connect 1 0 79 0;
#X connect 2 0 80 3;
#X connect 2 0 78 0;
#X connect 3 0 8 1;
#X connect 4 0 80 4;
#X connect 5 0 6 0;
#X connect 6 0 90 0;
#X connect 6 1 89 0;
#X connect 6 2 88 0;
#X connect 6 3 91 0;
#X connect 7 0 9 0;
#X connect 8 0 80 2;
#X connect 9 0 80 0;
#X connect 9 1 8 0;
#X connect 47 0 7 0;
#X connect 48 0 1 0;
#X connect 49 0 2 0;
#X connect 50 0 3 0;
#X connect 51 0 4 0;
#X connect 52 0 56 0;
#X connect 53 0 57 0;
#X connect 54 0 58 0;
#X connect 55 0 59 0;
#X connect 78 0 79 0;
#X connect 78 1 79 1;
#X connect 79 0 80 5;
#X connect 80 0 85 0;
#X connect 85 0 0 0;
#X connect 88 0 3 0;
#X connect 89 0 2 0;
#X connect 90 0 1 0;
#X connect 91 0 4 0;
#X coords 0 -1 1 1 150 60 1 350 200;
