#N canvas 0 23 1161 643 10;
#X obj 70 155 inlet;
#X obj 70 546 outlet;
#X obj 117 546 outlet;
#X obj 127 155 inlet;
#X obj 13 28 tgl 15 1 \$0-on/off_snd \$0-on/off_rec ON/OFF 17 7 0 10
-262144 -1 -1 1 1;
#X obj 70 442 pack 0 0 0;
#X obj 70 472 route 0 1;
#X obj 70 521 unpack, f 8;
#X obj 70 219 t b f, f 8;
#X text 45 132 MIDI Pitch;
#X text 126 132 MIDI Velocity;
#X obj 607 475 s \$0-deltaTime;
#X obj 947 155 array define \$0-notes_in_use 128;
#X f 15;
#X obj 168 219 int;
#X obj 141 243 int;
#X obj 168 242 > 0;
#X obj 141 263 pack, f 5;
#X msg 141 284 \$2 \$1;
#X obj 156 330 tabwrite \$0-notes_in_use, f 15;
#X obj 275 150 inlet;
#X obj 275 466 spigot;
#X text 790 30 Unlike the pprevious example \, here I keep a record
of which notes are currently being played and choose these randomly
;
#X text 788 94 In this example the random arpeggio is only retriggered
externally (i.e. I use the underlying tempo to determine when the arpeggio
starts);
#N canvas 235 24 915 643 arpeggiator_logic 0;
#X obj 108 12 inlet;
#X obj 108 34 unpack, f 8;
#X obj 369 236 r \$0-deltaTime, f 8;
#X obj 199 289 bng 15 250 50 0 empty empty empty 17 7 0 10 -262144
-1 -1;
#X obj 436 382 r \$0-deltaTime;
#X obj 199 408 makenote 100 125, f 38;
#X obj 199 429 pack, f 38;
#X obj 199 450 outlet;
#X obj 337 108 inlet;
#N canvas 0 23 534 387 note_choices 0;
#X obj 95 26 inlet;
#X obj 199 266 outlet;
#X obj 360 119 inlet;
#X text 90 5 choose note;
#X obj 95 77 int;
#X text 343 98 retrigger;
#N canvas 0 23 450 300 randomChoices 0;
#X obj 37 37 inlet;
#X obj 37 57 array random \$0-notes_in_use, f 12;
#X obj 37 99 t b f, f 13;
#X obj 37 182 +, f 13;
#X obj 37 141 expr 12*pow(2 \, $f1), f 10;
#X obj 37 120 random 2;
#X obj 37 203 outlet;
#X text 131 20 random note choices \, with added random octave jump
;
#X connect 0 0 1 0;
#X connect 1 0 2 0;
#X connect 2 0 5 0;
#X connect 2 1 3 1;
#X connect 3 0 6 0;
#X connect 4 0 3 0;
#X connect 5 0 4 0;
#X restore 251 189 pd randomChoices;
#X f 13;
#N canvas 569 23 483 561 arpUp 0;
#X obj 111 32 inlet;
#X text 91 14 choose note;
#X obj 111 243 outlet;
#X obj 189 32 inlet;
#X text 171 14 retrigger;
#X obj 141 60 array sum \$0-notes_in_use, f 11;
#X msg 111 137 1;
#X obj 111 158 + -1;
#X obj 111 179 int, f 4;
#X msg 141 137 -1;
#X obj 111 200 %, f 10;
#X obj 141 112 t b f;
#X obj 111 222 tabread \$0-arpeggio;
#X connect 0 0 6 0;
#X connect 3 0 5 0;
#X connect 5 0 11 0;
#X connect 6 0 7 0;
#X connect 7 0 8 0;
#X connect 8 0 7 1;
#X connect 8 0 10 0;
#X connect 9 0 7 1;
#X connect 10 0 12 0;
#X connect 11 0 9 0;
#X connect 11 1 10 1;
#X connect 12 0 2 0;
#X restore 95 189 pd arpUp;
#X f 5;
#X obj 360 140 bng 15 250 50 0 empty empty empty 17 7 0 10 -262144
-1 -1;
#N canvas 569 23 483 561 arpDown 0;
#X obj 111 32 inlet;
#X text 91 14 choose note;
#X obj 111 314 outlet;
#X obj 189 32 inlet;
#X text 171 14 retrigger;
#X obj 141 60 array sum \$0-notes_in_use, f 11;
#X msg 111 137 1;
#X obj 111 158 + -1;
#X obj 111 179 int, f 4;
#X msg 141 137 -1;
#X obj 111 200 %, f 10;
#X obj 111 293 tabread \$0-arpeggio;
#X obj 141 112 t b f f, f 10;
#X obj 199 148 - 1;
#X obj 111 221 t b f, f 6;
#X obj 111 241 int, f 15;
#X obj 111 263 -, f 6;
#X connect 0 0 6 0;
#X connect 3 0 5 0;
#X connect 5 0 12 0;
#X connect 6 0 7 0;
#X connect 7 0 8 0;
#X connect 8 0 7 1;
#X connect 8 0 10 0;
#X connect 9 0 7 1;
#X connect 10 0 14 0;
#X connect 11 0 2 0;
#X connect 12 0 9 0;
#X connect 12 1 10 1;
#X connect 12 2 13 0;
#X connect 13 0 15 1;
#X connect 14 0 15 0;
#X connect 14 1 16 1;
#X connect 15 0 16 0;
#X connect 16 0 11 0;
#X restore 132 189 pd arpDown;
#X f 7;
#N canvas 0 23 343 490 arpUpDown 0;
#X obj 109 32 inlet;
#X text 90 14 choose note;
#X obj 109 411 outlet;
#X obj 183 32 inlet;
#X text 165 14 retrigger;
#X obj 183 55 array sum \$0-notes_in_use, f 11;
#X obj 109 390 tabread \$0-arpeggio;
#X msg 109 151 1, f 1;
#X obj 109 175 + -1;
#X obj 109 199 int;
#X floatatom 109 223 5 0 0 0 - - -;
#X msg 134 151 -1, f 2;
#X obj 204 206 * 2;
#X obj 204 230 - 2;
#X obj 109 277 moses, f 10;
#X obj 171 309 t b f;
#X obj 171 333 int, f 6;
#X obj 171 357 -, f 5;
#X obj 109 362 int;
#X obj 109 253 %, f 7;
#X connect 0 0 7 0;
#X connect 3 0 5 0;
#X connect 5 0 11 0;
#X connect 5 0 14 1;
#X connect 5 0 12 0;
#X connect 6 0 2 0;
#X connect 7 0 8 0;
#X connect 8 0 9 0;
#X connect 9 0 10 0;
#X connect 9 0 8 1;
#X connect 10 0 19 0;
#X connect 11 0 8 1;
#X connect 12 0 13 0;
#X connect 13 0 16 1;
#X connect 13 0 19 1;
#X connect 14 0 18 0;
#X connect 14 1 15 0;
#X connect 15 0 16 0;
#X connect 15 1 17 1;
#X connect 16 0 17 0;
#X connect 17 0 18 0;
#X connect 18 0 6 0;
#X connect 19 0 14 0;
#X restore 189 189 pd arpUpDown;
#X f 5;
#X floatatom 102 98 5 0 0 0 - - -;
#X obj 95 127 sel 0 1 2 3, f 32;
#X obj 22 26 r \$0-arpType_snd, f 10;
#X connect 0 0 4 0;
#X connect 2 0 8 0;
#X connect 4 0 11 0;
#X connect 4 0 12 0;
#X connect 6 0 1 0;
#X connect 7 0 1 0;
#X connect 8 0 7 1;
#X connect 8 0 9 1;
#X connect 8 0 10 1;
#X connect 9 0 1 0;
#X connect 10 0 1 0;
#X connect 12 0 7 0;
#X connect 12 1 9 0;
#X connect 12 2 10 0;
#X connect 12 3 6 0;
#X connect 13 0 4 1;
#X restore 199 316 pd note_choices;
#X f 12;
#X obj 199 349 t f b, f 12;
#X obj 309 309 delay 250, f 10;
#X msg 309 289 stop;
#X obj 309 236 r \$0-on/off_snd, f 9;
#X obj 199 64 t f f, f 38;
#X obj 199 84 > 0;
#X obj 199 105 sel 1;
#X obj 199 382 pack, f 38;
#X obj 232 177 == 0;
#X obj 199 197 spigot;
#X obj 337 197 spigot;
#X obj 370 177 == 1;
#X text 302 89 external retrigger;
#X obj 258 129 r \$0-retriggerType_snd, f 12;
#X obj 199 246 t b b b, f 15;
#X connect 0 0 1 0;
#X connect 1 1 14 0;
#X connect 2 0 11 1;
#X connect 3 0 9 0;
#X connect 4 0 5 2;
#X connect 5 0 6 0;
#X connect 5 1 6 1;
#X connect 6 0 7 0;
#X connect 8 0 20 0;
#X connect 9 0 10 0;
#X connect 10 0 17 0;
#X connect 10 1 11 0;
#X connect 11 0 3 0;
#X connect 12 0 11 0;
#X connect 13 0 12 0;
#X connect 14 0 15 0;
#X connect 14 1 17 1;
#X connect 15 0 16 0;
#X connect 16 0 19 0;
#X connect 17 0 5 0;
#X connect 18 0 19 1;
#X connect 19 0 24 0;
#X connect 20 0 24 0;
#X connect 21 0 20 1;
#X connect 23 0 18 0;
#X connect 23 0 21 0;
#X connect 24 0 3 0;
#X connect 24 1 9 1;
#X connect 24 2 12 0;
#X restore 95 497 pd arpeggiator_logic;
#X f 26;
#X text 790 61 I've added the potential for notes to be randomlly transposed
by an octave aswell;
#X text 789 13 This patch uses "delay" to create a delay line;
#X obj 10 353 r \$0-on/off_snd, f 9;
#X obj 315 422 r \$0-on/off_snd, f 9;
#X text 268 127 External retrigger;
#X obj 539 155 inlet;
#X text 538 132 BPM;
#X obj 539 175 s \$0-bpm;
#X obj 622 254 r \$0-bpm;
#X obj 622 273 t b f, f 8;
#X msg 622 294 60000;
#X obj 622 315 / 1, f 8;
#X obj 607 370 *;
#X obj 527 300 expr pow(2 \, (-1 * $f1) ), f 13;
#X obj 527 259 r \$0-division_snd, f 11;
#X obj 631 370 r \$0-type_snd;
#X obj 607 434 f;
#X obj 607 455 * 1, f 9;
#X obj 631 410 t b f;
#N canvas 0 23 379 278 tuplet_logic 0;
#X obj 60 28 inlet;
#X obj 60 54 sel 0 1 2 3, f 36;
#X msg 60 75 1, f 2;
#X msg 106 75 2;
#X obj 106 98 / 3;
#X msg 164 75 4;
#X obj 164 98 / 5;
#X msg 216 75 8;
#X obj 216 98 / 7;
#X obj 124 175 outlet;
#X connect 0 0 1 0;
#X connect 1 0 2 0;
#X connect 1 1 3 0;
#X connect 1 2 5 0;
#X connect 1 3 7 0;
#X connect 2 0 9 0;
#X connect 3 0 4 0;
#X connect 4 0 9 0;
#X connect 5 0 6 0;
#X connect 6 0 9 0;
#X connect 7 0 8 0;
#X connect 8 0 9 0;
#X restore 631 390 pd tuplet_logic;
#X obj 13 47 tgl 10 1 \$0-retriggerType_snd \$0-retriggerType_rec ext_retrigger
0 17 0 10 -262144 -1 -1 1 1;
#X obj 70 407 int;
#X text 990 575 sjf \, SAE London \, 2020;
#X obj 792 155 inlet;
#X obj 792 175 s \$0-arpType_rec;
#X obj 595 155 inlet;
#X obj 706 155 inlet;
#X text 595 132 division;
#X obj 595 175 s \$0-division_rec;
#X text 701 132 type;
#X text 787 132 arpType;
#X obj 622 337 t b f, f 8;
#X obj 103 12 cnv 15 100 56 empty empty empty 20 12 0 14 -233017 -66577
0;
#X obj 110 28 vradio 10 1 1 4 \$0-division_snd \$0-division_rec division
0 -8 0 10 -262144 -1 -1 1;
#X text 120 25 1/4;
#X text 120 35 1/8;
#X text 120 46 1/16;
#X text 120 56 1/32;
#X obj 165 28 vradio 10 1 1 4 \$0-type_snd \$0-type_rec type 0 -8 0
10 -262144 -1 -1 0;
#X text 175 25 2s;
#X text 175 35 3s;
#X text 175 46 5s;
#X text 175 56 7s;
#X obj 209 28 vradio 10 1 1 4 \$0-arpType_snd \$0-arpType_rec arpType
0 -8 0 10 -262144 -1 -1 1;
#X text 221 25 Up;
#X text 221 35 Down;
#X text 221 56 Random;
#X text 221 46 Up/Down;
#X obj 706 175 s \$0-type_rec;
#X obj 440 155 inlet;
#X obj 440 175 s \$0-on/off_rec;
#X text 439 135 ON/OFF;
#N canvas 0 23 363 545 writeArpeggio 0;
#X obj 166 14 inlet;
#X obj 166 55 array sum \$0-notes_in_use, f 12;
#X obj 84 219 uzi_sjf 128;
#X obj 83 275 tabread \$0-notes_in_use, f 12;
#X obj 83 255 t f f, f 15;
#X obj 83 444 int, f 15;
#X obj 83 318 sel 1;
#X msg 83 339 1;
#X obj 83 360 + -1;
#X obj 83 381 int, f 4;
#X msg 183 339 -1, f 2;
#X obj 83 402 %, f 20;
#X obj 205 191 array define \$0-arpeggio;
#X msg 205 168 resize \$1;
#X obj 83 423 t b f, f 20;
#X obj 83 488 tabwrite \$0-arpeggio;
#X obj 83 466 pack, f 20;
#X obj 166 140 t b b f f;
#X obj 166 35 t b;
#X connect 0 0 18 0;
#X connect 1 0 17 0;
#X connect 2 2 4 0;
#X connect 3 0 6 0;
#X connect 4 0 3 0;
#X connect 4 1 5 1;
#X connect 5 0 16 0;
#X connect 6 0 7 0;
#X connect 7 0 8 0;
#X connect 8 0 9 0;
#X connect 9 0 8 1;
#X connect 9 0 11 0;
#X connect 10 0 8 1;
#X connect 11 0 14 0;
#X connect 13 0 12 0;
#X connect 14 0 5 0;
#X connect 14 1 16 1;
#X connect 16 0 15 0;
#X connect 17 0 2 0;
#X connect 17 1 10 0;
#X connect 17 2 11 1;
#X connect 17 3 13 0;
#X connect 18 0 1 0;
#X restore 141 363 pd writeArpeggio;
#X obj 141 305 t b l;
#X connect 0 0 8 0;
#X connect 3 0 5 2;
#X connect 3 0 13 0;
#X connect 5 0 6 0;
#X connect 6 0 7 0;
#X connect 6 1 23 0;
#X connect 7 0 1 0;
#X connect 7 1 2 0;
#X connect 8 0 45 0;
#X connect 8 1 5 1;
#X connect 8 1 14 0;
#X connect 13 0 15 0;
#X connect 14 0 16 0;
#X connect 15 0 16 1;
#X connect 16 0 17 0;
#X connect 17 0 77 0;
#X connect 19 0 20 0;
#X connect 20 0 23 1;
#X connect 23 0 7 0;
#X connect 26 0 45 1;
#X connect 27 0 20 1;
#X connect 29 0 31 0;
#X connect 32 0 33 0;
#X connect 33 0 34 0;
#X connect 33 1 35 1;
#X connect 34 0 35 0;
#X connect 35 0 55 0;
#X connect 36 0 40 0;
#X connect 37 0 36 0;
#X connect 38 0 37 0;
#X connect 39 0 43 0;
#X connect 40 0 41 0;
#X connect 41 0 11 0;
#X connect 42 0 40 0;
#X connect 42 1 41 1;
#X connect 43 0 42 0;
#X connect 45 0 5 0;
#X connect 47 0 48 0;
#X connect 49 0 52 0;
#X connect 50 0 72 0;
#X connect 55 0 36 0;
#X connect 55 1 36 1;
#X connect 73 0 74 0;
#X connect 77 0 76 0;
#X connect 77 1 18 0;
#X coords 0 -1 1 1 260 60 1 10 10;
