#N canvas 0 23 1170 751 10;
#X text 76 5 Firstly \, turn OFF "Edit Mode" (cmd+alt+e);
#X text 79 20 - if your mouse cursor is a hand it's in edit mode;
#X text 78 35 - if your mouse cursor is an arrow you're in performance/control
mode;
#X obj 121 286 bng 15 250 50 0 empty empty empty 17 7 0 10 -262144
-1 -1;
#X obj 121 306 t b b;
#X msg 121 338 2;
#X msg 171 338 1;
#X obj 121 360 print b;
#X obj 171 360 print;
#X obj 222 287 bng 15 250 50 0 empty empty empty 17 7 0 10 -262144
-1 -1;
#X obj 222 361 print b;
#X obj 272 361 print;
#X obj 222 307 trigger bang bang;
#X msg 272 339 first;
#X msg 222 339 second;
#X text 456 335 comment;
#X text 451 354 this is another comment;
#X floatatom 130 440 5 0 0 0 - - -;
#X obj 130 461 +;
#X floatatom 130 483 5 0 0 0 - - -;
#X floatatom 164 441 5 0 0 0 - - -;
#X floatatom 205 442 5 0 0 0 - - -;
#X floatatom 205 485 5 0 0 0 - - -;
#X obj 810 296 tgl 15 0 empty empty empty 17 7 0 10 -262144 -1 -1 0
1;
#X floatatom 810 316 5 0 0 0 - - -;
#X obj 849 297 tgl 15 0 empty empty empty 17 7 0 10 -262144 -1 -1 0
1;
#X floatatom 849 317 5 0 0 0 - - -;
#X obj 205 463 + 2;
#X floatatom 130 539 5 0 0 0 - - -;
#X floatatom 130 582 5 0 0 0 - - -;
#X floatatom 164 540 5 0 0 0 - - -;
#X floatatom 205 541 5 0 0 0 - - -;
#X floatatom 205 584 5 0 0 0 - - -;
#X obj 130 560 -;
#X obj 205 562 - 2;
#X floatatom 488 426 5 0 0 0 - - -;
#X floatatom 488 469 5 0 0 0 - - -;
#X floatatom 522 427 5 0 0 0 - - -;
#X floatatom 563 428 5 0 0 0 - - -;
#X floatatom 563 471 5 0 0 0 - - -;
#X obj 563 449 * 2;
#X obj 488 447 *;
#X floatatom 487 521 5 0 0 0 - - -;
#X floatatom 487 564 5 0 0 0 - - -;
#X floatatom 521 522 5 0 0 0 - - -;
#X floatatom 562 523 5 0 0 0 - - -;
#X floatatom 562 566 5 0 0 0 - - -;
#X obj 487 542 /;
#X obj 562 544 / 2;
#X floatatom 801 431 5 0 0 0 - - -;
#X floatatom 801 474 5 0 0 0 - - -;
#X floatatom 835 432 5 0 0 0 - - -;
#X floatatom 876 433 5 0 0 0 - - -;
#X floatatom 876 476 5 0 0 0 - - -;
#X obj 801 452 %;
#X obj 876 454 % 3;
#X obj 127 640 tgl 15 0 empty empty empty 17 7 0 10 -262144 -1 -1 0
1;
#X obj 127 660 metro 500;
#X obj 127 691 bng 15 250 50 0 empty empty empty 17 7 0 10 -262144
-1 -1;
#X obj 317 656 select 1 2 3;
#X floatatom 316 630 5 0 0 0 - - -;
#X obj 317 682 print 1;
#X obj 368 682 print 2;
#X obj 420 682 print 3;
#X obj 470 682 print other;
#X floatatom 545 634 5 0 0 0 - - -;
#X obj 546 655 sel 1 2 3;
#X text 34 464 add -->;
#X text 32 557 subtract -->;
#X text 387 445 multiply ->;
#X text 388 540 divide ->;
#X text 701 444 modulo ->;
#X text 56 287 bang -->;
#X text 46 306 trigger -->;
#X text 47 336 message -->;
#X text 47 361 print -->;
#X text 34 438 number -->;
#X text 739 294 toggle -->;
#X text 244 655 select -->;
#X text 55 658 metro -->;
#X text 450 371 ALWAYS LEAVE COMMENTS IN YOUR CODE!!!!!;
#X text 100 132 ANYTIME YOU COME ACROSS A NEW OBJECT YOU SHOULD GO
TO THE HELPFILE TO LEARN ABOUT IT!!!!;
#X text 79 120 This will bring up the helpfile for each object;
#X text 78 179 Try changing properties for every object to get an idea
of how you can change their appearance/functionality;
#X obj 546 682 print 1a;
#X obj 600 682 print 2b;
#X obj 654 682 print 3c;
#X obj 708 682 print other2;
#X text 78 68 1 - Play with each of these objects to get an idea of
their function;
#X text 79 107 2 - Right click each object and select "Help";
#X text 79 165 3 - Right click on each object and select "Properties"
;
#X text 79 221 4 - Experiment by connecting these objects to create
new patches (e.g. a simple calculator);
#N canvas 316 23 591 450 arguments 0;
#X obj 126 138 trigger bang bang;
#X obj 178 180 t b b;
#X text 10 20 Many objects accept arguments after the object name to
define the object's behavior or to initialize its value(s).;
#X text 12 75 For example in the trigger objects below the arguments
(everything after "trigger"/"t") determine how many outlets there are
\, and what type of data each outlet will output;
#X text 233 136 <---- 2 outlets \, a bang goes out each outlet;
#X floatatom 141 241 5 0 0 0 - - -;
#X obj 141 352 print 3rd;
#X obj 160 315 print 2nd;
#X obj 180 290 print 1st;
#X obj 141 264 t b f f;
#X text 179 239 <--- change me and then look at the PD window;
#X text 218 179 <---- 2 outlets \, a bang goes out each outlet (the
same as above but shorter and neater);
#X text 202 352 <--- this outlet will output a bang;
#X text 247 304 <--- these outlets will output a float (decimal number)
;
#X connect 5 0 9 0;
#X connect 9 0 6 0;
#X connect 9 1 7 0;
#X connect 9 2 8 0;
#X restore 669 53 pd arguments;
#X text 563 50 click me ------->;
#X text 867 733 sjf \, SAE London \, 2020;
#X text 809 671 route -->;
#X msg 864 616 1 54 cats;
#X msg 934 616 2 any list 1234;
#X obj 870 676 route 1 2;
#X obj 839 696 print outlet 1;
#X obj 930 696 print outlet 2;
#X obj 1020 696 print rejection outlet;
#X connect 3 0 4 0;
#X connect 4 0 5 0;
#X connect 4 1 6 0;
#X connect 5 0 7 0;
#X connect 6 0 8 0;
#X connect 9 0 12 0;
#X connect 12 0 13 0;
#X connect 12 1 14 0;
#X connect 13 0 11 0;
#X connect 14 0 10 0;
#X connect 17 0 18 0;
#X connect 18 0 19 0;
#X connect 20 0 18 1;
#X connect 21 0 27 0;
#X connect 23 0 24 0;
#X connect 25 0 26 0;
#X connect 27 0 22 0;
#X connect 28 0 33 0;
#X connect 30 0 33 1;
#X connect 31 0 34 0;
#X connect 33 0 29 0;
#X connect 34 0 32 0;
#X connect 35 0 41 0;
#X connect 37 0 41 1;
#X connect 38 0 40 0;
#X connect 40 0 39 0;
#X connect 41 0 36 0;
#X connect 42 0 47 0;
#X connect 44 0 47 1;
#X connect 45 0 48 0;
#X connect 47 0 43 0;
#X connect 48 0 46 0;
#X connect 49 0 54 0;
#X connect 51 0 54 1;
#X connect 52 0 55 0;
#X connect 54 0 50 0;
#X connect 55 0 53 0;
#X connect 56 0 57 0;
#X connect 57 0 58 0;
#X connect 59 0 61 0;
#X connect 59 1 62 0;
#X connect 59 2 63 0;
#X connect 59 3 64 0;
#X connect 60 0 59 0;
#X connect 65 0 66 0;
#X connect 66 0 84 0;
#X connect 66 1 85 0;
#X connect 66 2 86 0;
#X connect 66 3 87 0;
#X connect 96 0 98 0;
#X connect 97 0 98 0;
#X connect 98 0 99 0;
#X connect 98 1 100 0;
#X connect 98 2 101 0;
