#N canvas 36 25 924 818 10;
#X text 443 370 sjf \, SAE London \, 2023;
#X obj 96 651 vol2_sjf~;
#X obj 97 703 dac~;
#X obj 201 648 vol2_sjf~;
#X obj 194 286 vol_sjf~;
#X obj 443 235 reverbs/SATREV_sjf~;
#X obj 443 267 reverbs/JCREV_sjf~;
#X obj 602 48 reverbs/freeverb_sjf~;
#X text 264 21 These are examples of a schroeder style reverb \, based on combinations of comb filters and allpass filters connected in series/parallel, f 105;
#X obj 602 155 reverbs/JCREV2_sjf~;
#X obj 602 229 reverbs/SATREV2_sjf~;
#X obj 606 311 reverbs/fdn_sjf~;
#X obj 607 420 reverbs/fdn2_sjf~;
#X obj 78 286 vol_sjf~;
#X obj 194 324 reverbs/physicalModelRev_sjf~;
#X obj 84 88 sampleLooper_sjf~;
#X connect 1 0 2 0;
#X connect 1 1 2 1;
#X connect 3 0 1 0;
#X connect 3 1 1 1;
#X connect 4 0 14 0;
#X connect 13 0 1 0;
#X connect 13 0 1 1;
#X connect 14 0 3 0;
#X connect 14 1 3 1;
#X connect 15 0 13 0;
#X connect 15 0 4 0;
