#N canvas 613 58 413 318 10;
#X text 265 293 sjf \, SAE London 2020;
#X text 36 38 Firstly \, go to Media >> Audio Settings and ensure your
drivers are set correctly;
#X text 36 7 This example patch uses many of the concepts and techniques
we will cover in class;
#X msg 147 97 \; pd dsp \$1;
#X obj 147 78 tgl 15 0 empty empty dsp_ON/OFF 17 7 0 10 -262144 -1
-1 1 1;
#N canvas 0 403 1059 371 sequencers 0;
#X obj 130 4 inlet;
#X obj 363 10 loadbang;
#X obj 363 29 bng 15 250 50 0 empty empty empty 17 7 0 10 -262144 -1
-1;
#N canvas 0 23 219 209 tempoLogic 0;
#X obj 37 37 inlet;
#X obj 37 77 1over_sjf;
#X obj 37 98 * 60000;
#X obj 37 116 / 4;
#X obj 37 137 outlet;
#X msg 37 58 110;
#X connect 0 0 5 0;
#X connect 1 0 2 0;
#X connect 2 0 3 0;
#X connect 3 0 4 0;
#X connect 5 0 1 0;
#X restore 363 49 pd tempoLogic;
#X obj 135 316 outlet~;
#X text 102 339 phase ramp for mangler;
#X obj 178 29 bng 15 250 50 0 empty empty empty 17 7 0 10 -262144 -1
-1;
#X obj 178 49 s \$0-reset;
#X obj 253 23 r \$0-reset;
#X obj 130 78 conductor_sjf 136.3 16;
#X obj 265 316 outlet;
#X text 259 339 bass notes;
#X obj 360 316 outlet;
#X obj 130 181 t f f f f f, f 27;
#X obj 130 146 t f f, f 55;
#N canvas 0 23 450 300 mangler_Logic 0;
#X obj 37 37 inlet;
#X obj 117 209 phasor~ 1;
#X obj 38 79 sel 0;
#X msg 38 100 0;
#X obj 274 114 r \$0-manglerID;
#X obj 187 148 route 0 3;
#X msg 212 170 \; \$1-rand_rec bang;
#X msg 190 205 \; \$1-original_rec bang;
#X obj 188 118 pack;
#X obj 117 119 1over_sjf;
#X floatatom 117 140 5 0 0 0 - - -;
#X obj 117 98 / 1000;
#X obj 117 78 * 32;
#X obj 188 88 inlet;
#X text 227 88 bar in loop?;
#X obj 117 230 outlet~;
#X obj 117 57 r \$0-noteLength;
#X connect 0 0 2 0;
#X connect 1 0 15 0;
#X connect 2 0 3 0;
#X connect 3 0 1 1;
#X connect 4 0 8 1;
#X connect 5 0 7 0;
#X connect 5 1 6 0;
#X connect 8 0 5 0;
#X connect 9 0 10 0;
#X connect 10 0 1 0;
#X connect 11 0 9 0;
#X connect 12 0 11 0;
#X connect 13 0 8 0;
#X connect 16 0 12 0;
#X restore 135 296 pd mangler_Logic;
#X obj 130 25 t f b;
#N canvas 1081 316 339 140 drum_Logic 0;
#N canvas 0 23 584 763 drumMachine_sequencer 0;
#N canvas 661 404 993 473 bar_count_logic 0;
#X obj 192 207 pack;
#X obj 192 158 int;
#X obj 193 93 inlet;
#X obj 192 269 outlet;
#X obj 262 269 outlet;
#X obj 234 127 inlet;
#X obj 192 124 t b f;
#X obj 192 228 route 1 0, f 24;
#X connect 0 0 7 0;
#X connect 1 0 0 0;
#X connect 2 0 6 0;
#X connect 5 0 1 1;
#X connect 6 0 1 0;
#X connect 6 1 0 1;
#X connect 7 0 3 0;
#X connect 7 1 4 0;
#X restore 25 77 pd bar_count_logic;
#X f 16;
#X obj 229 157 drummachine_sjf;
#N canvas 0 23 486 361 funky_loader 0;
#X msg 50 124 0 0 \, 0 1 \, 0 2 \, 0 3 \, 60 4 \, 0 5 \, 0 6 \, 30
7 \, 0 8 \, 30 9 \, 0 10 \, 30 11 \, 60 12 \, 0 13 \, 0 14 \, 30 15
;
#X msg 27 61 100 0 \, 0 1 \, 40 2 \, 0 3 \, 0 4 \, 0 5 \, 30 6 \, 0
7 \, 0 8 \, 0 9 \, 30 10 \, 0 11 \, 0 12 \, 30 13 \, 0 14 \, 0 15;
#X msg 117 284 0 0 \, 0 1 \, 0 2 \, 0 3 \, 0 4 \, 0 5 \, 0 6 \, 30
7 \, 0 8 \, 0 9 \, 0 10 \, 0 11 \, 0 12 \, 30 13 \, 0 14 \, 0 15;
#X msg 80 195 100 0 \, 30 1 \, 40 2 \, 30 3 \, 60 4 \, 30 5 \, 40 6
\, 0 7 \, 60 8 \, 30 9 \, 40 10 \, 30 11 \, 60 12 \, 0 13 \, 40 14
\, 30 15;
#X obj 134 24 loadbang;
#X obj 27 93 outlet;
#X obj 50 156 outlet;
#X obj 80 227 outlet;
#X obj 117 316 outlet;
#X connect 0 0 6 0;
#X connect 1 0 5 0;
#X connect 2 0 8 0;
#X connect 3 0 7 0;
#X connect 4 0 1 0;
#X connect 4 0 0 0;
#X connect 4 0 3 0;
#X connect 4 0 2 0;
#X restore 295 126 pd funky_loader;
#N canvas 0 23 1034 626 Markov_Melody 0;
#X floatatom 444 203 5 0 0 0 - - -;
#X obj 441 269 t l l;
#X obj 317 186 bng 15 250 50 0 empty empty clear_list 17 7 0 10 -262144
-1 -1;
#X obj 148 356 list, f 5;
#X floatatom 492 204 5 0 0 0 - - -;
#X obj 525 270 t l l;
#X obj 259 356 list, f 5;
#X obj 102 98 t b b;
#X obj 450 179 int;
#X obj 498 181 int;
#X obj 196 158 bng 15 250 50 0 empty empty empty 17 7 0 10 -262144
-1 -1;
#X obj 102 381 markov_sjf pitch;
#X obj 204 382 markov_sjf velocity;
#X obj 102 403 outlet;
#X obj 204 403 outlet;
#X obj 451 133 inlet;
#X obj 102 73 inlet;
#X obj 196 98 inlet;
#X obj 341 109 inlet;
#X obj 67 98 bng 15 250 50 0 empty empty empty 17 7 0 10 -262144 -1
-1;
#X obj 97 463 list prepend set;
#X msg 98 506 36 0 36 0 38 0 36 38 0 38 36 38 38 36 0 38 36 0 36 0
38 0 36 38 0 38 36 38 38 36 0 38 36 0 36 0 38 0 36 38 0 38 36 38 38
36 0 38;
#X obj 473 454 list prepend set;
#X obj 473 481 route list;
#X msg 473 502 100 0 40 0 60 0 30 30 0 30 30 30 60 30 0 30 100 0 40
0 60 0 30 30 0 30 30 30 60 30 0 30 100 0 40 0 60 0 30 30 0 30 30 30
60 30 0 30;
#X obj 97 484 route list;
#X text 92 40 Bang to trigger random choice;
#X text 191 63 bang to send training;
#X text 196 80 data to markovs;
#X text 314 90 bang to clear everything;
#X text 438 111 midi notes in;
#X obj 196 119 t b b;
#X obj 450 158 unpack 0 0;
#X obj 441 238 list prepend;
#X obj 525 239 list prepend;
#X connect 0 0 33 0;
#X connect 1 0 3 1;
#X connect 1 1 33 1;
#X connect 2 0 6 1;
#X connect 2 0 3 1;
#X connect 2 0 33 1;
#X connect 2 0 34 1;
#X connect 2 0 11 2;
#X connect 2 0 12 2;
#X connect 3 0 20 0;
#X connect 3 0 11 1;
#X connect 4 0 34 0;
#X connect 5 0 6 1;
#X connect 5 1 34 1;
#X connect 6 0 22 0;
#X connect 6 0 12 1;
#X connect 7 0 11 0;
#X connect 7 1 12 0;
#X connect 8 0 0 0;
#X connect 9 0 4 0;
#X connect 10 0 3 0;
#X connect 10 0 6 0;
#X connect 11 0 13 0;
#X connect 12 0 14 0;
#X connect 15 0 32 0;
#X connect 16 0 7 0;
#X connect 16 0 19 0;
#X connect 17 0 31 0;
#X connect 18 0 2 0;
#X connect 20 0 25 0;
#X connect 22 0 23 0;
#X connect 23 0 24 0;
#X connect 25 0 21 0;
#X connect 31 1 10 0;
#X connect 32 0 8 0;
#X connect 32 1 9 0;
#X connect 33 0 1 0;
#X connect 34 0 5 0;
#X restore 47 492 pd Markov_Melody;
#N canvas 0 23 1034 626 Markov_Melody 0;
#X floatatom 444 203 5 0 0 0 - - -;
#X obj 441 269 t l l;
#X obj 317 186 bng 15 250 50 0 empty empty clear_list 17 7 0 10 -262144
-1 -1;
#X obj 148 356 list, f 5;
#X floatatom 492 204 5 0 0 0 - - -;
#X obj 525 270 t l l;
#X obj 259 356 list, f 5;
#X obj 102 98 t b b;
#X obj 450 179 int;
#X obj 498 181 int;
#X obj 196 158 bng 15 250 50 0 empty empty empty 17 7 0 10 -262144
-1 -1;
#X obj 102 381 markov_sjf pitch;
#X obj 204 382 markov_sjf velocity;
#X obj 102 403 outlet;
#X obj 204 403 outlet;
#X obj 451 133 inlet;
#X obj 102 73 inlet;
#X obj 196 98 inlet;
#X obj 341 109 inlet;
#X obj 67 98 bng 15 250 50 0 empty empty empty 17 7 0 10 -262144 -1
-1;
#X obj 97 463 list prepend set;
#X msg 98 506 42 42 42 42 42 42 42 46 42 42 42 42 42 46 42 42 42 42
42 42 42 42 42 46 42 42 42 42 42 46 42 42 42 42 42 42 42 42 42 46 42
42 42 42 42 46 42 42;
#X obj 473 454 list prepend set;
#X obj 473 481 route list;
#X msg 473 502 100 30 40 30 60 30 40 30 60 30 40 30 60 30 40 30 100
30 40 30 60 30 40 30 60 30 40 30 60 30 40 30 100 30 40 30 60 30 40
30 60 30 40 30 60 30 40 30;
#X obj 97 484 route list;
#X text 92 40 Bang to trigger random choice;
#X text 191 63 bang to send training;
#X text 196 80 data to markovs;
#X text 314 90 bang to clear everything;
#X text 438 111 midi notes in;
#X obj 196 119 t b b;
#X obj 450 158 unpack 0 0;
#X obj 441 238 list prepend;
#X obj 525 239 list prepend;
#X connect 0 0 33 0;
#X connect 1 0 3 1;
#X connect 1 1 33 1;
#X connect 2 0 6 1;
#X connect 2 0 3 1;
#X connect 2 0 33 1;
#X connect 2 0 34 1;
#X connect 2 0 11 2;
#X connect 2 0 12 2;
#X connect 3 0 20 0;
#X connect 3 0 11 1;
#X connect 4 0 34 0;
#X connect 5 0 6 1;
#X connect 5 1 34 1;
#X connect 6 0 22 0;
#X connect 6 0 12 1;
#X connect 7 0 11 0;
#X connect 7 1 12 0;
#X connect 8 0 0 0;
#X connect 9 0 4 0;
#X connect 10 0 3 0;
#X connect 10 0 6 0;
#X connect 11 0 13 0;
#X connect 12 0 14 0;
#X connect 15 0 32 0;
#X connect 16 0 7 0;
#X connect 16 0 19 0;
#X connect 17 0 31 0;
#X connect 18 0 2 0;
#X connect 20 0 25 0;
#X connect 22 0 23 0;
#X connect 23 0 24 0;
#X connect 25 0 21 0;
#X connect 31 1 10 0;
#X connect 32 0 8 0;
#X connect 32 1 9 0;
#X connect 33 0 1 0;
#X connect 34 0 5 0;
#X restore 176 488 pd Markov_Melody;
#X obj 229 392 t l l, f 35;
#X obj 47 513 pack, f 16;
#X obj 176 508 pack, f 16;
#X obj 214 130 t b f f;
#N canvas 0 23 969 535 pat_Logic 0;
#X obj 235 7 inlet;
#X obj 80 78 inlet;
#X obj 80 99 t b;
#X obj 146 139 t l l, f 30;
#X obj 146 160 expr if($f2<=0 \, 0 \, 1);
#X obj 146 181 pack 0 0 0, f 31;
#X obj 292 161 unpack;
#X obj 146 202 route 1;
#X obj 80 240 list, f 49;
#X obj 371 75 inlet;
#X text 312 57 bang at start;
#X text 61 57 bang at start;
#X obj 74 292 outlet;
#X obj 370 124 tabread \$0-breakBeat3_Vel;
#X msg 372 193 0 \$1;
#X obj 147 90 route 36 38;
#X msg 147 111 36 \$1;
#X msg 195 113 38 \$1;
#X obj 543 82 route 42 46;
#X msg 543 103 42 \$1;
#X msg 591 105 46 \$1;
#X obj 559 232 t l l, f 30;
#X obj 559 253 expr if($f2<=0 \, 0 \, 1);
#X obj 559 274 pack 0 0 0, f 31;
#X obj 705 254 unpack;
#X obj 559 295 route 1;
#X obj 202 379 list, f 49;
#X obj 196 431 outlet;
#X obj 650 455 bng 15 250 50 0 empty empty empty 17 7 0 10 -262144
-1 -1;
#N canvas 0 23 310 456 velocityPattern 0;
#X obj 40 10 inlet;
#X obj 39 35 uzi_sjf 16;
#X obj 92 71 t f f, f 22;
#X obj 107 233 % 4;
#X obj 107 254 sel 0;
#X obj 160 289 sel 0;
#X obj 160 268 % 2;
#X obj 92 92 sel 0;
#X msg 107 275 0.6;
#X msg 160 310 0.2;
#X msg 189 311 0.1;
#X obj 91 353 pack, f 21;
#X obj 91 374 outlet;
#X msg 92 113 0.95;
#X connect 0 0 1 0;
#X connect 1 2 2 0;
#X connect 2 0 7 0;
#X connect 2 1 11 1;
#X connect 3 0 4 0;
#X connect 4 0 8 0;
#X connect 4 1 6 0;
#X connect 5 0 9 0;
#X connect 5 1 10 0;
#X connect 6 0 5 0;
#X connect 7 0 13 0;
#X connect 7 1 3 0;
#X connect 8 0 11 0;
#X connect 9 0 11 0;
#X connect 10 0 11 0;
#X connect 11 0 12 0;
#X connect 13 0 11 0;
#X restore 650 475 pd velocityPattern;
#X obj 650 502 tabwrite \$0-breakBeat3_Vel;
#N canvas 0 22 450 278 (subpatch) 0;
#X array \$0-breakBeat3_Vel 16 float 3;
#A 0 0.95 0.1 0.2 0.1 0.6 0.1 0.2 0.1 0.6 0.1 0.2 0.1 0.6 0.1 0.2 0.1
;
#X coords 0 1 16 0 200 40 1 0 0;
#X restore 722 401 graph;
#X obj 645 434 loadbang;
#X connect 0 0 15 0;
#X connect 0 0 18 0;
#X connect 1 0 2 0;
#X connect 2 0 8 0;
#X connect 2 0 26 0;
#X connect 3 0 4 0;
#X connect 3 1 6 0;
#X connect 4 0 5 0;
#X connect 5 0 7 0;
#X connect 6 0 5 1;
#X connect 6 1 5 2;
#X connect 7 0 8 1;
#X connect 8 0 12 0;
#X connect 9 0 13 0;
#X connect 13 0 14 0;
#X connect 14 0 8 1;
#X connect 14 0 26 1;
#X connect 15 0 16 0;
#X connect 15 1 17 0;
#X connect 16 0 3 0;
#X connect 17 0 3 0;
#X connect 18 0 19 0;
#X connect 18 1 20 0;
#X connect 19 0 21 0;
#X connect 20 0 21 0;
#X connect 21 0 22 0;
#X connect 21 1 24 0;
#X connect 22 0 23 0;
#X connect 23 0 25 0;
#X connect 24 0 23 1;
#X connect 24 1 23 2;
#X connect 25 0 26 1;
#X connect 26 0 27 0;
#X connect 28 0 29 0;
#X connect 29 0 30 0;
#X connect 32 0 28 0;
#X restore 213 435 pd pat_Logic;
#X obj 57 438 t f f;
#X obj 253 588 outlet, f 9;
#X obj 148 437 t b b;
#X obj 106 436 t b b;
#X obj 51 45 inlet;
#X text 41 28 beat;
#X obj 147 27 inlet;
#X text 130 11 bang normal;
#X obj 231 28 inlet;
#X text 214 12 bang variation;
#X msg 118 49 0;
#X msg 170 48 1;
#X connect 0 0 10 0;
#X connect 0 1 8 0;
#X connect 1 0 5 0;
#X connect 2 0 1 1;
#X connect 2 1 1 2;
#X connect 2 2 1 3;
#X connect 2 3 1 4;
#X connect 3 0 6 0;
#X connect 3 1 6 1;
#X connect 4 0 7 0;
#X connect 4 1 7 1;
#X connect 5 0 9 1;
#X connect 5 1 11 0;
#X connect 6 0 11 0;
#X connect 7 0 11 0;
#X connect 8 0 9 0;
#X connect 8 1 1 0;
#X connect 8 2 9 2;
#X connect 9 0 3 3;
#X connect 9 1 4 3;
#X connect 10 0 3 0;
#X connect 10 1 4 0;
#X connect 12 0 3 2;
#X connect 12 1 4 2;
#X connect 13 0 3 1;
#X connect 13 1 4 1;
#X connect 14 0 0 0;
#X connect 16 0 12 0;
#X connect 16 0 20 0;
#X connect 18 0 13 0;
#X connect 18 0 21 0;
#X connect 20 0 0 1;
#X connect 21 0 0 1;
#X restore 52 56 pd drumMachine_sequencer;
#X obj 122 34 sel 0 3, f 24;
#X obj 52 77 outlet;
#X obj 52 12 inlet;
#X obj 122 10 inlet;
#X connect 0 0 2 0;
#X connect 1 0 0 1;
#X connect 1 1 0 2;
#X connect 3 0 0 0;
#X connect 4 0 1 0;
#X restore 360 296 pd drum_Logic;
#N canvas 0 23 450 300 bass_Logic 0;
#N canvas 0 23 836 654 bass_Sequencer 0;
#X obj 173 19 inlet;
#X obj 36 136 stpSeq16_sjf;
#X obj 36 471 t l l, f 54;
#N canvas 0 23 1034 626 Markov_Melody 0;
#X floatatom 444 203 5 0 0 0 - - -;
#X obj 441 269 t l l;
#X obj 317 186 bng 15 250 50 0 empty empty clear_list 17 7 0 10 -262144
-1 -1;
#X obj 148 356 list, f 5;
#X floatatom 492 204 5 0 0 0 - - -;
#X obj 525 270 t l l;
#X obj 259 356 list, f 5;
#X obj 102 98 t b b;
#X obj 450 179 int;
#X obj 498 181 int;
#X obj 196 158 bng 15 250 50 0 empty empty empty 17 7 0 10 -262144
-1 -1;
#X obj 102 381 markov_sjf pitch;
#X obj 204 382 markov_sjf velocity;
#X obj 102 403 outlet;
#X obj 204 403 outlet;
#X obj 451 133 inlet;
#X obj 102 73 inlet;
#X obj 196 98 inlet;
#X obj 341 109 inlet;
#X obj 67 98 bng 15 250 50 0 empty empty empty 17 7 0 10 -262144 -1
-1;
#X obj 97 463 list prepend set;
#X msg 98 506 36 36 36 39 36 36 36 44 36 38 36 36 36 36 35 36 36 36
36 39 36 36 36 44 36 38 36 36 36 36 35 36 36 36 36 39 36 36 36 44 36
38 36 36 36 36 35 36;
#X obj 473 454 list prepend set;
#X obj 473 481 route list;
#X msg 473 502 101 88 118 43 48 96 70 42 65 65 80 0 101 100 96 0 101
88 118 43 48 96 70 42 65 65 80 0 101 100 96 0 101 88 118 43 48 96 70
42 65 65 80 0 101 100 96 0;
#X obj 97 484 route list;
#X text 92 40 Bang to trigger random choice;
#X text 191 63 bang to send training;
#X text 196 80 data to markovs;
#X text 314 90 bang to clear everything;
#X text 438 111 midi notes in;
#X obj 196 119 t b b;
#X obj 450 158 unpack 0 0;
#X obj 441 238 list prepend;
#X obj 525 239 list prepend;
#X connect 0 0 33 0;
#X connect 1 0 3 1;
#X connect 1 1 33 1;
#X connect 2 0 6 1;
#X connect 2 0 3 1;
#X connect 2 0 33 1;
#X connect 2 0 34 1;
#X connect 2 0 11 2;
#X connect 2 0 12 2;
#X connect 3 0 20 0;
#X connect 3 0 11 1;
#X connect 4 0 34 0;
#X connect 5 0 6 1;
#X connect 5 1 34 1;
#X connect 6 0 22 0;
#X connect 6 0 12 1;
#X connect 7 0 11 0;
#X connect 7 1 12 0;
#X connect 8 0 0 0;
#X connect 9 0 4 0;
#X connect 10 0 3 0;
#X connect 10 0 6 0;
#X connect 11 0 13 0;
#X connect 12 0 14 0;
#X connect 15 0 32 0;
#X connect 16 0 7 0;
#X connect 16 0 19 0;
#X connect 17 0 31 0;
#X connect 18 0 2 0;
#X connect 20 0 25 0;
#X connect 22 0 23 0;
#X connect 23 0 24 0;
#X connect 25 0 21 0;
#X connect 31 1 10 0;
#X connect 32 0 8 0;
#X connect 32 1 9 0;
#X connect 33 0 1 0;
#X connect 34 0 5 0;
#X restore 397 513 pd Markov_Melody;
#N canvas 686 294 993 473 bar_count_logic 0;
#X obj 192 207 pack;
#X obj 192 228 route 0 1, f 24;
#X obj 192 158 int;
#X obj 193 93 inlet;
#X obj 192 269 outlet;
#X obj 262 269 outlet;
#X obj 285 127 inlet;
#X obj 192 124 t b f, f 11;
#X connect 0 0 1 0;
#X connect 1 0 4 0;
#X connect 1 1 5 0;
#X connect 2 0 0 0;
#X connect 3 0 7 0;
#X connect 6 0 2 1;
#X connect 7 0 2 0;
#X connect 7 1 0 1;
#X restore 153 67 pd bar_count_logic;
#X f 35;
#N canvas 705 151 523 306 loadBassLine 0;
#X msg 62 87 12 12 12 15 12 12 12 20 12 14 12 12 12 12 11 12;
#X msg 199 140 101 88 118 43 48 96 70 42 65 65 80 0 101 100 96 0;
#N canvas 0 23 450 300 itemize_list 0;
#X obj 86 23 inlet;
#X obj 71 211 outlet;
#X obj 88 77 list split 1;
#X obj 153 100 list, f 6;
#X obj 88 98 t b f b;
#X obj 207 138 counter_sjf;
#X obj 220 62 list length;
#X obj 86 44 t l l;
#X obj 220 83 t b l;
#X obj 71 189 pack;
#X connect 0 0 7 0;
#X connect 2 0 4 0;
#X connect 2 1 3 1;
#X connect 3 0 2 0;
#X connect 4 0 3 0;
#X connect 4 1 9 0;
#X connect 4 2 5 0;
#X connect 5 0 9 1;
#X connect 6 0 8 0;
#X connect 7 0 2 0;
#X connect 7 1 6 0;
#X connect 8 0 5 1;
#X connect 8 1 5 2;
#X connect 9 0 1 0;
#X restore 199 159 pd itemize_list;
#N canvas 0 23 450 300 itemize_list 0;
#X obj 86 23 inlet;
#X obj 71 211 outlet;
#X obj 88 77 list split 1;
#X obj 153 100 list, f 6;
#X obj 88 98 t b f b;
#X obj 207 138 counter_sjf;
#X obj 220 62 list length;
#X obj 86 44 t l l;
#X obj 220 83 t b l;
#X obj 71 189 pack;
#X connect 0 0 7 0;
#X connect 2 0 4 0;
#X connect 2 1 3 1;
#X connect 3 0 2 0;
#X connect 4 0 3 0;
#X connect 4 1 9 0;
#X connect 4 2 5 0;
#X connect 5 0 9 1;
#X connect 6 0 8 0;
#X connect 7 0 2 0;
#X connect 7 1 6 0;
#X connect 8 0 5 1;
#X connect 8 1 5 2;
#X connect 9 0 1 0;
#X restore 64 148 pd itemize_list;
#X obj 62 22 loadbang;
#X obj 64 169 outlet;
#X text 55 190 pitch;
#X obj 199 180 outlet;
#X text 193 200 velocity;
#X msg 417 73 2;
#X obj 417 94 outlet;
#X obj 216 25 inlet;
#X obj 216 46 sel 0 1;
#X msg 79 108 12 12 12 12 12 12 24 12 12 12 12 12 24 12 12 12;
#X connect 0 0 3 0;
#X connect 1 0 2 0;
#X connect 2 0 7 0;
#X connect 3 0 5 0;
#X connect 4 0 0 0;
#X connect 4 0 1 0;
#X connect 4 0 9 0;
#X connect 9 0 10 0;
#X connect 11 0 12 0;
#X connect 12 0 0 0;
#X connect 12 1 13 0;
#X connect 13 0 3 0;
#X restore 197 107 pd loadBassLine;
#X obj 396 538 pack;
#X obj 153 560 outlet, f 9;
#X obj 485 14 inlet;
#X text 468 -2 bang normal;
#X obj 569 15 inlet;
#X text 552 -1 bang variation;
#X msg 347 42 0;
#X msg 376 42 1;
#X obj 690 26 inlet;
#X obj 690 47 % 16;
#X obj 690 68 > 11;
#X connect 0 0 4 0;
#X connect 1 0 2 0;
#X connect 2 0 7 0;
#X connect 2 1 3 3;
#X connect 3 0 6 0;
#X connect 3 1 6 1;
#X connect 4 0 1 0;
#X connect 4 1 3 0;
#X connect 5 0 1 1;
#X connect 5 1 1 2;
#X connect 5 2 1 3;
#X connect 6 0 7 0;
#X connect 8 0 12 0;
#X connect 8 0 3 2;
#X connect 10 0 13 0;
#X connect 10 0 3 1;
#X connect 12 0 4 1;
#X connect 13 0 4 1;
#X connect 14 0 15 0;
#X connect 15 0 16 0;
#X connect 16 0 5 0;
#X restore 63 83 pd bass_Sequencer;
#X f 40;
#X obj 127 32 sel 0 3, f 24;
#X obj 63 119 outlet;
#X obj 63 32 inlet;
#X obj 128 14 inlet;
#X obj 300 55 inlet;
#X connect 0 0 2 0;
#X connect 1 0 0 1;
#X connect 1 1 0 2;
#X connect 3 0 0 0;
#X connect 4 0 1 0;
#X connect 5 0 0 3;
#X restore 265 296 pd bass_Logic;
#N canvas 0 23 348 265 bar_Count 0;
#X obj 135 57 sel 0;
#X obj 135 78 +;
#X obj 135 99 int;
#X obj 259 91 + 1;
#X floatatom 135 120 5 0 0 0 bar_count - -;
#X obj 104 151 % 4;
#X obj 136 35 inlet;
#X obj 104 172 outlet;
#X obj 193 166 outlet;
#X msg 187 54 0;
#X obj 187 33 r \$0-reset;
#X obj 259 61 inlet;
#X connect 0 0 1 0;
#X connect 1 0 2 0;
#X connect 2 0 3 0;
#X connect 2 0 4 0;
#X connect 3 0 1 1;
#X connect 4 0 5 0;
#X connect 4 0 8 0;
#X connect 5 0 7 0;
#X connect 6 0 0 0;
#X connect 9 0 1 1;
#X connect 10 0 9 0;
#X connect 11 0 3 0;
#X connect 11 0 2 0;
#X restore 362 173 pd bar_Count;
#X obj 374 71 s \$0-noteLength;
#X text 355 339 drum notes;
#X obj 461 296 sel 0;
#X obj 461 316 s \$0-start_of_4_bar;
#X obj 609 316 outlet;
#N canvas 0 23 500 570 noise_synth_Logic 0;
#X obj 195 114 stpseq16_sjf;
#N canvas 0 23 523 306 loadBassLine 0;
#X msg 62 87 12 12 12 15 12 12 12 20 12 14 12 12 12 12 11 12;
#X msg 199 140 101 88 118 43 48 96 70 42 65 65 80 0 101 100 96 0;
#N canvas 0 23 450 300 itemize_list 0;
#X obj 86 23 inlet;
#X obj 71 211 outlet;
#X obj 88 77 list split 1;
#X obj 153 100 list, f 6;
#X obj 88 98 t b f b;
#X obj 207 138 counter_sjf;
#X obj 220 62 list length;
#X obj 86 44 t l l;
#X obj 220 83 t b l;
#X obj 71 189 pack;
#X connect 0 0 7 0;
#X connect 2 0 4 0;
#X connect 2 1 3 1;
#X connect 3 0 2 0;
#X connect 4 0 3 0;
#X connect 4 1 9 0;
#X connect 4 2 5 0;
#X connect 5 0 9 1;
#X connect 6 0 8 0;
#X connect 7 0 2 0;
#X connect 7 1 6 0;
#X connect 8 0 5 1;
#X connect 8 1 5 2;
#X connect 9 0 1 0;
#X restore 199 159 pd itemize_list;
#N canvas 0 23 450 300 itemize_list 0;
#X obj 86 23 inlet;
#X obj 71 211 outlet;
#X obj 88 77 list split 1;
#X obj 153 100 list, f 6;
#X obj 88 98 t b f b;
#X obj 207 138 counter_sjf;
#X obj 220 62 list length;
#X obj 86 44 t l l;
#X obj 220 83 t b l;
#X obj 71 189 pack;
#X connect 0 0 7 0;
#X connect 2 0 4 0;
#X connect 2 1 3 1;
#X connect 3 0 2 0;
#X connect 4 0 3 0;
#X connect 4 1 9 0;
#X connect 4 2 5 0;
#X connect 5 0 9 1;
#X connect 6 0 8 0;
#X connect 7 0 2 0;
#X connect 7 1 6 0;
#X connect 8 0 5 1;
#X connect 8 1 5 2;
#X connect 9 0 1 0;
#X restore 64 148 pd itemize_list;
#X obj 97 45 loadbang;
#X obj 64 169 outlet;
#X text 55 190 pitch;
#X obj 199 180 outlet;
#X text 193 200 velocity;
#X msg 417 73 2;
#X obj 417 94 outlet;
#X connect 0 0 3 0;
#X connect 1 0 2 0;
#X connect 2 0 7 0;
#X connect 3 0 5 0;
#X connect 4 0 0 0;
#X connect 4 0 1 0;
#X connect 4 0 9 0;
#X connect 9 0 10 0;
#X restore 335 80 pd loadBassLine;
#N canvas 0 23 348 265 bar_Count 0;
#X obj 135 57 sel 0;
#X obj 135 78 +;
#X obj 135 99 int;
#X obj 175 83 + 1;
#X floatatom 135 120 5 0 0 0 bar_count - -;
#X obj 104 151 % 4;
#X obj 56 172 sel 0;
#X obj 56 193 s \$0-start_of_4_bar;
#X obj 136 35 inlet;
#X obj 104 172 outlet;
#X obj 193 166 outlet;
#X msg 187 54 0;
#X obj 187 33 r \$0-reset;
#X connect 0 0 1 0;
#X connect 1 0 2 0;
#X connect 2 0 3 0;
#X connect 2 0 4 0;
#X connect 3 0 1 1;
#X connect 4 0 5 0;
#X connect 4 0 10 0;
#X connect 5 0 6 0;
#X connect 5 0 9 0;
#X connect 6 0 7 0;
#X connect 8 0 0 0;
#X connect 11 0 1 1;
#X connect 12 0 11 0;
#X restore 125 73 pd bar_Count;
#X obj 71 29 % 2, f 13;
#X obj 71 52 t f f, f 7;
#X obj 71 73 sel 0;
#X obj 71 94 random 2;
#X obj 71 115 + 1;
#X obj 195 93 % 8;
#X obj 69 5 inlet;
#X obj 195 533 outlet;
#X connect 0 0 10 0;
#X connect 1 0 0 1;
#X connect 1 1 0 2;
#X connect 1 2 0 3;
#X connect 2 1 8 0;
#X connect 3 0 4 0;
#X connect 4 0 5 0;
#X connect 4 1 2 0;
#X connect 5 0 6 0;
#X connect 6 0 7 0;
#X connect 7 0 3 1;
#X connect 8 0 0 0;
#X connect 9 0 3 0;
#X restore 609 296 pd noise_synth_Logic;
#X obj 743 316 outlet;
#N canvas 0 23 500 570 pad_Logic 0;
#X obj 195 114 stpseq16_sjf;
#N canvas 0 23 523 306 loadBassLine 0;
#X msg 62 87 12 12 12 15 12 12 12 20 12 14 12 12 12 12 11 12;
#X msg 199 140 101 88 118 43 48 96 70 42 65 65 80 0 101 100 96 0;
#N canvas 0 23 450 300 itemize_list 0;
#X obj 86 23 inlet;
#X obj 71 211 outlet;
#X obj 88 77 list split 1;
#X obj 153 100 list, f 6;
#X obj 88 98 t b f b;
#X obj 207 138 counter_sjf;
#X obj 220 62 list length;
#X obj 86 44 t l l;
#X obj 220 83 t b l;
#X obj 71 189 pack;
#X connect 0 0 7 0;
#X connect 2 0 4 0;
#X connect 2 1 3 1;
#X connect 3 0 2 0;
#X connect 4 0 3 0;
#X connect 4 1 9 0;
#X connect 4 2 5 0;
#X connect 5 0 9 1;
#X connect 6 0 8 0;
#X connect 7 0 2 0;
#X connect 7 1 6 0;
#X connect 8 0 5 1;
#X connect 8 1 5 2;
#X connect 9 0 1 0;
#X restore 199 159 pd itemize_list;
#N canvas 0 23 450 300 itemize_list 0;
#X obj 86 23 inlet;
#X obj 71 211 outlet;
#X obj 88 77 list split 1;
#X obj 153 100 list, f 6;
#X obj 88 98 t b f b;
#X obj 207 138 counter_sjf;
#X obj 220 62 list length;
#X obj 86 44 t l l;
#X obj 220 83 t b l;
#X obj 71 189 pack;
#X connect 0 0 7 0;
#X connect 2 0 4 0;
#X connect 2 1 3 1;
#X connect 3 0 2 0;
#X connect 4 0 3 0;
#X connect 4 1 9 0;
#X connect 4 2 5 0;
#X connect 5 0 9 1;
#X connect 6 0 8 0;
#X connect 7 0 2 0;
#X connect 7 1 6 0;
#X connect 8 0 5 1;
#X connect 8 1 5 2;
#X connect 9 0 1 0;
#X restore 64 148 pd itemize_list;
#X obj 97 45 loadbang;
#X obj 64 169 outlet;
#X text 55 190 pitch;
#X obj 199 180 outlet;
#X text 193 200 velocity;
#X msg 417 73 2;
#X obj 417 94 outlet;
#X connect 0 0 3 0;
#X connect 1 0 2 0;
#X connect 2 0 7 0;
#X connect 3 0 5 0;
#X connect 4 0 0 0;
#X connect 4 0 1 0;
#X connect 4 0 9 0;
#X connect 9 0 10 0;
#X restore 335 80 pd loadBassLine;
#N canvas 0 23 348 265 bar_Count 0;
#X obj 135 57 sel 0;
#X obj 135 78 +;
#X obj 135 99 int;
#X obj 175 83 + 1;
#X floatatom 135 120 5 0 0 0 bar_count - -;
#X obj 104 151 % 4;
#X obj 56 172 sel 0;
#X obj 56 193 s \$0-start_of_4_bar;
#X obj 136 35 inlet;
#X obj 104 172 outlet;
#X obj 193 166 outlet;
#X msg 187 54 0;
#X obj 187 33 r \$0-reset;
#X connect 0 0 1 0;
#X connect 1 0 2 0;
#X connect 2 0 3 0;
#X connect 2 0 4 0;
#X connect 3 0 1 1;
#X connect 4 0 5 0;
#X connect 4 0 10 0;
#X connect 5 0 6 0;
#X connect 5 0 9 0;
#X connect 6 0 7 0;
#X connect 8 0 0 0;
#X connect 11 0 1 1;
#X connect 12 0 11 0;
#X restore 125 73 pd bar_Count;
#X obj 71 52 t f f, f 7;
#X obj 71 73 sel 0;
#X obj 195 93 % 8;
#X obj 69 5 inlet;
#X obj 195 533 outlet;
#X obj 71 30 % 2, f 13;
#X connect 0 0 7 0;
#X connect 1 0 0 1;
#X connect 1 1 0 2;
#X connect 1 2 0 3;
#X connect 2 1 5 0;
#X connect 3 0 4 0;
#X connect 3 1 2 0;
#X connect 5 0 0 0;
#X connect 6 0 8 0;
#X connect 8 0 3 0;
#X restore 743 296 pd pad_Logic;
#X obj 529 157 s \$0-current_bar;
#X obj 65 285 outlet;
#X obj 26 4 r \$0-current_bar;
#X obj 58 225 r \$0-reset;
#X msg 58 246 0;
#X obj 529 114 r \$0-reset;
#X msg 529 135 0;
#X obj 25 44 sel 1;
#X msg 25 65 0;
#X floatatom 738 176 5 0 0 0 - - -;
#X msg 431 197 set \$1;
#X obj 941 316 outlet;
#X obj 737 151 t f b, f 12;
#X msg 807 173 1;
#N canvas 0 23 500 570 karplus_Logic 0;
#X obj 90 90 stpseq16_sjf;
#N canvas 0 23 523 306 loadBassLine 0;
#X msg 62 87 12 12 12 15 12 12 12 20 12 14 12 12 12 12 11 12;
#X msg 199 140 101 88 118 43 48 96 70 42 65 65 80 0 101 100 96 0;
#N canvas 0 23 450 300 itemize_list 0;
#X obj 86 23 inlet;
#X obj 71 211 outlet;
#X obj 88 77 list split 1;
#X obj 153 100 list, f 6;
#X obj 88 98 t b f b;
#X obj 207 138 counter_sjf;
#X obj 220 62 list length;
#X obj 86 44 t l l;
#X obj 220 83 t b l;
#X obj 71 189 pack;
#X connect 0 0 7 0;
#X connect 2 0 4 0;
#X connect 2 1 3 1;
#X connect 3 0 2 0;
#X connect 4 0 3 0;
#X connect 4 1 9 0;
#X connect 4 2 5 0;
#X connect 5 0 9 1;
#X connect 6 0 8 0;
#X connect 7 0 2 0;
#X connect 7 1 6 0;
#X connect 8 0 5 1;
#X connect 8 1 5 2;
#X connect 9 0 1 0;
#X restore 199 159 pd itemize_list;
#N canvas 0 23 450 300 itemize_list 0;
#X obj 86 23 inlet;
#X obj 71 211 outlet;
#X obj 88 77 list split 1;
#X obj 153 100 list, f 6;
#X obj 88 98 t b f b;
#X obj 207 138 counter_sjf;
#X obj 220 62 list length;
#X obj 86 44 t l l;
#X obj 220 83 t b l;
#X obj 71 189 pack;
#X connect 0 0 7 0;
#X connect 2 0 4 0;
#X connect 2 1 3 1;
#X connect 3 0 2 0;
#X connect 4 0 3 0;
#X connect 4 1 9 0;
#X connect 4 2 5 0;
#X connect 5 0 9 1;
#X connect 6 0 8 0;
#X connect 7 0 2 0;
#X connect 7 1 6 0;
#X connect 8 0 5 1;
#X connect 8 1 5 2;
#X connect 9 0 1 0;
#X restore 64 148 pd itemize_list;
#X obj 97 45 loadbang;
#X obj 64 169 outlet;
#X text 55 190 pitch;
#X obj 199 180 outlet;
#X text 193 200 velocity;
#X msg 417 73 2;
#X obj 417 94 outlet;
#X connect 0 0 3 0;
#X connect 1 0 2 0;
#X connect 2 0 7 0;
#X connect 3 0 5 0;
#X connect 4 0 0 0;
#X connect 4 0 1 0;
#X connect 4 0 9 0;
#X connect 9 0 10 0;
#X restore 230 56 pd loadBassLine;
#X obj 90 9 inlet;
#X obj 90 425 outlet;
#X obj 90 39 % 8;
#X obj 90 60 + 2;
#X connect 0 0 3 0;
#X connect 1 0 0 1;
#X connect 1 1 0 2;
#X connect 1 2 0 3;
#X connect 2 0 4 0;
#X connect 4 0 5 0;
#X connect 5 0 0 0;
#X restore 941 296 pd karplus_Logic;
#X obj 736 79 sel 128;
#X msg 737 130 116;
#X obj 25 23 > 128;
#X obj 840 316 outlet;
#N canvas 1216 83 602 717 gran_Logic 0;
#X obj 126 204 stpseq16_sjf;
#N canvas 0 23 523 306 loadBassLine 0;
#X msg 62 87 12 12 12 15 12 12 12 20 12 14 12 12 12 12 11 12;
#X msg 199 140 101 88 118 43 48 96 70 42 65 65 80 0 101 100 96 0;
#N canvas 0 23 450 300 itemize_list 0;
#X obj 86 23 inlet;
#X obj 71 211 outlet;
#X obj 88 77 list split 1;
#X obj 153 100 list, f 6;
#X obj 88 98 t b f b;
#X obj 207 138 counter_sjf;
#X obj 220 62 list length;
#X obj 86 44 t l l;
#X obj 220 83 t b l;
#X obj 71 189 pack;
#X connect 0 0 7 0;
#X connect 2 0 4 0;
#X connect 2 1 3 1;
#X connect 3 0 2 0;
#X connect 4 0 3 0;
#X connect 4 1 9 0;
#X connect 4 2 5 0;
#X connect 5 0 9 1;
#X connect 6 0 8 0;
#X connect 7 0 2 0;
#X connect 7 1 6 0;
#X connect 8 0 5 1;
#X connect 8 1 5 2;
#X connect 9 0 1 0;
#X restore 199 159 pd itemize_list;
#N canvas 0 23 450 300 itemize_list 0;
#X obj 86 23 inlet;
#X obj 71 211 outlet;
#X obj 88 77 list split 1;
#X obj 153 100 list, f 6;
#X obj 88 98 t b f b;
#X obj 207 138 counter_sjf;
#X obj 220 62 list length;
#X obj 86 44 t l l;
#X obj 220 83 t b l;
#X obj 71 189 pack;
#X connect 0 0 7 0;
#X connect 2 0 4 0;
#X connect 2 1 3 1;
#X connect 3 0 2 0;
#X connect 4 0 3 0;
#X connect 4 1 9 0;
#X connect 4 2 5 0;
#X connect 5 0 9 1;
#X connect 6 0 8 0;
#X connect 7 0 2 0;
#X connect 7 1 6 0;
#X connect 8 0 5 1;
#X connect 8 1 5 2;
#X connect 9 0 1 0;
#X restore 64 148 pd itemize_list;
#X obj 97 45 loadbang;
#X obj 64 169 outlet;
#X text 55 190 pitch;
#X obj 199 180 outlet;
#X text 193 200 velocity;
#X msg 417 73 2;
#X obj 417 94 outlet;
#X connect 0 0 3 0;
#X connect 1 0 2 0;
#X connect 2 0 7 0;
#X connect 3 0 5 0;
#X connect 4 0 0 0;
#X connect 4 0 1 0;
#X connect 4 0 9 0;
#X connect 9 0 10 0;
#X restore 266 170 pd loadBassLine;
#X obj 92 2 inlet;
#X obj 163 696 outlet;
#X obj 112 164 + 2;
#N canvas 0 23 348 265 half_time 0;
#X obj 129 68 sel 0;
#X obj 129 89 +;
#X obj 129 110 int;
#X floatatom 129 131 5 0 0 0 bar_count - -;
#X obj 128 10 inlet;
#X obj 98 183 outlet;
#X msg 181 65 0;
#X obj 181 44 r \$0-reset;
#X obj 155 160 bng 15 250 50 0 empty empty empty 17 7 0 10 -262144
-1 -1;
#X obj 162 98 + 1;
#X obj 128 31 % 4;
#X connect 0 0 1 0;
#X connect 1 0 2 0;
#X connect 2 0 3 0;
#X connect 2 0 9 0;
#X connect 3 0 5 0;
#X connect 3 0 8 0;
#X connect 4 0 10 0;
#X connect 6 0 1 1;
#X connect 7 0 6 0;
#X connect 9 0 1 1;
#X connect 10 0 0 0;
#X restore 89 45 pd half_time;
#X obj 465 87 t b f;
#X msg 487 109 \$1-pitch;
#X obj 163 640 pack;
#X obj 126 539 unpack;
#X obj 112 606 route 1;
#X msg 112 588 \$2 \$1;
#X obj 113 569 pack;
#X obj 218 594 route 1;
#X msg 218 576 \$2 \$1;
#X obj 219 557 pack;
#X obj 145 564 == 0;
#X obj 259 556 == 1;
#X obj 124 140 t f f b;
#X obj 149 165 + 2;
#X obj 240 96 sel 0;
#X obj 244 119 tgl 15 0 empty empty empty 17 7 0 10 -262144 -1 -1 0
1;
#X obj 163 670 t l l, f 6;
#X floatatom 57 115 5 0 0 0 - - -;
#X obj 89 68 % 10;
#X obj 339 143 serialiser_sjf;
#X obj 468 37 bng 15 250 50 0 empty empty empty 17 7 0 10 -262144 -1
-1;
#X connect 0 0 9 0;
#X connect 0 1 6 0;
#X connect 1 0 0 1;
#X connect 1 1 0 2;
#X connect 1 2 0 3;
#X connect 2 0 5 0;
#X connect 4 0 25 0;
#X connect 5 0 24 0;
#X connect 6 0 25 1;
#X connect 6 1 7 0;
#X connect 7 0 25 1;
#X connect 8 0 22 0;
#X connect 9 0 12 0;
#X connect 9 1 8 1;
#X connect 10 0 8 0;
#X connect 11 0 10 0;
#X connect 12 0 11 0;
#X connect 13 0 8 0;
#X connect 14 0 13 0;
#X connect 15 0 14 0;
#X connect 16 0 12 1;
#X connect 17 0 15 1;
#X connect 18 0 4 0;
#X connect 18 1 19 0;
#X connect 19 0 0 0;
#X connect 20 0 21 0;
#X connect 21 0 16 0;
#X connect 21 0 17 0;
#X connect 22 0 3 0;
#X connect 24 0 18 0;
#X connect 24 0 20 0;
#X connect 24 0 23 0;
#X connect 25 1 15 0;
#X connect 26 0 6 0;
#X restore 840 296 pd gran_Logic;
#X msg 777 130 40;
#X obj 396 31 s \$0-reset;
#X msg 812 126 100;
#X connect 0 0 16 0;
#X connect 1 0 2 0;
#X connect 1 0 49 0;
#X connect 2 0 3 0;
#X connect 3 0 9 1;
#X connect 3 0 20 0;
#X connect 6 0 7 0;
#X connect 8 0 9 3;
#X connect 9 0 14 0;
#X connect 13 0 15 0;
#X connect 13 1 18 0;
#X connect 13 2 17 0;
#X connect 13 3 42 0;
#X connect 13 4 47 0;
#X connect 14 0 13 0;
#X connect 14 1 19 0;
#X connect 15 0 4 0;
#X connect 16 0 9 0;
#X connect 16 1 9 3;
#X connect 16 1 6 0;
#X connect 17 0 12 0;
#X connect 18 0 10 0;
#X connect 19 0 15 1;
#X connect 19 0 18 1;
#X connect 19 0 17 1;
#X connect 19 0 22 0;
#X connect 19 1 25 0;
#X connect 19 1 28 0;
#X connect 19 1 29 0;
#X connect 19 1 18 2;
#X connect 19 1 38 0;
#X connect 19 1 27 0;
#X connect 19 1 43 0;
#X connect 22 0 23 0;
#X connect 25 0 24 0;
#X connect 27 0 26 0;
#X connect 30 0 45 0;
#X connect 31 0 32 0;
#X connect 32 0 29 0;
#X connect 33 0 34 0;
#X connect 34 0 28 0;
#X connect 35 0 36 0;
#X connect 36 0 9 0;
#X connect 37 0 19 1;
#X connect 38 0 37 0;
#X connect 40 0 37 0;
#X connect 40 1 41 0;
#X connect 41 0 9 0;
#X connect 42 0 39 0;
#X connect 44 0 40 0;
#X connect 45 0 35 0;
#X connect 47 0 46 0;
#X connect 48 0 40 0;
#X connect 50 0 40 0;
#X restore 147 164 pd sequencers;
#X f 16;
#N canvas 335 273 945 345 synths_etc 0;
#N canvas 0 23 634 542 bass1 0;
#X obj 197 283 fmSyn1_sjf~;
#N canvas 505 520 989 470 synth_load_logic 0;
#X obj 410 305 loadbang;
#X msg 137 348 100 50 0 400;
#X msg 250 349 2;
#X msg 453 357 2;
#X msg 485 357 5;
#X msg 663 352 0;
#X msg 730 353 0.4;
#X msg 576 354 1 50 0.3 100;
#X msg 218 349 2.1;
#X obj 137 369 outlet;
#X obj 206 381 outlet;
#X obj 250 370 outlet;
#X obj 372 377 outlet;
#X obj 428 382 outlet;
#X obj 485 378 outlet;
#X obj 576 375 outlet;
#X obj 663 373 outlet;
#X obj 730 374 outlet;
#X obj 170 139 random 10000;
#X obj 170 160 / 10000;
#X obj 170 250 line;
#X msg 170 229 \$1 10000;
#X obj 340 80 inlet;
#X obj 493 176 random 10000;
#X obj 493 197 / 10000;
#X obj 493 287 line;
#X msg 493 266 \$1 10000;
#X obj 493 240 + 4;
#X obj 493 219 * 3;
#X obj 170 203 + 1;
#X obj 170 182 * 3;
#X msg 359 347 1 200 0.1 0;
#X connect 0 0 1 0;
#X connect 0 0 8 0;
#X connect 0 0 2 0;
#X connect 0 0 3 0;
#X connect 0 0 4 0;
#X connect 0 0 7 0;
#X connect 0 0 5 0;
#X connect 0 0 6 0;
#X connect 0 0 31 0;
#X connect 1 0 9 0;
#X connect 2 0 11 0;
#X connect 3 0 13 0;
#X connect 4 0 14 0;
#X connect 5 0 16 0;
#X connect 6 0 17 0;
#X connect 7 0 15 0;
#X connect 8 0 10 0;
#X connect 18 0 19 0;
#X connect 19 0 30 0;
#X connect 20 0 11 0;
#X connect 21 0 20 0;
#X connect 22 0 18 0;
#X connect 22 0 23 0;
#X connect 23 0 24 0;
#X connect 24 0 28 0;
#X connect 25 0 14 0;
#X connect 26 0 25 0;
#X connect 27 0 26 0;
#X connect 28 0 27 0;
#X connect 29 0 21 0;
#X connect 30 0 29 0;
#X connect 31 0 12 0;
#X restore 330 57 pd synth_load_logic;
#X f 40;
#X obj 330 36 r \$0-start_of_4_bar;
#X obj 182 67 unpack;
#X obj 182 38 inlet;
#X obj 197 388 outlet~;
#N canvas 0 23 450 300 onoffLogic 0;
#X obj 302 19 inlet;
#X obj 47 47 inlet;
#X obj 190 162 int;
#X obj 190 205 route 1;
#X obj 190 252 outlet;
#X obj 190 183 pack, f 9;
#X obj 216 116 t b f;
#X connect 0 0 6 0;
#X connect 1 0 2 1;
#X connect 2 0 5 0;
#X connect 3 0 4 0;
#X connect 5 0 3 0;
#X connect 6 0 2 0;
#X connect 6 1 5 1;
#X restore 98 117 pd onoffLogic;
#X f 10;
#X obj 23 46 inlet;
#X obj 23 67 tabread \$0-bass_sequence;
#X obj 100 171 makenote 100 250;
#X obj 209 172 r \$0-noteLength;
#N canvas 0 23 450 300 dspLogic 0;
#X obj 37 37 inlet;
#X obj 101 114 + 1;
#X obj 137 133 - 1;
#X obj 36 58 t f f f, f 18;
#X obj 105 177 +;
#X obj 105 221 pack;
#X msg 105 242 \; \$2-dsp_rec \$1;
#X obj 105 198 > 0;
#X obj 101 135 % 128;
#X obj 143 220 r \$0-bassID;
#X obj 138 175 tabread \$0-bass_sequence;
#X obj 105 156 tabread \$0-bass_sequence;
#X connect 0 0 3 0;
#X connect 1 0 8 0;
#X connect 2 0 10 0;
#X connect 3 1 1 0;
#X connect 3 2 2 0;
#X connect 4 0 7 0;
#X connect 5 0 6 0;
#X connect 7 0 5 0;
#X connect 8 0 11 0;
#X connect 9 0 5 1;
#X connect 10 0 4 1;
#X connect 11 0 4 0;
#X restore 71 37 pd dspLogic;
#X obj 498 403 s \$0-bassID;
#X connect 0 0 5 0;
#X connect 0 1 12 0;
#X connect 1 0 0 2;
#X connect 1 1 0 3;
#X connect 1 2 0 4;
#X connect 1 3 0 5;
#X connect 1 4 0 6;
#X connect 1 5 0 7;
#X connect 1 6 0 8;
#X connect 1 7 0 9;
#X connect 1 8 0 10;
#X connect 2 0 1 0;
#X connect 3 0 6 1;
#X connect 3 1 9 1;
#X connect 4 0 3 0;
#X connect 6 0 9 0;
#X connect 7 0 8 0;
#X connect 7 0 11 0;
#X connect 8 0 6 0;
#X connect 9 0 0 0;
#X connect 9 1 0 1;
#X connect 10 0 9 2;
#X restore 173 233 pd bass1;
#X obj 330 33 inlet;
#X obj 235 33 inlet~;
#N canvas 55 23 1156 560 mangler 0;
#X obj 118 136 inlet~;
#X obj 118 197 mangler_sjf~;
#X obj 1013 482 s \$0-manglerID;
#X obj 118 462 outlet~;
#X obj 10 24 inlet;
#X obj 352 18 r \$0-manglerID;
#X msg 393 153 \; \$1-on/off_rec 0;
#X obj 214 29 * 10;
#X obj 167 136 pack;
#X msg 167 158 \; \$2-randPow_rec \$1;
#X obj 204 79 tabread \$0-mangvars;
#X obj 204 100 * 100;
#X floatatom 242 51 5 0 0 0 - - -;
#N canvas 0 23 450 300 dspLogic 0;
#X obj 37 37 inlet;
#X obj 101 114 + 1;
#X obj 209 91 - 1;
#X obj 36 58 t f f f, f 18;
#X obj 105 177 +;
#X obj 105 221 pack;
#X msg 105 242 \; \$2-dsp_rec \$1;
#X obj 105 198 > 0;
#X obj 101 135 % 128;
#X obj 143 220 r \$0-manglerID;
#X obj 138 176 tabread \$0-mangler_sequence;
#X obj 105 156 tabread \$0-mangler_sequence;
#X connect 0 0 3 0;
#X connect 1 0 8 0;
#X connect 3 1 1 0;
#X connect 3 2 2 0;
#X connect 3 2 10 0;
#X connect 4 0 7 0;
#X connect 5 0 6 0;
#X connect 7 0 5 0;
#X connect 8 0 11 0;
#X connect 9 0 5 1;
#X connect 10 0 4 1;
#X connect 11 0 4 0;
#X restore 10 55 pd dspLogic;
#X connect 0 0 1 0;
#X connect 1 0 3 0;
#X connect 1 1 2 0;
#X connect 4 0 7 0;
#X connect 4 0 13 0;
#X connect 5 0 6 0;
#X connect 5 0 8 1;
#X connect 7 0 10 0;
#X connect 7 0 12 0;
#X connect 8 0 9 0;
#X connect 10 0 11 0;
#X connect 11 0 8 0;
#X restore 40 233 pd mangler;
#X obj 382 33 inlet;
#N canvas 0 23 827 493 drumSynth 0;
#X obj 222 58 inlet;
#X obj 43 260 kick_sjf~;
#X obj 243 256 snr_sjf~;
#X obj 505 256 hh_sjf~;
#X obj 222 86 route 36 38 42 46, f 90;
#X obj 43 335 outlet~;
#X obj 243 331 outlet~;
#X obj 505 331 outlet~;
#X msg 127 362 \; \$1-clickf_rec 20000;
#X msg 158 396 \; \$1-tonef_rec 100;
#X msg 176 421 \; \$1-length_rec 50;
#N canvas 0 23 450 300 onoffLogic 0;
#X obj 302 19 inlet;
#X obj 47 47 inlet;
#X obj 190 162 int;
#X obj 190 205 route 1;
#X obj 190 252 outlet;
#X obj 190 183 pack, f 9;
#X obj 216 116 t b f;
#X connect 0 0 6 0;
#X connect 1 0 2 1;
#X connect 2 0 5 0;
#X connect 3 0 4 0;
#X connect 5 0 3 0;
#X connect 6 0 2 0;
#X connect 6 1 5 1;
#X restore 43 224 pd onoffLogic;
#X f 10;
#X obj 88 92 inlet;
#X obj 43 169 tabread \$0-kick_sequence, f 8;
#X obj 318 167 tabread \$0-snare_sequence, f 9;
#N canvas 0 23 450 300 onoffLogic 0;
#X obj 302 19 inlet;
#X obj 47 47 inlet;
#X obj 190 162 int;
#X obj 190 205 route 1;
#X obj 190 252 outlet;
#X obj 190 183 pack, f 9;
#X obj 216 116 t b f;
#X connect 0 0 6 0;
#X connect 1 0 2 1;
#X connect 2 0 5 0;
#X connect 3 0 4 0;
#X connect 5 0 3 0;
#X connect 6 0 2 0;
#X connect 6 1 5 1;
#X restore 347 216 pd onoffLogic;
#X f 10;
#X obj 435 161 tabread \$0-hihat_sequence, f 9;
#N canvas 0 23 450 300 onoffLogic 0;
#X obj 302 19 inlet;
#X obj 47 47 inlet;
#X obj 190 162 int;
#X obj 190 205 route 1;
#X obj 190 252 outlet;
#X obj 190 183 pack, f 9;
#X obj 216 116 t b f;
#X connect 0 0 6 0;
#X connect 1 0 2 1;
#X connect 2 0 5 0;
#X connect 3 0 4 0;
#X connect 5 0 3 0;
#X connect 6 0 2 0;
#X connect 6 1 5 1;
#X restore 496 210 pd onoffLogic;
#X f 10;
#N canvas 0 23 450 300 onoffLogic 0;
#X obj 302 19 inlet;
#X obj 47 47 inlet;
#X obj 190 162 int;
#X obj 190 205 route 1;
#X obj 190 252 outlet;
#X obj 190 183 pack, f 9;
#X obj 216 116 t b f;
#X connect 0 0 6 0;
#X connect 1 0 2 1;
#X connect 2 0 5 0;
#X connect 3 0 4 0;
#X connect 5 0 3 0;
#X connect 6 0 2 0;
#X connect 6 1 5 1;
#X restore 570 212 pd onoffLogic;
#X f 10;
#N canvas 0 23 450 300 dspLogic 0;
#X obj 37 37 inlet;
#X obj 101 114 + 1;
#X obj 137 133 - 1;
#X obj 36 58 t f f f, f 18;
#X obj 105 177 +;
#X obj 105 221 pack;
#X msg 105 242 \; \$2-dsp_rec \$1;
#X obj 105 198 > 0;
#X obj 101 135 % 128;
#X obj 105 156 tabread \$0-kick_sequence;
#X obj 138 175 tabread \$0-kick_sequence;
#X obj 143 220 inlet;
#X connect 0 0 3 0;
#X connect 1 0 8 0;
#X connect 2 0 10 0;
#X connect 3 1 1 0;
#X connect 3 2 2 0;
#X connect 4 0 7 0;
#X connect 5 0 6 0;
#X connect 7 0 5 0;
#X connect 8 0 9 0;
#X connect 9 0 4 0;
#X connect 10 0 4 1;
#X connect 11 0 5 1;
#X restore 132 214 pd dspLogic;
#N canvas 0 23 450 300 dspLogic 0;
#X obj 37 37 inlet;
#X obj 101 114 + 1;
#X obj 137 133 - 1;
#X obj 36 58 t f f f, f 18;
#X obj 105 177 +;
#X obj 105 221 pack;
#X msg 105 242 \; \$2-dsp_rec \$1;
#X obj 105 198 > 0;
#X obj 101 135 % 128;
#X obj 143 220 inlet;
#X obj 105 156 tabread \$0-snare_sequence;
#X obj 137 175 tabread \$0-snare_sequence;
#X connect 0 0 3 0;
#X connect 1 0 8 0;
#X connect 2 0 11 0;
#X connect 3 1 1 0;
#X connect 3 2 2 0;
#X connect 4 0 7 0;
#X connect 5 0 6 0;
#X connect 7 0 5 0;
#X connect 8 0 10 0;
#X connect 9 0 5 1;
#X connect 10 0 4 0;
#X connect 11 0 4 1;
#X restore 237 211 pd dspLogic;
#N canvas 0 23 450 300 dspLogic 0;
#X obj 37 37 inlet;
#X obj 101 114 + 1;
#X obj 137 133 - 1;
#X obj 36 58 t f f f, f 18;
#X obj 105 177 +;
#X obj 105 221 pack;
#X msg 105 242 \; \$2-dsp_rec \$1;
#X obj 105 198 > 0;
#X obj 101 135 % 128;
#X obj 143 220 inlet;
#X obj 105 156 tabread \$0-hihat_sequence;
#X obj 137 175 tabread \$0-hihat_sequence;
#X connect 0 0 3 0;
#X connect 1 0 8 0;
#X connect 2 0 11 0;
#X connect 3 1 1 0;
#X connect 3 2 2 0;
#X connect 4 0 7 0;
#X connect 5 0 6 0;
#X connect 7 0 5 0;
#X connect 8 0 10 0;
#X connect 9 0 5 1;
#X connect 10 0 4 0;
#X connect 11 0 4 1;
#X restore 539 161 pd dspLogic;
#X connect 0 0 4 0;
#X connect 1 0 5 0;
#X connect 1 1 8 0;
#X connect 1 1 9 0;
#X connect 1 1 10 0;
#X connect 1 1 19 1;
#X connect 2 0 6 0;
#X connect 2 1 20 1;
#X connect 3 0 7 0;
#X connect 3 1 21 1;
#X connect 4 0 11 1;
#X connect 4 1 15 1;
#X connect 4 2 17 1;
#X connect 4 3 18 1;
#X connect 11 0 1 0;
#X connect 12 0 13 0;
#X connect 12 0 14 0;
#X connect 12 0 16 0;
#X connect 12 0 19 0;
#X connect 12 0 20 0;
#X connect 12 0 21 0;
#X connect 13 0 11 0;
#X connect 14 0 15 0;
#X connect 15 0 2 0;
#X connect 16 0 17 0;
#X connect 16 0 18 0;
#X connect 17 0 3 0;
#X connect 18 0 3 1;
#X restore 246 233 pd drumSynth;
#X obj 172 257 outlet~;
#X obj 40 257 outlet~;
#X obj 245 257 outlet~;
#X obj 295 257 outlet~;
#X obj 345 257 outlet~;
#X obj 433 33 inlet;
#X obj 427 257 outlet~;
#N canvas 0 23 591 378 noiseSynth 0;
#X obj 182 47 inlet;
#X obj 97 331 outlet~;
#X obj 98 226 fmsyn1_sjf~;
#N canvas 529 23 989 470 synth_load_logic 0;
#X obj 410 305 loadbang;
#X msg 663 352 0;
#X obj 59 368 outlet;
#X obj 186 368 outlet;
#X obj 250 368 outlet;
#X obj 346 376 outlet;
#X obj 428 382 outlet;
#X obj 485 378 outlet;
#X obj 541 377 outlet;
#X obj 663 373 outlet;
#X obj 730 374 outlet;
#X obj 170 139 random 10000;
#X obj 170 160 / 10000;
#X obj 170 250 line;
#X msg 170 229 \$1 10000;
#X obj 340 80 inlet;
#X obj 493 176 random 10000;
#X obj 493 197 / 10000;
#X obj 493 287 line;
#X msg 493 266 \$1 10000;
#X obj 493 240 + 4;
#X obj 493 219 * 3;
#X obj 170 203 + 1;
#X msg 59 347 200 200 0.55 200;
#X msg 198 347 7.565;
#X msg 250 347 9;
#X msg 344 351 1 500 0.4 500;
#X msg 453 357 1.79;
#X msg 485 357 6;
#X msg 541 356 1 500 0.6 2000;
#X obj 170 182 * 9;
#X msg 730 353 0.02;
#X connect 0 0 23 0;
#X connect 0 0 24 0;
#X connect 0 0 25 0;
#X connect 0 0 27 0;
#X connect 0 0 28 0;
#X connect 0 0 29 0;
#X connect 0 0 1 0;
#X connect 0 0 31 0;
#X connect 0 0 26 0;
#X connect 1 0 9 0;
#X connect 11 0 12 0;
#X connect 12 0 30 0;
#X connect 13 0 4 0;
#X connect 14 0 13 0;
#X connect 15 0 11 0;
#X connect 15 0 16 0;
#X connect 16 0 17 0;
#X connect 17 0 21 0;
#X connect 18 0 7 0;
#X connect 19 0 18 0;
#X connect 20 0 19 0;
#X connect 21 0 20 0;
#X connect 22 0 14 0;
#X connect 23 0 2 0;
#X connect 24 0 3 0;
#X connect 25 0 4 0;
#X connect 26 0 5 0;
#X connect 27 0 6 0;
#X connect 28 0 7 0;
#X connect 29 0 8 0;
#X connect 30 0 22 0;
#X connect 31 0 10 0;
#X restore 252 189 pd synth_load_logic;
#X f 20;
#X obj 252 166 r \$0-start_of_4_bar;
#X obj 182 67 unpack;
#N canvas 0 23 450 300 onoffLogic 0;
#X obj 302 19 inlet;
#X obj 47 47 inlet;
#X obj 190 162 int;
#X obj 190 205 route 1;
#X obj 190 252 outlet;
#X obj 190 183 pack, f 9;
#X obj 216 116 t b f;
#X connect 0 0 6 0;
#X connect 1 0 2 1;
#X connect 2 0 5 0;
#X connect 3 0 4 0;
#X connect 5 0 3 0;
#X connect 6 0 2 0;
#X connect 6 1 5 1;
#X restore 98 117 pd onoffLogic;
#X f 10;
#X obj 24 45 inlet;
#X obj 23 67 tabread \$0-noise_sequence;
#X obj 98 182 makenote 100 100;
#X obj 195 133 r \$0-noteLength;
#X obj 195 154 * 16;
#X obj 98 161 + 48;
#N canvas 0 23 450 300 dspLogic 0;
#X obj 37 37 inlet;
#X obj 101 114 + 1;
#X obj 137 133 - 1;
#X obj 36 58 t f f f, f 18;
#X obj 105 177 +;
#X obj 105 221 pack;
#X msg 105 242 \; \$2-dsp_rec \$1;
#X obj 105 198 > 0;
#X obj 101 135 % 128;
#X obj 138 175 tabread \$0-noise_sequence;
#X obj 105 156 tabread \$0-noise_sequence;
#X obj 143 220 r \$0-noise1ID;
#X connect 0 0 3 0;
#X connect 1 0 8 0;
#X connect 2 0 9 0;
#X connect 3 1 1 0;
#X connect 3 2 2 0;
#X connect 4 0 7 0;
#X connect 5 0 6 0;
#X connect 7 0 5 0;
#X connect 8 0 10 0;
#X connect 9 0 4 1;
#X connect 10 0 4 0;
#X connect 11 0 5 1;
#X restore 71 37 pd dspLogic;
#X obj 474 334 s \$0-noise1ID;
#X connect 0 0 5 0;
#X connect 2 0 1 0;
#X connect 2 1 14 0;
#X connect 3 0 2 2;
#X connect 3 1 2 3;
#X connect 3 2 2 4;
#X connect 3 3 2 5;
#X connect 3 4 2 6;
#X connect 3 5 2 7;
#X connect 3 6 2 8;
#X connect 3 7 2 9;
#X connect 3 8 2 10;
#X connect 4 0 3 0;
#X connect 5 0 6 1;
#X connect 5 1 9 1;
#X connect 6 0 12 0;
#X connect 7 0 8 0;
#X connect 7 0 13 0;
#X connect 8 0 6 0;
#X connect 9 0 2 0;
#X connect 9 1 2 1;
#X connect 10 0 11 0;
#X connect 11 0 9 2;
#X connect 12 0 9 0;
#X restore 427 233 pd noiseSynth;
#X obj 519 257 outlet~;
#X obj 486 33 inlet;
#X obj 658 257 outlet~;
#N canvas 0 23 450 300 ns2_Changes 0;
#X obj 37 37 inlet;
#X obj 38 58 unpack;
#X obj 38 93 + 7;
#X obj 38 114 pack;
#X obj 87 110 + 7;
#N canvas 0 23 450 300 rand_Changes 0;
#X obj 119 18 loadbang;
#X msg 119 39 1;
#X obj 119 60 metro 5000;
#X obj 119 81 random 10000;
#X obj 119 102 / 10000;
#X msg 119 123 \$1 5000;
#X obj 119 144 line;
#X obj 119 165 outlet;
#X connect 0 0 1 0;
#X connect 1 0 2 0;
#X connect 2 0 3 0;
#X connect 3 0 4 0;
#X connect 4 0 5 0;
#X connect 5 0 6 0;
#X connect 6 0 7 0;
#X restore 87 69 pd rand_Changes;
#X obj 87 90 - 0.5;
#X obj 38 135 outlet;
#X connect 0 0 1 0;
#X connect 1 0 2 0;
#X connect 1 1 3 1;
#X connect 2 0 3 0;
#X connect 3 0 7 0;
#X connect 4 0 2 1;
#X connect 5 0 6 0;
#X connect 6 0 4 0;
#X restore 484 111 pd ns2_Changes;
#X f 11;
#N canvas 0 23 345 227 3voice_pad 0;
#X obj 135 5 inlet;
#X obj 89 163 outlet~;
#N canvas 0 23 459 380 pad1 0;
#X obj 118 46 inlet;
#X obj 46 344 outlet~;
#X obj 47 239 fmsyn1_sjf~;
#N canvas 529 23 989 470 synth_load_logic 0;
#X obj 410 305 loadbang;
#X msg 663 352 0;
#X obj 59 368 outlet;
#X obj 199 369 outlet;
#X obj 250 368 outlet;
#X obj 307 377 outlet;
#X obj 428 382 outlet;
#X obj 485 378 outlet;
#X obj 541 377 outlet;
#X obj 663 373 outlet;
#X obj 730 374 outlet;
#X obj 170 139 random 10000;
#X obj 170 160 / 10000;
#X obj 170 250 line;
#X msg 170 229 \$1 10000;
#X obj 340 80 inlet;
#X obj 493 176 random 10000;
#X obj 493 197 / 10000;
#X obj 493 287 line;
#X msg 493 266 \$1 10000;
#X obj 493 219 * 3;
#X obj 170 203 + 1;
#X msg 250 347 9;
#X msg 305 352 1 500 0.4 500;
#X msg 428 357 2;
#X obj 170 182 * 1;
#X msg 59 346 2 50 0 20;
#X msg 730 353 0.2;
#X obj 493 240 + 1;
#X msg 485 357 2;
#X msg 541 356 100 500 0.6 2000;
#X msg 198 347 6;
#X connect 0 0 26 0;
#X connect 0 0 31 0;
#X connect 0 0 22 0;
#X connect 0 0 24 0;
#X connect 0 0 29 0;
#X connect 0 0 30 0;
#X connect 0 0 1 0;
#X connect 0 0 27 0;
#X connect 0 0 23 0;
#X connect 1 0 9 0;
#X connect 11 0 12 0;
#X connect 12 0 25 0;
#X connect 13 0 4 0;
#X connect 14 0 13 0;
#X connect 15 0 11 0;
#X connect 15 0 16 0;
#X connect 16 0 17 0;
#X connect 17 0 20 0;
#X connect 18 0 7 0;
#X connect 19 0 18 0;
#X connect 20 0 28 0;
#X connect 21 0 14 0;
#X connect 22 0 4 0;
#X connect 23 0 5 0;
#X connect 24 0 6 0;
#X connect 25 0 21 0;
#X connect 26 0 2 0;
#X connect 27 0 10 0;
#X connect 28 0 19 0;
#X connect 29 0 7 0;
#X connect 30 0 8 0;
#X connect 31 0 3 0;
#X restore 273 154 pd synth_load_logic;
#X obj 272 108 r \$0-start_of_4_bar;
#X obj 118 68 unpack;
#N canvas 0 23 450 300 onoffLogic 0;
#X obj 302 19 inlet;
#X obj 47 47 inlet;
#X obj 190 162 int;
#X obj 190 205 route 1;
#X obj 190 252 outlet;
#X obj 190 183 pack, f 9;
#X obj 216 116 t b f;
#X connect 0 0 6 0;
#X connect 1 0 2 1;
#X connect 2 0 5 0;
#X connect 3 0 4 0;
#X connect 5 0 3 0;
#X connect 6 0 2 0;
#X connect 6 1 5 1;
#X restore 6 105 pd onoffLogic;
#X f 10;
#X obj 6 7 inlet;
#X obj 6 170 makenote 100 100;
#X obj 129 127 r \$0-noteLength;
#X obj 129 148 * 16;
#X obj 6 149 + 24;
#X obj 6 46 tabread \$0-pad_sequence, f 16;
#N canvas 0 23 450 300 dspLogic 0;
#X obj 37 37 inlet;
#X obj 101 114 + 1;
#X obj 137 133 - 1;
#X obj 36 58 t f f f, f 18;
#X obj 105 177 +;
#X obj 105 221 pack;
#X msg 105 242 \; \$2-dsp_rec \$1;
#X obj 105 198 > 0;
#X obj 101 135 % 128;
#X obj 143 220 r \$0-pad1ID;
#X obj 105 156 tabread \$0-pad_sequence;
#X obj 138 175 tabread \$0-pad_sequence;
#X connect 0 0 3 0;
#X connect 1 0 8 0;
#X connect 2 0 11 0;
#X connect 3 1 1 0;
#X connect 3 2 2 0;
#X connect 4 0 7 0;
#X connect 5 0 6 0;
#X connect 7 0 5 0;
#X connect 8 0 10 0;
#X connect 9 0 5 1;
#X connect 10 0 4 0;
#X connect 11 0 4 1;
#X restore 23 28 pd dspLogic;
#X obj 351 347 s \$0-pad1ID;
#X connect 0 0 5 0;
#X connect 2 0 1 0;
#X connect 2 1 14 0;
#X connect 3 0 2 2;
#X connect 3 1 2 3;
#X connect 3 2 2 4;
#X connect 3 3 2 5;
#X connect 3 4 2 6;
#X connect 3 5 2 7;
#X connect 3 6 2 8;
#X connect 3 7 2 9;
#X connect 3 8 2 10;
#X connect 4 0 3 0;
#X connect 5 0 6 1;
#X connect 5 1 8 1;
#X connect 6 0 11 0;
#X connect 7 0 12 0;
#X connect 7 0 13 0;
#X connect 8 0 2 0;
#X connect 8 1 2 1;
#X connect 9 0 10 0;
#X connect 10 0 8 2;
#X connect 11 0 8 0;
#X connect 12 0 6 0;
#X restore 21 111 pd pad1;
#X obj 23 52 inlet;
#N canvas 0 23 465 384 pad2 0;
#X obj 88 78 inlet;
#X obj 55 354 outlet~;
#X obj 56 249 fmsyn1_sjf~;
#N canvas 529 23 989 470 synth_load_logic 0;
#X obj 410 305 loadbang;
#X msg 663 352 0;
#X obj 59 368 outlet;
#X obj 199 369 outlet;
#X obj 250 368 outlet;
#X obj 307 377 outlet;
#X obj 428 382 outlet;
#X obj 485 378 outlet;
#X obj 541 377 outlet;
#X obj 663 373 outlet;
#X obj 730 374 outlet;
#X obj 170 139 random 10000;
#X obj 170 160 / 10000;
#X obj 170 250 line;
#X msg 170 229 \$1 10000;
#X obj 340 80 inlet;
#X obj 493 176 random 10000;
#X obj 493 197 / 10000;
#X obj 493 287 line;
#X msg 493 266 \$1 10000;
#X obj 493 219 * 3;
#X obj 170 203 + 1;
#X msg 250 347 9;
#X msg 305 352 1 500 0.4 500;
#X msg 428 357 2;
#X obj 170 182 * 1;
#X msg 59 346 2 50 0 20;
#X msg 730 353 0.2;
#X obj 493 240 + 1;
#X msg 485 357 2;
#X msg 541 356 100 500 0.6 2000;
#X msg 198 347 6;
#X connect 0 0 26 0;
#X connect 0 0 31 0;
#X connect 0 0 22 0;
#X connect 0 0 24 0;
#X connect 0 0 29 0;
#X connect 0 0 30 0;
#X connect 0 0 1 0;
#X connect 0 0 27 0;
#X connect 0 0 23 0;
#X connect 1 0 9 0;
#X connect 11 0 12 0;
#X connect 12 0 25 0;
#X connect 13 0 4 0;
#X connect 14 0 13 0;
#X connect 15 0 11 0;
#X connect 15 0 16 0;
#X connect 16 0 17 0;
#X connect 17 0 20 0;
#X connect 18 0 7 0;
#X connect 19 0 18 0;
#X connect 20 0 28 0;
#X connect 21 0 14 0;
#X connect 22 0 4 0;
#X connect 23 0 5 0;
#X connect 24 0 6 0;
#X connect 25 0 21 0;
#X connect 26 0 2 0;
#X connect 27 0 10 0;
#X connect 28 0 19 0;
#X connect 29 0 7 0;
#X connect 30 0 8 0;
#X connect 31 0 3 0;
#X restore 282 164 pd synth_load_logic;
#X obj 281 118 r \$0-start_of_4_bar;
#X obj 88 98 unpack;
#N canvas 0 23 450 300 onoffLogic 0;
#X obj 302 19 inlet;
#X obj 47 47 inlet;
#X obj 190 162 int;
#X obj 190 205 route 1;
#X obj 190 252 outlet;
#X obj 190 183 pack, f 9;
#X obj 216 116 t b f;
#X connect 0 0 6 0;
#X connect 1 0 2 1;
#X connect 2 0 5 0;
#X connect 3 0 4 0;
#X connect 5 0 3 0;
#X connect 6 0 2 0;
#X connect 6 1 5 1;
#X restore 15 115 pd onoffLogic;
#X f 10;
#X obj 15 19 inlet;
#X obj 15 180 makenote 100 100;
#X obj 138 137 r \$0-noteLength;
#X obj 138 158 * 16;
#X obj 15 159 + 24;
#X obj 15 56 tabread \$0-pad_sequence;
#N canvas 0 23 450 300 dspLogic 0;
#X obj 37 37 inlet;
#X obj 101 114 + 1;
#X obj 137 133 - 1;
#X obj 36 58 t f f f, f 18;
#X obj 105 177 +;
#X obj 105 221 pack;
#X msg 105 242 \; \$2-dsp_rec \$1;
#X obj 105 198 > 0;
#X obj 101 135 % 128;
#X obj 105 156 tabread \$0-pad_sequence;
#X obj 138 175 tabread \$0-pad_sequence;
#X obj 143 220 r \$0-pad2ID;
#X connect 0 0 3 0;
#X connect 1 0 8 0;
#X connect 2 0 10 0;
#X connect 3 1 1 0;
#X connect 3 2 2 0;
#X connect 4 0 7 0;
#X connect 5 0 6 0;
#X connect 7 0 5 0;
#X connect 8 0 9 0;
#X connect 9 0 4 0;
#X connect 10 0 4 1;
#X connect 11 0 5 1;
#X restore 27 38 pd dspLogic;
#X obj 364 357 s \$0-pad2ID;
#X connect 0 0 5 0;
#X connect 2 0 1 0;
#X connect 2 1 14 0;
#X connect 3 0 2 2;
#X connect 3 1 2 3;
#X connect 3 2 2 4;
#X connect 3 3 2 5;
#X connect 3 4 2 6;
#X connect 3 5 2 7;
#X connect 3 6 2 8;
#X connect 3 7 2 9;
#X connect 3 8 2 10;
#X connect 4 0 3 0;
#X connect 5 0 6 1;
#X connect 5 1 8 1;
#X connect 6 0 11 0;
#X connect 7 0 12 0;
#X connect 7 0 13 0;
#X connect 8 0 2 0;
#X connect 8 1 2 1;
#X connect 9 0 10 0;
#X connect 10 0 8 2;
#X connect 11 0 8 0;
#X connect 12 0 6 0;
#X restore 102 111 pd pad2;
#N canvas 0 23 491 380 pad3 0;
#X obj 112 71 inlet;
#X obj 67 347 outlet~;
#X obj 68 242 fmsyn1_sjf~;
#N canvas 529 23 989 470 synth_load_logic 0;
#X obj 410 305 loadbang;
#X msg 663 352 0;
#X obj 59 368 outlet;
#X obj 199 369 outlet;
#X obj 250 368 outlet;
#X obj 307 377 outlet;
#X obj 428 382 outlet;
#X obj 485 378 outlet;
#X obj 541 377 outlet;
#X obj 663 373 outlet;
#X obj 730 374 outlet;
#X obj 170 139 random 10000;
#X obj 170 160 / 10000;
#X obj 170 250 line;
#X msg 170 229 \$1 10000;
#X obj 340 80 inlet;
#X obj 493 176 random 10000;
#X obj 493 197 / 10000;
#X obj 493 287 line;
#X msg 493 266 \$1 10000;
#X obj 493 219 * 3;
#X obj 170 203 + 1;
#X msg 250 347 9;
#X msg 305 352 1 500 0.4 500;
#X msg 428 357 2;
#X obj 170 182 * 1;
#X msg 59 346 2 50 0 20;
#X msg 730 353 0.2;
#X obj 493 240 + 1;
#X msg 485 357 2;
#X msg 541 356 100 500 0.6 2000;
#X msg 198 347 6;
#X connect 0 0 26 0;
#X connect 0 0 31 0;
#X connect 0 0 22 0;
#X connect 0 0 24 0;
#X connect 0 0 29 0;
#X connect 0 0 30 0;
#X connect 0 0 1 0;
#X connect 0 0 27 0;
#X connect 0 0 23 0;
#X connect 1 0 9 0;
#X connect 11 0 12 0;
#X connect 12 0 25 0;
#X connect 13 0 4 0;
#X connect 14 0 13 0;
#X connect 15 0 11 0;
#X connect 15 0 16 0;
#X connect 16 0 17 0;
#X connect 17 0 20 0;
#X connect 18 0 7 0;
#X connect 19 0 18 0;
#X connect 20 0 28 0;
#X connect 21 0 14 0;
#X connect 22 0 4 0;
#X connect 23 0 5 0;
#X connect 24 0 6 0;
#X connect 25 0 21 0;
#X connect 26 0 2 0;
#X connect 27 0 10 0;
#X connect 28 0 19 0;
#X connect 29 0 7 0;
#X connect 30 0 8 0;
#X connect 31 0 3 0;
#X restore 294 157 pd synth_load_logic;
#X obj 293 111 r \$0-start_of_4_bar;
#X obj 112 93 unpack;
#N canvas 0 23 450 300 onoffLogic 0;
#X obj 302 19 inlet;
#X obj 47 47 inlet;
#X obj 190 162 int;
#X obj 190 205 route 1;
#X obj 190 252 outlet;
#X obj 190 183 pack, f 9;
#X obj 216 116 t b f;
#X connect 0 0 6 0;
#X connect 1 0 2 1;
#X connect 2 0 5 0;
#X connect 3 0 4 0;
#X connect 5 0 3 0;
#X connect 6 0 2 0;
#X connect 6 1 5 1;
#X restore 27 108 pd onoffLogic;
#X f 10;
#X obj 27 10 inlet;
#X obj 27 173 makenote 100 100;
#X obj 150 130 r \$0-noteLength;
#X obj 150 151 * 16;
#X obj 27 152 + 24;
#X obj 27 49 tabread \$0-pad_sequence;
#N canvas 0 23 450 300 dspLogic 0;
#X obj 37 37 inlet;
#X obj 101 114 + 1;
#X obj 137 133 - 1;
#X obj 36 58 t f f f, f 18;
#X obj 105 177 +;
#X obj 105 221 pack;
#X msg 105 242 \; \$2-dsp_rec \$1;
#X obj 105 198 > 0;
#X obj 101 135 % 128;
#X obj 105 156 tabread \$0-pad_sequence;
#X obj 138 175 tabread \$0-pad_sequence;
#X obj 143 220 r \$0-pad3ID;
#X connect 0 0 3 0;
#X connect 1 0 8 0;
#X connect 2 0 10 0;
#X connect 3 1 1 0;
#X connect 3 2 2 0;
#X connect 4 0 7 0;
#X connect 5 0 6 0;
#X connect 7 0 5 0;
#X connect 8 0 9 0;
#X connect 9 0 4 0;
#X connect 10 0 4 1;
#X connect 11 0 5 1;
#X restore 36 29 pd dspLogic;
#X obj 388 350 s \$0-pad3ID;
#X connect 0 0 5 0;
#X connect 2 0 1 0;
#X connect 2 1 14 0;
#X connect 3 0 2 2;
#X connect 3 1 2 3;
#X connect 3 2 2 4;
#X connect 3 3 2 5;
#X connect 3 4 2 6;
#X connect 3 5 2 7;
#X connect 3 6 2 8;
#X connect 3 7 2 9;
#X connect 3 8 2 10;
#X connect 4 0 3 0;
#X connect 5 0 6 1;
#X connect 5 1 8 1;
#X connect 6 0 11 0;
#X connect 7 0 12 0;
#X connect 7 0 13 0;
#X connect 8 0 2 0;
#X connect 8 1 2 1;
#X connect 9 0 10 0;
#X connect 10 0 8 2;
#X connect 11 0 8 0;
#X connect 12 0 6 0;
#X restore 223 111 pd pad3;
#N canvas 0 23 233 204 pad2_pitch 0;
#X obj 37 37 inlet;
#X obj 37 57 unpack;
#X obj 37 92 + 7;
#X obj 37 113 pack;
#X obj 93 102 + 7;
#N canvas 0 23 450 300 rand_Changes 0;
#X obj 119 18 loadbang;
#X msg 119 39 1;
#X obj 119 60 metro 5000;
#X obj 119 81 random 10000;
#X obj 119 102 / 10000;
#X msg 119 123 \$1 5000;
#X obj 119 144 line;
#X obj 119 165 outlet;
#X connect 0 0 1 0;
#X connect 1 0 2 0;
#X connect 2 0 3 0;
#X connect 3 0 4 0;
#X connect 4 0 5 0;
#X connect 5 0 6 0;
#X connect 6 0 7 0;
#X restore 93 37 pd rand_Changes;
#X obj 93 58 - 0.5;
#X obj 93 80 * 0.2;
#X obj 37 134 outlet;
#X connect 0 0 1 0;
#X connect 1 0 2 0;
#X connect 1 1 3 1;
#X connect 2 0 3 0;
#X connect 3 0 8 0;
#X connect 4 0 2 1;
#X connect 5 0 6 0;
#X connect 6 0 7 0;
#X connect 7 0 4 0;
#X restore 135 46 pd pad2_pitch;
#X f 5;
#N canvas 0 23 216 192 pad3_pitch 0;
#X obj 37 36 inlet;
#X obj 36 58 unpack;
#X obj 36 114 pack;
#N canvas 0 23 450 300 rand_Changes 0;
#X obj 119 18 loadbang;
#X msg 119 39 1;
#X obj 119 60 metro 5000;
#X obj 119 81 random 10000;
#X obj 119 102 / 10000;
#X msg 119 123 \$1 5000;
#X obj 119 144 line;
#X obj 119 165 outlet;
#X connect 0 0 1 0;
#X connect 1 0 2 0;
#X connect 2 0 3 0;
#X connect 3 0 4 0;
#X connect 4 0 5 0;
#X connect 5 0 6 0;
#X connect 6 0 7 0;
#X restore 88 73 pd rand_Changes;
#X obj 88 94 - 0.5;
#X obj 36 93 - 5;
#X obj 88 115 * 0.2;
#X obj 88 137 - 5;
#X obj 36 135 outlet;
#X connect 0 0 1 0;
#X connect 1 0 5 0;
#X connect 1 1 2 1;
#X connect 2 0 8 0;
#X connect 3 0 4 0;
#X connect 4 0 6 0;
#X connect 5 0 2 0;
#X connect 6 0 7 0;
#X connect 7 0 5 1;
#X restore 273 46 pd pad3_pitch;
#X f 5;
#X connect 0 0 2 1;
#X connect 0 0 6 0;
#X connect 0 0 7 0;
#X connect 2 0 1 0;
#X connect 3 0 2 0;
#X connect 3 0 4 0;
#X connect 3 0 5 0;
#X connect 4 0 1 0;
#X connect 5 0 1 0;
#X connect 6 0 4 1;
#X connect 7 0 5 1;
#X restore 658 233 pd 3voice_pad;
#X obj 40 33 inlet;
#N canvas 0 23 613 450 noiseSynth 0;
#X obj 174 15 inlet;
#X obj 98 398 outlet~;
#X obj 99 293 fmsyn1_sjf~;
#N canvas 529 23 989 470 synth_load_logic 0;
#X obj 410 305 loadbang;
#X msg 663 352 0;
#X obj 59 368 outlet;
#X obj 186 368 outlet;
#X obj 250 368 outlet;
#X obj 346 376 outlet;
#X obj 428 382 outlet;
#X obj 485 378 outlet;
#X obj 541 377 outlet;
#X obj 663 373 outlet;
#X obj 730 374 outlet;
#X obj 170 139 random 10000;
#X obj 170 160 / 10000;
#X obj 170 250 line;
#X msg 170 229 \$1 10000;
#X obj 340 80 inlet;
#X obj 493 176 random 10000;
#X obj 493 197 / 10000;
#X obj 493 287 line;
#X msg 493 266 \$1 10000;
#X obj 493 240 + 4;
#X obj 493 219 * 3;
#X obj 170 203 + 1;
#X msg 59 347 200 200 0.55 200;
#X msg 198 347 7.565;
#X msg 250 347 9;
#X msg 344 351 1 500 0.4 500;
#X msg 453 357 1.79;
#X msg 485 357 6;
#X msg 541 356 1 500 0.6 2000;
#X obj 170 182 * 9;
#X msg 730 353 0.02;
#X connect 0 0 23 0;
#X connect 0 0 24 0;
#X connect 0 0 25 0;
#X connect 0 0 27 0;
#X connect 0 0 28 0;
#X connect 0 0 29 0;
#X connect 0 0 1 0;
#X connect 0 0 31 0;
#X connect 0 0 26 0;
#X connect 1 0 9 0;
#X connect 11 0 12 0;
#X connect 12 0 30 0;
#X connect 13 0 4 0;
#X connect 14 0 13 0;
#X connect 15 0 11 0;
#X connect 15 0 16 0;
#X connect 16 0 17 0;
#X connect 17 0 21 0;
#X connect 18 0 7 0;
#X connect 19 0 18 0;
#X connect 20 0 19 0;
#X connect 21 0 20 0;
#X connect 22 0 14 0;
#X connect 23 0 2 0;
#X connect 24 0 3 0;
#X connect 25 0 4 0;
#X connect 26 0 5 0;
#X connect 27 0 6 0;
#X connect 28 0 7 0;
#X connect 29 0 8 0;
#X connect 30 0 22 0;
#X connect 31 0 10 0;
#X restore 264 240 pd synth_load_logic;
#X f 26;
#X obj 264 217 r \$0-start_of_4_bar;
#X obj 174 35 unpack;
#N canvas 0 23 450 300 onoffLogic 0;
#X obj 302 19 inlet;
#X obj 47 47 inlet;
#X obj 190 162 int;
#X obj 190 205 route 1;
#X obj 190 252 outlet;
#X obj 190 183 pack, f 9;
#X obj 216 116 t b f;
#X connect 0 0 6 0;
#X connect 1 0 2 1;
#X connect 2 0 5 0;
#X connect 3 0 4 0;
#X connect 5 0 3 0;
#X connect 6 0 2 0;
#X connect 6 1 5 1;
#X restore 90 85 pd onoffLogic;
#X f 10;
#X obj 16 13 inlet;
#X obj 15 35 tabread \$0-noise_sequence;
#X obj 90 150 makenote 100 100;
#X obj 213 107 r \$0-noteLength;
#X obj 213 128 * 16;
#X obj 90 129 + 48;
#N canvas 0 23 450 300 dspLogic 0;
#X obj 37 37 inlet;
#X obj 101 114 + 1;
#X obj 137 133 - 1;
#X obj 36 58 t f f f, f 18;
#X obj 105 177 +;
#X obj 105 221 pack;
#X msg 105 242 \; \$2-dsp_rec \$1;
#X obj 105 198 > 0;
#X obj 101 135 % 128;
#X obj 143 220 r \$0-noise2ID;
#X obj 138 175 tabread \$0-noise_sequence;
#X obj 105 156 tabread \$0-noise_sequence;
#X connect 0 0 3 0;
#X connect 1 0 8 0;
#X connect 2 0 10 0;
#X connect 3 1 1 0;
#X connect 3 2 2 0;
#X connect 4 0 7 0;
#X connect 5 0 6 0;
#X connect 7 0 5 0;
#X connect 8 0 11 0;
#X connect 9 0 5 1;
#X connect 10 0 4 1;
#X connect 11 0 4 0;
#X restore 63 5 pd dspLogic;
#X obj 475 401 s \$0-noise2ID;
#X connect 0 0 5 0;
#X connect 2 0 1 0;
#X connect 2 1 14 0;
#X connect 3 0 2 2;
#X connect 3 1 2 3;
#X connect 3 2 2 4;
#X connect 3 3 2 5;
#X connect 3 4 2 6;
#X connect 3 5 2 7;
#X connect 3 6 2 8;
#X connect 3 7 2 9;
#X connect 3 8 2 10;
#X connect 4 0 3 0;
#X connect 5 0 6 1;
#X connect 5 1 9 1;
#X connect 6 0 12 0;
#X connect 7 0 8 0;
#X connect 7 0 13 0;
#X connect 8 0 6 0;
#X connect 9 0 2 0;
#X connect 9 1 2 1;
#X connect 10 0 11 0;
#X connect 11 0 9 2;
#X connect 12 0 9 0;
#X restore 519 233 pd noiseSynth;
#X obj 699 33 inlet;
#X obj 847 257 outlet~;
#N canvas 349 101 546 458 karplus 0;
#X obj 237 29 inlet;
#X obj 22 391 outlet~;
#X obj 237 48 unpack, f 22;
#N canvas 0 23 450 300 onoffLogic 0;
#X obj 302 19 inlet;
#X obj 47 47 inlet;
#X obj 190 162 int;
#X obj 190 205 route 1;
#X obj 190 252 outlet;
#X obj 190 183 pack, f 9;
#X obj 216 116 t b f;
#X connect 0 0 6 0;
#X connect 1 0 2 1;
#X connect 2 0 5 0;
#X connect 3 0 4 0;
#X connect 5 0 3 0;
#X connect 6 0 2 0;
#X connect 6 1 5 1;
#X restore 23 95 pd onoffLogic;
#X f 36;
#X obj 23 26 inlet;
#X obj 23 66 tabread \$0-karplus_sequence;
#X obj 23 286 kps6str_sjf~;
#X obj 23 144 t b f, f 19;
#X obj 23 242 +, f 19;
#X msg 22 207 0, f 1;
#X msg 39 208 -12;
#X msg 66 208 -7;
#X obj 237 67 % 12;
#X obj 23 164 random 4;
#X obj 23 121 + 60;
#X obj 203 148 t b f, f 19;
#X obj 203 246 +, f 19;
#X msg 202 211 0, f 1;
#X msg 219 212 -12;
#X msg 246 212 -7;
#X obj 204 120 + 72;
#X obj 404 151 t b f, f 19;
#X obj 404 249 +, f 19;
#X msg 403 214 0, f 1;
#X obj 405 123 + 48;
#X obj 404 193 sel 0;
#N canvas 0 23 976 575 loader 0;
#X obj 227 3 inlet;
#X msg 263 171 \; \$1-slide_rec 0.1;
#X msg 17 511 \; \$1-brightness_rec 0.8;
#X msg 13 324 \; \$1-attack_brightness_rec 100;
#X msg 196 321 \; \$1-dec_rec 5;
#X msg 25 172 \; \$1-sustain_rec 0.98;
#X msg 164 168 \; \$1-dsp_rec 0;
#X obj 299 381 int;
#X obj 348 226 r \$0-start_of_4_bar;
#X obj 299 313 random 10000;
#X obj 299 334 / 10000;
#X obj 299 355 t b f;
#X obj 299 402 pack, f 6;
#X obj 379 380 int;
#X obj 379 312 random 10000;
#X obj 379 333 / 10000;
#X obj 379 354 t b f;
#X obj 379 401 pack, f 6;
#X msg 286 424 \; \$1-vib_rate_rec \$2;
#X msg 336 448 \; \$1-vib_depth_rec \$2;
#X obj 516 381 int;
#X obj 516 313 random 10000;
#X obj 516 334 / 10000;
#X obj 516 355 t b f;
#X obj 516 402 pack, f 6;
#X msg 516 424 \; \$1-slide_rec \$2;
#X obj 624 355 int;
#X obj 625 290 random 10000;
#X obj 624 308 / 10000;
#X obj 624 329 t b f;
#X obj 624 397 pack, f 6;
#X msg 623 419 \; \$1-attack_brightness_rec \$2;
#X obj 658 370 + 50;
#X obj 800 354 int;
#X obj 801 289 random 10000;
#X obj 800 307 / 10000;
#X obj 800 328 t b f;
#X obj 800 396 pack, f 6;
#X msg 799 418 \; \$1-brightness_rec \$2;
#X obj 834 369 + 0.5;
#X obj 834 348 * 0.5;
#X obj 414 375 * 0.5;
#X obj 550 375 * 0.05;
#X obj 327 375 * 1;
#X obj 658 349 * 50;
#X connect 0 0 5 0;
#X connect 0 0 6 0;
#X connect 0 0 1 0;
#X connect 0 0 2 0;
#X connect 0 0 3 0;
#X connect 0 0 4 0;
#X connect 0 0 7 1;
#X connect 0 0 13 1;
#X connect 0 0 20 1;
#X connect 0 0 26 1;
#X connect 0 0 33 1;
#X connect 7 0 12 0;
#X connect 8 0 9 0;
#X connect 8 0 14 0;
#X connect 8 0 21 0;
#X connect 8 0 27 0;
#X connect 8 0 34 0;
#X connect 9 0 10 0;
#X connect 10 0 11 0;
#X connect 11 0 7 0;
#X connect 11 1 43 0;
#X connect 12 0 18 0;
#X connect 13 0 17 0;
#X connect 14 0 15 0;
#X connect 15 0 16 0;
#X connect 16 0 13 0;
#X connect 16 1 41 0;
#X connect 17 0 19 0;
#X connect 20 0 24 0;
#X connect 21 0 22 0;
#X connect 22 0 23 0;
#X connect 23 0 20 0;
#X connect 23 1 42 0;
#X connect 24 0 25 0;
#X connect 26 0 30 0;
#X connect 27 0 28 0;
#X connect 28 0 29 0;
#X connect 29 0 26 0;
#X connect 29 1 44 0;
#X connect 30 0 31 0;
#X connect 32 0 30 1;
#X connect 33 0 37 0;
#X connect 34 0 35 0;
#X connect 35 0 36 0;
#X connect 36 0 33 0;
#X connect 36 1 40 0;
#X connect 37 0 38 0;
#X connect 39 0 37 1;
#X connect 40 0 39 0;
#X connect 41 0 17 1;
#X connect 42 0 24 1;
#X connect 43 0 12 1;
#X connect 44 0 32 0;
#X restore 250 401 pd loader;
#X obj 380 404 s \$0-karplusID;
#N canvas 0 23 450 300 dspLogic 0;
#X obj 37 37 inlet;
#X obj 105 156 tabread \$0-karplus_sequence;
#X obj 101 114 + 1;
#X obj 138 175 tabread \$0-karplus_sequence;
#X obj 137 133 - 1;
#X obj 36 58 t f f f, f 18;
#X obj 143 220 r \$0-karplusID;
#X obj 105 177 +;
#X obj 105 221 pack;
#X msg 105 242 \; \$2-dsp_rec \$1;
#X obj 105 198 > 0;
#X obj 101 135 % 128;
#X connect 0 0 5 0;
#X connect 1 0 7 0;
#X connect 2 0 11 0;
#X connect 3 0 7 1;
#X connect 4 0 3 0;
#X connect 5 1 2 0;
#X connect 5 2 4 0;
#X connect 6 0 8 1;
#X connect 7 0 10 0;
#X connect 8 0 9 0;
#X connect 10 0 8 0;
#X connect 11 0 1 0;
#X restore 42 46 pd dspLogic;
#X obj 203 168 random 6;
#X obj 404 171 random 5;
#X obj 203 190 sel 0 1 2;
#X obj 23 186 sel 0 1 2;
#X connect 0 0 2 0;
#X connect 2 0 12 0;
#X connect 2 1 6 1;
#X connect 3 0 14 0;
#X connect 3 0 20 0;
#X connect 3 0 24 0;
#X connect 4 0 5 0;
#X connect 4 0 28 0;
#X connect 5 0 3 0;
#X connect 6 0 1 0;
#X connect 6 1 26 0;
#X connect 6 1 27 0;
#X connect 7 0 13 0;
#X connect 7 1 8 1;
#X connect 8 0 6 0;
#X connect 9 0 8 0;
#X connect 10 0 8 0;
#X connect 11 0 8 0;
#X connect 12 0 3 1;
#X connect 13 0 32 0;
#X connect 14 0 7 0;
#X connect 15 0 29 0;
#X connect 15 1 16 1;
#X connect 16 0 6 0;
#X connect 17 0 16 0;
#X connect 18 0 16 0;
#X connect 19 0 16 0;
#X connect 20 0 15 0;
#X connect 21 0 30 0;
#X connect 21 1 22 1;
#X connect 22 0 6 0;
#X connect 23 0 22 0;
#X connect 24 0 21 0;
#X connect 25 0 23 0;
#X connect 29 0 31 0;
#X connect 30 0 25 0;
#X connect 31 0 17 0;
#X connect 31 1 18 0;
#X connect 31 2 19 0;
#X connect 32 0 9 0;
#X connect 32 1 10 0;
#X connect 32 2 11 0;
#X restore 848 233 pd karplus;
#X obj 740 257 outlet~;
#N canvas 293 23 470 494 gran 0;
#X obj 179 12 inlet;
#X obj 25 443 outlet~;
#X obj 179 31 unpack, f 14;
#N canvas 0 23 450 300 onoffLogic 0;
#X obj 302 19 inlet;
#X obj 47 47 inlet;
#X obj 190 162 int;
#X obj 190 205 route 1;
#X obj 190 252 outlet;
#X obj 190 183 pack, f 9;
#X obj 216 116 t b f;
#X connect 0 0 6 0;
#X connect 1 0 2 1;
#X connect 2 0 5 0;
#X connect 3 0 4 0;
#X connect 5 0 3 0;
#X connect 6 0 2 0;
#X connect 6 1 5 1;
#X restore 27 81 pd onoffLogic;
#X f 27;
#X obj 27 13 inlet;
#X obj 27 124 t b f, f 6;
#X obj 27 167 +, f 6;
#X obj 179 52 % 12;
#N canvas 0 23 185 120 loader 0;
#X obj 44 13 inlet;
#X msg 48 39 \; \$1-env_rec 1;
#X connect 0 0 1 0;
#X restore 253 453 pd loader;
#N canvas 0 23 450 300 dspLogic 0;
#X obj 37 37 inlet;
#X obj 101 114 + 1;
#X obj 137 133 - 1;
#X obj 36 58 t f f f, f 18;
#X obj 105 177 +;
#X obj 105 221 pack;
#X msg 105 242 \; \$2-dsp_rec \$1;
#X obj 105 198 > 0;
#X obj 101 135 % 128;
#X obj 143 220 r \$0-granID;
#X obj 138 175 tabread \$0-gran_sequence;
#X obj 105 156 tabread \$0-gran_sequence;
#X connect 0 0 3 0;
#X connect 1 0 8 0;
#X connect 2 0 10 0;
#X connect 3 1 1 0;
#X connect 3 2 2 0;
#X connect 4 0 7 0;
#X connect 5 0 6 0;
#X connect 7 0 5 0;
#X connect 8 0 11 0;
#X connect 9 0 5 1;
#X connect 10 0 4 1;
#X connect 11 0 4 0;
#X restore 52 32 pd dspLogic;
#X obj 26 352 gransyn1_sjf~;
#X obj 26 240 tgl 15 0 empty empty empty 17 7 0 10 -262144 -1 -1 0
1;
#N canvas 0 23 450 300 midiNote_logic 0;
#X obj 80 63 inlet;
#X obj 191 88 t f f, f 9;
#X obj 71 141 > 0;
#X obj 127 154 - 69;
#X obj 237 172 / 127;
#X obj 83 91 t f f;
#X obj 83 112 *;
#X obj 127 132 expr floor($f1);
#X text 69 45 midi pitch;
#X obj 191 68 inlet;
#X text 180 50 midi pitch;
#X obj 237 193 outlet;
#X obj 127 175 outlet;
#X obj 239 129 sel 0;
#X obj 71 162 outlet;
#X connect 0 0 5 0;
#X connect 1 0 6 1;
#X connect 1 1 13 0;
#X connect 2 0 14 0;
#X connect 3 0 12 0;
#X connect 4 0 11 0;
#X connect 5 0 6 0;
#X connect 5 1 7 0;
#X connect 6 0 2 0;
#X connect 7 0 3 0;
#X connect 9 0 1 0;
#X connect 13 1 4 0;
#X restore 27 219 pd midiNote_logic;
#N canvas 0 23 527 322 grain_trigger_+_param_variations 0;
#X obj 52 45 inlet;
#N canvas 0 23 450 300 rand_Pan 0;
#X obj 37 37 inlet;
#X obj 101 140 / 10000;
#X obj 38 61 bng 15 250 50 0 empty empty empty 17 7 0 10 -262144 -1
-1;
#X obj 40 202 *, f 19;
#X obj 101 119 random 10000;
#X obj 38 81 t b b;
#X obj 38 102 random 2;
#X obj 38 123 sel 0;
#X msg 38 144 -1, f 2;
#X obj 201 117 t f f;
#X obj 201 138 *;
#X obj 40 244 outlet;
#N canvas 0 23 450 300 rand_Changes 0;
#X obj 119 18 loadbang;
#X msg 119 39 1;
#X obj 119 60 metro 5000;
#X obj 119 81 random 10000;
#X obj 119 102 / 10000;
#X msg 119 123 \$1 5000;
#X obj 119 144 line;
#X obj 119 165 outlet;
#X connect 0 0 1 0;
#X connect 1 0 2 0;
#X connect 2 0 3 0;
#X connect 3 0 4 0;
#X connect 4 0 5 0;
#X connect 5 0 6 0;
#X connect 6 0 7 0;
#X restore 201 94 pd rand_Changes;
#X obj 101 160 * 1, f 19;
#X obj 40 223 + 0.2, f 8;
#X connect 0 0 2 0;
#X connect 1 0 13 0;
#X connect 2 0 5 0;
#X connect 3 0 14 0;
#X connect 4 0 1 0;
#X connect 5 0 6 0;
#X connect 5 1 4 0;
#X connect 6 0 7 0;
#X connect 7 0 8 0;
#X connect 7 1 3 0;
#X connect 8 0 3 0;
#X connect 9 0 10 0;
#X connect 9 1 10 1;
#X connect 10 0 13 1;
#X connect 12 0 9 0;
#X connect 13 0 3 1;
#X connect 14 0 11 0;
#X restore 399 160 pd rand_Pan;
#N canvas 0 23 450 300 rand_pitch 0;
#X obj 110 29 inlet;
#X obj 254 58 t f f;
#X obj 254 79 *;
#X obj 134 193 +;
#X obj 134 214 outlet;
#X obj 184 171 inlet;
#X text 182 154 pitch;
#X obj 173 111 / 10000;
#X obj 173 90 random 10000;
#X obj 110 52 t b b, f 11;
#X obj 110 73 random 2;
#X obj 110 94 sel 0;
#X msg 110 115 -1, f 2;
#X obj 121 153 *, f 7;
#N canvas 0 23 450 300 rand_Changes 0;
#X obj 119 18 loadbang;
#X msg 119 39 1;
#X obj 119 60 metro 5000;
#X obj 119 81 random 10000;
#X obj 119 102 / 10000;
#X msg 119 123 \$1 5000;
#X obj 119 144 line;
#X obj 119 165 outlet;
#X connect 0 0 1 0;
#X connect 1 0 2 0;
#X connect 2 0 3 0;
#X connect 3 0 4 0;
#X connect 4 0 5 0;
#X connect 5 0 6 0;
#X connect 6 0 7 0;
#X restore 317 46 pd rand_Changes;
#X obj 173 132 * 0.5, f 19;
#X obj 317 67 * 1;
#X connect 0 0 9 0;
#X connect 1 0 2 0;
#X connect 1 1 2 1;
#X connect 2 0 15 1;
#X connect 3 0 4 0;
#X connect 5 0 3 1;
#X connect 7 0 15 0;
#X connect 8 0 7 0;
#X connect 9 0 10 0;
#X connect 9 1 8 0;
#X connect 10 0 11 0;
#X connect 11 0 12 0;
#X connect 11 1 13 0;
#X connect 12 0 13 0;
#X connect 13 0 3 0;
#X connect 14 0 16 0;
#X connect 15 0 13 1;
#X connect 16 0 1 0;
#X restore 291 160 pd rand_pitch;
#X obj 52 71 metro 20;
#N canvas 0 23 450 300 density 0;
#X obj 37 37 inlet;
#X obj 37 58 t b;
#X obj 37 79 random 10000;
#X obj 37 100 / 10000;
#X obj 37 194 outlet;
#X text 32 15 bang;
#X obj 37 149 sel 1;
#X obj 271 118 sqrt;
#X obj 37 128 < 0.5, f 25;
#N canvas 0 23 450 300 rand_Changes 0;
#X obj 119 18 loadbang;
#X msg 119 39 1;
#X obj 119 60 metro 5000;
#X obj 119 81 random 10000;
#X obj 119 102 / 10000;
#X msg 119 123 \$1 5000;
#X obj 119 144 line;
#X obj 119 165 outlet;
#X connect 0 0 1 0;
#X connect 1 0 2 0;
#X connect 2 0 3 0;
#X connect 3 0 4 0;
#X connect 4 0 5 0;
#X connect 5 0 6 0;
#X connect 6 0 7 0;
#X restore 271 86 pd rand_Changes;
#X connect 0 0 1 0;
#X connect 1 0 2 0;
#X connect 2 0 3 0;
#X connect 3 0 8 0;
#X connect 6 0 4 0;
#X connect 7 0 8 1;
#X connect 8 0 6 0;
#X connect 9 0 7 0;
#X restore 52 169 pd density;
#X obj 52 190 outlet;
#X text 49 211 trigger;
#X obj 300 55 inlet;
#X text 47 24 note on/off;
#X text 283 33 transposition;
#X obj 291 181 outlet;
#X text 286 203 transposition;
#X obj 399 181 outlet;
#X text 397 202 pan;
#X obj 52 92 t b b b b, f 33;
#X obj 162 192 outlet;
#X text 159 213 trigger;
#N canvas 0 23 450 300 grainLength 0;
#X obj 37 37 inlet;
#X obj 37 194 outlet;
#X text 32 15 bang;
#X obj 37 149 f 50;
#N canvas 0 23 450 300 rand_Changes 0;
#X obj 119 18 loadbang;
#X msg 119 39 1;
#X obj 119 60 metro 5000;
#X obj 119 81 random 10000;
#X obj 119 102 / 10000;
#X msg 119 123 \$1 5000;
#X obj 119 144 line;
#X obj 119 165 outlet;
#X connect 0 0 1 0;
#X connect 1 0 2 0;
#X connect 2 0 3 0;
#X connect 3 0 4 0;
#X connect 4 0 5 0;
#X connect 5 0 6 0;
#X connect 6 0 7 0;
#X restore 143 99 pd rand_Changes;
#X obj 143 120 * 50;
#X obj 143 141 + 40;
#X connect 0 0 3 0;
#X connect 3 0 1 0;
#X connect 4 0 5 0;
#X connect 5 0 6 0;
#X connect 6 0 3 1;
#X restore 162 171 pd grainLength;
#X connect 0 0 3 0;
#X connect 1 0 12 0;
#X connect 2 0 10 0;
#X connect 3 0 14 0;
#X connect 4 0 5 0;
#X connect 7 0 2 1;
#X connect 14 0 4 0;
#X connect 14 1 17 0;
#X connect 14 2 2 0;
#X connect 14 3 1 0;
#X connect 17 0 15 0;
#X restore 26 260 pd grain_trigger_+_param_variations;
#X f 16;
#X obj 331 458 s \$0-granID;
#X obj 109 446 outlet~;
#X obj 42 309 bng 15 250 50 0 empty empty empty 17 7 0 10 -262144 -1
-1;
#X msg 27 145 5;
#X obj 27 52 tabread \$0-gran_sequence;
#X obj 27 198 makenote 100 500, f 17;
#X obj 27 101 + 60;
#X connect 0 0 2 0;
#X connect 2 0 7 0;
#X connect 2 1 19 1;
#X connect 3 0 20 0;
#X connect 4 0 9 0;
#X connect 4 0 18 0;
#X connect 5 0 17 0;
#X connect 5 1 6 1;
#X connect 6 0 19 0;
#X connect 7 0 3 1;
#X connect 10 0 1 0;
#X connect 10 1 15 0;
#X connect 10 2 14 0;
#X connect 10 2 8 0;
#X connect 11 0 13 0;
#X connect 12 0 11 0;
#X connect 12 1 13 1;
#X connect 12 2 10 7;
#X connect 13 0 10 0;
#X connect 13 0 16 0;
#X connect 13 1 10 1;
#X connect 13 2 10 2;
#X connect 13 3 10 4;
#X connect 17 0 6 0;
#X connect 18 0 3 0;
#X connect 19 0 12 0;
#X connect 19 1 12 1;
#X connect 20 0 5 0;
#X restore 764 233 pd gran;
#X obj 792 257 outlet~;
#X obj 635 43 inlet;
#X connect 0 0 6 0;
#X connect 1 0 0 1;
#X connect 2 0 3 1;
#X connect 3 0 7 0;
#X connect 4 0 5 1;
#X connect 5 0 8 0;
#X connect 5 1 9 0;
#X connect 5 2 10 0;
#X connect 11 0 13 1;
#X connect 11 0 17 0;
#X connect 13 0 12 0;
#X connect 15 0 18 1;
#X connect 17 0 20 1;
#X connect 18 0 16 0;
#X connect 19 0 0 0;
#X connect 19 0 5 0;
#X connect 19 0 13 0;
#X connect 19 0 20 0;
#X connect 19 0 18 0;
#X connect 19 0 3 0;
#X connect 19 0 23 0;
#X connect 19 0 25 0;
#X connect 20 0 14 0;
#X connect 21 0 23 1;
#X connect 23 0 22 0;
#X connect 25 0 24 0;
#X connect 25 1 26 0;
#X connect 27 0 25 1;
#X restore 147 189 pd synths_etc;
#X f 16;
#X obj 147 136 tgl 15 0 empty empty empty 17 7 0 10 -262144 -1 -1 1
1;
#N canvas 178 345 957 346 fx_&_Mixer 0;
#X obj 28 46 inlet~;
#X text 19 28 mangler;
#X obj 137 46 inlet~;
#X text 141 28 bass;
#X obj 227 46 inlet~;
#X obj 404 46 inlet~;
#X text 395 28 noise synth;
#X text 234 28 kick;
#X obj 282 46 inlet~;
#X text 283 28 snare;
#X obj 338 46 inlet~;
#X text 339 28 hihat;
#X obj 267 116 catch~ \$0-outL;
#X obj 358 116 catch~ \$0-outR;
#X obj 317 309 outlet~;
#X obj 408 309 outlet~;
#X obj 527 46 inlet~;
#X text 518 28 noise synth 2;
#X obj 628 46 inlet~;
#X text 632 28 pad;
#N canvas 0 23 460 335 mangler_strip 0;
#X obj 167 28 inlet~;
#X obj 167 53 vol_sjf~;
#X obj 167 102 pan_sjf~;
#X obj 26 166 throw~ \$0-outL;
#X obj 283 148 throw~ \$0-outR;
#X obj 154 264 throw~ \$0-revL;
#X obj 245 264 throw~ \$0-revR;
#X obj 162 213 vol2_sjf~;
#X obj 254 197 loadbang;
#X msg 254 218 0.1;
#X obj 255 45 loadbang;
#X msg 255 66 0.707;
#X connect 0 0 1 0;
#X connect 1 0 2 0;
#X connect 2 0 3 0;
#X connect 2 0 7 0;
#X connect 2 1 4 0;
#X connect 2 1 7 1;
#X connect 7 0 5 0;
#X connect 7 1 6 0;
#X connect 8 0 9 0;
#X connect 9 0 7 2;
#X connect 10 0 11 0;
#X connect 11 0 1 1;
#X restore 28 67 pd mangler_strip;
#N canvas 0 23 713 535 bass_strip 0;
#X obj 110 23 inlet~;
#X obj 110 70 vol_sjf~;
#X obj 28 389 throw~ \$0-outL;
#X obj 369 389 throw~ \$0-outR;
#X obj 199 461 throw~ \$0-revL;
#X obj 290 461 throw~ \$0-revR;
#X obj 199 417 vol2_sjf~;
#X obj 384 416 loadbang;
#X msg 384 437 0.1;
#X obj 28 280 flange_sjf~;
#X obj 369 280 flange_sjf~;
#X obj 423 14 r \$0-current_bar;
#X obj 357 50 > 4;
#X obj 391 100 change;
#X obj 391 152 line;
#X obj 391 174 t f f;
#X obj 391 195 *;
#X obj 110 44 hip~ 50;
#X obj 110 141 distort_sjf~;
#X msg 283 237 \; \$1-vol_rec 0.4;
#N canvas 0 23 450 300 loader 0;
#X obj 133 44 inlet;
#X msg 135 114 \; \$1-rate_rec 0.01;
#X msg 45 117 \; \$1-lfo_rec 2;
#X msg 250 117 \; \$1-delay_time_rec 28;
#X msg 210 185 \; \$1-fb_rec 0.2;
#X connect 0 0 2 0;
#X connect 0 0 1 0;
#X connect 0 0 3 0;
#X connect 0 0 4 0;
#X restore 261 346 pd loader;
#N canvas 0 23 419 179 loader 0;
#X obj 165 28 inlet;
#X msg 38 92 \; \$1-rate_rec 0.01;
#X msg 149 93 \; \$1-delay_time_rec 19;
#X msg 284 93 \; \$1-lfo_rec 2;
#X msg 243 45 \; \$1-fb_rec 0.2;
#X connect 0 0 1 0;
#X connect 0 0 2 0;
#X connect 0 0 3 0;
#X connect 0 0 4 0;
#X restore 602 345 pd loader;
#X obj 391 216 * 0.4;
#X obj 456 99 r \$0-reset;
#X msg 456 120 0;
#X obj 411 63 < 60;
#X obj 423 35 t f f;
#X obj 357 71 *;
#X msg 391 121 \$1 15000;
#X connect 0 0 17 0;
#X connect 1 0 18 0;
#X connect 6 0 4 0;
#X connect 6 1 5 0;
#X connect 7 0 8 0;
#X connect 8 0 6 2;
#X connect 9 0 2 0;
#X connect 9 0 6 0;
#X connect 9 1 20 0;
#X connect 10 0 3 0;
#X connect 10 0 6 1;
#X connect 10 1 21 0;
#X connect 11 0 26 0;
#X connect 12 0 27 0;
#X connect 13 0 28 0;
#X connect 14 0 15 0;
#X connect 15 0 16 0;
#X connect 15 1 16 1;
#X connect 16 0 22 0;
#X connect 17 0 1 0;
#X connect 18 0 9 0;
#X connect 18 0 10 0;
#X connect 18 1 19 0;
#X connect 22 0 1 1;
#X connect 23 0 24 0;
#X connect 24 0 14 0;
#X connect 25 0 27 1;
#X connect 26 0 12 0;
#X connect 26 1 25 0;
#X connect 27 0 13 0;
#X connect 28 0 14 0;
#X restore 137 67 pd bass_strip;
#N canvas 0 23 686 535 synthDrums_Strip 0;
#X obj 257 395 throw~ \$0-outL;
#X obj 347 395 throw~ \$0-outR;
#X obj 232 191 catch~ \$0-synthDrumsL;
#X obj 368 190 catch~ \$0-synthDrumsR;
#X obj 80 416 throw~ \$0-revL;
#X obj 171 416 throw~ \$0-revR;
#X obj 88 365 vol2_sjf~;
#X obj 181 344 loadbang;
#X obj 234 213 ovrdr2_sjf~;
#X msg 373 290 \; \$1-vol_rec 0.73;
#X obj 99 30 inlet~;
#X obj 257 25 inlet~;
#X obj 392 33 inlet~;
#N canvas 873 77 450 300 synthKick_strip 0;
#X obj 34 3 inlet~;
#X obj 20 224 throw~ \$0-synthDrumsL;
#X obj 169 221 throw~ \$0-synthDrumsR;
#X obj 34 22 distort_sjf~;
#X obj 199 127 t f f;
#X obj 295 85 int;
#X floatatom 295 106 5 0 0 0 - - -;
#X obj 302 61 bng 15 250 50 0 empty empty empty 17 7 0 10 -262144 -1
-1;
#X msg 283 155 \; \$1-tone_rec 600;
#X msg 187 175 \; \$1-gain_rec 6;
#X msg 288 184 \; \$1-vol_rec 0.6;
#X msg 183 151 \; \$1-type_rec 1;
#X connect 0 0 3 0;
#X connect 3 0 1 0;
#X connect 3 0 2 0;
#X connect 3 1 4 0;
#X connect 3 1 5 0;
#X connect 4 0 11 0;
#X connect 4 1 9 0;
#X connect 4 1 8 0;
#X connect 4 1 10 0;
#X connect 5 0 6 0;
#X connect 7 0 5 0;
#X restore 102 72 pd synthKick_strip;
#N canvas 0 23 318 264 synthSnare_strip 0;
#X obj 37 37 inlet~;
#X obj 37 131 pan_sjf~;
#X obj 134 120 loadbang;
#X msg 134 141 0.44;
#X obj 40 175 throw~ \$0-synthDrumsL;
#X obj 73 198 throw~ \$0-synthDrumsR;
#X connect 0 0 1 0;
#X connect 1 0 4 0;
#X connect 1 1 5 0;
#X connect 2 0 3 0;
#X connect 3 0 1 1;
#X restore 242 69 pd synthSnare_strip;
#N canvas 0 23 450 300 synthHH_strip 0;
#X obj 88 64 inlet~;
#X obj 88 130 pan_sjf~;
#X obj 160 131 loadbang;
#X msg 160 153 0.66;
#X obj 28 185 throw~ \$0-synthDrumsL;
#X obj 61 208 throw~ \$0-synthDrumsR;
#X connect 0 0 1 0;
#X connect 1 0 4 0;
#X connect 1 1 5 0;
#X connect 2 0 3 0;
#X connect 3 0 1 1;
#X restore 388 71 pd synthHH_strip;
#X msg 181 365 0.1;
#X connect 2 0 8 0;
#X connect 3 0 8 1;
#X connect 6 0 4 0;
#X connect 6 1 5 0;
#X connect 7 0 16 0;
#X connect 8 0 0 0;
#X connect 8 0 6 0;
#X connect 8 1 1 0;
#X connect 8 1 6 1;
#X connect 8 2 9 0;
#X connect 10 0 13 0;
#X connect 11 0 14 0;
#X connect 12 0 15 0;
#X connect 16 0 6 2;
#X restore 227 67 pd synthDrums_Strip;
#N canvas 0 23 746 452 noise_synths_strip 0;
#X obj 37 37 inlet~;
#X obj 52 282 pan_sjf~;
#X obj 276 268 pan_sjf~;
#N canvas 0 23 450 300 rand_Changes 0;
#X obj 119 18 loadbang;
#X msg 119 39 1;
#X obj 119 60 metro 5000;
#X obj 119 81 random 10000;
#X obj 119 102 / 10000;
#X msg 119 123 \$1 5000;
#X obj 119 144 line;
#X obj 119 165 outlet;
#X connect 0 0 1 0;
#X connect 1 0 2 0;
#X connect 2 0 3 0;
#X connect 3 0 4 0;
#X connect 4 0 5 0;
#X connect 5 0 6 0;
#X connect 6 0 7 0;
#X restore 336 246 pd rand_Changes;
#N canvas 0 23 450 300 rand_Changes 0;
#X obj 119 18 loadbang;
#X msg 119 39 1;
#X obj 119 60 metro 5000;
#X obj 119 81 random 10000;
#X obj 119 102 / 10000;
#X msg 119 123 \$1 5000;
#X obj 119 144 line;
#X obj 119 165 outlet;
#X connect 0 0 1 0;
#X connect 1 0 2 0;
#X connect 2 0 3 0;
#X connect 3 0 4 0;
#X connect 4 0 5 0;
#X connect 5 0 6 0;
#X connect 6 0 7 0;
#X restore 72 246 pd rand_Changes;
#X obj 298 85 monodel_sjf~;
#X obj 36 84 monodel_sjf~;
#X obj 147 351 vol2_sjf~;
#X obj 144 403 throw~ \$0-revL;
#X obj 235 403 throw~ \$0-revR;
#X obj 236 326 loadbang;
#X msg 236 347 0.7;
#X msg 177 230 \; \$1-dry_rec 0;
#X msg 457 231 \; \$1-dry_rec 0;
#X obj 320 33 inlet~;
#X connect 0 0 6 0;
#X connect 0 0 2 0;
#X connect 1 0 7 0;
#X connect 1 1 7 1;
#X connect 2 0 7 0;
#X connect 2 1 7 1;
#X connect 3 0 2 1;
#X connect 4 0 1 1;
#X connect 5 0 2 0;
#X connect 5 1 13 0;
#X connect 6 0 1 0;
#X connect 6 1 12 0;
#X connect 7 0 8 0;
#X connect 7 1 9 0;
#X connect 10 0 11 0;
#X connect 11 0 7 2;
#X connect 14 0 1 0;
#X connect 14 0 5 0;
#X restore 404 67 pd noise_synths_strip;
#N canvas 0 23 633 366 pad_strip 0;
#X obj 309 4 inlet~;
#X obj 73 262 throw~ \$0-outL;
#X obj 106 285 throw~ \$0-outR;
#X obj 39 72 flange_sjf~;
#X obj 291 72 flange_sjf~;
#X obj 73 188 vol2_sjf~;
#X obj 226 288 throw~ \$0-revL;
#X obj 317 288 throw~ \$0-revR;
#X obj 234 237 vol2_sjf~;
#X obj 326 221 loadbang;
#X msg 326 242 0.6;
#N canvas 1005 279 383 219 loader 0;
#X obj 70 27 inlet;
#X msg 72 97 \; \$1-rate_rec 0.7;
#X msg 79 138 \; \$1-depth_rec 0.2;
#X msg 190 101 \; \$1-delay_time_rec 3;
#X connect 0 0 1 0;
#X connect 0 0 3 0;
#X connect 0 0 2 0;
#X restore 118 143 pd loader;
#N canvas 0 23 383 219 loader 0;
#X obj 70 27 inlet;
#X msg 187 100 \; \$1-delay_time_rec 5;
#X msg 79 138 \; \$1-depth_rec 0.2;
#X msg 72 97 \; \$1-rate_rec 0.7;
#X connect 0 0 3 0;
#X connect 0 0 1 0;
#X connect 0 0 2 0;
#X restore 453 167 pd loader;
#X obj 157 187 loadbang;
#X msg 157 208 0.4;
#X obj 309 27 pan_sjf~;
#X obj 386 11 loadbang;
#X msg 386 32 0.4;
#X connect 0 0 15 0;
#X connect 3 0 5 0;
#X connect 3 1 11 0;
#X connect 4 0 5 1;
#X connect 4 1 12 0;
#X connect 5 0 1 0;
#X connect 5 0 8 0;
#X connect 5 1 2 0;
#X connect 5 1 8 1;
#X connect 8 0 6 0;
#X connect 8 1 7 0;
#X connect 9 0 10 0;
#X connect 10 0 8 2;
#X connect 13 0 14 0;
#X connect 14 0 5 2;
#X connect 15 0 3 0;
#X connect 15 1 4 0;
#X connect 16 0 17 0;
#X connect 17 0 15 1;
#X restore 628 67 pd pad_strip;
#N canvas 0 23 450 300 reverb 0;
#X obj 86 122 rev1~;
#X obj 177 122 rev1~;
#X obj 86 49 catch~ \$0-revL;
#X obj 177 49 catch~ \$0-revR;
#X obj 228 71 loadbang;
#X obj 86 144 outlet~;
#X obj 177 144 outlet~;
#X msg 228 93 60;
#X connect 0 0 5 0;
#X connect 1 0 6 0;
#X connect 2 0 0 0;
#X connect 3 0 1 0;
#X connect 4 0 7 0;
#X connect 7 0 0 1;
#X connect 7 0 1 1;
#X restore 485 119 pd reverb;
#X obj 850 46 inlet~;
#X text 854 28 karplus;
#N canvas 0 23 633 366 karplus_strip 0;
#X obj 15 1 inlet~;
#X obj 73 262 throw~ \$0-outL;
#X obj 106 285 throw~ \$0-outR;
#X obj 39 72 flange_sjf~;
#X obj 290 73 flange_sjf~;
#X obj 73 188 vol2_sjf~;
#X obj 226 288 throw~ \$0-revL;
#X obj 317 288 throw~ \$0-revR;
#X obj 234 237 vol2_sjf~;
#X obj 326 221 loadbang;
#X obj 157 187 loadbang;
#X msg 157 208 1;
#N canvas 174 375 450 300 loader 0;
#X obj 133 44 inlet;
#X msg 135 114 \; \$1-rate_rec 0.01;
#X msg 45 117 \; \$1-lfo_rec 2;
#X msg 210 185 \; \$1-fb_rec 0.2;
#X msg 250 117 \; \$1-delay_time_rec 54;
#X msg 102 185 \; \$1-wet_rec 0.6;
#X connect 0 0 2 0;
#X connect 0 0 1 0;
#X connect 0 0 4 0;
#X connect 0 0 3 0;
#X connect 0 0 5 0;
#X restore 252 158 pd loader;
#N canvas 0 23 419 179 loader 0;
#X obj 165 28 inlet;
#X msg 53 125 \; \$1-rate_rec 0.01;
#X msg 299 126 \; \$1-lfo_rec 2;
#X msg 258 78 \; \$1-fb_rec 0.2;
#X msg 164 126 \; \$1-delay_time_rec 28;
#X msg 69 66 \; \$1-wet_rec 0.6;
#X connect 0 0 1 0;
#X connect 0 0 4 0;
#X connect 0 0 2 0;
#X connect 0 0 3 0;
#X connect 0 0 5 0;
#X restore 476 160 pd loader;
#X msg 326 242 0.2;
#X obj 39 23 pan_sjf~;
#X obj 136 12 loadbang;
#X msg 116 28 0.6;
#X connect 0 0 15 0;
#X connect 3 0 5 0;
#X connect 3 1 12 0;
#X connect 4 0 5 1;
#X connect 4 1 13 0;
#X connect 5 0 1 0;
#X connect 5 0 8 0;
#X connect 5 1 2 0;
#X connect 5 1 8 1;
#X connect 8 0 6 0;
#X connect 8 1 7 0;
#X connect 9 0 14 0;
#X connect 10 0 11 0;
#X connect 11 0 5 2;
#X connect 14 0 8 2;
#X connect 15 0 4 0;
#X connect 15 0 3 0;
#X connect 16 0 17 0;
#X connect 17 0 15 1;
#X restore 850 85 pd karplus_strip;
#X obj 365 166 ovrdr2_sjf~;
#X msg 614 296 \; \$1-type_rec 1;
#X msg 524 296 \; \$1-gain_rec 1;
#X obj 850 65 *~ 4;
#X obj 725 46 inlet~;
#X text 751 24 gran;
#X obj 771 46 inlet~;
#N canvas 0 23 507 617 gran_strip 0;
#X obj 86 16 inlet~;
#X obj 130 423 vol2_sjf~;
#X obj 225 423 loadbang;
#X obj 256 16 inlet~;
#X obj 90 503 throw~ \$0-outL;
#X obj 181 503 throw~ \$0-outR;
#X obj 280 540 throw~ \$0-revL;
#X obj 371 540 throw~ \$0-revR;
#X obj 280 496 vol2_sjf~;
#X obj 380 464 loadbang;
#X obj 86 43 distort2_sjf~;
#X obj 336 78 int;
#X msg 410 105 \; \$1-type_rec 4;
#X obj 90 207 monodel_sjf~;
#X obj 277 211 monodel_sjf~;
#X obj 146 166 r \$0-noteLength;
#X obj 146 187 * 0.9;
#X obj 329 161 r \$0-noteLength;
#X obj 329 182 * 1.1;
#N canvas 0 23 450 300 loader 0;
#X obj 121 74 inlet;
#X obj 121 99 int;
#X msg 121 215 \; \$1-depth_rec 0.8;
#X msg 137 151 \; \$1-wet_rec 0.707;
#X connect 0 0 1 0;
#X connect 1 0 2 0;
#X connect 1 0 3 0;
#X restore 155 355 pd loader;
#N canvas 0 23 450 300 loader 0;
#X obj 121 74 inlet;
#X obj 121 99 int;
#X msg 121 215 \; \$1-depth_rec 0.8;
#X msg 137 151 \; \$1-wet_rec 0.707;
#X connect 0 0 1 0;
#X connect 1 0 2 0;
#X connect 1 0 3 0;
#X restore 362 360 pd loader;
#X msg 380 485 0.15;
#X msg 312 106 \; \$1-gain_rec 4;
#X msg 225 443 0.1;
#X connect 0 0 10 0;
#X connect 1 0 4 0;
#X connect 1 0 8 0;
#X connect 1 1 5 0;
#X connect 1 1 8 1;
#X connect 2 0 23 0;
#X connect 3 0 10 1;
#X connect 8 0 6 0;
#X connect 8 1 7 0;
#X connect 9 0 21 0;
#X connect 10 0 13 0;
#X connect 10 1 14 0;
#X connect 10 2 11 0;
#X connect 11 0 22 0;
#X connect 11 0 12 0;
#X connect 13 0 1 0;
#X connect 13 1 19 0;
#X connect 14 0 1 1;
#X connect 14 1 20 0;
#X connect 15 0 16 0;
#X connect 16 0 13 1;
#X connect 17 0 18 0;
#X connect 18 0 14 1;
#X connect 21 0 8 2;
#X connect 23 0 1 2;
#X restore 729 68 pd gran_strip;
#X msg 709 296 \; \$1-tone_rec 10000;
#X connect 0 0 20 0;
#X connect 2 0 21 0;
#X connect 4 0 22 0;
#X connect 5 0 23 0;
#X connect 8 0 22 1;
#X connect 10 0 22 2;
#X connect 12 0 29 0;
#X connect 13 0 29 1;
#X connect 16 0 23 1;
#X connect 18 0 24 0;
#X connect 25 0 29 0;
#X connect 25 1 29 1;
#X connect 26 0 32 0;
#X connect 29 0 14 0;
#X connect 29 1 15 0;
#X connect 29 2 30 0;
#X connect 29 2 31 0;
#X connect 29 2 37 0;
#X connect 32 0 28 0;
#X connect 33 0 36 0;
#X connect 35 0 36 1;
#X restore 147 214 pd fx_&_Mixer;
#X f 16;
#X obj 147 239 vol2_sjf~;
#X obj 147 279 dac~, f 6;
#X obj 261 216 bng 15 250 50 0 empty empty empty 17 7 0 10 -262144
-1 -1;
#N canvas 0 23 1280 751 genPiece 0;
#X obj 299 25 inlet;
#X obj 306 64 uzi_sjf 128;
#X obj 37 154 < 64;
#X obj 10 175 *, f 5;
#X obj 10 133 t f f f, f 12;
#X obj 9 283 pack, f 12;
#X obj 9 304 tabwrite \$0-bass_sequence;
#X obj 140 473 *, f 5;
#X obj 140 431 t f f f, f 12;
#X obj 140 597 pack, f 12;
#X obj 140 616 tabwrite \$0-kick_sequence;
#X obj 171 454 < 112;
#X obj 299 477 *, f 5;
#X obj 299 435 t f f f, f 12;
#X obj 299 596 pack, f 12;
#X obj 299 617 tabwrite \$0-hihat_sequence;
#X obj 326 456 < 96;
#X obj 404 466 *, f 5;
#X obj 404 424 t f f f, f 12;
#X obj 403 571 pack, f 12;
#X obj 434 445 < 96;
#X obj 403 592 tabwrite \$0-snare_sequence;
#X obj 445 247 *, f 5;
#X obj 445 205 t f f f, f 12;
#X obj 445 360 pack, f 12;
#X obj 445 226 > -1;
#X obj 445 381 tabwrite \$0-noise_sequence;
#X obj 779 180 *, f 5;
#X obj 779 136 t f f f, f 12;
#X obj 779 278 pack, f 12;
#X obj 779 299 tabwrite \$0-pad_sequence;
#X obj 10 154 > 2;
#X obj 140 452 > 10;
#X obj 779 159 > 70;
#X obj 475 226 < 88;
#X obj 558 169 *, f 5;
#X obj 558 125 t f f f, f 12;
#X obj 559 297 pack, f 12;
#X obj 559 318 tabwrite \$0-mangler_sequence;
#X obj 558 148 > 32;
#X obj 300 456 > 7;
#X obj 404 445 > 15;
#X obj 140 500 sel 1;
#X obj 140 521 random 10000;
#X obj 140 542 / 10000;
#X obj 297 501 sel 1;
#X obj 297 522 random 10000;
#X obj 297 543 / 10000;
#X obj 403 484 sel 1;
#X obj 403 505 random 10000;
#X obj 403 526 / 10000;
#X obj 444 266 sel 1;
#X obj 444 287 random 10000;
#X obj 444 308 / 10000;
#X obj 559 192 sel 1;
#X obj 559 213 random 10000;
#X obj 559 234 / 10000;
#X obj 140 563 < 0.95;
#X obj 297 564 < 0.95;
#X obj 403 547 < 0.95;
#X obj 942 182 *, f 5;
#X obj 942 138 t f f f, f 12;
#X obj 942 280 pack, f 12;
#X obj 972 161 < 128;
#X obj 942 301 tabwrite \$0-karplus_sequence;
#X obj 942 161 > 78;
#X obj 588 148 < 116;
#N canvas 0 22 450 278 (subpatch) 0;
#X array \$0-bass_sequence 128 float 3;
#A 0 0 0 0 1 1 1 1 1 1 1 1 1 1 1 1 1 1 1 1 1 1 1 1 1 1 1 1 1 1 1 1
1 1 1 1 1 1 1 1 1 1 1 1 1 1 1 1 1 1 1 1 1 1 1 1 1 1 1 1 1 1 1 1 1 0
0 0 0 0 0 0 0 0 0 0 0 0 0 0 0 0 0 0 0 0 0 0 0 0 0 0 0 0 0 0 0 0 0 0
0 0 0 0 0 0 0 0 0 0 0 0 0 0 0 0 0 0 0 0 0 0 0 0 0 0 0 0 0;
#X coords 0 1 128 0 200 40 1 0 0;
#X restore 738 368 graph;
#N canvas 0 22 450 278 (subpatch) 0;
#X array \$0-noise_sequence 128 float 3;
#A 0 1 1 1 1 0 0 1 0 0 1 0 0 0 1 1 1 0 1 0 1 1 1 0 1 1 0 1 1 1 1 0
1 1 1 0 0 1 1 0 0 1 1 0 0 1 0 0 0 1 1 1 1 1 1 0 1 0 1 1 0 1 1 0 0 0
1 1 1 0 0 1 1 0 1 0 1 0 1 0 1 1 1 1 1 1 1 0 1 0 0 0 0 0 0 0 0 0 0 0
0 0 0 0 0 0 0 0 0 0 0 0 0 0 0 0 0 0 0 0 0 0 0 0 0 0 0 0 0;
#X coords 0 1 128 0 200 40 1 0 0;
#X restore 981 371 graph;
#N canvas 0 22 450 278 (subpatch) 0;
#X array \$0-kick_sequence 128 float 3;
#A 0 0 0 0 0 0 0 0 0 0 0 0 1 1 1 1 1 1 1 1 1 1 1 1 1 1 1 1 1 1 1 1
1 1 1 0 1 1 1 1 1 1 1 1 1 1 1 1 1 1 1 1 1 1 0 1 1 1 1 1 1 1 1 1 1 1
1 1 0 1 1 1 1 1 1 1 1 1 1 1 1 1 0 1 1 1 1 1 1 1 1 1 1 1 1 1 1 1 1 1
1 1 1 1 1 1 1 1 1 1 1 1 1 0 0 0 0 0 0 0 0 0 0 0 0 0 0 0 0;
#X coords 0 1 128 0 200 40 1 0 0;
#X restore 738 435 graph;
#N canvas 0 22 450 278 (subpatch) 0;
#X array \$0-snare_sequence 128 float 3;
#A 0 0 0 0 0 0 0 0 0 0 0 0 0 0 0 0 0 1 1 1 1 1 1 1 1 0 1 1 1 1 1 1
1 1 1 1 1 1 1 0 1 1 1 1 1 1 1 1 1 1 1 1 1 1 1 1 1 1 1 1 1 1 1 1 1 1
1 0 0 1 1 1 1 1 1 1 1 1 1 1 1 1 1 1 1 1 1 1 0 1 1 1 1 1 1 1 1 0 0 0
0 0 0 0 0 0 0 0 0 0 0 0 0 0 0 0 0 0 0 0 0 0 0 0 0 0 0 0 0;
#X coords 0 1 128 0 200 40 1 0 0;
#X restore 738 502 graph;
#N canvas 0 22 450 278 (subpatch) 0;
#X array \$0-hihat_sequence 128 float 3;
#A 0 0 0 0 0 0 0 0 0 1 0 1 1 1 1 1 1 1 1 1 1 1 1 1 1 1 1 1 1 1 1 1
1 1 1 1 0 1 1 1 1 1 1 1 1 1 1 1 1 1 1 0 1 1 1 1 1 1 1 1 1 1 1 0 1 1
1 1 1 1 1 1 1 1 1 1 1 1 1 1 1 1 1 1 1 1 1 1 1 1 0 1 1 1 1 0 1 0 0 0
0 0 0 0 0 0 0 0 0 0 0 0 0 0 0 0 0 0 0 0 0 0 0 0 0 0 0 0 0;
#X coords 0 1 128 0 200 40 1 0 0;
#X restore 738 569 graph;
#N canvas 0 22 450 278 (subpatch) 0;
#X array \$0-pad_sequence 128 float 3;
#A 0 0 0 0 0 0 0 0 0 0 0 0 0 0 0 0 0 0 0 0 0 0 0 0 0 0 0 0 0 0 0 0
0 0 0 0 0 0 0 0 0 0 0 0 0 0 0 0 0 0 0 0 0 0 0 0 0 0 0 0 0 0 0 0 0 0
0 0 0 0 0 0 1 1 1 1 1 1 1 1 1 1 1 1 1 1 1 1 1 1 1 1 1 1 1 1 1 1 1 1
1 1 1 1 1 1 1 1 1 1 1 1 1 1 1 1 1 1 1 1 1 0 0 0 0 0 0 0 0;
#X coords 0 1 128 0 200 40 1 0 0;
#X restore 981 438 graph;
#N canvas 0 22 450 278 (subpatch) 0;
#X array \$0-mangler_sequence 128 float 3;
#A 0 0 0 0 0 0 0 0 0 0 0 0 0 0 0 0 0 0 0 0 0 0 0 0 0 0 0 0 0 0 0 0
0 0 1 1 1 1 1 1 1 1 1 1 1 1 1 1 1 1 1 1 1 1 1 1 1 1 1 1 1 1 1 1 1 1
1 1 1 1 1 1 1 1 1 1 1 1 1 1 1 1 1 1 1 1 1 1 1 1 1 1 1 1 1 1 1 1 1 1
1 1 1 1 1 1 1 1 1 1 1 1 1 1 1 1 1 0 0 0 0 0 0 0 0 0 0 0 0;
#X coords 0 1 128 0 200 40 1 0 0;
#X restore 981 505 graph;
#N canvas 0 22 450 278 (subpatch) 0;
#X array \$0-karplus_sequence 128 float 3;
#A 0 0 0 0 0 0 0 0 0 0 0 0 0 0 0 0 0 0 0 0 0 0 0 0 0 0 0 0 0 0 0 0
0 0 0 0 0 0 0 0 0 0 0 0 0 0 0 0 0 0 0 0 0 0 0 0 0 0 0 0 0 0 0 0 0 0
0 0 0 0 0 0 0 0 0 0 0 0 0 0 1 1 1 1 1 1 1 1 1 1 1 1 1 1 1 1 1 1 1 1
1 1 1 1 1 1 1 1 1 1 1 1 1 1 1 1 1 1 1 1 1 1 1 1 1 1 1 1 1;
#X coords 0 1 128 0 200 40 1 0 0;
#X restore 981 572 graph;
#N canvas 0 22 450 278 (subpatch) 0;
#X array \$0-gran_sequence 128 float 3;
#A 0 0 0 0 0 0 0 0 0 0 0 0 0 0 0 0 0 0 0 0 0 0 0 0 0 0 0 0 0 0 0 0
0 0 0 0 0 0 0 0 0 0 1 1 1 1 1 1 1 1 1 1 1 1 1 1 1 1 1 1 1 1 1 1 1 1
1 1 1 0 0 0 0 0 0 0 0 0 0 0 0 0 0 0 0 0 0 0 0 0 0 0 0 0 0 0 0 0 0 0
0 0 0 0 0 0 0 0 0 0 0 0 0 0 0 0 0 0 0 0 0 0 0 0 0 0 0 0 0;
#X coords 0 1 128 0 200 40 1 0 0;
#X restore 982 638 graph;
#X obj 1042 146 *, f 5;
#X obj 1042 102 t f f f, f 12;
#X obj 1042 244 pack, f 12;
#X obj 1041 264 tabwrite \$0-gran_sequence;
#X obj 1042 125 > 40;
#X obj 1072 125 < 68;
#X obj 809 159 < 120;
#X obj 346 648 bng 15 250 50 0 empty empty empty 17 7 0 10 -262144
-1 -1;
#X obj 346 668 int;
#X obj 346 689 t f f f;
#X msg 416 717 \; \$1-offset_rec 0;
#X msg 319 720 \; \$1-range_rec 1;
#X obj 529 624 shape_maker_sjf \$0-mangvars 1280;
#X msg 168 712 \; \$1-rmpDU_rec bang;
#X msg 168 678 \; \$1-rmpDwn_rec bang;
#X obj 444 329 < 0.7;
#X obj 559 255 < 0.98;
#X connect 0 0 1 0;
#X connect 1 2 4 0;
#X connect 1 2 8 0;
#X connect 1 2 13 0;
#X connect 1 2 18 0;
#X connect 1 2 23 0;
#X connect 1 2 28 0;
#X connect 1 2 36 0;
#X connect 1 2 61 0;
#X connect 1 2 77 0;
#X connect 2 0 3 1;
#X connect 3 0 5 0;
#X connect 4 0 31 0;
#X connect 4 1 2 0;
#X connect 4 2 5 1;
#X connect 5 0 6 0;
#X connect 7 0 42 0;
#X connect 8 0 32 0;
#X connect 8 1 11 0;
#X connect 8 2 9 1;
#X connect 9 0 10 0;
#X connect 11 0 7 1;
#X connect 12 0 45 0;
#X connect 13 0 40 0;
#X connect 13 1 16 0;
#X connect 13 2 14 1;
#X connect 14 0 15 0;
#X connect 16 0 12 1;
#X connect 17 0 48 0;
#X connect 18 0 41 0;
#X connect 18 1 20 0;
#X connect 18 2 19 1;
#X connect 19 0 21 0;
#X connect 20 0 17 1;
#X connect 22 0 51 0;
#X connect 23 0 25 0;
#X connect 23 1 34 0;
#X connect 23 2 24 1;
#X connect 24 0 26 0;
#X connect 25 0 22 0;
#X connect 27 0 29 0;
#X connect 28 0 33 0;
#X connect 28 1 82 0;
#X connect 28 2 29 1;
#X connect 29 0 30 0;
#X connect 31 0 3 0;
#X connect 32 0 7 0;
#X connect 33 0 27 0;
#X connect 34 0 22 1;
#X connect 35 0 54 0;
#X connect 36 0 39 0;
#X connect 36 1 66 0;
#X connect 36 2 37 1;
#X connect 37 0 38 0;
#X connect 39 0 35 0;
#X connect 40 0 12 0;
#X connect 41 0 17 0;
#X connect 42 0 43 0;
#X connect 42 1 9 0;
#X connect 43 0 44 0;
#X connect 44 0 57 0;
#X connect 45 0 46 0;
#X connect 45 1 14 0;
#X connect 46 0 47 0;
#X connect 47 0 58 0;
#X connect 48 0 49 0;
#X connect 48 1 19 0;
#X connect 49 0 50 0;
#X connect 50 0 59 0;
#X connect 51 0 52 0;
#X connect 51 1 24 0;
#X connect 52 0 53 0;
#X connect 53 0 91 0;
#X connect 54 0 55 0;
#X connect 54 1 37 0;
#X connect 55 0 56 0;
#X connect 56 0 92 0;
#X connect 57 0 9 0;
#X connect 58 0 14 0;
#X connect 59 0 19 0;
#X connect 60 0 62 0;
#X connect 61 0 65 0;
#X connect 61 1 63 0;
#X connect 61 2 62 1;
#X connect 62 0 64 0;
#X connect 63 0 60 1;
#X connect 65 0 60 0;
#X connect 66 0 35 1;
#X connect 76 0 78 0;
#X connect 77 0 80 0;
#X connect 77 1 81 0;
#X connect 77 2 78 1;
#X connect 78 0 79 0;
#X connect 80 0 76 0;
#X connect 81 0 76 1;
#X connect 82 0 27 1;
#X connect 83 0 84 0;
#X connect 84 0 85 0;
#X connect 85 0 90 0;
#X connect 85 1 87 0;
#X connect 85 2 86 0;
#X connect 88 0 84 0;
#X connect 91 0 24 0;
#X connect 92 0 37 0;
#X restore 261 236 pd genPiece;
#X obj 261 195 loadbang;
#X text 23 77 1 - turn on dsp --->;
#X text 23 135 2 - start piece --->;
#X text 11 257 3 - turn up volume -->;
#X connect 4 0 3 0;
#X connect 5 0 6 0;
#X connect 5 1 6 1;
#X connect 5 2 6 2;
#X connect 5 3 6 3;
#X connect 5 4 6 4;
#X connect 5 5 6 5;
#X connect 5 6 6 6;
#X connect 5 7 6 7;
#X connect 6 0 8 0;
#X connect 6 1 8 1;
#X connect 6 2 8 2;
#X connect 6 3 8 3;
#X connect 6 4 8 4;
#X connect 6 5 8 5;
#X connect 6 6 8 6;
#X connect 6 7 8 7;
#X connect 6 8 8 8;
#X connect 6 9 8 9;
#X connect 6 10 8 10;
#X connect 7 0 5 0;
#X connect 8 0 9 0;
#X connect 8 1 9 1;
#X connect 9 0 10 0;
#X connect 9 1 10 1;
#X connect 11 0 12 0;
#X connect 13 0 11 0;
