#N canvas 563 137 479 373 10;
#X text 318 349 sjf \, SAE London \, 2020;
#X text 61 97 ------------------------------------------------------------
;
#X text 70 43 Firstly \, go to Media >> Audio Settings and ensure your
drivers are set correctly;
#X text 72 69 Turn on DSP from the PD Window;
#X text 70 12 Our fourth synthesis lesson will look at granular synthesis
;
#X text 78 115 granular synthesis intro;
#N canvas 85 23 1225 580 granular_synthesis_1 0;
#N canvas 0 22 450 278 (subpatch) 0;
#X array \$0-Samp 209801 float 2;
#X coords 0 1 209801 -1 200 60 1 0 0;
#X restore 440 34 graph;
#X obj 801 83 openpanel;
#X obj 801 35 bng 15 250 50 0 empty empty empty 17 7 0 10 -262144 -1
-1;
#X obj 801 105 pack s \$0;
#X text 822 32 <--- load a different file;
#X obj 1022 42 loadbang;
#X obj 801 149 soundfiler;
#X msg 996 63 ./breaks/funkyDrummer.wav;
#X msg 1001 82 ./breaks/amenBreak.wav;
#X msg 1000 104 ./breaks/PlanetaryCitizen.wav;
#X obj 801 170 s \$0-Samp_len;
#X msg 801 129 read -resize \$1 \$2-Samp;
#X text 57 5 Granular synthesis is based on the idea that you can create
sound out of lots of tiny snippets of sound;
#X text 58 33 we can do this with any source \, but let's start with
a sample;
#X text 59 87 the grains of sound are generally <~ 100ms;
#X text 61 111 let's start with the first 50ms of our sample and use
that as a grain;
#X text 60 135 I'll use tabread4~ to play the grain so we can play
with the playback speed etc later;
#X obj 411 382 *~, f 12;
#X obj 411 427 +~ 1;
#X text 443 426 <--- according to tabread~ helpfile the indices begin
at 1 ???;
#X obj 411 456 tabread4~ \$0-Samp;
#X obj 411 477 vol_sjf~;
#X obj 411 549 dac~;
#X obj 410 329 vline~;
#X msg 410 305 0 \, 1 \$1;
#X obj 480 305 * 44.1;
#X obj 410 238 bng 15 250 50 0 empty empty empty 17 7 0 10 -262144
-1 -1;
#X obj 410 279 t f f;
#X text 522 306 Remember: tabread4~ works in sample position not ms
;
#X msg 410 258 50;
#X text 59 161 But to start I'll use vline~ to output my ramp;
#X text 166 291 vline~ expects timing in ms;
#X text 261 237 click me for grain --->;
#X text 485 496 <--- turn me up;
#X text 135 380 read from sample 0 --> grainlength in samples;
#X floatatom 494 332 5 0 0 0 - - -;
#X text 526 332 grain length (samples);
#X text 436 255 grain length (ms);
#X text 112 306 jump to 0 \, then go to one over grain length (ms)
;
#X text 60 176 this means we'll need to convert from 50ms to samples
in order to read the file using tabread4~;
#X connect 1 0 3 0;
#X connect 2 0 1 0;
#X connect 3 0 11 0;
#X connect 5 0 7 0;
#X connect 6 0 10 0;
#X connect 7 0 3 0;
#X connect 8 0 3 0;
#X connect 9 0 3 0;
#X connect 11 0 6 0;
#X connect 17 0 18 0;
#X connect 18 0 20 0;
#X connect 20 0 21 0;
#X connect 21 0 22 0;
#X connect 21 0 22 1;
#X connect 23 0 17 0;
#X connect 24 0 23 0;
#X connect 25 0 17 1;
#X connect 25 0 35 0;
#X connect 26 0 29 0;
#X connect 27 0 24 0;
#X connect 27 1 25 0;
#X connect 29 0 27 0;
#X restore 80 135 pd granular_synthesis_1;
#N canvas 92 63 1218 751 granular_synthesis_2 0;
#X obj 801 83 openpanel;
#X obj 801 35 bng 15 250 50 0 empty empty empty 17 7 0 10 -262144 -1
-1;
#X obj 801 105 pack s \$0;
#X text 822 32 <--- load a different file;
#X obj 801 149 soundfiler;
#X msg 996 63 ./breaks/funkyDrummer.wav;
#X msg 1001 82 ./breaks/amenBreak.wav;
#X msg 1000 104 ./breaks/PlanetaryCitizen.wav;
#X obj 801 170 s \$0-Samp_len;
#X msg 801 129 read -resize \$1 \$2-Samp;
#X obj 411 459 *~, f 12;
#X obj 411 503 +~ 1;
#X text 443 502 <--- according to tabread~ helpfile the indices begin
at 1 ???;
#X obj 411 532 tabread4~ \$0-Samp;
#X obj 411 553 vol_sjf~;
#X obj 411 625 dac~;
#X obj 410 329 vline~;
#X msg 410 305 0 \, 1 \$1;
#X obj 480 305 * 44.1;
#X obj 410 238 bng 15 250 50 0 empty empty empty 17 7 0 10 -262144
-1 -1;
#X text 522 306 Remember: tabread4~ works in sample position not ms
;
#X text 166 291 vline~ expects timing in ms;
#X text 261 237 click me for grain --->;
#X text 485 572 <--- turn me up;
#X text 135 457 read from sample 0 --> grainlength in samples;
#X text 546 216 grain length (ms);
#X text 112 306 jump to 0 \, then go to one over grain length (ms)
;
#X text 58 6 a single grain is pretty uninnspiring \, especially whe
we have so little control;
#X text 58 33 so here' we'll generalise some things;
#X floatatom 510 217 5 0 0 0 - - -;
#X obj 411 480 +~, f 28;
#X obj 574 450 f;
#X obj 410 258 f 50;
#X floatatom 953 206 5 0 0 0 - - -;
#X obj 686 422 * 44.1;
#X text 728 423 Remember: tabread4~ works in sample position not ms
;
#X text 62 49 I'm going to make it so changes are only triggered when
a new grain is triggered (this way there shouldn't be discontinuities
in the audio from changing parameters);
#X text 376 343 0-->1;
#X text 989 205 grain start (ms);
#X text 593 472 + x samples changes the starting point (e.g. + 100
\, instead of counting 0 \, 1 \, 2 \, 3 \, 4... it would count 100
\, 101 \, 102 \, 103 \, 104 \, ...etc);
#X obj 410 417 *~;
#X obj 437 391 sig~ 1;
#X obj 410 279 t f f b b, f 39;
#X floatatom 740 212 5 0 0 0 - - -;
#X text 776 211 playback speed;
#X obj 440 370 f, f 20;
#X text 36 381 we can change speed (and pitch!!!) of play back by multiply
our 0--->1 ramp by something;
#X text 34 431 e.g. *0.5 ==> read 1/2 the number of samples in the
same time \, i.e. read half speed and pitch;
#X text 32 406 e.g. *2 ==> read 2 times the number of samples in the
same time \, i.e. read double speed and pitch;
#X obj 567 134 loadbang;
#X msg 605 158 1;
#X msg 567 155 50;
#X connect 0 0 2 0;
#X connect 1 0 0 0;
#X connect 2 0 9 0;
#X connect 4 0 8 0;
#X connect 5 0 2 0;
#X connect 6 0 2 0;
#X connect 7 0 2 0;
#X connect 9 0 4 0;
#X connect 10 0 30 0;
#X connect 11 0 13 0;
#X connect 13 0 14 0;
#X connect 14 0 15 0;
#X connect 14 0 15 1;
#X connect 16 0 40 0;
#X connect 17 0 16 0;
#X connect 18 0 10 1;
#X connect 19 0 32 0;
#X connect 29 0 32 1;
#X connect 30 0 11 0;
#X connect 31 0 30 1;
#X connect 32 0 42 0;
#X connect 33 0 34 0;
#X connect 34 0 31 1;
#X connect 40 0 10 0;
#X connect 41 0 40 1;
#X connect 42 0 17 0;
#X connect 42 1 18 0;
#X connect 42 2 45 0;
#X connect 42 3 31 0;
#X connect 43 0 45 1;
#X connect 45 0 41 0;
#X connect 49 0 51 0;
#X connect 49 0 50 0;
#X connect 50 0 43 0;
#X connect 51 0 29 0;
#X restore 80 155 pd granular_synthesis_2;
#N canvas 56 103 1247 600 granular_synthesis_3 0;
#X obj 801 83 openpanel;
#X obj 801 35 bng 15 250 50 0 empty empty empty 17 7 0 10 -262144 -1
-1;
#X obj 801 105 pack s \$0;
#X text 822 32 <--- load a different file;
#X obj 801 149 soundfiler;
#X msg 996 63 ./breaks/funkyDrummer.wav;
#X msg 1001 82 ./breaks/amenBreak.wav;
#X msg 1000 104 ./breaks/PlanetaryCitizen.wav;
#X obj 801 170 s \$0-Samp_len;
#X msg 801 129 read -resize \$1 \$2-Samp;
#X obj 411 529 dac~;
#X obj 410 238 bng 15 250 50 0 empty empty empty 17 7 0 10 -262144
-1 -1;
#X text 261 237 click me for grain --->;
#X text 485 476 <--- turn me up;
#X text 546 216 grain length (ms);
#X text 58 33 so here' we'll generalise some things;
#X floatatom 510 217 5 0 0 0 - - -;
#X floatatom 690 231 5 0 0 0 - - -;
#X text 62 49 I'm going to make it so changes are only triggered when
a new grain is triggered (this way there shouldn't be discontinuities
in the audio from changing parameters);
#X text 726 230 grain start (ms);
#X floatatom 521 236 5 0 0 0 - - -;
#X text 557 235 playback speed;
#X text 77 94 Now we're ready to trigger lots of grains;
#X obj 690 251 t b f;
#X obj 521 256 t b f;
#X obj 411 149 tgl 15 0 empty empty empty 17 7 0 10 -262144 -1 -1 0
1;
#X obj 411 169 metro 50;
#X text 426 146 click here for coninuous output;
#X text 240 325 grain + envelope is inside;
#X text 58 5 le'ts add a generic ampltiude envelope \, panning \, and
encapsulate in a subpatcher;
#X obj 510 308 pack 50 1 0 0.5, f 57;
#X obj 838 251 t b f;
#X obj 841 231 hsl 128 15 0 1 0 0 empty empty pan -2 -8 0 10 -262144
-1 -1 6350 1;
#X obj 411 457 vol2_sjf~;
#N canvas 0 23 1114 704 grain_v1 0;
#X obj 456 315 *~, f 12;
#X obj 456 393 +~ 1;
#X text 488 392 <--- according to tabread~ helpfile the indices begin
at 1 ???;
#X obj 456 422 tabread4~ \$0-Samp;
#X obj 455 185 vline~;
#X msg 455 161 0 \, 1 \$1;
#X obj 525 161 * 44.1;
#X text 567 162 Remember: tabread4~ works in sample position not ms
;
#X text 211 147 vline~ expects timing in ms;
#X text 180 313 read from sample 0 --> grainlength in samples;
#X text 157 162 jump to 0 \, then go to one over grain length (ms)
;
#X obj 456 336 +~, f 28;
#X obj 619 306 f;
#X obj 455 114 f 50, f 22;
#X obj 731 278 * 44.1;
#X text 773 279 Remember: tabread4~ works in sample position not ms
;
#X text 421 199 0-->1;
#X text 638 328 + x samples changes the starting point (e.g. + 100
\, instead of counting 0 \, 1 \, 2 \, 3 \, 4... it would count 100
\, 101 \, 102 \, 103 \, 104 \, ...etc);
#X obj 455 273 *~;
#X obj 482 247 sig~ 1;
#X text 81 237 we can change speed (and pitch!!!) of play back by multiply
our 0--->1 ramp by something;
#X text 79 287 e.g. *0.5 ==> read 1/2 the number of samples in the
same time \, i.e. read half speed and pitch;
#X text 77 262 e.g. *2 ==> read 2 times the number of samples in the
same time \, i.e. read double speed and pitch;
#X obj 455 90 inlet;
#X text 443 63 bang for grain;
#X obj 485 226 f 1, f 20;
#X obj 702 34 inlet;
#X text 643 96 grain length (ms);
#X text 762 98 playback speed;
#X text 881 96 grain start;
#X obj 356 487 *~, f 17;
#X obj 354 606 outlet~;
#N canvas 0 23 450 300 cos_env 0;
#X obj 103 86 inlet~;
#X obj 103 150 cos~;
#X obj 103 129 -~ 0.25;
#X obj 103 171 outlet~;
#X obj 103 108 *~ 0.5;
#X text 149 132 offset by -90 degrees so we start at 0;
#X connect 0 0 4 0;
#X connect 1 0 3 0;
#X connect 2 0 1 0;
#X connect 4 0 2 0;
#X restore 358 363 pd cos_env;
#X text 34 362 I use the ramp to read through 90 degrees of a cosine
;
#X text 62 375 this gives a smooth amplitude envelope;
#X obj 702 78 unpack 0 0 0 0, f 53;
#X text 987 95 pan;
#X obj 354 580 *~;
#X obj 943 623 outlet~;
#X obj 943 597 *~;
#N canvas 0 23 450 300 panning 0;
#N canvas 0 23 450 300 cos_env 0;
#X obj 103 86 inlet~;
#X obj 103 150 cos~;
#X obj 103 129 -~ 0.25;
#X obj 103 171 outlet~;
#X obj 103 108 *~ 0.5;
#X text 149 132 offset by -90 degrees so we start at 0;
#X connect 0 0 4 0;
#X connect 1 0 3 0;
#X connect 2 0 1 0;
#X connect 4 0 2 0;
#X restore 113 180 pd cos_env;
#X obj 124 147 sig~;
#N canvas 0 23 450 300 cos_env 0;
#X obj 103 86 inlet~;
#X obj 103 150 cos~;
#X obj 103 129 -~ 0.25;
#X obj 103 171 outlet~;
#X obj 103 108 *~ 0.5;
#X text 149 132 offset by -90 degrees so we start at 0;
#X connect 0 0 4 0;
#X connect 1 0 3 0;
#X connect 2 0 1 0;
#X connect 4 0 2 0;
#X restore 197 183 pd cos_env;
#X obj 208 150 sig~;
#X obj 186 25 inlet;
#X obj 186 46 * 0.5;
#X obj 113 201 outlet~;
#X obj 197 204 outlet~;
#X text 238 150 0 ---> 0.5;
#X obj 124 97 * -1;
#X obj 124 118 + 0.5;
#X text 59 146 0.5 --> 0;
#X connect 0 0 6 0;
#X connect 1 0 0 0;
#X connect 2 0 7 0;
#X connect 3 0 2 0;
#X connect 4 0 5 0;
#X connect 5 0 3 0;
#X connect 5 0 9 0;
#X connect 9 0 10 0;
#X connect 10 0 1 0;
#X restore 900 477 pd panning;
#X obj 907 454 f 0.5;
#X obj 455 135 t f f b b b, f 54;
#X text 650 462 I use exactly thesame logic for panning;
#X text 660 474 as for the amplitude envelope;
#X connect 0 0 11 0;
#X connect 1 0 3 0;
#X connect 3 0 30 1;
#X connect 4 0 18 0;
#X connect 4 0 32 0;
#X connect 5 0 4 0;
#X connect 6 0 0 1;
#X connect 11 0 1 0;
#X connect 12 0 11 1;
#X connect 13 0 42 0;
#X connect 14 0 12 1;
#X connect 18 0 0 0;
#X connect 19 0 18 1;
#X connect 23 0 13 0;
#X connect 25 0 19 0;
#X connect 26 0 35 0;
#X connect 30 0 37 0;
#X connect 30 0 39 0;
#X connect 32 0 30 0;
#X connect 35 0 13 1;
#X connect 35 1 25 1;
#X connect 35 2 14 0;
#X connect 35 3 41 1;
#X connect 37 0 31 0;
#X connect 39 0 38 0;
#X connect 40 0 37 1;
#X connect 40 1 39 1;
#X connect 41 0 40 0;
#X connect 42 0 5 0;
#X connect 42 1 6 0;
#X connect 42 2 25 0;
#X connect 42 3 12 0;
#X connect 42 4 41 0;
#X restore 409 338 pd grain_v1;
#X f 17;
#X obj 594 89 loadbang;
#X msg 632 113 1;
#X msg 594 110 50;
#X msg 660 112 0.5;
#X connect 0 0 2 0;
#X connect 1 0 0 0;
#X connect 2 0 9 0;
#X connect 4 0 8 0;
#X connect 5 0 2 0;
#X connect 6 0 2 0;
#X connect 7 0 2 0;
#X connect 9 0 4 0;
#X connect 11 0 34 0;
#X connect 16 0 26 1;
#X connect 16 0 30 0;
#X connect 17 0 23 0;
#X connect 20 0 24 0;
#X connect 23 0 30 0;
#X connect 23 1 30 2;
#X connect 24 0 30 0;
#X connect 24 1 30 1;
#X connect 25 0 26 0;
#X connect 26 0 11 0;
#X connect 30 0 34 1;
#X connect 31 0 30 0;
#X connect 31 1 30 3;
#X connect 32 0 31 0;
#X connect 33 0 10 0;
#X connect 33 1 10 1;
#X connect 34 0 33 0;
#X connect 34 1 33 1;
#X connect 35 0 37 0;
#X connect 35 0 36 0;
#X connect 35 0 38 0;
#X connect 36 0 20 0;
#X connect 37 0 16 0;
#X connect 38 0 32 0;
#X restore 80 175 pd granular_synthesis_3;
#N canvas 228 123 984 507 granular_synthesis_4 0;
#X obj 604 68 openpanel;
#X obj 604 20 bng 15 250 50 0 empty empty empty 17 7 0 10 -262144 -1
-1;
#X obj 604 90 pack s \$0;
#X text 625 17 <--- load a different file;
#X obj 604 134 soundfiler;
#X msg 676 45 ./breaks/funkyDrummer.wav;
#X msg 681 64 ./breaks/amenBreak.wav;
#X msg 680 86 ./breaks/PlanetaryCitizen.wav;
#X obj 604 155 s \$0-Samp_len;
#X msg 604 114 read -resize \$1 \$2-Samp;
#X obj 229 405 dac~, f 6;
#X obj 229 256 bng 15 250 50 0 empty empty empty 17 7 0 10 -262144
-1 -1;
#X text 80 255 click me for grain --->;
#X text 303 383 <--- turn me up;
#X text 321 191 grain length (ms);
#X floatatom 285 192 5 0 0 0 - - -;
#X floatatom 296 211 5 0 0 0 - - -;
#X text 332 210 playback speed;
#X obj 230 167 tgl 15 0 empty empty empty 17 7 0 10 -262144 -1 -1 0
1;
#X obj 229 234 metro 50;
#X text 59 323 grain + envelope is inside;
#X obj 404 244 hsl 60 10 0 1 0 1 empty empty pan -2 -8 0 10 -262144
-1 -1 2950 1;
#X obj 229 364 vol2_sjf~;
#N canvas -744 934 674 322 grainParamsLogic 0;
#X obj 308 153 t b f;
#X obj 189 127 t b f;
#X obj 90 53 inlet;
#X obj 175 53 inlet;
#X obj 304 53 inlet;
#X obj 366 53 inlet;
#X obj 90 247 outlet;
#X obj 522 147 t b f;
#X obj 520 53 inlet;
#X obj 90 226 pack 50 1 0 0.5 0, f 71;
#X text 61 25 grain length;
#X obj 308 131 *, f 12;
#X obj 390 131 / 44.1;
#X obj 362 86 t b f f, f 20;
#X text 160 25 playback speed;
#X text 279 25 grain start;
#X text 362 25 filesize samples;
#X text 526 25 pan;
#X connect 0 0 9 0;
#X connect 0 1 9 2;
#X connect 1 0 9 0;
#X connect 1 1 9 1;
#X connect 2 0 9 0;
#X connect 3 0 1 0;
#X connect 4 0 11 0;
#X connect 5 0 13 0;
#X connect 7 0 9 0;
#X connect 7 1 9 4;
#X connect 8 0 7 0;
#X connect 9 0 6 0;
#X connect 11 0 0 0;
#X connect 12 0 11 1;
#X connect 13 0 11 0;
#X connect 13 1 12 0;
#X connect 13 2 9 3;
#X restore 285 300 pd grainParamsLogic;
#X f 20;
#X text 77 24 You may have noticed there were still some bugs with
my last player;
#X text 76 47 Some things I noticed;
#X text 78 60 - if you read backwards it only works in the middle of
the file (we can't read the -1 sample for example);
#X text 78 85 - similarly \, we can't read past the end of the file
either;
#N canvas -1280 581 833 556 grain_v2 0;
#X obj 145 324 +~ 1;
#X obj 145 357 tabread4~ \$0-Samp;
#X obj 46 117 f 50, f 22;
#X obj 46 93 inlet;
#X text 30 74 bang for grain;
#X obj 237 35 inlet;
#X text 178 75 grain length (ms);
#X text 297 77 playback speed;
#X text 416 75 grain start;
#X obj 46 385 *~, f 17;
#X obj 46 461 outlet~;
#X text 679 76 pan;
#X obj 46 435 *~, f 17;
#X obj 311 461 outlet~;
#X obj 311 435 *~, f 39;
#N canvas 0 23 450 300 panning 0;
#N canvas 0 23 450 300 cos_env 0;
#X obj 103 86 inlet~;
#X obj 103 150 cos~;
#X obj 103 129 -~ 0.25;
#X obj 103 171 outlet~;
#X obj 103 108 *~ 0.5;
#X text 149 132 offset by -90 degrees so we start at 0;
#X connect 0 0 4 0;
#X connect 1 0 3 0;
#X connect 2 0 1 0;
#X connect 4 0 2 0;
#X restore 113 180 pd cos_env;
#X obj 124 147 sig~;
#N canvas 0 23 450 300 cos_env 0;
#X obj 103 86 inlet~;
#X obj 103 150 cos~;
#X obj 103 129 -~ 0.25;
#X obj 103 171 outlet~;
#X obj 103 108 *~ 0.5;
#X text 149 132 offset by -90 degrees so we start at 0;
#X connect 0 0 4 0;
#X connect 1 0 3 0;
#X connect 2 0 1 0;
#X connect 4 0 2 0;
#X restore 197 183 pd cos_env;
#X obj 208 150 sig~;
#X obj 186 25 inlet;
#X obj 186 46 * 0.5;
#X obj 113 201 outlet~;
#X obj 197 204 outlet~;
#X text 238 150 0 ---> 0.5;
#X obj 124 97 * -1;
#X obj 124 118 + 0.5;
#X text 59 146 0.5 --> 0;
#X connect 0 0 6 0;
#X connect 1 0 0 0;
#X connect 2 0 7 0;
#X connect 3 0 2 0;
#X connect 4 0 5 0;
#X connect 5 0 3 0;
#X connect 5 0 9 0;
#X connect 9 0 10 0;
#X connect 10 0 1 0;
#X restore 485 307 pd panning;
#X obj 485 284 f 0.5;
#X text 569 308 as for the amplitude envelope;
#X text 559 296 I use exactly the same logic for panning;
#X text 513 81 fileSize in samples;
#X text 177 323 <--- according to tabread~ helpfile;
#X text 215 336 the indices begin at 1 ???;
#X text 202 15 grain parameters;
#X obj 237 57 unpack 0 0 0 0 0, f 76;
#X obj 46 138 t f b b, f 21;
#N canvas -1240 595 723 346 position_wrapround_logic 0;
#X obj 109 75 inlet~;
#X obj 219 75 inlet;
#X obj 343 75 inlet;
#X obj 269 209 wrap~;
#X obj 110 230 +~, f 27;
#X obj 343 99 - 2;
#X text 366 100 tabread4~ only counts file size a nSample-2 ????;
#X obj 220 121 f, f 21;
#X obj 110 176 +~, f 17;
#X text 90 51 raw position in;
#X text 204 51 bag on next grain;
#X text 337 51 fliesize in samples;
#X obj 110 251 outlet~;
#X obj 220 142 sig~ 1;
#X obj 110 209 expr~ $v1 % $v2, f 19;
#X connect 0 0 8 0;
#X connect 1 0 7 0;
#X connect 2 0 5 0;
#X connect 3 0 4 1;
#X connect 4 0 12 0;
#X connect 5 0 7 1;
#X connect 7 0 13 0;
#X connect 8 0 3 0;
#X connect 8 0 14 0;
#X connect 13 0 8 1;
#X connect 13 0 14 1;
#X connect 14 0 4 0;
#X restore 145 267 pd position_wrapround_logic;
#X f 9;
#N canvas 0 23 954 500 grain_play_logic 0;
#X obj 415 60 inlet;
#X obj 416 289 *~, f 12;
#X obj 415 159 vline~;
#X msg 415 135 0 \, 1 \$1;
#X obj 485 135 * 44.1;
#X text 527 136 Remember: tabread4~ works in sample position not ms
;
#X text 171 121 vline~ expects timing in ms;
#X text 140 287 read from sample 0 --> grainlength in samples;
#X text 117 136 jump to 0 \, then go to one over grain length (ms)
;
#X obj 416 310 +~, f 28;
#X obj 579 280 f;
#X obj 691 252 * 44.1;
#X text 733 253 Remember: tabread4~ works in sample position not ms
;
#X text 381 173 0-->1;
#X text 598 302 + x samples changes the starting point (e.g. + 100
\, instead of counting 0 \, 1 \, 2 \, 3 \, 4... it would count 100
\, 101 \, 102 \, 103 \, 104 \, ...etc);
#X obj 415 247 *~;
#X obj 442 221 sig~ 1;
#X text 41 211 we can change speed (and pitch!!!) of play back by multiply
our 0--->1 ramp by something;
#X text 39 261 e.g. *0.5 ==> read 1/2 the number of samples in the
same time \, i.e. read half speed and pitch;
#X text 37 236 e.g. *2 ==> read 2 times the number of samples in the
same time \, i.e. read double speed and pitch;
#X obj 445 200 f 1, f 20;
#N canvas 0 23 450 300 cos_env 0;
#X obj 103 86 inlet~;
#X obj 103 150 cos~;
#X obj 103 129 -~ 0.25;
#X obj 103 171 outlet~;
#X obj 103 108 *~ 0.5;
#X text 149 132 offset by -90 degrees so we start at 0;
#X connect 0 0 4 0;
#X connect 1 0 3 0;
#X connect 2 0 1 0;
#X connect 4 0 2 0;
#X restore 318 337 pd cos_env;
#X text -6 336 I use the ramp to read through 90 degrees of a cosine
;
#X text 22 349 this gives a smooth amplitude envelope;
#X obj 415 109 t f f b b, f 18;
#X obj 582 187 inlet;
#X obj 684 222 inlet;
#X text 579 168 playback speed;
#X text 657 204 grainStart;
#X obj 318 358 outlet~;
#X text 270 389 amplitude envelope;
#X obj 416 331 outlet~;
#X text 412 354 sample index;
#X connect 0 0 24 0;
#X connect 1 0 9 0;
#X connect 2 0 15 0;
#X connect 2 0 21 0;
#X connect 3 0 2 0;
#X connect 4 0 1 1;
#X connect 9 0 31 0;
#X connect 10 0 9 1;
#X connect 11 0 10 1;
#X connect 15 0 1 0;
#X connect 16 0 15 1;
#X connect 20 0 16 0;
#X connect 21 0 29 0;
#X connect 24 0 3 0;
#X connect 24 1 4 0;
#X connect 24 2 20 0;
#X connect 24 3 10 0;
#X connect 25 0 20 1;
#X connect 26 0 11 0;
#X restore 46 218 pd grain_play_logic;
#X f 11;
#X connect 0 0 1 0;
#X connect 1 0 9 1;
#X connect 2 0 24 0;
#X connect 3 0 2 0;
#X connect 5 0 23 0;
#X connect 9 0 12 0;
#X connect 9 0 14 0;
#X connect 12 0 10 0;
#X connect 14 0 13 0;
#X connect 15 0 12 1;
#X connect 15 1 14 1;
#X connect 16 0 15 0;
#X connect 23 0 2 1;
#X connect 23 1 26 1;
#X connect 23 2 26 2;
#X connect 23 3 25 2;
#X connect 23 4 16 1;
#X connect 24 0 26 0;
#X connect 24 1 25 1;
#X connect 24 2 16 0;
#X connect 25 0 0 0;
#X connect 26 0 9 0;
#X connect 26 1 25 0;
#X restore 229 320 pd grain_v2;
#X f 10;
#X obj 324 243 hsl 60 10 0 1 0 0 empty empty grain_start -2 -8 0 10
-262144 -1 -1 0 1;
#X obj 347 256 r \$0-Samp_len, f 8;
#X text 244 166 click here for continuous output;
#X obj 338 109 loadbang;
#X msg 376 133 1;
#X msg 338 130 50;
#X msg 412 131 0.5;
#X connect 0 0 2 0;
#X connect 1 0 0 0;
#X connect 2 0 9 0;
#X connect 4 0 8 0;
#X connect 5 0 2 0;
#X connect 6 0 2 0;
#X connect 7 0 2 0;
#X connect 9 0 4 0;
#X connect 11 0 28 0;
#X connect 15 0 19 1;
#X connect 15 0 23 0;
#X connect 16 0 23 1;
#X connect 18 0 19 0;
#X connect 19 0 11 0;
#X connect 21 0 23 4;
#X connect 22 0 10 0;
#X connect 22 1 10 1;
#X connect 23 0 28 1;
#X connect 28 0 22 0;
#X connect 28 1 22 1;
#X connect 29 0 23 2;
#X connect 30 0 23 3;
#X connect 32 0 34 0;
#X connect 32 0 33 0;
#X connect 32 0 35 0;
#X connect 33 0 16 0;
#X connect 34 0 15 0;
#X connect 35 0 21 0;
#X restore 80 195 pd granular_synthesis_4;
#N canvas 0 38 1006 736 granular_synthesis_5 0;
#X obj 566 158 openpanel;
#X obj 566 110 bng 15 250 50 0 empty empty empty 17 7 0 10 -262144
-1 -1;
#X obj 566 180 pack s \$0;
#X text 587 107 <--- load a different file;
#X obj 566 224 soundfiler;
#X msg 638 135 ./breaks/funkyDrummer.wav;
#X msg 643 154 ./breaks/amenBreak.wav;
#X msg 642 176 ./breaks/PlanetaryCitizen.wav;
#X obj 566 245 s \$0-Samp_len;
#X msg 566 204 read -resize \$1 \$2-Samp;
#X obj 468 660 dac~, f 6;
#X obj 192 247 bng 15 250 50 0 empty empty empty 17 7 0 10 -262144
-1 -1;
#X text 43 246 click me for grain --->;
#X text 542 638 <--- turn me up;
#X text 465 299 grain length (ms);
#X floatatom 429 300 5 0 0 0 - - -;
#X floatatom 440 319 5 0 0 0 - - -;
#X text 476 318 playback speed;
#X obj 193 158 tgl 15 0 empty empty empty 17 7 0 10 -262144 -1 -1 0
1;
#X text 22 487 grain + envelope is inside;
#X obj 548 352 hsl 60 10 0 1 0 1 empty empty pan -2 -8 0 10 -262144
-1 -1 2950 1;
#X obj 468 619 vol2_sjf~;
#N canvas -744 934 674 322 grainParamsLogic 0;
#X obj 308 153 t b f;
#X obj 189 127 t b f;
#X obj 90 53 inlet;
#X obj 175 53 inlet;
#X obj 304 53 inlet;
#X obj 366 53 inlet;
#X obj 90 247 outlet;
#X obj 522 147 t b f;
#X obj 520 53 inlet;
#X obj 90 226 pack 50 1 0 0.5 0, f 71;
#X text 61 25 grain length;
#X obj 308 131 *, f 12;
#X obj 390 131 / 44.1;
#X obj 362 86 t b f f, f 20;
#X text 160 25 playback speed;
#X text 279 25 grain start;
#X text 362 25 filesize samples;
#X text 526 25 pan;
#X connect 0 0 9 0;
#X connect 0 1 9 2;
#X connect 1 0 9 0;
#X connect 1 1 9 1;
#X connect 2 0 9 0;
#X connect 3 0 1 0;
#X connect 4 0 11 0;
#X connect 5 0 13 0;
#X connect 7 0 9 0;
#X connect 7 1 9 4;
#X connect 8 0 7 0;
#X connect 9 0 6 0;
#X connect 11 0 0 0;
#X connect 12 0 11 1;
#X connect 13 0 11 0;
#X connect 13 1 12 0;
#X connect 13 2 9 3;
#X restore 429 408 pd grainParamsLogic;
#X f 20;
#N canvas -1280 581 873 687 grain_v2 0;
#X obj 145 324 +~ 1;
#X obj 145 357 tabread4~ \$0-Samp;
#X obj 46 117 f 50, f 22;
#X obj 46 93 inlet;
#X text 30 74 bang for grain;
#X obj 237 35 inlet;
#X text 178 75 grain length (ms);
#X text 297 77 playback speed;
#X text 416 75 grain start;
#X obj 46 385 *~, f 17;
#X obj 46 575 outlet~;
#X text 679 76 pan;
#X obj 46 549 *~, f 17;
#X obj 311 575 outlet~;
#X obj 311 549 *~, f 39;
#N canvas 0 23 450 300 panning 0;
#N canvas 0 23 450 300 cos_env 0;
#X obj 103 86 inlet~;
#X obj 103 150 cos~;
#X obj 103 129 -~ 0.25;
#X obj 103 171 outlet~;
#X obj 103 108 *~ 0.5;
#X text 149 132 offset by -90 degrees so we start at 0;
#X connect 0 0 4 0;
#X connect 1 0 3 0;
#X connect 2 0 1 0;
#X connect 4 0 2 0;
#X restore 113 180 pd cos_env;
#X obj 124 147 sig~;
#N canvas 0 23 450 300 cos_env 0;
#X obj 103 86 inlet~;
#X obj 103 150 cos~;
#X obj 103 129 -~ 0.25;
#X obj 103 171 outlet~;
#X obj 103 108 *~ 0.5;
#X text 149 132 offset by -90 degrees so we start at 0;
#X connect 0 0 4 0;
#X connect 1 0 3 0;
#X connect 2 0 1 0;
#X connect 4 0 2 0;
#X restore 197 183 pd cos_env;
#X obj 208 150 sig~;
#X obj 186 25 inlet;
#X obj 186 46 * 0.5;
#X obj 113 201 outlet~;
#X obj 197 204 outlet~;
#X text 238 150 0 ---> 0.5;
#X obj 124 97 * -1;
#X obj 124 118 + 0.5;
#X text 59 146 0.5 --> 0;
#X connect 0 0 6 0;
#X connect 1 0 0 0;
#X connect 2 0 7 0;
#X connect 3 0 2 0;
#X connect 4 0 5 0;
#X connect 5 0 3 0;
#X connect 5 0 9 0;
#X connect 9 0 10 0;
#X connect 10 0 1 0;
#X restore 485 307 pd panning;
#X obj 485 284 f 0.5;
#X text 569 308 as for the amplitude envelope;
#X text 559 296 I use exactly the same logic for panning;
#X text 513 81 fileSize in samples;
#X text 177 323 <--- according to tabread~ helpfile;
#X text 215 336 the indices begin at 1 ???;
#X text 202 15 grain parameters;
#X obj 237 57 unpack 0 0 0 0 0, f 76;
#X obj 46 138 t f b b, f 21;
#N canvas -1240 595 723 346 position_wrapround_logic 0;
#X obj 109 75 inlet~;
#X obj 219 75 inlet;
#X obj 343 75 inlet;
#X obj 268 183 wrap~;
#X obj 109 204 +~, f 27;
#X obj 343 99 - 2;
#X text 366 100 tabread4~ only counts file size a nSample-2 ????;
#X obj 220 118 f, f 21;
#X obj 109 150 +~, f 17;
#X text 90 51 raw position in;
#X text 204 51 bag on next grain;
#X text 337 51 fliesize in samples;
#X obj 109 225 outlet~;
#X obj 220 141 sig~ 1;
#X obj 109 183 expr~ $v1 % $v2, f 19;
#X connect 0 0 8 0;
#X connect 1 0 7 0;
#X connect 2 0 5 0;
#X connect 3 0 4 1;
#X connect 4 0 12 0;
#X connect 5 0 7 1;
#X connect 7 0 13 0;
#X connect 8 0 3 0;
#X connect 8 0 14 0;
#X connect 13 0 14 1;
#X connect 13 0 8 1;
#X connect 14 0 4 0;
#X restore 145 267 pd position_wrapround_logic;
#X f 9;
#N canvas 0 23 954 500 grain_play_logic 0;
#X obj 415 60 inlet;
#X obj 416 289 *~, f 12;
#X obj 415 159 vline~;
#X msg 415 135 0 \, 1 \$1;
#X obj 485 135 * 44.1;
#X text 527 136 Remember: tabread4~ works in sample position not ms
;
#X text 171 121 vline~ expects timing in ms;
#X text 140 287 read from sample 0 --> grainlength in samples;
#X text 117 136 jump to 0 \, then go to one over grain length (ms)
;
#X obj 416 310 +~, f 28;
#X obj 579 280 f;
#X obj 691 252 * 44.1;
#X text 733 253 Remember: tabread4~ works in sample position not ms
;
#X text 381 173 0-->1;
#X text 598 302 + x samples changes the starting point (e.g. + 100
\, instead of counting 0 \, 1 \, 2 \, 3 \, 4... it would count 100
\, 101 \, 102 \, 103 \, 104 \, ...etc);
#X obj 415 247 *~;
#X obj 442 221 sig~ 1;
#X text 41 211 we can change speed (and pitch!!!) of play back by multiply
our 0--->1 ramp by something;
#X text 39 261 e.g. *0.5 ==> read 1/2 the number of samples in the
same time \, i.e. read half speed and pitch;
#X text 37 236 e.g. *2 ==> read 2 times the number of samples in the
same time \, i.e. read double speed and pitch;
#X obj 445 200 f 1, f 20;
#N canvas 0 23 450 300 cos_env 0;
#X obj 103 86 inlet~;
#X obj 103 150 cos~;
#X obj 103 129 -~ 0.25;
#X obj 103 171 outlet~;
#X obj 103 108 *~ 0.5;
#X text 149 132 offset by -90 degrees so we start at 0;
#X connect 0 0 4 0;
#X connect 1 0 3 0;
#X connect 2 0 1 0;
#X connect 4 0 2 0;
#X restore 318 337 pd cos_env;
#X text -6 336 I use the ramp to read through 90 degrees of a cosine
;
#X text 22 349 this gives a smooth amplitude envelope;
#X obj 415 109 t f f b b, f 18;
#X obj 582 187 inlet;
#X obj 684 222 inlet;
#X text 579 168 playback speed;
#X text 657 204 grainStart;
#X obj 318 358 outlet~;
#X text 270 389 amplitude envelope;
#X obj 416 331 outlet~;
#X text 412 354 sample index;
#X connect 0 0 24 0;
#X connect 1 0 9 0;
#X connect 2 0 15 0;
#X connect 2 0 21 0;
#X connect 3 0 2 0;
#X connect 4 0 1 1;
#X connect 9 0 31 0;
#X connect 10 0 9 1;
#X connect 11 0 10 1;
#X connect 15 0 1 0;
#X connect 16 0 15 1;
#X connect 20 0 16 0;
#X connect 21 0 29 0;
#X connect 24 0 3 0;
#X connect 24 1 4 0;
#X connect 24 2 20 0;
#X connect 24 3 10 0;
#X connect 25 0 20 1;
#X connect 26 0 11 0;
#X restore 46 218 pd grain_play_logic;
#X f 11;
#X connect 0 0 1 0;
#X connect 1 0 9 1;
#X connect 2 0 24 0;
#X connect 3 0 2 0;
#X connect 5 0 23 0;
#X connect 9 0 12 0;
#X connect 9 0 14 0;
#X connect 12 0 10 0;
#X connect 14 0 13 0;
#X connect 15 0 12 1;
#X connect 15 1 14 1;
#X connect 16 0 15 0;
#X connect 23 0 2 1;
#X connect 23 1 26 1;
#X connect 23 2 26 2;
#X connect 23 3 25 2;
#X connect 23 4 16 1;
#X connect 24 0 26 0;
#X connect 24 1 25 1;
#X connect 24 2 16 0;
#X connect 25 0 0 0;
#X connect 26 0 9 0;
#X connect 26 1 25 0;
#X restore 192 484 pd grain_v2;
#X f 10;
#X obj 468 351 hsl 60 10 0 1 0 0 empty empty grain_start -2 -8 0 10
-262144 -1 -1 0 1;
#X obj 491 364 r \$0-Samp_len, f 8;
#X text 207 157 click here for continuous output;
#X floatatom 240 201 5 0 0 0 - - -;
#N canvas -1280 581 833 556 grain_v2 0;
#X obj 145 324 +~ 1;
#X obj 145 357 tabread4~ \$0-Samp;
#X obj 46 117 f 50, f 22;
#X obj 46 93 inlet;
#X text 30 74 bang for grain;
#X obj 237 35 inlet;
#X text 178 75 grain length (ms);
#X text 297 77 playback speed;
#X text 416 75 grain start;
#X obj 46 385 *~, f 17;
#X obj 46 461 outlet~;
#X text 679 76 pan;
#X obj 46 435 *~, f 17;
#X obj 311 461 outlet~;
#X obj 311 435 *~, f 39;
#N canvas 0 23 450 300 panning 0;
#N canvas 0 23 450 300 cos_env 0;
#X obj 103 86 inlet~;
#X obj 103 150 cos~;
#X obj 103 129 -~ 0.25;
#X obj 103 171 outlet~;
#X obj 103 108 *~ 0.5;
#X text 149 132 offset by -90 degrees so we start at 0;
#X connect 0 0 4 0;
#X connect 1 0 3 0;
#X connect 2 0 1 0;
#X connect 4 0 2 0;
#X restore 113 180 pd cos_env;
#X obj 124 147 sig~;
#N canvas 0 23 450 300 cos_env 0;
#X obj 103 86 inlet~;
#X obj 103 150 cos~;
#X obj 103 129 -~ 0.25;
#X obj 103 171 outlet~;
#X obj 103 108 *~ 0.5;
#X text 149 132 offset by -90 degrees so we start at 0;
#X connect 0 0 4 0;
#X connect 1 0 3 0;
#X connect 2 0 1 0;
#X connect 4 0 2 0;
#X restore 197 183 pd cos_env;
#X obj 208 150 sig~;
#X obj 186 25 inlet;
#X obj 186 46 * 0.5;
#X obj 113 201 outlet~;
#X obj 197 204 outlet~;
#X text 238 150 0 ---> 0.5;
#X obj 124 97 * -1;
#X obj 124 118 + 0.5;
#X text 59 146 0.5 --> 0;
#X connect 0 0 6 0;
#X connect 1 0 0 0;
#X connect 2 0 7 0;
#X connect 3 0 2 0;
#X connect 4 0 5 0;
#X connect 5 0 3 0;
#X connect 5 0 9 0;
#X connect 9 0 10 0;
#X connect 10 0 1 0;
#X restore 485 307 pd panning;
#X obj 485 284 f 0.5;
#X text 569 308 as for the amplitude envelope;
#X text 559 296 I use exactly the same logic for panning;
#X text 513 81 fileSize in samples;
#X text 177 323 <--- according to tabread~ helpfile;
#X text 215 336 the indices begin at 1 ???;
#X text 202 15 grain parameters;
#X obj 237 57 unpack 0 0 0 0 0, f 76;
#X obj 46 138 t f b b, f 21;
#N canvas -1240 595 723 346 position_wrapround_logic 0;
#X obj 109 75 inlet~;
#X obj 219 75 inlet;
#X obj 343 75 inlet;
#X obj 268 183 wrap~;
#X obj 109 204 +~, f 27;
#X obj 343 99 - 2;
#X text 366 100 tabread4~ only counts file size a nSample-2 ????;
#X obj 220 118 f, f 21;
#X obj 109 150 +~, f 17;
#X text 90 51 raw position in;
#X text 204 51 bag on next grain;
#X text 337 51 fliesize in samples;
#X obj 109 225 outlet~;
#X obj 220 141 sig~ 1;
#X obj 109 183 expr~ $v1 % $v2, f 19;
#X connect 0 0 8 0;
#X connect 1 0 7 0;
#X connect 2 0 5 0;
#X connect 3 0 4 1;
#X connect 4 0 12 0;
#X connect 5 0 7 1;
#X connect 7 0 13 0;
#X connect 8 0 3 0;
#X connect 8 0 14 0;
#X connect 13 0 14 1;
#X connect 13 0 8 1;
#X connect 14 0 4 0;
#X restore 145 267 pd position_wrapround_logic;
#X f 9;
#N canvas 0 23 954 500 grain_play_logic 0;
#X obj 415 60 inlet;
#X obj 416 289 *~, f 12;
#X obj 415 159 vline~;
#X msg 415 135 0 \, 1 \$1;
#X obj 485 135 * 44.1;
#X text 527 136 Remember: tabread4~ works in sample position not ms
;
#X text 171 121 vline~ expects timing in ms;
#X text 140 287 read from sample 0 --> grainlength in samples;
#X text 117 136 jump to 0 \, then go to one over grain length (ms)
;
#X obj 416 310 +~, f 28;
#X obj 579 280 f;
#X obj 691 252 * 44.1;
#X text 733 253 Remember: tabread4~ works in sample position not ms
;
#X text 381 173 0-->1;
#X text 598 302 + x samples changes the starting point (e.g. + 100
\, instead of counting 0 \, 1 \, 2 \, 3 \, 4... it would count 100
\, 101 \, 102 \, 103 \, 104 \, ...etc);
#X obj 415 247 *~;
#X obj 442 221 sig~ 1;
#X text 41 211 we can change speed (and pitch!!!) of play back by multiply
our 0--->1 ramp by something;
#X text 39 261 e.g. *0.5 ==> read 1/2 the number of samples in the
same time \, i.e. read half speed and pitch;
#X text 37 236 e.g. *2 ==> read 2 times the number of samples in the
same time \, i.e. read double speed and pitch;
#X obj 445 200 f 1, f 20;
#N canvas 0 23 450 300 cos_env 0;
#X obj 103 86 inlet~;
#X obj 103 150 cos~;
#X obj 103 129 -~ 0.25;
#X obj 103 171 outlet~;
#X obj 103 108 *~ 0.5;
#X text 149 132 offset by -90 degrees so we start at 0;
#X connect 0 0 4 0;
#X connect 1 0 3 0;
#X connect 2 0 1 0;
#X connect 4 0 2 0;
#X restore 318 337 pd cos_env;
#X text -6 336 I use the ramp to read through 90 degrees of a cosine
;
#X text 22 349 this gives a smooth amplitude envelope;
#X obj 415 109 t f f b b, f 18;
#X obj 582 187 inlet;
#X obj 684 222 inlet;
#X text 579 168 playback speed;
#X text 657 204 grainStart;
#X obj 318 358 outlet~;
#X text 270 389 amplitude envelope;
#X obj 416 331 outlet~;
#X text 412 354 sample index;
#X connect 0 0 24 0;
#X connect 1 0 9 0;
#X connect 2 0 15 0;
#X connect 2 0 21 0;
#X connect 3 0 2 0;
#X connect 4 0 1 1;
#X connect 9 0 31 0;
#X connect 10 0 9 1;
#X connect 11 0 10 1;
#X connect 15 0 1 0;
#X connect 16 0 15 1;
#X connect 20 0 16 0;
#X connect 21 0 29 0;
#X connect 24 0 3 0;
#X connect 24 1 4 0;
#X connect 24 2 20 0;
#X connect 24 3 10 0;
#X connect 25 0 20 1;
#X connect 26 0 11 0;
#X restore 46 218 pd grain_play_logic;
#X f 11;
#X connect 0 0 1 0;
#X connect 1 0 9 1;
#X connect 2 0 24 0;
#X connect 3 0 2 0;
#X connect 5 0 23 0;
#X connect 9 0 12 0;
#X connect 9 0 14 0;
#X connect 12 0 10 0;
#X connect 14 0 13 0;
#X connect 15 0 12 1;
#X connect 15 1 14 1;
#X connect 16 0 15 0;
#X connect 23 0 2 1;
#X connect 23 1 26 1;
#X connect 23 2 26 2;
#X connect 23 3 25 2;
#X connect 23 4 16 1;
#X connect 24 0 26 0;
#X connect 24 1 25 1;
#X connect 24 2 16 0;
#X connect 25 0 0 0;
#X connect 26 0 9 0;
#X connect 26 1 25 0;
#X restore 269 483 pd grain_v2;
#X f 10;
#N canvas -1280 581 833 556 grain_v2 0;
#X obj 145 324 +~ 1;
#X obj 145 357 tabread4~ \$0-Samp;
#X obj 46 117 f 50, f 22;
#X obj 46 93 inlet;
#X text 30 74 bang for grain;
#X obj 237 35 inlet;
#X text 178 75 grain length (ms);
#X text 297 77 playback speed;
#X text 416 75 grain start;
#X obj 46 385 *~, f 17;
#X obj 46 461 outlet~;
#X text 679 76 pan;
#X obj 46 435 *~, f 17;
#X obj 311 461 outlet~;
#X obj 311 435 *~, f 39;
#N canvas 0 23 450 300 panning 0;
#N canvas 0 23 450 300 cos_env 0;
#X obj 103 86 inlet~;
#X obj 103 150 cos~;
#X obj 103 129 -~ 0.25;
#X obj 103 171 outlet~;
#X obj 103 108 *~ 0.5;
#X text 149 132 offset by -90 degrees so we start at 0;
#X connect 0 0 4 0;
#X connect 1 0 3 0;
#X connect 2 0 1 0;
#X connect 4 0 2 0;
#X restore 113 180 pd cos_env;
#X obj 124 147 sig~;
#N canvas 0 23 450 300 cos_env 0;
#X obj 103 86 inlet~;
#X obj 103 150 cos~;
#X obj 103 129 -~ 0.25;
#X obj 103 171 outlet~;
#X obj 103 108 *~ 0.5;
#X text 149 132 offset by -90 degrees so we start at 0;
#X connect 0 0 4 0;
#X connect 1 0 3 0;
#X connect 2 0 1 0;
#X connect 4 0 2 0;
#X restore 197 183 pd cos_env;
#X obj 208 150 sig~;
#X obj 186 25 inlet;
#X obj 186 46 * 0.5;
#X obj 113 201 outlet~;
#X obj 197 204 outlet~;
#X text 238 150 0 ---> 0.5;
#X obj 124 97 * -1;
#X obj 124 118 + 0.5;
#X text 59 146 0.5 --> 0;
#X connect 0 0 6 0;
#X connect 1 0 0 0;
#X connect 2 0 7 0;
#X connect 3 0 2 0;
#X connect 4 0 5 0;
#X connect 5 0 3 0;
#X connect 5 0 9 0;
#X connect 9 0 10 0;
#X connect 10 0 1 0;
#X restore 485 307 pd panning;
#X obj 485 284 f 0.5;
#X text 569 308 as for the amplitude envelope;
#X text 559 296 I use exactly the same logic for panning;
#X text 513 81 fileSize in samples;
#X text 177 323 <--- according to tabread~ helpfile;
#X text 215 336 the indices begin at 1 ???;
#X text 202 15 grain parameters;
#X obj 237 57 unpack 0 0 0 0 0, f 76;
#X obj 46 138 t f b b, f 21;
#N canvas -1240 595 723 346 position_wrapround_logic 0;
#X obj 109 75 inlet~;
#X obj 219 75 inlet;
#X obj 343 75 inlet;
#X obj 268 183 wrap~;
#X obj 109 204 +~, f 27;
#X obj 343 99 - 2;
#X text 366 100 tabread4~ only counts file size a nSample-2 ????;
#X obj 220 118 f, f 21;
#X obj 109 150 +~, f 17;
#X text 90 51 raw position in;
#X text 204 51 bag on next grain;
#X text 337 51 fliesize in samples;
#X obj 109 225 outlet~;
#X obj 220 141 sig~ 1;
#X obj 109 183 expr~ $v1 % $v2, f 19;
#X connect 0 0 8 0;
#X connect 1 0 7 0;
#X connect 2 0 5 0;
#X connect 3 0 4 1;
#X connect 4 0 12 0;
#X connect 5 0 7 1;
#X connect 7 0 13 0;
#X connect 8 0 3 0;
#X connect 8 0 14 0;
#X connect 13 0 14 1;
#X connect 13 0 8 1;
#X connect 14 0 4 0;
#X restore 145 267 pd position_wrapround_logic;
#X f 9;
#N canvas 0 23 954 500 grain_play_logic 0;
#X obj 415 60 inlet;
#X obj 416 289 *~, f 12;
#X obj 415 159 vline~;
#X msg 415 135 0 \, 1 \$1;
#X obj 485 135 * 44.1;
#X text 527 136 Remember: tabread4~ works in sample position not ms
;
#X text 171 121 vline~ expects timing in ms;
#X text 140 287 read from sample 0 --> grainlength in samples;
#X text 117 136 jump to 0 \, then go to one over grain length (ms)
;
#X obj 416 310 +~, f 28;
#X obj 579 280 f;
#X obj 691 252 * 44.1;
#X text 733 253 Remember: tabread4~ works in sample position not ms
;
#X text 381 173 0-->1;
#X text 598 302 + x samples changes the starting point (e.g. + 100
\, instead of counting 0 \, 1 \, 2 \, 3 \, 4... it would count 100
\, 101 \, 102 \, 103 \, 104 \, ...etc);
#X obj 415 247 *~;
#X obj 442 221 sig~ 1;
#X text 41 211 we can change speed (and pitch!!!) of play back by multiply
our 0--->1 ramp by something;
#X text 39 261 e.g. *0.5 ==> read 1/2 the number of samples in the
same time \, i.e. read half speed and pitch;
#X text 37 236 e.g. *2 ==> read 2 times the number of samples in the
same time \, i.e. read double speed and pitch;
#X obj 445 200 f 1, f 20;
#N canvas 0 23 450 300 cos_env 0;
#X obj 103 86 inlet~;
#X obj 103 150 cos~;
#X obj 103 129 -~ 0.25;
#X obj 103 171 outlet~;
#X obj 103 108 *~ 0.5;
#X text 149 132 offset by -90 degrees so we start at 0;
#X connect 0 0 4 0;
#X connect 1 0 3 0;
#X connect 2 0 1 0;
#X connect 4 0 2 0;
#X restore 318 337 pd cos_env;
#X text -6 336 I use the ramp to read through 90 degrees of a cosine
;
#X text 22 349 this gives a smooth amplitude envelope;
#X obj 415 109 t f f b b, f 18;
#X obj 582 187 inlet;
#X obj 684 222 inlet;
#X text 579 168 playback speed;
#X text 657 204 grainStart;
#X obj 318 358 outlet~;
#X text 270 389 amplitude envelope;
#X obj 416 331 outlet~;
#X text 412 354 sample index;
#X connect 0 0 24 0;
#X connect 1 0 9 0;
#X connect 2 0 15 0;
#X connect 2 0 21 0;
#X connect 3 0 2 0;
#X connect 4 0 1 1;
#X connect 9 0 31 0;
#X connect 10 0 9 1;
#X connect 11 0 10 1;
#X connect 15 0 1 0;
#X connect 16 0 15 1;
#X connect 20 0 16 0;
#X connect 21 0 29 0;
#X connect 24 0 3 0;
#X connect 24 1 4 0;
#X connect 24 2 20 0;
#X connect 24 3 10 0;
#X connect 25 0 20 1;
#X connect 26 0 11 0;
#X restore 46 218 pd grain_play_logic;
#X f 11;
#X connect 0 0 1 0;
#X connect 1 0 9 1;
#X connect 2 0 24 0;
#X connect 3 0 2 0;
#X connect 5 0 23 0;
#X connect 9 0 12 0;
#X connect 9 0 14 0;
#X connect 12 0 10 0;
#X connect 14 0 13 0;
#X connect 15 0 12 1;
#X connect 15 1 14 1;
#X connect 16 0 15 0;
#X connect 23 0 2 1;
#X connect 23 1 26 1;
#X connect 23 2 26 2;
#X connect 23 3 25 2;
#X connect 23 4 16 1;
#X connect 24 0 26 0;
#X connect 24 1 25 1;
#X connect 24 2 16 0;
#X connect 25 0 0 0;
#X connect 26 0 9 0;
#X connect 26 1 25 0;
#X restore 339 483 pd grain_v2;
#X f 10;
#N canvas -1280 581 833 556 grain_v2 0;
#X obj 145 324 +~ 1;
#X obj 145 357 tabread4~ \$0-Samp;
#X obj 46 117 f 50, f 22;
#X obj 46 93 inlet;
#X text 30 74 bang for grain;
#X obj 237 35 inlet;
#X text 178 75 grain length (ms);
#X text 297 77 playback speed;
#X text 416 75 grain start;
#X obj 46 385 *~, f 17;
#X obj 46 461 outlet~;
#X text 679 76 pan;
#X obj 46 435 *~, f 17;
#X obj 311 461 outlet~;
#X obj 311 435 *~, f 39;
#N canvas 0 23 450 300 panning 0;
#N canvas 0 23 450 300 cos_env 0;
#X obj 103 86 inlet~;
#X obj 103 150 cos~;
#X obj 103 129 -~ 0.25;
#X obj 103 171 outlet~;
#X obj 103 108 *~ 0.5;
#X text 149 132 offset by -90 degrees so we start at 0;
#X connect 0 0 4 0;
#X connect 1 0 3 0;
#X connect 2 0 1 0;
#X connect 4 0 2 0;
#X restore 113 180 pd cos_env;
#X obj 124 147 sig~;
#N canvas 0 23 450 300 cos_env 0;
#X obj 103 86 inlet~;
#X obj 103 150 cos~;
#X obj 103 129 -~ 0.25;
#X obj 103 171 outlet~;
#X obj 103 108 *~ 0.5;
#X text 149 132 offset by -90 degrees so we start at 0;
#X connect 0 0 4 0;
#X connect 1 0 3 0;
#X connect 2 0 1 0;
#X connect 4 0 2 0;
#X restore 197 183 pd cos_env;
#X obj 208 150 sig~;
#X obj 186 25 inlet;
#X obj 186 46 * 0.5;
#X obj 113 201 outlet~;
#X obj 197 204 outlet~;
#X text 238 150 0 ---> 0.5;
#X obj 124 97 * -1;
#X obj 124 118 + 0.5;
#X text 59 146 0.5 --> 0;
#X connect 0 0 6 0;
#X connect 1 0 0 0;
#X connect 2 0 7 0;
#X connect 3 0 2 0;
#X connect 4 0 5 0;
#X connect 5 0 3 0;
#X connect 5 0 9 0;
#X connect 9 0 10 0;
#X connect 10 0 1 0;
#X restore 485 307 pd panning;
#X obj 485 284 f 0.5;
#X text 569 308 as for the amplitude envelope;
#X text 559 296 I use exactly the same logic for panning;
#X text 513 81 fileSize in samples;
#X text 177 323 <--- according to tabread~ helpfile;
#X text 215 336 the indices begin at 1 ???;
#X text 202 15 grain parameters;
#X obj 237 57 unpack 0 0 0 0 0, f 76;
#X obj 46 138 t f b b, f 21;
#N canvas -1240 595 723 346 position_wrapround_logic 0;
#X obj 109 75 inlet~;
#X obj 219 75 inlet;
#X obj 343 75 inlet;
#X obj 268 183 wrap~;
#X obj 109 204 +~, f 27;
#X obj 343 99 - 2;
#X text 366 100 tabread4~ only counts file size a nSample-2 ????;
#X obj 220 118 f, f 21;
#X obj 109 150 +~, f 17;
#X text 90 51 raw position in;
#X text 204 51 bag on next grain;
#X text 337 51 fliesize in samples;
#X obj 109 225 outlet~;
#X obj 220 141 sig~ 1;
#X obj 109 183 expr~ $v1 % $v2, f 19;
#X connect 0 0 8 0;
#X connect 1 0 7 0;
#X connect 2 0 5 0;
#X connect 3 0 4 1;
#X connect 4 0 12 0;
#X connect 5 0 7 1;
#X connect 7 0 13 0;
#X connect 8 0 3 0;
#X connect 8 0 14 0;
#X connect 13 0 14 1;
#X connect 13 0 8 1;
#X connect 14 0 4 0;
#X restore 145 267 pd position_wrapround_logic;
#X f 9;
#N canvas 0 23 954 500 grain_play_logic 0;
#X obj 415 60 inlet;
#X obj 416 289 *~, f 12;
#X obj 415 159 vline~;
#X msg 415 135 0 \, 1 \$1;
#X obj 485 135 * 44.1;
#X text 527 136 Remember: tabread4~ works in sample position not ms
;
#X text 171 121 vline~ expects timing in ms;
#X text 140 287 read from sample 0 --> grainlength in samples;
#X text 117 136 jump to 0 \, then go to one over grain length (ms)
;
#X obj 416 310 +~, f 28;
#X obj 579 280 f;
#X obj 691 252 * 44.1;
#X text 733 253 Remember: tabread4~ works in sample position not ms
;
#X text 381 173 0-->1;
#X text 598 302 + x samples changes the starting point (e.g. + 100
\, instead of counting 0 \, 1 \, 2 \, 3 \, 4... it would count 100
\, 101 \, 102 \, 103 \, 104 \, ...etc);
#X obj 415 247 *~;
#X obj 442 221 sig~ 1;
#X text 41 211 we can change speed (and pitch!!!) of play back by multiply
our 0--->1 ramp by something;
#X text 39 261 e.g. *0.5 ==> read 1/2 the number of samples in the
same time \, i.e. read half speed and pitch;
#X text 37 236 e.g. *2 ==> read 2 times the number of samples in the
same time \, i.e. read double speed and pitch;
#X obj 445 200 f 1, f 20;
#N canvas 0 23 450 300 cos_env 0;
#X obj 103 86 inlet~;
#X obj 103 150 cos~;
#X obj 103 129 -~ 0.25;
#X obj 103 171 outlet~;
#X obj 103 108 *~ 0.5;
#X text 149 132 offset by -90 degrees so we start at 0;
#X connect 0 0 4 0;
#X connect 1 0 3 0;
#X connect 2 0 1 0;
#X connect 4 0 2 0;
#X restore 318 337 pd cos_env;
#X text -6 336 I use the ramp to read through 90 degrees of a cosine
;
#X text 22 349 this gives a smooth amplitude envelope;
#X obj 415 109 t f f b b, f 18;
#X obj 582 187 inlet;
#X obj 684 222 inlet;
#X text 579 168 playback speed;
#X text 657 204 grainStart;
#X obj 318 358 outlet~;
#X text 270 389 amplitude envelope;
#X obj 416 331 outlet~;
#X text 412 354 sample index;
#X connect 0 0 24 0;
#X connect 1 0 9 0;
#X connect 2 0 15 0;
#X connect 2 0 21 0;
#X connect 3 0 2 0;
#X connect 4 0 1 1;
#X connect 9 0 31 0;
#X connect 10 0 9 1;
#X connect 11 0 10 1;
#X connect 15 0 1 0;
#X connect 16 0 15 1;
#X connect 20 0 16 0;
#X connect 21 0 29 0;
#X connect 24 0 3 0;
#X connect 24 1 4 0;
#X connect 24 2 20 0;
#X connect 24 3 10 0;
#X connect 25 0 20 1;
#X connect 26 0 11 0;
#X restore 46 218 pd grain_play_logic;
#X f 11;
#X connect 0 0 1 0;
#X connect 1 0 9 1;
#X connect 2 0 24 0;
#X connect 3 0 2 0;
#X connect 5 0 23 0;
#X connect 9 0 12 0;
#X connect 9 0 14 0;
#X connect 12 0 10 0;
#X connect 14 0 13 0;
#X connect 15 0 12 1;
#X connect 15 1 14 1;
#X connect 16 0 15 0;
#X connect 23 0 2 1;
#X connect 23 1 26 1;
#X connect 23 2 26 2;
#X connect 23 3 25 2;
#X connect 23 4 16 1;
#X connect 24 0 26 0;
#X connect 24 1 25 1;
#X connect 24 2 16 0;
#X connect 25 0 0 0;
#X connect 26 0 9 0;
#X connect 26 1 25 0;
#X restore 416 482 pd grain_v2;
#X f 10;
#X obj 192 225 metro 25;
#N canvas -1280 581 873 687 grain_v2 0;
#X obj 145 324 +~ 1;
#X obj 145 357 tabread4~ \$0-Samp;
#X obj 46 117 f 50, f 22;
#X obj 46 93 inlet;
#X text 30 74 bang for grain;
#X obj 237 35 inlet;
#X text 178 75 grain length (ms);
#X text 297 77 playback speed;
#X text 416 75 grain start;
#X obj 46 385 *~, f 17;
#X obj 46 575 outlet~;
#X text 679 76 pan;
#X obj 46 549 *~, f 17;
#X obj 311 575 outlet~;
#X obj 311 549 *~, f 39;
#N canvas 0 23 450 300 panning 0;
#N canvas 0 23 450 300 cos_env 0;
#X obj 103 86 inlet~;
#X obj 103 150 cos~;
#X obj 103 129 -~ 0.25;
#X obj 103 171 outlet~;
#X obj 103 108 *~ 0.5;
#X text 149 132 offset by -90 degrees so we start at 0;
#X connect 0 0 4 0;
#X connect 1 0 3 0;
#X connect 2 0 1 0;
#X connect 4 0 2 0;
#X restore 113 180 pd cos_env;
#X obj 124 147 sig~;
#N canvas 0 23 450 300 cos_env 0;
#X obj 103 86 inlet~;
#X obj 103 150 cos~;
#X obj 103 129 -~ 0.25;
#X obj 103 171 outlet~;
#X obj 103 108 *~ 0.5;
#X text 149 132 offset by -90 degrees so we start at 0;
#X connect 0 0 4 0;
#X connect 1 0 3 0;
#X connect 2 0 1 0;
#X connect 4 0 2 0;
#X restore 197 183 pd cos_env;
#X obj 208 150 sig~;
#X obj 186 25 inlet;
#X obj 186 46 * 0.5;
#X obj 113 201 outlet~;
#X obj 197 204 outlet~;
#X text 238 150 0 ---> 0.5;
#X obj 124 97 * -1;
#X obj 124 118 + 0.5;
#X text 59 146 0.5 --> 0;
#X connect 0 0 6 0;
#X connect 1 0 0 0;
#X connect 2 0 7 0;
#X connect 3 0 2 0;
#X connect 4 0 5 0;
#X connect 5 0 3 0;
#X connect 5 0 9 0;
#X connect 9 0 10 0;
#X connect 10 0 1 0;
#X restore 485 307 pd panning;
#X obj 485 284 f 0.5;
#X text 569 308 as for the amplitude envelope;
#X text 559 296 I use exactly the same logic for panning;
#X text 513 81 fileSize in samples;
#X text 177 323 <--- according to tabread~ helpfile;
#X text 215 336 the indices begin at 1 ???;
#X text 202 15 grain parameters;
#X obj 237 57 unpack 0 0 0 0 0, f 76;
#X obj 46 138 t f b b, f 21;
#N canvas -1240 595 723 346 position_wrapround_logic 0;
#X obj 109 75 inlet~;
#X obj 219 75 inlet;
#X obj 343 75 inlet;
#X obj 268 183 wrap~;
#X obj 109 204 +~, f 27;
#X obj 343 99 - 2;
#X text 366 100 tabread4~ only counts file size a nSample-2 ????;
#X obj 220 118 f, f 21;
#X obj 109 150 +~, f 17;
#X text 90 51 raw position in;
#X text 204 51 bag on next grain;
#X text 337 51 fliesize in samples;
#X obj 109 225 outlet~;
#X obj 220 141 sig~ 1;
#X obj 109 183 expr~ $v1 % $v2, f 19;
#X connect 0 0 8 0;
#X connect 1 0 7 0;
#X connect 2 0 5 0;
#X connect 3 0 4 1;
#X connect 4 0 12 0;
#X connect 5 0 7 1;
#X connect 7 0 13 0;
#X connect 8 0 3 0;
#X connect 8 0 14 0;
#X connect 13 0 14 1;
#X connect 13 0 8 1;
#X connect 14 0 4 0;
#X restore 145 267 pd position_wrapround_logic;
#X f 9;
#N canvas 0 23 954 500 grain_play_logic 0;
#X obj 415 60 inlet;
#X obj 416 289 *~, f 12;
#X obj 415 159 vline~;
#X msg 415 135 0 \, 1 \$1;
#X obj 485 135 * 44.1;
#X text 527 136 Remember: tabread4~ works in sample position not ms
;
#X text 171 121 vline~ expects timing in ms;
#X text 140 287 read from sample 0 --> grainlength in samples;
#X text 117 136 jump to 0 \, then go to one over grain length (ms)
;
#X obj 416 310 +~, f 28;
#X obj 579 280 f;
#X obj 691 252 * 44.1;
#X text 733 253 Remember: tabread4~ works in sample position not ms
;
#X text 381 173 0-->1;
#X text 598 302 + x samples changes the starting point (e.g. + 100
\, instead of counting 0 \, 1 \, 2 \, 3 \, 4... it would count 100
\, 101 \, 102 \, 103 \, 104 \, ...etc);
#X obj 415 247 *~;
#X obj 442 221 sig~ 1;
#X text 41 211 we can change speed (and pitch!!!) of play back by multiply
our 0--->1 ramp by something;
#X text 39 261 e.g. *0.5 ==> read 1/2 the number of samples in the
same time \, i.e. read half speed and pitch;
#X text 37 236 e.g. *2 ==> read 2 times the number of samples in the
same time \, i.e. read double speed and pitch;
#X obj 445 200 f 1, f 20;
#N canvas 0 23 450 300 cos_env 0;
#X obj 103 86 inlet~;
#X obj 103 150 cos~;
#X obj 103 129 -~ 0.25;
#X obj 103 171 outlet~;
#X obj 103 108 *~ 0.5;
#X text 149 132 offset by -90 degrees so we start at 0;
#X connect 0 0 4 0;
#X connect 1 0 3 0;
#X connect 2 0 1 0;
#X connect 4 0 2 0;
#X restore 318 337 pd cos_env;
#X text -6 336 I use the ramp to read through 90 degrees of a cosine
;
#X text 22 349 this gives a smooth amplitude envelope;
#X obj 415 109 t f f b b, f 18;
#X obj 582 187 inlet;
#X obj 684 222 inlet;
#X text 579 168 playback speed;
#X text 657 204 grainStart;
#X obj 318 358 outlet~;
#X text 270 389 amplitude envelope;
#X obj 416 331 outlet~;
#X text 412 354 sample index;
#X connect 0 0 24 0;
#X connect 1 0 9 0;
#X connect 2 0 15 0;
#X connect 2 0 21 0;
#X connect 3 0 2 0;
#X connect 4 0 1 1;
#X connect 9 0 31 0;
#X connect 10 0 9 1;
#X connect 11 0 10 1;
#X connect 15 0 1 0;
#X connect 16 0 15 1;
#X connect 20 0 16 0;
#X connect 21 0 29 0;
#X connect 24 0 3 0;
#X connect 24 1 4 0;
#X connect 24 2 20 0;
#X connect 24 3 10 0;
#X connect 25 0 20 1;
#X connect 26 0 11 0;
#X restore 46 218 pd grain_play_logic;
#X f 11;
#X connect 0 0 1 0;
#X connect 1 0 9 1;
#X connect 2 0 24 0;
#X connect 3 0 2 0;
#X connect 5 0 23 0;
#X connect 9 0 12 0;
#X connect 9 0 14 0;
#X connect 12 0 10 0;
#X connect 14 0 13 0;
#X connect 15 0 12 1;
#X connect 15 1 14 1;
#X connect 16 0 15 0;
#X connect 23 0 2 1;
#X connect 23 1 26 1;
#X connect 23 2 26 2;
#X connect 23 3 25 2;
#X connect 23 4 16 1;
#X connect 24 0 26 0;
#X connect 24 1 25 1;
#X connect 24 2 16 0;
#X connect 25 0 0 0;
#X connect 26 0 9 0;
#X connect 26 1 25 0;
#X restore 486 482 pd grain_v2;
#X f 10;
#N canvas -1280 581 833 556 grain_v2 0;
#X obj 145 324 +~ 1;
#X obj 145 357 tabread4~ \$0-Samp;
#X obj 46 117 f 50, f 22;
#X obj 46 93 inlet;
#X text 30 74 bang for grain;
#X obj 237 35 inlet;
#X text 178 75 grain length (ms);
#X text 297 77 playback speed;
#X text 416 75 grain start;
#X obj 46 385 *~, f 17;
#X obj 46 461 outlet~;
#X text 679 76 pan;
#X obj 46 435 *~, f 17;
#X obj 311 461 outlet~;
#X obj 311 435 *~, f 39;
#N canvas 0 23 450 300 panning 0;
#N canvas 0 23 450 300 cos_env 0;
#X obj 103 86 inlet~;
#X obj 103 150 cos~;
#X obj 103 129 -~ 0.25;
#X obj 103 171 outlet~;
#X obj 103 108 *~ 0.5;
#X text 149 132 offset by -90 degrees so we start at 0;
#X connect 0 0 4 0;
#X connect 1 0 3 0;
#X connect 2 0 1 0;
#X connect 4 0 2 0;
#X restore 113 180 pd cos_env;
#X obj 124 147 sig~;
#N canvas 0 23 450 300 cos_env 0;
#X obj 103 86 inlet~;
#X obj 103 150 cos~;
#X obj 103 129 -~ 0.25;
#X obj 103 171 outlet~;
#X obj 103 108 *~ 0.5;
#X text 149 132 offset by -90 degrees so we start at 0;
#X connect 0 0 4 0;
#X connect 1 0 3 0;
#X connect 2 0 1 0;
#X connect 4 0 2 0;
#X restore 197 183 pd cos_env;
#X obj 208 150 sig~;
#X obj 186 25 inlet;
#X obj 186 46 * 0.5;
#X obj 113 201 outlet~;
#X obj 197 204 outlet~;
#X text 238 150 0 ---> 0.5;
#X obj 124 97 * -1;
#X obj 124 118 + 0.5;
#X text 59 146 0.5 --> 0;
#X connect 0 0 6 0;
#X connect 1 0 0 0;
#X connect 2 0 7 0;
#X connect 3 0 2 0;
#X connect 4 0 5 0;
#X connect 5 0 3 0;
#X connect 5 0 9 0;
#X connect 9 0 10 0;
#X connect 10 0 1 0;
#X restore 485 307 pd panning;
#X obj 485 284 f 0.5;
#X text 569 308 as for the amplitude envelope;
#X text 559 296 I use exactly the same logic for panning;
#X text 513 81 fileSize in samples;
#X text 177 323 <--- according to tabread~ helpfile;
#X text 215 336 the indices begin at 1 ???;
#X text 202 15 grain parameters;
#X obj 237 57 unpack 0 0 0 0 0, f 76;
#X obj 46 138 t f b b, f 21;
#N canvas -1240 595 723 346 position_wrapround_logic 0;
#X obj 109 75 inlet~;
#X obj 219 75 inlet;
#X obj 343 75 inlet;
#X obj 268 183 wrap~;
#X obj 109 204 +~, f 27;
#X obj 343 99 - 2;
#X text 366 100 tabread4~ only counts file size a nSample-2 ????;
#X obj 220 118 f, f 21;
#X obj 109 150 +~, f 17;
#X text 90 51 raw position in;
#X text 204 51 bag on next grain;
#X text 337 51 fliesize in samples;
#X obj 109 225 outlet~;
#X obj 220 141 sig~ 1;
#X obj 109 183 expr~ $v1 % $v2, f 19;
#X connect 0 0 8 0;
#X connect 1 0 7 0;
#X connect 2 0 5 0;
#X connect 3 0 4 1;
#X connect 4 0 12 0;
#X connect 5 0 7 1;
#X connect 7 0 13 0;
#X connect 8 0 3 0;
#X connect 8 0 14 0;
#X connect 13 0 14 1;
#X connect 13 0 8 1;
#X connect 14 0 4 0;
#X restore 145 267 pd position_wrapround_logic;
#X f 9;
#N canvas 0 23 954 500 grain_play_logic 0;
#X obj 415 60 inlet;
#X obj 416 289 *~, f 12;
#X obj 415 159 vline~;
#X msg 415 135 0 \, 1 \$1;
#X obj 485 135 * 44.1;
#X text 527 136 Remember: tabread4~ works in sample position not ms
;
#X text 171 121 vline~ expects timing in ms;
#X text 140 287 read from sample 0 --> grainlength in samples;
#X text 117 136 jump to 0 \, then go to one over grain length (ms)
;
#X obj 416 310 +~, f 28;
#X obj 579 280 f;
#X obj 691 252 * 44.1;
#X text 733 253 Remember: tabread4~ works in sample position not ms
;
#X text 381 173 0-->1;
#X text 598 302 + x samples changes the starting point (e.g. + 100
\, instead of counting 0 \, 1 \, 2 \, 3 \, 4... it would count 100
\, 101 \, 102 \, 103 \, 104 \, ...etc);
#X obj 415 247 *~;
#X obj 442 221 sig~ 1;
#X text 41 211 we can change speed (and pitch!!!) of play back by multiply
our 0--->1 ramp by something;
#X text 39 261 e.g. *0.5 ==> read 1/2 the number of samples in the
same time \, i.e. read half speed and pitch;
#X text 37 236 e.g. *2 ==> read 2 times the number of samples in the
same time \, i.e. read double speed and pitch;
#X obj 445 200 f 1, f 20;
#N canvas 0 23 450 300 cos_env 0;
#X obj 103 86 inlet~;
#X obj 103 150 cos~;
#X obj 103 129 -~ 0.25;
#X obj 103 171 outlet~;
#X obj 103 108 *~ 0.5;
#X text 149 132 offset by -90 degrees so we start at 0;
#X connect 0 0 4 0;
#X connect 1 0 3 0;
#X connect 2 0 1 0;
#X connect 4 0 2 0;
#X restore 318 337 pd cos_env;
#X text -6 336 I use the ramp to read through 90 degrees of a cosine
;
#X text 22 349 this gives a smooth amplitude envelope;
#X obj 415 109 t f f b b, f 18;
#X obj 582 187 inlet;
#X obj 684 222 inlet;
#X text 579 168 playback speed;
#X text 657 204 grainStart;
#X obj 318 358 outlet~;
#X text 270 389 amplitude envelope;
#X obj 416 331 outlet~;
#X text 412 354 sample index;
#X connect 0 0 24 0;
#X connect 1 0 9 0;
#X connect 2 0 15 0;
#X connect 2 0 21 0;
#X connect 3 0 2 0;
#X connect 4 0 1 1;
#X connect 9 0 31 0;
#X connect 10 0 9 1;
#X connect 11 0 10 1;
#X connect 15 0 1 0;
#X connect 16 0 15 1;
#X connect 20 0 16 0;
#X connect 21 0 29 0;
#X connect 24 0 3 0;
#X connect 24 1 4 0;
#X connect 24 2 20 0;
#X connect 24 3 10 0;
#X connect 25 0 20 1;
#X connect 26 0 11 0;
#X restore 46 218 pd grain_play_logic;
#X f 11;
#X connect 0 0 1 0;
#X connect 1 0 9 1;
#X connect 2 0 24 0;
#X connect 3 0 2 0;
#X connect 5 0 23 0;
#X connect 9 0 12 0;
#X connect 9 0 14 0;
#X connect 12 0 10 0;
#X connect 14 0 13 0;
#X connect 15 0 12 1;
#X connect 15 1 14 1;
#X connect 16 0 15 0;
#X connect 23 0 2 1;
#X connect 23 1 26 1;
#X connect 23 2 26 2;
#X connect 23 3 25 2;
#X connect 23 4 16 1;
#X connect 24 0 26 0;
#X connect 24 1 25 1;
#X connect 24 2 16 0;
#X connect 25 0 0 0;
#X connect 26 0 9 0;
#X connect 26 1 25 0;
#X restore 563 481 pd grain_v2;
#X f 10;
#N canvas -1280 581 833 556 grain_v2 0;
#X obj 145 324 +~ 1;
#X obj 145 357 tabread4~ \$0-Samp;
#X obj 46 117 f 50, f 22;
#X obj 46 93 inlet;
#X text 30 74 bang for grain;
#X obj 237 35 inlet;
#X text 178 75 grain length (ms);
#X text 297 77 playback speed;
#X text 416 75 grain start;
#X obj 46 385 *~, f 17;
#X obj 46 461 outlet~;
#X text 679 76 pan;
#X obj 46 435 *~, f 17;
#X obj 311 461 outlet~;
#X obj 311 435 *~, f 39;
#N canvas 0 23 450 300 panning 0;
#N canvas 0 23 450 300 cos_env 0;
#X obj 103 86 inlet~;
#X obj 103 150 cos~;
#X obj 103 129 -~ 0.25;
#X obj 103 171 outlet~;
#X obj 103 108 *~ 0.5;
#X text 149 132 offset by -90 degrees so we start at 0;
#X connect 0 0 4 0;
#X connect 1 0 3 0;
#X connect 2 0 1 0;
#X connect 4 0 2 0;
#X restore 113 180 pd cos_env;
#X obj 124 147 sig~;
#N canvas 0 23 450 300 cos_env 0;
#X obj 103 86 inlet~;
#X obj 103 150 cos~;
#X obj 103 129 -~ 0.25;
#X obj 103 171 outlet~;
#X obj 103 108 *~ 0.5;
#X text 149 132 offset by -90 degrees so we start at 0;
#X connect 0 0 4 0;
#X connect 1 0 3 0;
#X connect 2 0 1 0;
#X connect 4 0 2 0;
#X restore 197 183 pd cos_env;
#X obj 208 150 sig~;
#X obj 186 25 inlet;
#X obj 186 46 * 0.5;
#X obj 113 201 outlet~;
#X obj 197 204 outlet~;
#X text 238 150 0 ---> 0.5;
#X obj 124 97 * -1;
#X obj 124 118 + 0.5;
#X text 59 146 0.5 --> 0;
#X connect 0 0 6 0;
#X connect 1 0 0 0;
#X connect 2 0 7 0;
#X connect 3 0 2 0;
#X connect 4 0 5 0;
#X connect 5 0 3 0;
#X connect 5 0 9 0;
#X connect 9 0 10 0;
#X connect 10 0 1 0;
#X restore 485 307 pd panning;
#X obj 485 284 f 0.5;
#X text 569 308 as for the amplitude envelope;
#X text 559 296 I use exactly the same logic for panning;
#X text 513 81 fileSize in samples;
#X text 177 323 <--- according to tabread~ helpfile;
#X text 215 336 the indices begin at 1 ???;
#X text 202 15 grain parameters;
#X obj 237 57 unpack 0 0 0 0 0, f 76;
#X obj 46 138 t f b b, f 21;
#N canvas -1240 595 723 346 position_wrapround_logic 0;
#X obj 109 75 inlet~;
#X obj 219 75 inlet;
#X obj 343 75 inlet;
#X obj 268 183 wrap~;
#X obj 109 204 +~, f 27;
#X obj 343 99 - 2;
#X text 366 100 tabread4~ only counts file size a nSample-2 ????;
#X obj 220 118 f, f 21;
#X obj 109 150 +~, f 17;
#X text 90 51 raw position in;
#X text 204 51 bag on next grain;
#X text 337 51 fliesize in samples;
#X obj 109 225 outlet~;
#X obj 220 141 sig~ 1;
#X obj 109 183 expr~ $v1 % $v2, f 19;
#X connect 0 0 8 0;
#X connect 1 0 7 0;
#X connect 2 0 5 0;
#X connect 3 0 4 1;
#X connect 4 0 12 0;
#X connect 5 0 7 1;
#X connect 7 0 13 0;
#X connect 8 0 3 0;
#X connect 8 0 14 0;
#X connect 13 0 14 1;
#X connect 13 0 8 1;
#X connect 14 0 4 0;
#X restore 145 267 pd position_wrapround_logic;
#X f 9;
#N canvas 0 23 954 500 grain_play_logic 0;
#X obj 415 60 inlet;
#X obj 416 289 *~, f 12;
#X obj 415 159 vline~;
#X msg 415 135 0 \, 1 \$1;
#X obj 485 135 * 44.1;
#X text 527 136 Remember: tabread4~ works in sample position not ms
;
#X text 171 121 vline~ expects timing in ms;
#X text 140 287 read from sample 0 --> grainlength in samples;
#X text 117 136 jump to 0 \, then go to one over grain length (ms)
;
#X obj 416 310 +~, f 28;
#X obj 579 280 f;
#X obj 691 252 * 44.1;
#X text 733 253 Remember: tabread4~ works in sample position not ms
;
#X text 381 173 0-->1;
#X text 598 302 + x samples changes the starting point (e.g. + 100
\, instead of counting 0 \, 1 \, 2 \, 3 \, 4... it would count 100
\, 101 \, 102 \, 103 \, 104 \, ...etc);
#X obj 415 247 *~;
#X obj 442 221 sig~ 1;
#X text 41 211 we can change speed (and pitch!!!) of play back by multiply
our 0--->1 ramp by something;
#X text 39 261 e.g. *0.5 ==> read 1/2 the number of samples in the
same time \, i.e. read half speed and pitch;
#X text 37 236 e.g. *2 ==> read 2 times the number of samples in the
same time \, i.e. read double speed and pitch;
#X obj 445 200 f 1, f 20;
#N canvas 0 23 450 300 cos_env 0;
#X obj 103 86 inlet~;
#X obj 103 150 cos~;
#X obj 103 129 -~ 0.25;
#X obj 103 171 outlet~;
#X obj 103 108 *~ 0.5;
#X text 149 132 offset by -90 degrees so we start at 0;
#X connect 0 0 4 0;
#X connect 1 0 3 0;
#X connect 2 0 1 0;
#X connect 4 0 2 0;
#X restore 318 337 pd cos_env;
#X text -6 336 I use the ramp to read through 90 degrees of a cosine
;
#X text 22 349 this gives a smooth amplitude envelope;
#X obj 415 109 t f f b b, f 18;
#X obj 582 187 inlet;
#X obj 684 222 inlet;
#X text 579 168 playback speed;
#X text 657 204 grainStart;
#X obj 318 358 outlet~;
#X text 270 389 amplitude envelope;
#X obj 416 331 outlet~;
#X text 412 354 sample index;
#X connect 0 0 24 0;
#X connect 1 0 9 0;
#X connect 2 0 15 0;
#X connect 2 0 21 0;
#X connect 3 0 2 0;
#X connect 4 0 1 1;
#X connect 9 0 31 0;
#X connect 10 0 9 1;
#X connect 11 0 10 1;
#X connect 15 0 1 0;
#X connect 16 0 15 1;
#X connect 20 0 16 0;
#X connect 21 0 29 0;
#X connect 24 0 3 0;
#X connect 24 1 4 0;
#X connect 24 2 20 0;
#X connect 24 3 10 0;
#X connect 25 0 20 1;
#X connect 26 0 11 0;
#X restore 46 218 pd grain_play_logic;
#X f 11;
#X connect 0 0 1 0;
#X connect 1 0 9 1;
#X connect 2 0 24 0;
#X connect 3 0 2 0;
#X connect 5 0 23 0;
#X connect 9 0 12 0;
#X connect 9 0 14 0;
#X connect 12 0 10 0;
#X connect 14 0 13 0;
#X connect 15 0 12 1;
#X connect 15 1 14 1;
#X connect 16 0 15 0;
#X connect 23 0 2 1;
#X connect 23 1 26 1;
#X connect 23 2 26 2;
#X connect 23 3 25 2;
#X connect 23 4 16 1;
#X connect 24 0 26 0;
#X connect 24 1 25 1;
#X connect 24 2 16 0;
#X connect 25 0 0 0;
#X connect 26 0 9 0;
#X connect 26 1 25 0;
#X restore 633 481 pd grain_v2;
#X f 10;
#N canvas -1280 581 833 556 grain_v2 0;
#X obj 145 324 +~ 1;
#X obj 145 357 tabread4~ \$0-Samp;
#X obj 46 117 f 50, f 22;
#X obj 46 93 inlet;
#X text 30 74 bang for grain;
#X obj 237 35 inlet;
#X text 178 75 grain length (ms);
#X text 297 77 playback speed;
#X text 416 75 grain start;
#X obj 46 385 *~, f 17;
#X obj 46 461 outlet~;
#X text 679 76 pan;
#X obj 46 435 *~, f 17;
#X obj 311 461 outlet~;
#X obj 311 435 *~, f 39;
#N canvas 0 23 450 300 panning 0;
#N canvas 0 23 450 300 cos_env 0;
#X obj 103 86 inlet~;
#X obj 103 150 cos~;
#X obj 103 129 -~ 0.25;
#X obj 103 171 outlet~;
#X obj 103 108 *~ 0.5;
#X text 149 132 offset by -90 degrees so we start at 0;
#X connect 0 0 4 0;
#X connect 1 0 3 0;
#X connect 2 0 1 0;
#X connect 4 0 2 0;
#X restore 113 180 pd cos_env;
#X obj 124 147 sig~;
#N canvas 0 23 450 300 cos_env 0;
#X obj 103 86 inlet~;
#X obj 103 150 cos~;
#X obj 103 129 -~ 0.25;
#X obj 103 171 outlet~;
#X obj 103 108 *~ 0.5;
#X text 149 132 offset by -90 degrees so we start at 0;
#X connect 0 0 4 0;
#X connect 1 0 3 0;
#X connect 2 0 1 0;
#X connect 4 0 2 0;
#X restore 197 183 pd cos_env;
#X obj 208 150 sig~;
#X obj 186 25 inlet;
#X obj 186 46 * 0.5;
#X obj 113 201 outlet~;
#X obj 197 204 outlet~;
#X text 238 150 0 ---> 0.5;
#X obj 124 97 * -1;
#X obj 124 118 + 0.5;
#X text 59 146 0.5 --> 0;
#X connect 0 0 6 0;
#X connect 1 0 0 0;
#X connect 2 0 7 0;
#X connect 3 0 2 0;
#X connect 4 0 5 0;
#X connect 5 0 3 0;
#X connect 5 0 9 0;
#X connect 9 0 10 0;
#X connect 10 0 1 0;
#X restore 485 307 pd panning;
#X obj 485 284 f 0.5;
#X text 569 308 as for the amplitude envelope;
#X text 559 296 I use exactly the same logic for panning;
#X text 513 81 fileSize in samples;
#X text 177 323 <--- according to tabread~ helpfile;
#X text 215 336 the indices begin at 1 ???;
#X text 202 15 grain parameters;
#X obj 237 57 unpack 0 0 0 0 0, f 76;
#X obj 46 138 t f b b, f 21;
#N canvas -1240 595 723 346 position_wrapround_logic 0;
#X obj 109 75 inlet~;
#X obj 219 75 inlet;
#X obj 343 75 inlet;
#X obj 268 183 wrap~;
#X obj 109 204 +~, f 27;
#X obj 343 99 - 2;
#X text 366 100 tabread4~ only counts file size a nSample-2 ????;
#X obj 220 118 f, f 21;
#X obj 109 150 +~, f 17;
#X text 90 51 raw position in;
#X text 204 51 bag on next grain;
#X text 337 51 fliesize in samples;
#X obj 109 225 outlet~;
#X obj 220 141 sig~ 1;
#X obj 109 183 expr~ $v1 % $v2, f 19;
#X connect 0 0 8 0;
#X connect 1 0 7 0;
#X connect 2 0 5 0;
#X connect 3 0 4 1;
#X connect 4 0 12 0;
#X connect 5 0 7 1;
#X connect 7 0 13 0;
#X connect 8 0 3 0;
#X connect 8 0 14 0;
#X connect 13 0 14 1;
#X connect 13 0 8 1;
#X connect 14 0 4 0;
#X restore 145 267 pd position_wrapround_logic;
#X f 9;
#N canvas 0 23 954 500 grain_play_logic 0;
#X obj 415 60 inlet;
#X obj 416 289 *~, f 12;
#X obj 415 159 vline~;
#X msg 415 135 0 \, 1 \$1;
#X obj 485 135 * 44.1;
#X text 527 136 Remember: tabread4~ works in sample position not ms
;
#X text 171 121 vline~ expects timing in ms;
#X text 140 287 read from sample 0 --> grainlength in samples;
#X text 117 136 jump to 0 \, then go to one over grain length (ms)
;
#X obj 416 310 +~, f 28;
#X obj 579 280 f;
#X obj 691 252 * 44.1;
#X text 733 253 Remember: tabread4~ works in sample position not ms
;
#X text 381 173 0-->1;
#X text 598 302 + x samples changes the starting point (e.g. + 100
\, instead of counting 0 \, 1 \, 2 \, 3 \, 4... it would count 100
\, 101 \, 102 \, 103 \, 104 \, ...etc);
#X obj 415 247 *~;
#X obj 442 221 sig~ 1;
#X text 41 211 we can change speed (and pitch!!!) of play back by multiply
our 0--->1 ramp by something;
#X text 39 261 e.g. *0.5 ==> read 1/2 the number of samples in the
same time \, i.e. read half speed and pitch;
#X text 37 236 e.g. *2 ==> read 2 times the number of samples in the
same time \, i.e. read double speed and pitch;
#X obj 445 200 f 1, f 20;
#N canvas 0 23 450 300 cos_env 0;
#X obj 103 86 inlet~;
#X obj 103 150 cos~;
#X obj 103 129 -~ 0.25;
#X obj 103 171 outlet~;
#X obj 103 108 *~ 0.5;
#X text 149 132 offset by -90 degrees so we start at 0;
#X connect 0 0 4 0;
#X connect 1 0 3 0;
#X connect 2 0 1 0;
#X connect 4 0 2 0;
#X restore 318 337 pd cos_env;
#X text -6 336 I use the ramp to read through 90 degrees of a cosine
;
#X text 22 349 this gives a smooth amplitude envelope;
#X obj 415 109 t f f b b, f 18;
#X obj 582 187 inlet;
#X obj 684 222 inlet;
#X text 579 168 playback speed;
#X text 657 204 grainStart;
#X obj 318 358 outlet~;
#X text 270 389 amplitude envelope;
#X obj 416 331 outlet~;
#X text 412 354 sample index;
#X connect 0 0 24 0;
#X connect 1 0 9 0;
#X connect 2 0 15 0;
#X connect 2 0 21 0;
#X connect 3 0 2 0;
#X connect 4 0 1 1;
#X connect 9 0 31 0;
#X connect 10 0 9 1;
#X connect 11 0 10 1;
#X connect 15 0 1 0;
#X connect 16 0 15 1;
#X connect 20 0 16 0;
#X connect 21 0 29 0;
#X connect 24 0 3 0;
#X connect 24 1 4 0;
#X connect 24 2 20 0;
#X connect 24 3 10 0;
#X connect 25 0 20 1;
#X connect 26 0 11 0;
#X restore 46 218 pd grain_play_logic;
#X f 11;
#X connect 0 0 1 0;
#X connect 1 0 9 1;
#X connect 2 0 24 0;
#X connect 3 0 2 0;
#X connect 5 0 23 0;
#X connect 9 0 12 0;
#X connect 9 0 14 0;
#X connect 12 0 10 0;
#X connect 14 0 13 0;
#X connect 15 0 12 1;
#X connect 15 1 14 1;
#X connect 16 0 15 0;
#X connect 23 0 2 1;
#X connect 23 1 26 1;
#X connect 23 2 26 2;
#X connect 23 3 25 2;
#X connect 23 4 16 1;
#X connect 24 0 26 0;
#X connect 24 1 25 1;
#X connect 24 2 16 0;
#X connect 25 0 0 0;
#X connect 26 0 9 0;
#X connect 26 1 25 0;
#X restore 710 480 pd grain_v2;
#X f 10;
#X obj 192 458 sel 0 1 2 3 4 5 6 7, f 101;
#X text 51 18 In this example I am using 8 of the same grain patches
\, this makes it possible to have grains that overlap;
#X obj 444 220 loadbang;
#X msg 482 244 1;
#X msg 444 241 50;
#X msg 514 245 0.5;
#X msg 417 238 25;
#X obj 192 425 counter_sjf 8, f 7;
#X connect 0 0 2 0;
#X connect 1 0 0 0;
#X connect 2 0 9 0;
#X connect 4 0 8 0;
#X connect 5 0 2 0;
#X connect 6 0 2 0;
#X connect 7 0 2 0;
#X connect 9 0 4 0;
#X connect 11 0 43 0;
#X connect 15 0 22 0;
#X connect 16 0 22 1;
#X connect 18 0 31 0;
#X connect 20 0 22 4;
#X connect 21 0 10 0;
#X connect 21 1 10 1;
#X connect 22 0 23 1;
#X connect 22 0 28 1;
#X connect 22 0 29 1;
#X connect 22 0 30 1;
#X connect 22 0 32 1;
#X connect 22 0 33 1;
#X connect 22 0 34 1;
#X connect 22 0 35 1;
#X connect 23 0 21 0;
#X connect 23 1 21 1;
#X connect 24 0 22 2;
#X connect 25 0 22 3;
#X connect 27 0 31 1;
#X connect 28 0 21 0;
#X connect 28 1 21 1;
#X connect 29 0 21 0;
#X connect 29 1 21 1;
#X connect 30 0 21 0;
#X connect 30 1 21 1;
#X connect 31 0 11 0;
#X connect 32 0 21 0;
#X connect 32 1 21 1;
#X connect 33 0 21 0;
#X connect 33 1 21 1;
#X connect 34 0 21 0;
#X connect 34 1 21 1;
#X connect 35 0 21 0;
#X connect 35 1 21 1;
#X connect 36 0 23 0;
#X connect 36 1 28 0;
#X connect 36 2 29 0;
#X connect 36 3 30 0;
#X connect 36 4 32 0;
#X connect 36 5 33 0;
#X connect 36 6 34 0;
#X connect 36 7 35 0;
#X connect 38 0 40 0;
#X connect 38 0 39 0;
#X connect 38 0 41 0;
#X connect 38 0 42 0;
#X connect 39 0 16 0;
#X connect 40 0 15 0;
#X connect 41 0 20 0;
#X connect 42 0 27 0;
#X connect 43 0 36 0;
#X restore 80 215 pd granular_synthesis_5;
#N canvas 97 23 1280 751 granular_synthesis_6 0;
#X obj 138 655 dac~, f 6;
#X obj 35 304 bng 15 250 50 0 empty empty empty 17 7 0 10 -262144 -1
-1;
#X floatatom 303 257 5 0 0 0 cloud_length - -;
#X obj 34 374 gransyn1_sjf~;
#X msg 444 288 ./breaks/funkyDrummer.wav;
#N canvas 0 23 668 341 params_logic 0;
#X obj 96 57 inlet;
#X obj 18 164 * 80;
#X obj 109 164 - 0.5;
#X obj 109 186 * 36;
#X obj 96 78 f;
#N canvas 0 23 406 417 PanLogic 0;
#X obj 70 80 tabread \$0-grain_pan;
#X obj 214 77 tabread \$0-pan_spread;
#X obj 72 40 t f f;
#X obj 214 98 t f b b, f 10;
#X obj 322 103 random 2;
#X obj 322 124 sel 0;
#X msg 322 145 -1;
#X obj 322 166 int;
#X obj 242 123 random 10000;
#X obj 242 144 / 10000;
#X obj 242 165 *;
#X obj 203 204 *;
#X obj 70 275 +;
#X obj 202 120 clip 0 1, f 5;
#X obj 202 152 t f f;
#X obj 202 173 *;
#X obj 73 16 inlet;
#X obj 68 334 outlet;
#X obj 70 296 clip 0 1;
#X connect 0 0 12 0;
#X connect 1 0 3 0;
#X connect 2 0 0 0;
#X connect 2 1 1 0;
#X connect 3 0 13 0;
#X connect 3 1 8 0;
#X connect 3 2 4 0;
#X connect 4 0 5 0;
#X connect 5 0 6 0;
#X connect 5 1 7 0;
#X connect 6 0 7 0;
#X connect 7 0 10 1;
#X connect 8 0 9 0;
#X connect 9 0 10 0;
#X connect 10 0 11 1;
#X connect 11 0 12 1;
#X connect 12 0 18 0;
#X connect 13 0 14 0;
#X connect 14 0 15 0;
#X connect 14 1 15 1;
#X connect 15 0 11 0;
#X connect 16 0 2 0;
#X connect 18 0 17 0;
#X restore 307 142 pd PanLogic;
#N canvas 0 23 425 390 lengthLogic 0;
#X obj 72 40 t f f;
#X obj 214 98 t f b b, f 10;
#X obj 322 103 random 2;
#X obj 322 124 sel 0;
#X msg 322 145 -1;
#X obj 322 166 int;
#X obj 242 123 random 10000;
#X obj 242 144 / 10000;
#X obj 242 165 *;
#X obj 203 204 *;
#X obj 70 275 +;
#X obj 202 120 clip 0 1, f 5;
#X obj 202 152 t f f;
#X obj 202 173 *;
#X obj 73 16 inlet;
#X obj 70 324 outlet;
#X obj 70 80 tabread \$0-grain_length;
#X obj 214 77 tabread \$0-grainlength_spread;
#X obj 70 296 clip 0 1;
#X connect 0 0 16 0;
#X connect 0 1 17 0;
#X connect 1 0 11 0;
#X connect 1 1 6 0;
#X connect 1 2 2 0;
#X connect 2 0 3 0;
#X connect 3 0 4 0;
#X connect 3 1 5 0;
#X connect 4 0 5 0;
#X connect 5 0 8 1;
#X connect 6 0 7 0;
#X connect 7 0 8 0;
#X connect 8 0 9 1;
#X connect 9 0 10 1;
#X connect 10 0 18 0;
#X connect 11 0 12 0;
#X connect 12 0 13 0;
#X connect 12 1 13 1;
#X connect 13 0 9 0;
#X connect 14 0 0 0;
#X connect 16 0 10 0;
#X connect 17 0 1 0;
#X connect 18 0 15 0;
#X restore 18 142 pd lengthLogic;
#N canvas 0 23 410 412 transposeLogic 0;
#X obj 72 40 t f f;
#X obj 214 98 t f b b, f 10;
#X obj 322 103 random 2;
#X obj 322 124 sel 0;
#X msg 322 145 -1;
#X obj 322 166 int;
#X obj 242 123 random 10000;
#X obj 242 144 / 10000;
#X obj 242 165 *;
#X obj 203 204 *;
#X obj 70 275 +;
#X obj 202 120 clip 0 1, f 5;
#X obj 202 152 t f f;
#X obj 202 173 *;
#X obj 73 16 inlet;
#X obj 70 362 outlet;
#X obj 70 80 tabread \$0-transpose;
#X obj 214 77 tabread \$0-transpose_spread;
#X obj 70 296 clip 0 1;
#X connect 0 0 16 0;
#X connect 0 1 17 0;
#X connect 1 0 11 0;
#X connect 1 1 6 0;
#X connect 1 2 2 0;
#X connect 2 0 3 0;
#X connect 3 0 4 0;
#X connect 3 1 5 0;
#X connect 4 0 5 0;
#X connect 5 0 8 1;
#X connect 6 0 7 0;
#X connect 7 0 8 0;
#X connect 8 0 9 1;
#X connect 9 0 10 1;
#X connect 10 0 18 0;
#X connect 11 0 12 0;
#X connect 12 0 13 0;
#X connect 12 1 13 1;
#X connect 13 0 9 0;
#X connect 14 0 0 0;
#X connect 16 0 10 0;
#X connect 17 0 1 0;
#X connect 18 0 15 0;
#X restore 109 142 pd transposeLogic;
#N canvas 0 23 399 413 startLogic 0;
#X obj 72 40 t f f;
#X obj 214 98 t f b b, f 10;
#X obj 322 103 random 2;
#X obj 322 124 sel 0;
#X msg 322 145 -1;
#X obj 322 166 int;
#X obj 242 123 random 10000;
#X obj 242 144 / 10000;
#X obj 242 165 *;
#X obj 203 204 *;
#X obj 70 275 +;
#X obj 202 120 clip 0 1, f 5;
#X obj 202 152 t f f;
#X obj 202 173 *;
#X obj 73 16 inlet;
#X obj 70 327 outlet;
#X obj 70 80 tabread \$0-grain_start;
#X obj 214 77 tabread \$0-grain_start_spread;
#X obj 70 296 clip 0 1;
#X connect 0 0 16 0;
#X connect 0 1 17 0;
#X connect 1 0 11 0;
#X connect 1 1 6 0;
#X connect 1 2 2 0;
#X connect 2 0 3 0;
#X connect 3 0 4 0;
#X connect 3 1 5 0;
#X connect 4 0 5 0;
#X connect 5 0 8 1;
#X connect 6 0 7 0;
#X connect 7 0 8 0;
#X connect 8 0 9 1;
#X connect 9 0 10 1;
#X connect 10 0 18 0;
#X connect 11 0 12 0;
#X connect 12 0 13 0;
#X connect 12 1 13 1;
#X connect 13 0 9 0;
#X connect 14 0 0 0;
#X connect 16 0 10 0;
#X connect 17 0 1 0;
#X connect 18 0 15 0;
#X restore 220 142 pd startLogic;
#X obj 18 207 outlet;
#X obj 109 207 outlet;
#X obj 220 163 outlet;
#X obj 307 163 outlet;
#X obj 382 165 outlet;
#N canvas 0 23 394 403 VolLogic 0;
#X obj 72 40 t f f;
#X obj 214 98 t f b b, f 10;
#X obj 322 103 random 2;
#X obj 322 124 sel 0;
#X msg 322 145 -1;
#X obj 322 166 int;
#X obj 242 123 random 10000;
#X obj 242 144 / 10000;
#X obj 242 165 *;
#X obj 203 204 *;
#X obj 70 275 +;
#X obj 202 120 clip 0 1, f 5;
#X obj 202 152 t f f;
#X obj 202 173 *;
#X obj 73 16 inlet;
#X obj 70 335 outlet;
#X obj 70 80 tabread \$0-grain_vol;
#X obj 214 77 tabread \$0-grain_vol_spread;
#X obj 70 296 clip 0 1;
#X connect 0 0 16 0;
#X connect 0 1 17 0;
#X connect 1 0 11 0;
#X connect 1 1 6 0;
#X connect 1 2 2 0;
#X connect 2 0 3 0;
#X connect 3 0 4 0;
#X connect 3 1 5 0;
#X connect 4 0 5 0;
#X connect 5 0 8 1;
#X connect 6 0 7 0;
#X connect 7 0 8 0;
#X connect 8 0 9 1;
#X connect 9 0 10 1;
#X connect 10 0 18 0;
#X connect 11 0 12 0;
#X connect 12 0 13 0;
#X connect 12 1 13 1;
#X connect 13 0 9 0;
#X connect 14 0 0 0;
#X connect 16 0 10 0;
#X connect 17 0 1 0;
#X connect 18 0 15 0;
#X restore 382 144 pd VolLogic;
#X obj 18 186 + 20;
#X obj 458 278 outlet;
#N canvas 0 23 394 403 envLogic 0;
#X obj 72 40 t f f;
#X obj 214 98 t f b b, f 10;
#X obj 322 103 random 2;
#X obj 322 124 sel 0;
#X msg 322 145 -1;
#X obj 322 166 int;
#X obj 242 123 random 10000;
#X obj 242 144 / 10000;
#X obj 242 165 *;
#X obj 203 204 *;
#X obj 70 230 +;
#X obj 202 120 clip 0 1, f 5;
#X obj 202 152 t f f;
#X obj 202 173 *;
#X obj 73 16 inlet;
#X obj 70 335 outlet;
#X obj 70 251 clip 0 1;
#X obj 70 80 tabread \$0-grain_env;
#X obj 214 77 tabread \$0-grain_env_spread;
#X connect 0 0 17 0;
#X connect 0 1 18 0;
#X connect 1 0 11 0;
#X connect 1 1 6 0;
#X connect 1 2 2 0;
#X connect 2 0 3 0;
#X connect 3 0 4 0;
#X connect 3 1 5 0;
#X connect 4 0 5 0;
#X connect 5 0 8 1;
#X connect 6 0 7 0;
#X connect 7 0 8 0;
#X connect 8 0 9 1;
#X connect 9 0 10 1;
#X connect 10 0 16 0;
#X connect 11 0 12 0;
#X connect 12 0 13 0;
#X connect 12 1 13 1;
#X connect 13 0 9 0;
#X connect 14 0 0 0;
#X connect 16 0 15 0;
#X connect 17 0 10 0;
#X connect 18 0 1 0;
#X restore 459 144 pd envLogic;
#X obj 459 251 expr round($f1);
#X obj 459 165 t b f;
#X msg 459 186 1;
#X obj 459 207 -;
#X obj 459 230 * 1;
#X connect 0 0 4 0;
#X connect 1 0 15 0;
#X connect 2 0 3 0;
#X connect 3 0 10 0;
#X connect 4 0 5 0;
#X connect 4 0 6 0;
#X connect 4 0 7 0;
#X connect 4 0 8 0;
#X connect 4 0 14 0;
#X connect 4 0 17 0;
#X connect 5 0 12 0;
#X connect 6 0 1 0;
#X connect 7 0 2 0;
#X connect 8 0 11 0;
#X connect 14 0 13 0;
#X connect 15 0 9 0;
#X connect 17 0 19 0;
#X connect 18 0 16 0;
#X connect 19 0 20 0;
#X connect 19 1 21 1;
#X connect 20 0 21 0;
#X connect 21 0 22 0;
#X connect 22 0 18 0;
#X restore 94 308 pd params_logic;
#X f 32;
#X obj 35 260 bng 15 250 50 0 empty empty trigger_cloud 17 7 0 10 -262144
-1 -1;
#N canvas 0 23 349 378 cloud_trigger_logic 0;
#X obj 37 37 inlet;
#X msg 37 80 0 \, 1 \$1;
#X obj 37 101 line, f 12;
#X obj 37 58 f 10000;
#X obj 103 230 tabread \$0-cloud_density, f 9;
#X obj 37 187 random 10000;
#X obj 37 208 / 10000;
#X obj 37 229 <;
#X obj 37 250 sel 1;
#X obj 103 291 f, f 11;
#X obj 37 271 t b b, f 7;
#X obj 81 37 inlet;
#X obj 103 312 outlet;
#X obj 37 292 outlet;
#X obj 237 298 outlet;
#X obj 163 167 * 1024;
#X text 208 166 size of arrays;
#X obj 163 188 t f f f;
#X obj 37 122 t b f, f 8;
#X connect 0 0 3 0;
#X connect 1 0 2 0;
#X connect 2 0 18 0;
#X connect 3 0 1 0;
#X connect 4 0 7 1;
#X connect 5 0 6 0;
#X connect 6 0 7 0;
#X connect 7 0 8 0;
#X connect 8 0 10 0;
#X connect 9 0 12 0;
#X connect 10 0 13 0;
#X connect 10 1 9 0;
#X connect 11 0 3 1;
#X connect 15 0 17 0;
#X connect 17 0 4 0;
#X connect 17 1 9 1;
#X connect 17 2 14 0;
#X connect 18 0 5 0;
#X connect 18 1 15 0;
#X restore 35 280 pd cloud_trigger_logic;
#X f 50;
#X text 28 1 The specifics of how the grains are triggered here is
somewhat irrellevant (I'm uing arrays as sequencers for each variable
and creating random variations around these values);
#X obj 643 19 shape_maker_sjf \$0-cloud_density 1024;
#X obj 945 19 shape_maker_sjf \$0-reverb 1024;
#X obj 643 121 shape_maker_sjf \$0-transpose 1024;
#X obj 945 121 shape_maker_sjf \$0-transpose_spread 1024;
#X obj 643 223 shape_maker_sjf \$0-grain_length 1024;
#X obj 945 223 shape_maker_sjf \$0-grainlength_spread 1024;
#X obj 945 325 shape_maker_sjf \$0-grain_start_spread 1024;
#X obj 945 427 shape_maker_sjf \$0-pan_spread 1024;
#X obj 643 427 shape_maker_sjf \$0-grain_pan 1024;
#X obj 643 325 shape_maker_sjf \$0-grain_start 1024;
#X obj 643 529 shape_maker_sjf \$0-grain_vol 1024;
#X obj 945 529 shape_maker_sjf \$0-grain_vol_spread 1024;
#X obj 555 230 s randomShape;
#X obj 35 191 t b b b, f 90;
#X obj 303 213 random 30000;
#X obj 303 234 + 1000;
#X obj 36 142 bng 20 250 50 0 empty empty random_cloud 22 10 0 10 -262144
-1 -1;
#X obj 138 615 vol2_sjf~;
#X obj 426 533 vol2_sjf~;
#X obj 494 369 clip 0 1;
#X obj 494 345 tabread \$0-reverb;
#X obj 426 575 rev3~ 100 90 3000 20;
#X obj 494 390 t f f;
#X obj 494 411 *;
#X obj 494 432 * 0.707;
#N canvas 0 23 291 164 limiter~ 0;
#X obj 58 43 inlet~;
#X obj 158 46 inlet~;
#X obj 59 66 expr~ tanh($v1);
#X obj 157 66 expr~ tanh($v1);
#X obj 59 87 outlet~;
#X obj 157 87 outlet~;
#X connect 0 0 2 0;
#X connect 1 0 3 0;
#X connect 2 0 4 0;
#X connect 3 0 5 0;
#X restore 44 482 pd limiter~;
#X obj 643 631 shape_maker_sjf \$0-grain_env 1024;
#X obj 945 631 shape_maker_sjf \$0-grain_env_spread 1024;
#X text 36 631 turn me up --->;
#X text 29 38 What is important is the concept of using macro controls
to determine the parameters for large numbers of grains to crete "clouds"
of sound... this is a litte Xenakis-eque if you use a sample (and also
similar to how he stochastically determined elements of his piece Concret
PH) \, somewhat reminicent of Jean Claude Risset's SUD if you use the
sinewave wave table;
#X obj 595 196 bng 15 250 50 0 empty empty empty 17 7 0 10 -262144
-1 -1;
#X connect 1 0 3 0;
#X connect 2 0 7 1;
#X connect 3 0 34 0;
#X connect 3 1 26 1;
#X connect 3 1 34 1;
#X connect 4 0 3 8;
#X connect 5 0 3 1;
#X connect 5 1 3 2;
#X connect 5 2 3 3;
#X connect 5 3 3 4;
#X connect 5 4 3 5;
#X connect 5 5 3 6;
#X connect 6 0 7 0;
#X connect 7 0 1 0;
#X connect 7 1 5 0;
#X connect 7 2 29 0;
#X connect 22 0 6 0;
#X connect 22 1 23 0;
#X connect 22 2 21 0;
#X connect 23 0 24 0;
#X connect 24 0 2 0;
#X connect 25 0 22 0;
#X connect 26 0 0 0;
#X connect 26 1 0 1;
#X connect 27 0 30 0;
#X connect 27 1 30 1;
#X connect 28 0 31 0;
#X connect 29 0 28 0;
#X connect 30 0 26 0;
#X connect 30 1 26 1;
#X connect 31 0 32 0;
#X connect 31 1 32 1;
#X connect 32 0 33 0;
#X connect 33 0 27 2;
#X connect 34 0 27 0;
#X connect 34 0 26 0;
#X connect 34 1 27 1;
#X connect 34 1 26 1;
#X connect 39 0 21 0;
#X restore 79 235 pd granular_synthesis_6;
#N canvas 352 75 901 751 granular_synthesis_7 0;
#X obj 403 569 gransyn1_sjf~;
#X obj 404 15 conductor_sjf 250 16;
#X obj 404 80 stpseq16_sjf;
#X obj 404 415 makenote 100 250;
#X obj 403 457 tgl 15 0 empty empty empty 17 7 0 10 -262144 -1 -1 0
1;
#X obj 403 725 dac~;
#X obj 403 685 vol2_sjf~;
#X obj 246 183 hsl 50 10 0 1 0 1 empty empty pan -2 -8 0 10 -262144
-1 -1 600 1;
#X obj 247 231 hsl 50 10 0 1 0 1 empty empty pan_variation -2 -8 0
10 -262144 -1 -1 4200 1;
#N canvas 0 23 450 300 midiNote_logic 0;
#X obj 80 63 inlet;
#X obj 191 88 t f f, f 9;
#X obj 71 141 > 0;
#X obj 127 154 - 69;
#X obj 237 172 / 127;
#X obj 83 91 t f f;
#X obj 83 112 *;
#X obj 127 132 expr floor($f1);
#X text 69 45 midi pitch;
#X obj 191 68 inlet;
#X text 180 50 midi pitch;
#X obj 237 193 outlet;
#X obj 127 175 outlet;
#X obj 239 129 sel 0;
#X obj 71 162 outlet;
#X connect 0 0 5 0;
#X connect 1 0 6 1;
#X connect 1 1 13 0;
#X connect 2 0 14 0;
#X connect 3 0 12 0;
#X connect 4 0 11 0;
#X connect 5 0 6 0;
#X connect 5 1 7 0;
#X connect 6 0 2 0;
#X connect 7 0 3 0;
#X connect 9 0 1 0;
#X connect 13 1 4 0;
#X restore 404 436 pd midiNote_logic;
#X text 13 23 This example uses granular synthesis in a more melodic
setting;
#X obj 651 29 loadbang;
#X text 478 698 <---- turn me up;
#X msg 651 48 4;
#X obj 46 176 hsl 50 10 0 1 0 1 empty empty density -2 -8 0 10 -262144
-1 -1 2900 1;
#X obj 43 191 s \$0-density;
#X obj 135 176 hsl 50 10 0 1 0 1 empty empty pitch_variation -2 -8
0 10 -262144 -1 -1 4900 1;
#X obj 132 191 s \$0-pitchVar;
#X obj 243 198 s \$0-pan;
#X obj 244 246 s \$0-panVar;
#N canvas 0 23 784 322 grain_trigger_+_param_variations 0;
#X obj 52 45 inlet;
#N canvas 0 23 450 300 rand_Pan 0;
#X obj 37 37 inlet;
#X obj 101 140 / 10000;
#X obj 38 61 bng 15 250 50 0 empty empty empty 17 7 0 10 -262144 -1
-1;
#X obj 40 202 *, f 19;
#X obj 101 119 random 10000;
#X obj 38 81 t b b;
#X obj 38 102 random 2;
#X obj 38 123 sel 0;
#X msg 38 144 -1, f 2;
#X obj 101 160 *, f 19;
#X obj 40 223 +, f 23;
#X obj 201 117 t f f;
#X obj 201 138 *;
#X obj 40 244 outlet;
#X obj 205 87 inlet;
#X text 206 67 variation;
#X obj 180 196 inlet;
#X text 174 179 pan;
#X connect 0 0 2 0;
#X connect 1 0 9 0;
#X connect 2 0 5 0;
#X connect 3 0 10 0;
#X connect 4 0 1 0;
#X connect 5 0 6 0;
#X connect 5 1 4 0;
#X connect 6 0 7 0;
#X connect 7 0 8 0;
#X connect 7 1 3 0;
#X connect 8 0 3 0;
#X connect 9 0 3 1;
#X connect 10 0 13 0;
#X connect 11 0 12 0;
#X connect 11 1 12 1;
#X connect 12 0 9 1;
#X connect 14 0 11 0;
#X connect 16 0 10 1;
#X restore 399 160 pd rand_Pan;
#N canvas 0 23 450 300 rand_pitch 0;
#X obj 110 29 inlet;
#X obj 254 58 t f f;
#X obj 254 79 *;
#X obj 134 193 +;
#X obj 134 214 outlet;
#X obj 184 171 inlet;
#X text 182 154 pitch;
#X text 246 8 variation;
#X obj 256 35 inlet;
#X obj 173 111 / 10000;
#X obj 173 90 random 10000;
#X obj 110 52 t b b, f 11;
#X obj 110 73 random 2;
#X obj 110 94 sel 0;
#X msg 110 115 -1, f 2;
#X obj 173 132 *, f 19;
#X obj 121 153 *, f 7;
#X connect 0 0 11 0;
#X connect 1 0 2 0;
#X connect 1 1 2 1;
#X connect 2 0 15 1;
#X connect 3 0 4 0;
#X connect 5 0 3 1;
#X connect 8 0 1 0;
#X connect 9 0 15 0;
#X connect 10 0 9 0;
#X connect 11 0 12 0;
#X connect 11 1 10 0;
#X connect 12 0 13 0;
#X connect 13 0 14 0;
#X connect 13 1 16 0;
#X connect 14 0 16 0;
#X connect 15 0 16 1;
#X connect 16 0 3 0;
#X restore 291 160 pd rand_pitch;
#X obj 52 71 metro 20;
#N canvas 0 23 450 300 density 0;
#X obj 37 37 inlet;
#X obj 37 58 t b;
#X obj 37 79 random 10000;
#X obj 37 100 / 10000;
#X obj 37 128 <, f 25;
#X obj 37 194 outlet;
#X text 32 15 bang;
#X obj 214 51 inlet;
#X text 209 29 density (0--> 1);
#X obj 37 149 sel 1;
#X obj 214 72 sqrt;
#X connect 0 0 1 0;
#X connect 1 0 2 0;
#X connect 2 0 3 0;
#X connect 3 0 4 0;
#X connect 4 0 9 0;
#X connect 7 0 10 0;
#X connect 9 0 5 0;
#X connect 10 0 4 1;
#X restore 52 169 pd density;
#X obj 63 143 r \$0-density;
#X obj 376 66 r \$0-pitchVar;
#X obj 436 123 r \$0-pan;
#X obj 502 126 r \$0-panVar;
#X obj 52 190 outlet;
#X text 49 211 trigger;
#X obj 300 55 inlet;
#X text 47 24 note on/off;
#X text 283 33 transposition;
#X obj 291 181 outlet;
#X text 286 203 transposition;
#X obj 399 181 outlet;
#X text 397 202 pan;
#X obj 52 92 t b b b b, f 33;
#X obj 162 192 outlet;
#X text 159 213 trigger;
#N canvas 795 304 450 300 grainLength 0;
#X obj 37 37 inlet;
#X obj 37 194 outlet;
#X text 32 15 bang;
#X obj 214 51 inlet;
#X text 209 29 grain length (ms);
#X obj 37 149 f;
#X connect 0 0 5 0;
#X connect 3 0 5 1;
#X connect 5 0 1 0;
#X restore 162 171 pd grainLength;
#X obj 159 144 r \$0-grainLength;
#X connect 0 0 3 0;
#X connect 1 0 16 0;
#X connect 2 0 14 0;
#X connect 3 0 18 0;
#X connect 4 0 9 0;
#X connect 5 0 4 1;
#X connect 6 0 2 2;
#X connect 7 0 1 1;
#X connect 8 0 1 2;
#X connect 11 0 2 1;
#X connect 18 0 4 0;
#X connect 18 1 21 0;
#X connect 18 2 2 0;
#X connect 18 3 1 0;
#X connect 21 0 19 0;
#X connect 22 0 21 1;
#X restore 403 477 pd grain_trigger_+_param_variations;
#X f 21;
#X floatatom 128 229 5 0 0 0 grain_length_(ms) - -;
#X obj 128 251 s \$0-grainLength;
#X obj 171 213 loadbang;
#X text 12 49 As my sine wave is A440 \, I calculate the difference
between this \, and the desired MIDI pitch to determine the transposition
;
#X text 11 83 I've also incluided some random variations of parameters...
just for fun;
#X msg 171 232 60;
#X connect 0 0 6 0;
#X connect 0 1 6 1;
#X connect 1 0 2 0;
#X connect 2 0 3 0;
#X connect 3 0 9 0;
#X connect 3 1 9 1;
#X connect 4 0 20 0;
#X connect 6 0 5 0;
#X connect 6 1 5 1;
#X connect 7 0 18 0;
#X connect 8 0 19 0;
#X connect 9 0 4 0;
#X connect 9 1 20 1;
#X connect 9 2 0 7;
#X connect 11 0 13 0;
#X connect 13 0 2 3;
#X connect 14 0 15 0;
#X connect 16 0 17 0;
#X connect 20 0 0 0;
#X connect 20 1 0 1;
#X connect 20 2 0 2;
#X connect 20 3 0 4;
#X connect 21 0 22 0;
#X connect 23 0 26 0;
#X connect 26 0 21 0;
#X restore 80 255 pd granular_synthesis_7;
#X text 50 286 Note: see my previous "sampleMangler" (AUD6204_6.2_sampling_2.pd)
for a method for creating granulation using audio rate controls;
