#N canvas 73 25 950 847 10;
#X text 443 360 sjf \, SAE London \, 2023;
#X obj 96 641 vol2_sjf~;
#X obj 97 693 dac~;
#X obj 201 638 vol2_sjf~;
#X obj 194 376 vol_sjf~;
#X obj 466 404 reverbs/SATREV_sjf~;
#X obj 466 436 reverbs/JCREV_sjf~;
#X obj 602 38 reverbs/freeverb_sjf~;
#X obj 602 143 reverbs/JCREV2_sjf~;
#X obj 602 218 reverbs/SATREV2_sjf~;
#X obj 602 293 reverbs/fdn_sjf~;
#X obj 602 398 reverbs/fdn2_sjf~;
#X obj 78 376 vol_sjf~;
#X obj 84 78 sampleLooper_sjf~;
#X text 168 8 These are examples of different reverb algorithms \, based on combinations of comb filters and allpass filters connected in series/parallel, f 105;
#X obj 602 523 reverbs/physicalModelRev_sjf~;
#X obj 392 68 array define \$0-click;
#X obj 440 145 array set \$0-click;
#X msg 440 121 1;
#X obj 294 142 bng 16 250 50 0 empty empty empty 0 -8 0 10 #fcfcfc #000000 #000000;
#X msg 250 241 0 1000;
#X obj 250 262 tabplay~ \$0-click;
#X obj 440 94 loadbang;
#X obj 294 98 tgl 16 0 empty empty empty 0 -8 0 10 #fcfcfc #000000 #000000 0 1;
#X obj 194 414 reverbs/apLoop_sjf~;
#X obj 294 119 metro 1000;
#X obj 414 255 vline~;
#X obj 414 285 *~, f 8;
#X obj 459 255 noise~;
#X obj 375 122 tgl 16 0 empty empty empty 0 -8 0 10 #fcfcfc #000000 #000000 0 1;
#X obj 341 141 == 0;
#X obj 402 174 int;
#X obj 294 183 int 1;
#X obj 294 204 sel 1;
#X obj 402 195 sel 1;
#X msg 402 216 0 \, 1 1 \, 0.1 10 1 \, 0 100 11;
#X connect 1 0 2 0;
#X connect 1 1 2 1;
#X connect 3 0 1 0;
#X connect 3 1 1 1;
#X connect 4 0 24 0;
#X connect 12 0 1 0;
#X connect 12 0 1 1;
#X connect 13 0 12 0;
#X connect 13 0 4 0;
#X connect 18 0 17 0;
#X connect 19 0 32 0;
#X connect 19 0 31 0;
#X connect 20 0 21 0;
#X connect 21 0 12 0;
#X connect 21 0 4 0;
#X connect 22 0 18 0;
#X connect 23 0 25 0;
#X connect 24 0 3 0;
#X connect 24 1 3 1;
#X connect 25 0 19 0;
#X connect 26 0 27 0;
#X connect 27 0 4 0;
#X connect 27 0 12 0;
#X connect 28 0 27 1;
#X connect 29 0 30 0;
#X connect 29 0 31 1;
#X connect 30 0 32 1;
#X connect 31 0 34 0;
#X connect 32 0 33 0;
#X connect 33 0 20 0;
#X connect 34 0 35 0;
#X connect 35 0 26 0;
