#N canvas 37 25 830 567 10;
#X text 439 474 sjf \, SAE London \, 2023;
#X obj 202 69 tgl 50 0 empty empty on/off 10 25 0 10 #fcfcfc #000000 #000000 0 1;
#N canvas 0 262 921 610 sampler 0;
#X obj 100 39 inlet;
#N canvas 623 23 828 612 drmSamps0.3 0;
#X obj 101 32 inlet;
#X obj 95 498 outlet~;
#X obj 101 57 route 36 38 42 46;
#X obj 99 109 sel 0;
#X obj 138 109 sel 0;
#X obj 175 109 sel 0;
#X obj 214 109 sel 0;
#X text 254 104 My drum machine outputs MIDI Note messages (pitch+velocity) \, but this includes note off messages (velocity 0) so I need to select '0's and ignore them;
#X text 212 52 <---I already set the MIDI pitches for each voice of my drum machine sequencer so it would work with GeneralMIDI \, here I'm just routing the MIDI velocity to each voice;
#X obj 464 239 inlet~;
#X text 455 214 audio in;
#X obj 95 370 sampvoice_sjf~;
#X obj 265 370 sampvoice_sjf~;
#X obj 435 370 sampvoice_sjf~;
#X obj 605 370 sampvoice_sjf~;
#X msg 632 211 ./samples/kick.wav;
#X msg 636 233 ./samples/snare.wav;
#X msg 639 253 ./samples/hhc.wav;
#X msg 654 273 ./samples/hho.wav;
#X obj 650 189 loadbang;
#X text 567 170 Load samples when patch is opened;
#X obj 271 499 outlet~;
#X obj 434 499 outlet~;
#X obj 610 495 outlet~;
#X connect 0 0 2 0;
#X connect 2 0 3 0;
#X connect 2 1 4 0;
#X connect 2 2 5 0;
#X connect 2 3 6 0;
#X connect 3 1 11 0;
#X connect 4 1 12 0;
#X connect 5 1 13 0;
#X connect 6 1 14 0;
#X connect 9 0 11 1;
#X connect 9 0 12 1;
#X connect 9 0 13 1;
#X connect 9 0 14 1;
#X connect 11 0 1 0;
#X connect 12 0 21 0;
#X connect 13 0 22 0;
#X connect 14 0 23 0;
#X connect 15 0 11 2;
#X connect 16 0 12 2;
#X connect 17 0 13 2;
#X connect 18 0 14 2;
#X connect 19 0 15 0;
#X connect 19 0 16 0;
#X connect 19 0 17 0;
#X connect 19 0 18 0;
#X coords 0 -1 1 1 680 115 1 95 355;
#X restore 91 70 pd drmSamps0.3;
#X obj 305 312 pan_sjf~;
#X obj 472 198 ovrdr_sjf~;
#X obj 250 454 ovrdr2_sjf~;
#X obj 305 190 ovrdr_sjf~;
#X obj 305 265 vol_sjf~;
#X obj 659 286 pan_sjf~;
#X obj 659 239 vol_sjf~;
#X obj 750 233 loadbang;
#X msg 742 256 0.4;
#X obj 407 290 loadbang;
#X msg 770 256 0.6;
#X msg 427 312 0.4;
#X msg 399 313 0.2;
#X obj 91 185 distort_sjf~;
#X obj 250 529 outlet~;
#X obj 328 533 outlet~;
#X connect 0 0 1 0;
#X connect 1 0 15 0;
#X connect 1 1 5 0;
#X connect 1 2 3 0;
#X connect 1 3 8 0;
#X connect 2 0 4 0;
#X connect 2 1 4 1;
#X connect 3 0 8 0;
#X connect 4 0 16 0;
#X connect 4 1 17 0;
#X connect 5 0 6 0;
#X connect 6 0 2 0;
#X connect 7 0 4 0;
#X connect 7 1 4 1;
#X connect 8 0 7 0;
#X connect 9 0 12 0;
#X connect 9 0 10 0;
#X connect 10 0 8 1;
#X connect 11 0 13 0;
#X connect 11 0 14 0;
#X connect 12 0 7 1;
#X connect 13 0 2 1;
#X connect 14 0 6 1;
#X connect 15 0 4 0;
#X connect 15 0 4 1;
#X restore 65 203 pd sampler;
#N canvas 0 25 458 441 drum_sequencer 0;
#X obj 93 25 inlet;
#X obj 93 134 drummachine_sjf;
#X obj 93 65 conductor_sjf 125 16;
#X obj 93 44 t f b, f 38;
#X obj 93 369 outlet;
#X connect 0 0 3 0;
#X connect 1 0 4 0;
#X connect 2 0 1 0;
#X connect 3 0 2 0;
#X connect 3 1 2 3;
#X restore 64 173 pd drum_sequencer;
#X obj 92 441 vol2_sjf~;
#X obj 92 481 dac~;
#X obj 198 383 vol2_sjf~;
#X obj 198 198 vol_sjf~;
#X obj 324 94 metro 250;
#X msg 324 115 0 \, 1 5 \, 0 100 5;
#X obj 324 136 vline~;
#X obj 278 148 noise~;
#X obj 278 169 *~, f 12;
#X obj 439 339 reverbs/SATREV_sjf~;
#X obj 439 371 reverbs/JCREV_sjf~;
#X obj 598 152 reverbs/freeverb_sjf~;
#X text 87 17 These are examples of a schroeder style reverb \, based on combinations of comb filters and allpass filters connected in series/parallel, f 105;
#X obj 598 259 reverbs/JCREV2_sjf~;
#X obj 598 333 reverbs/SATREV2_sjf~;
#X obj 602 415 reverbs/fdn_sjf~;
#X obj 198 270 reverbs/fdn2_sjf~;
#X connect 1 0 3 0;
#X connect 1 0 8 0;
#X connect 2 0 7 0;
#X connect 2 0 4 0;
#X connect 2 1 7 0;
#X connect 2 1 4 1;
#X connect 3 0 2 0;
#X connect 4 0 5 0;
#X connect 4 1 5 1;
#X connect 6 0 4 0;
#X connect 6 1 4 1;
#X connect 7 0 20 0;
#X connect 7 0 20 1;
#X connect 8 0 9 0;
#X connect 9 0 10 0;
#X connect 10 0 12 1;
#X connect 11 0 12 0;
#X connect 20 0 6 0;
#X connect 20 1 6 1;
