#N canvas 745 259 968 479 10;
#X obj 237 323 *~, f 24;
#X obj 596 157 vsl 15 50 0 127 0 1 empty empty volume 0 -9 0 10 -262144
-1 -1 3700 1;
#X floatatom 663 239 5 0 0 0 - - -;
#X obj 663 259 / 127;
#X floatatom 663 280 5 0 0 0 - - -;
#X obj 519 150 vradio 15 1 0 4 empty empty empty 0 -8 0 10 -262144
-1 -1 1;
#X text 539 148 Sine;
#X text 539 164 Sawtooth;
#X text 540 180 Square;
#X text 540 196 Triangle;
#X obj 237 143 vsl 15 60 20 20000 1 1 empty empty f1 0 -9 0 10 -262144
-1 -1 524 1;
#N canvas 0 23 1264 420 waveformChangeLogic 0;
#X obj 37 37 inlet;
#X obj 38 72 sel 0 1 2 3, f 136;
#X msg 38 116 0, f 4;
#X msg 143 120 2, f 1;
#X msg 160 120 3, f 1;
#X msg 178 120 4, f 1;
#X obj 237 151 s f4mult;
#X msg 429 119 3, f 1;
#X msg 446 119 5, f 1;
#X msg 464 119 7, f 1;
#X msg 701 204 3, f 1;
#X msg 718 204 5, f 1;
#X msg 736 204 7, f 1;
#X msg 798 202 9, f 1;
#X msg 815 202 25, f 2;
#X msg 839 202 49, f 2;
#X text 213 6 0 - sine;
#X text 213 20 1 - saw;
#X text 213 34 2 - square;
#X text 213 49 3 - triangle;
#X text 405 12 This just triggers the required frequency and amplitude
multipliers for each waveform and sends them via send objects;
#X text 50 94 0 - sine;
#X text 219 110 1 - saw;
#X text 498 111 2 - square;
#X text 757 119 3 - triangle;
#X obj 92 151 s \$0-f2mult;
#X obj 164 151 s \$0-f3mult;
#X obj 686 264 s \$0-f2mult;
#X obj 761 264 s \$0-f3mult;
#X obj 835 265 s \$0-f4mult;
#X obj 911 265 s \$0-a2mult;
#X obj 985 266 s \$0-a3mult;
#X obj 1065 265 s \$0-a4mult;
#X obj 21 293 s \$0-a2mult;
#X obj 95 294 s \$0-a3mult;
#X obj 175 293 s \$0-a4mult;
#X obj 113 177 s \$0-a2mult;
#X obj 187 178 s \$0-a3mult;
#X obj 267 177 s \$0-a4mult;
#X obj 492 154 s f4mult;
#X obj 347 154 s \$0-f2mult;
#X obj 419 154 s \$0-f3mult;
#X obj 368 180 s \$0-a2mult;
#X obj 442 181 s \$0-a3mult;
#X obj 522 180 s \$0-a4mult;
#X connect 0 0 1 0;
#X connect 1 0 2 0;
#X connect 1 1 3 0;
#X connect 1 1 4 0;
#X connect 1 1 5 0;
#X connect 1 2 7 0;
#X connect 1 2 8 0;
#X connect 1 2 9 0;
#X connect 1 3 10 0;
#X connect 1 3 11 0;
#X connect 1 3 12 0;
#X connect 1 3 13 0;
#X connect 1 3 14 0;
#X connect 1 3 15 0;
#X connect 2 0 33 0;
#X connect 2 0 34 0;
#X connect 2 0 35 0;
#X connect 3 0 25 0;
#X connect 3 0 36 0;
#X connect 4 0 26 0;
#X connect 4 0 37 0;
#X connect 5 0 6 0;
#X connect 5 0 38 0;
#X connect 7 0 40 0;
#X connect 7 0 42 0;
#X connect 8 0 41 0;
#X connect 8 0 43 0;
#X connect 9 0 39 0;
#X connect 9 0 44 0;
#X connect 10 0 27 0;
#X connect 11 0 28 0;
#X connect 12 0 29 0;
#X connect 13 0 30 0;
#X connect 14 0 31 0;
#X connect 15 0 32 0;
#X restore 513 237 pd waveformChangeLogic;
#N canvas 0 23 710 481 4oscAddSynth 0;
#X obj 46 8 inlet;
#X obj 46 282 *~ 1;
#X obj 46 261 osc~ 110;
#X text 153 233 Freq 2;
#X text 339 241 Freq 3;
#X text 506 239 Freq 4;
#X text 60 226 Freq 1;
#X text 46 240 (fundamental);
#X obj 140 261 osc~ 330;
#X obj 140 282 /~ 3, f 12;
#X obj 327 291 /~ 5, f 12;
#X obj 497 292 /~ 7, f 12;
#X obj 497 270 osc~ 770;
#X obj 327 270 osc~ 550;
#X floatatom 46 34 5 0 0 0 - - -;
#X obj 148 142 *;
#X obj 329 152 *;
#X obj 497 151 *;
#X text 80 33 Frequency;
#X obj 46 347 outlet~, f 9;
#X obj 46 54 t f f f f, f 75;
#X obj 143 111 t b f;
#X obj 337 120 t b f;
#X obj 514 122 t b f;
#X obj 67 111 r \$0-f2mult;
#X obj 200 262 r \$0-a2mult;
#X obj 392 268 r \$0-a3mult;
#X obj 559 270 r \$0-a4mult;
#X obj 439 123 r \$0-f4mult;
#X obj 265 120 r \$0-f3mult;
#X connect 0 0 14 0;
#X connect 1 0 19 0;
#X connect 2 0 1 0;
#X connect 8 0 9 0;
#X connect 9 0 19 0;
#X connect 10 0 19 0;
#X connect 11 0 19 0;
#X connect 12 0 11 0;
#X connect 13 0 10 0;
#X connect 14 0 20 0;
#X connect 15 0 8 0;
#X connect 16 0 13 0;
#X connect 17 0 12 0;
#X connect 20 0 2 0;
#X connect 20 1 21 0;
#X connect 20 2 22 0;
#X connect 20 3 23 0;
#X connect 21 0 15 0;
#X connect 21 1 15 1;
#X connect 22 0 16 0;
#X connect 22 1 16 1;
#X connect 23 0 17 0;
#X connect 23 1 17 1;
#X connect 24 0 15 0;
#X connect 25 0 9 1;
#X connect 26 0 10 1;
#X connect 27 0 11 1;
#X connect 28 0 17 0;
#X connect 29 0 16 0;
#X restore 237 237 pd 4oscAddSynth;
#X obj 237 258 *~, f 21;
#X text 145 236 click me ---->;
#X obj 237 37 inlet;
#X obj 319 40 inlet;
#X text 232 12 MIDI Pitch;
#X text 308 12 MIDI Velocity;
#X obj 237 58 t f;
#X obj 237 79 mtof;
#X obj 236 366 outlet~;
#X floatatom 258 210 5 0 0 0 - - -;
#X text 9 81 convert MIDI pitch to frequency --->;
#X obj 581 85 inlet;
#X obj 669 85 inlet;
#X obj 362 92 inlet;
#X text 363 68 attack;
#X obj 406 93 inlet;
#X obj 453 93 inlet;
#X obj 500 95 inlet;
#X text 407 69 decay;
#X text 448 69 sustain;
#X text 501 71 release;
#X text 568 48 waveform type;
#X text 572 64 (0 --> 3);
#X text 672 53 volume;
#X text 661 66 (0 --> 127);
#X text 381 354 REMEMBER! When creating abstractions you should use
"\$0-"/"\$1-" in the names of any send/receive/arrays so you don't
get any unwanted communication between different instances of the same
abstraction;
#X obj 309 150 adsr_sjf~;
#X text 796 447 sjf \, SAE London \, 2020;
#X connect 0 0 21 0;
#X connect 1 0 2 0;
#X connect 2 0 3 0;
#X connect 3 0 4 0;
#X connect 4 0 0 1;
#X connect 5 0 11 0;
#X connect 10 0 12 0;
#X connect 10 0 22 0;
#X connect 12 0 13 0;
#X connect 13 0 0 0;
#X connect 15 0 19 0;
#X connect 16 0 39 0;
#X connect 19 0 20 0;
#X connect 20 0 10 0;
#X connect 24 0 5 0;
#X connect 25 0 1 0;
#X connect 26 0 39 1;
#X connect 28 0 39 2;
#X connect 29 0 39 3;
#X connect 30 0 39 4;
#X connect 39 0 13 1;
#X coords 0 -1 1 1 330 80 1 305 132;
