#N canvas -1297 581 1268 755 10;
#X obj 287 352 route 0 1;
#N canvas 0 23 467 364 3_state_prob 0;
#X obj 143 0 inlet;
#X obj 158 298 outlet;
#X obj 144 115 prob_sjf;
#X obj 233 146 t l;
#X obj 144 139 sel 0 1 2;
#X obj 159 276 pack 0 0 0, f 13;
#X msg 16 183 0 0 \, 1 0;
#X obj 233 122 inlet;
#X obj 211 96 + 1;
#X msg 256 76 1;
#X obj 144 46 t b b b, f 27;
#X msg 289 77 0;
#X msg 141 230 0 \$1 \, 1 0;
#X msg 275 239 0 0 \, 1 \$1;
#X obj 120 191 + 30;
#X obj 118 170 random 90;
#X obj 276 193 random 90;
#X obj 275 214 + 30;
#X obj 144 75 uzi_sjf 15, f 13;
#X connect 0 0 10 0;
#X connect 2 0 4 0;
#X connect 3 0 2 1;
#X connect 4 0 6 0;
#X connect 4 1 15 0;
#X connect 4 2 16 0;
#X connect 5 0 1 0;
#X connect 6 0 5 0;
#X connect 7 0 3 0;
#X connect 8 0 5 2;
#X connect 9 0 4 0;
#X connect 10 0 18 0;
#X connect 10 1 9 0;
#X connect 10 2 11 0;
#X connect 11 0 5 2;
#X connect 12 0 5 0;
#X connect 13 0 5 0;
#X connect 14 0 12 0;
#X connect 15 0 14 0;
#X connect 16 0 17 0;
#X connect 17 0 13 0;
#X connect 18 0 2 0;
#X connect 18 2 8 0;
#X restore 404 330 pd 3_state_prob;
#X obj 404 352 route 0 1;
#X obj 313 72 bng 15 250 50 0 empty empty empty 17 7 0 10 -262144 -1
-1;
#N canvas 0 23 754 420 funky_drummer_probs 0;
#X obj 396 241 t l;
#X obj 421 137 bng 15 250 50 0 empty empty empty 17 7 0 10 -262144
-1 -1;
#X msg 488 158 1 1 14 \, 1 0 0 \, 1 2 2;
#X msg 504 185 0 1 1 \, 0 2 1 \, 0 0 0;
#X msg 510 206 2 0 0 \, 2 2 0 \, 2 1 2;
#X obj 383 80 inlet;
#X text 508 126 hi hats;
#X text 281 126 kick & snare;
#X obj 192 257 t l;
#X obj 230 158 bng 15 250 50 0 empty empty empty 17 7 0 10 -262144
-1 -1;
#X obj 360 306 outlet;
#X obj 195 292 outlet;
#X msg 194 196 1 0 3 \, 1 2 2 \, 1 1 0;
#X msg 206 214 0 1 2 \, 0 2 3 \, 0 0 0;
#X msg 212 235 2 0 1 \, 2 1 3 \, 2 2 1;
#X connect 0 0 10 0;
#X connect 1 0 2 0;
#X connect 1 0 3 0;
#X connect 1 0 4 0;
#X connect 2 0 0 0;
#X connect 3 0 0 0;
#X connect 4 0 0 0;
#X connect 5 0 1 0;
#X connect 5 0 9 0;
#X connect 8 0 11 0;
#X connect 9 0 12 0;
#X connect 9 0 13 0;
#X connect 9 0 14 0;
#X connect 12 0 8 0;
#X connect 13 0 8 0;
#X connect 14 0 8 0;
#X restore 398 130 pd funky_drummer_probs;
#X f 13;
#N canvas 629 195 467 364 3_state_prob 0;
#X obj 144 115 prob_sjf;
#X obj 233 146 t l;
#X obj 144 139 sel 0 1 2;
#X obj 159 276 pack 0 0 0, f 13;
#X msg 16 183 0 0 \, 1 0;
#X obj 144 25 inlet;
#X obj 233 122 inlet;
#X obj 159 318 outlet;
#X obj 211 96 + 1;
#X msg 256 76 1;
#X obj 144 46 t b b b, f 27;
#X msg 289 77 0;
#X msg 141 230 0 \$1 \, 1 0;
#X msg 164 252 0 0 \, 1 \$1;
#X obj 182 202 + 30;
#X obj 118 192 + 30;
#X obj 118 171 random 90;
#X obj 183 181 random 90;
#X obj 144 75 uzi_sjf 15, f 13;
#X connect 0 0 2 0;
#X connect 1 0 0 1;
#X connect 2 0 4 0;
#X connect 2 1 16 0;
#X connect 2 2 17 0;
#X connect 3 0 7 0;
#X connect 4 0 3 0;
#X connect 5 0 10 0;
#X connect 6 0 1 0;
#X connect 8 0 3 2;
#X connect 9 0 2 0;
#X connect 10 0 18 0;
#X connect 10 1 9 0;
#X connect 10 2 11 0;
#X connect 11 0 3 2;
#X connect 12 0 3 0;
#X connect 13 0 3 0;
#X connect 14 0 13 0;
#X connect 15 0 12 0;
#X connect 16 0 15 0;
#X connect 17 0 14 0;
#X connect 18 0 0 0;
#X connect 18 2 8 0;
#X restore 287 330 pd 3_state_prob;
#X obj 313 93 t b b b;
#X obj 398 88 int;
#X obj 477 27 vradio 15 1 1 3 empty empty empty 0 -8 0 10 -262144 -1
-1 2;
#X obj 398 110 sel 0 1 2, f 44;
#N canvas 0 23 754 420 impeach_probs 0;
#X obj 396 241 t l;
#X obj 421 137 bng 15 250 50 0 empty empty empty 17 7 0 10 -262144
-1 -1;
#X obj 383 80 inlet;
#X text 510 130 hi hats;
#X text 270 149 kick & snare;
#X obj 192 257 t l;
#X obj 230 158 bng 15 250 50 0 empty empty empty 17 7 0 10 -262144
-1 -1;
#X obj 396 286 outlet;
#X obj 192 285 outlet;
#X msg 502 209 2 0 1 \, 2 2 0 \, 2 1 0;
#X msg 194 196 1 0 3 \, 1 1 1 \, 1 2 0;
#X msg 212 235 2 0 2 \, 2 2 0 \, 2 1 0;
#X msg 488 158 1 0 6 \, 1 1 2 \, 1 2 0;
#X msg 504 185 0 0 0 \, 0 2 1 \, 0 1 6;
#X msg 206 214 0 0 6 \, 0 2 2 \, 0 1 3;
#X connect 0 0 7 0;
#X connect 1 0 12 0;
#X connect 1 0 13 0;
#X connect 1 0 9 0;
#X connect 2 0 1 0;
#X connect 2 0 6 0;
#X connect 5 0 8 0;
#X connect 6 0 10 0;
#X connect 6 0 14 0;
#X connect 6 0 11 0;
#X connect 9 0 0 0;
#X connect 10 0 5 0;
#X connect 11 0 5 0;
#X connect 12 0 0 0;
#X connect 13 0 0 0;
#X connect 14 0 5 0;
#X restore 520 129 pd impeach_probs;
#X f 8;
#N canvas 0 23 450 300 3_state_prob 0;
#X obj 143 78 prob_sjf;
#X obj 232 109 t l;
#X obj 143 27 uzi 16, f 12;
#X obj 143 102 sel 0 1 2;
#X obj 144 199 pack 0 0 0, f 12;
#X msg 97 130 0 0 \, 1 0;
#X msg 126 153 0 100 \, 1 0;
#X msg 149 175 0 0 \, 1 100;
#X obj 143 0 inlet;
#X obj 232 85 inlet;
#X obj 144 241 outlet;
#X connect 0 0 3 0;
#X connect 1 0 0 1;
#X connect 2 0 0 0;
#X connect 2 2 4 2;
#X connect 3 0 5 0;
#X connect 3 1 6 0;
#X connect 3 2 7 0;
#X connect 4 0 10 0;
#X connect 5 0 4 0;
#X connect 6 0 4 0;
#X connect 7 0 4 0;
#X connect 8 0 2 0;
#X connect 9 0 1 0;
#X restore 668 244 pd 3_state_prob;
#N canvas 0 23 754 420 amen_probs 0;
#X obj 396 241 t l;
#X obj 421 137 bng 15 250 50 0 empty empty empty 17 7 0 10 -262144
-1 -1;
#X obj 383 80 inlet;
#X text 507 112 hi hats;
#X text 281 126 kick & snare;
#X obj 192 257 t l;
#X obj 230 158 bng 15 250 50 0 empty empty empty 17 7 0 10 -262144
-1 -1;
#X obj 360 306 outlet;
#X obj 195 292 outlet;
#X msg 194 196 1 0 2 \, 1 1 1 \, 1 2 1;
#X msg 206 214 0 1 1 \, 0 2 4 \, 0 0 2;
#X msg 212 235 2 0 3 \, 2 1 1 \, 2 2 1;
#X msg 488 158 1 1 0 \, 1 2 0 \, 1 0 7;
#X msg 504 185 0 0 0 \, 0 2 1 \, 0 1 7;
#X msg 502 209 2 0 1 \, 2 2 0 \, 2 1 0;
#X text 476 125 (I cheated and took bar 4;
#X text 479 138 because it's more interesting);
#X connect 0 0 7 0;
#X connect 1 0 12 0;
#X connect 1 0 13 0;
#X connect 1 0 14 0;
#X connect 2 0 1 0;
#X connect 2 0 6 0;
#X connect 5 0 8 0;
#X connect 6 0 9 0;
#X connect 6 0 10 0;
#X connect 6 0 11 0;
#X connect 9 0 5 0;
#X connect 10 0 5 0;
#X connect 11 0 5 0;
#X connect 12 0 0 0;
#X connect 13 0 0 0;
#X connect 14 0 0 0;
#X restore 483 129 pd amen_probs;
#X f 5;
#X obj 143 491 drummachine_sjf;
#X obj 143 726 noteout 10;
#X obj 34 327 conductor_sjf 175 16;
#X connect 0 0 13 1;
#X connect 0 1 13 2;
#X connect 1 0 2 0;
#X connect 2 0 13 3;
#X connect 2 1 13 4;
#X connect 3 0 6 0;
#X connect 4 0 5 1;
#X connect 4 1 1 1;
#X connect 5 0 0 0;
#X connect 6 0 5 0;
#X connect 6 1 1 0;
#X connect 6 2 7 0;
#X connect 7 0 9 0;
#X connect 8 0 7 1;
#X connect 9 0 4 0;
#X connect 9 1 12 0;
#X connect 9 2 10 0;
#X connect 10 0 5 1;
#X connect 10 1 1 1;
#X connect 12 0 5 1;
#X connect 12 1 1 1;
#X connect 13 0 14 0;
#X connect 15 0 13 0;
