#N canvas 305 125 976 541 12;
#X obj 456 101 +;
#X msg 580 48 0;
#X msg 456 62 0;
#X obj 525 181 + 1;
#X obj 456 44 bng 15 250 50 0 empty empty empty 17 7 0 10 -262144 -1
-1;
#X floatatom 456 266 5 0 0 0 - - -;
#X obj 456 161 % 8;
#X text 607 46 reset;
#X floatatom 668 46 5 0 0 0 - - -;
#X text 708 45 #beats in count;
#X obj 456 11 inlet;
#X obj 456 320 outlet;
#X text 25 62 1 - we want our count to go up by 1 each time \, but
we want to output 0 the first time;
#X text 26 102 2 - the 0 is added to the previous count (which starts
at 0 because there is no argument after '+');
#X text 26 157 3 - the count is passed through a modulo object (which
divides the output by 8 (due to the argument) and then outputs the
remainder.;
#X obj 580 11 inlet;
#X obj 668 11 inlet;
#X text 25 210 4 - the remainder is output from the right output of
the trigger first \, it has 1 added to it (right outlet) and then the
new count is stored for the next trigger;
#X text 26 260 5 - The count is then displayed (not 100% necessary)
;
#X obj 456 217 t f f;
#X obj 875 21 loadbang;
#X obj 875 71 sel 0;
#X msg 875 93 16;
#X obj 875 45 int \$1;
#X connect 0 0 6 0;
#X connect 1 0 0 1;
#X connect 2 0 0 0;
#X connect 3 0 0 1;
#X connect 4 0 2 0;
#X connect 5 0 11 0;
#X connect 6 0 19 0;
#X connect 8 0 6 1;
#X connect 10 0 4 0;
#X connect 15 0 1 0;
#X connect 16 0 8 0;
#X connect 19 0 5 0;
#X connect 19 1 3 0;
#X connect 20 0 23 0;
#X connect 21 0 22 0;
#X connect 21 1 8 0;
#X connect 22 0 8 0;
#X connect 23 0 21 0;
