#N canvas 46 431 644 461 10;
#X obj 106 91 inlet~;
#X obj 106 286 outlet~;
#X text 98 69 input: x(n);
#X text 411 315 arg1: feedback coefficiant;
#X text 413 330 arg2: delay time;
#X text 414 344 arg3: delay time unit (0==ms \; 1==samples);
#X obj 286 151 inlet;
#X text 248 24 https://ccrma.stanford.edu/~jos/pasp/Feedback_Comb_Filters.html
;
#X text 428 417 sjf \, SAE London 2020;
#X obj 184 158 inlet;
#X text 180 135 delay time;
#X text 279 133 feedback coefficient;
#N canvas 0 23 526 408 delread 0;
#X obj 160 245 *~, f 32;
#X obj 353 214 sig~ \$1;
#X obj 160 266 *~ -1;
#X text 400 212 a;
#X text 232 212 y(n-M);
#X text 195 267 -a*y(n-M);
#X obj 160 212 vd~ \$0-FBCF;
#X obj 353 191 inlet;
#X obj 164 35 loadbang;
#X obj 231 46 inlet;
#X obj 185 85 f \$2;
#X obj 164 56 t b b;
#X obj 153 85 f \$3;
#X obj 153 127 route 0 1;
#X obj 186 151 / 44.1;
#X obj 153 106 pack, f 11;
#X text 227 23 delay time;
#X text 183 180 M;
#X obj 160 176 f;
#X text 346 173 feedback coefficient;
#X obj 43 327 outlet~;
#X obj 43 201 inlet~;
#X text 37 176 input;
#X connect 0 0 2 0;
#X connect 1 0 0 1;
#X connect 2 0 20 0;
#X connect 6 0 0 0;
#X connect 7 0 1 0;
#X connect 8 0 11 0;
#X connect 9 0 15 1;
#X connect 10 0 15 1;
#X connect 11 0 12 0;
#X connect 11 1 10 0;
#X connect 12 0 15 0;
#X connect 13 0 18 0;
#X connect 13 1 14 0;
#X connect 14 0 18 0;
#X connect 15 0 13 0;
#X connect 18 0 6 0;
#X connect 21 0 20 0;
#X restore 106 198 pd delread;
#X f 27;
#N canvas 0 23 450 300 delwrite 0;
#X obj 69 67 inlet~;
#X obj 141 144 delwrite~ \$0-FBCF 100;
#X obj 141 62 inlet~;
#X text 138 39 feedback_loop;
#X text 65 50 input;
#X obj 69 163 outlet~;
#X connect 0 0 5 0;
#X connect 2 0 1 0;
#X restore 106 116 pd delwrite;
#X f 13;
#X obj 190 240 send~ \$0-comb_feedback_loop;
#X obj 181 92 receive~ \$0-comb_feedback_loop;
#X text 254 5 y(n) = x(n) - a*y(n-M);
#X connect 0 0 13 0;
#X connect 6 0 12 2;
#X connect 9 0 12 1;
#X connect 12 0 14 0;
#X connect 12 0 1 0;
#X connect 13 0 12 0;
#X connect 15 0 13 1;
