#N canvas 0 23 591 696 10;
#X obj 37 209 inlet~;
#X obj 36 439 +~, f 13;
#X obj 66 471 delwrite~ \$0-FBCF 100;
#X obj 36 590 outlet~;
#X obj 142 389 *~, f 5;
#X obj 368 301 sig~ \$1;
#X obj 111 419 *~ -1;
#X text 415 299 a;
#X text 320 288 y(n-M);
#X text 146 420 -a*y(n-M);
#X text 29 187 input: x(n);
#X text 423 435 b;
#X obj 248 288 vd~ \$0-FBCF;
#X text 373 522 arg1: feedback coefficiant;
#X obj 368 278 inlet;
#X text 376 640 sjf \, SAE London 2020;
#X text 200 14 https://ccrma.stanford.edu/~jos/pasp/Allpass_Two_Combs.html
;
#X text 209 39 v(n) = x(n) - a*v(n-M) --> feedback;
#X text 209 53 y(n) = b*x(n) + v(n-M) --> feedforward;
#X text 361 260 feedback coefficient;
#X text 373 536 arg2: feedforward coefficiant;
#X text 373 549 arg3: delay time;
#X text 374 563 arg4: delay time unit (0==ms \; 1==samples);
#X text 138 437 feedback loop;
#X obj 36 537 +~;
#X obj 248 478 *~, f 25;
#X obj 393 392 inlet;
#X text 386 374 feedforward coefficient;
#X text 440 413 b;
#X text 60 534 feedforward loop;
#X obj 233 120 loadbang;
#X obj 311 125 inlet;
#X obj 233 141 t b b, f 6;
#X obj 233 206 route 0 1;
#X obj 266 230 / 44.1;
#X obj 233 185 pack, f 11;
#X text 307 102 delay time;
#X text 258 257 M;
#X obj 233 256 f;
#X obj 265 164 f \$3;
#X obj 233 164 f \$4;
#X obj 393 415 sig~ \$2;
#X connect 0 0 1 0;
#X connect 1 0 2 0;
#X connect 1 0 24 0;
#X connect 4 0 6 0;
#X connect 5 0 4 1;
#X connect 6 0 1 1;
#X connect 12 0 25 0;
#X connect 12 0 4 0;
#X connect 14 0 5 0;
#X connect 24 0 3 0;
#X connect 25 0 24 1;
#X connect 26 0 41 0;
#X connect 30 0 32 0;
#X connect 31 0 35 1;
#X connect 32 0 40 0;
#X connect 32 1 39 0;
#X connect 33 0 38 0;
#X connect 33 1 34 0;
#X connect 34 0 38 0;
#X connect 35 0 33 0;
#X connect 38 0 12 0;
#X connect 39 0 35 1;
#X connect 40 0 35 0;
#X connect 41 0 25 1;
