#N canvas -1161 581 775 364 10;
#X obj 126 73 inlet~;
#X obj 127 177 outlet~;
#X text 118 55 input: x(n);
#X obj 209 83 inlet;
#X text 365 138 arg2: delay time;
#X text 366 152 arg3: delay time unit (0==ms \; 1==samples);
#X obj 332 80 inlet;
#X text 515 248 sjf \, SAE London 2020;
#X text 98 253 https://ccrma.stanford.edu/~jos/pasp/Feedforward_Comb_Filters.html
;
#X text 363 123 arg1: feedforward coefficiant;
#X text 104 234 y(n) = x(n) + b*x(n-M);
#X text 205 60 delay time;
#X text 284 60 feedforward coefficient;
#N canvas 0 23 326 255 delwrite 0;
#X obj 37 37 inlet~;
#X obj 37 151 outlet~;
#X obj 112 105 delwrite~ \$0-FFCF 500;
#X connect 0 0 1 0;
#X connect 0 0 2 0;
#X restore 118 101 pd delwrite;
#N canvas 0 23 627 449 delread 0;
#X obj 37 37 inlet~;
#X obj 187 348 +~, f 13;
#X obj 262 269 *~, f 5;
#X obj 400 222 sig~ \$1;
#X obj 195 21 loadbang;
#X obj 216 71 f \$2;
#X obj 195 42 t b b;
#X obj 184 71 f \$3;
#X obj 184 113 route 0 1;
#X obj 217 137 / 44.1;
#X obj 184 92 pack, f 11;
#X text 299 269 b*x(n-M);
#X text 447 220 b;
#X text 286 195 x(n-M);
#X obj 262 212 vd~ \$0-FFCF;
#X text 214 166 M;
#X obj 191 162 f;
#X obj 262 32 inlet;
#X obj 401 199 inlet;
#X text 258 9 delay time;
#X text 353 179 feedforward coefficient;
#X obj 187 369 outlet~;
#X connect 0 0 1 0;
#X connect 1 0 21 0;
#X connect 2 0 1 1;
#X connect 3 0 2 1;
#X connect 4 0 6 0;
#X connect 5 0 10 1;
#X connect 6 0 7 0;
#X connect 6 1 5 0;
#X connect 7 0 10 0;
#X connect 8 0 16 0;
#X connect 8 1 9 0;
#X connect 9 0 16 0;
#X connect 10 0 8 0;
#X connect 14 0 2 0;
#X connect 16 0 14 0;
#X connect 17 0 5 0;
#X connect 18 0 3 0;
#X restore 118 122 pd delread;
#X f 32;
#X connect 0 0 13 0;
#X connect 3 0 14 1;
#X connect 6 0 14 2;
#X connect 13 0 14 0;
#X connect 14 0 1 0;
