#N canvas 914 23 940 588 10;
#X obj 104 150 hsl 60 10 0 1 0 1 \$0-depth_snd \$0-depth_rec depth
-2 -8 0 10 -262144 -1 -1 5100 1;
#X obj 104 125 hsl 60 10 0.0002 20 1 1 \$0-rate_snd \$0-rate_rec rate
-2 -8 0 10 -262144 -1 -1 4000 1;
#X text 14 236 Sound source ---->;
#X obj 130 235 inlet~;
#X msg 386 453 \$1 5;
#X obj 386 474 line~;
#X obj 171 125 hsl 60 10 0 1 0 1 \$0-fb_snd \$0-fb_rec feedback -2
-8 0 10 -262144 -1 -1 4100 1;
#X obj 130 545 outlet~;
#X obj 386 430 r \$0-fb_snd;
#X obj 238 150 hsl 60 10 0 1 0 1 \$0-dry_snd \$0-dry_rec dry -2 -8
0 10 -262144 -1 -1 5900 1;
#X obj 171 150 hsl 60 10 0 1 0 1 \$0-wet_snd \$0-wet_rec wet -2 -8
0 10 -262144 -1 -1 5900 1;
#X floatatom 264 120 5 1 100 0 - #0-delay_time_rec #0-delay_time_snd
;
#X obj 540 14 loadbang;
#X obj 540 55 s \$0-delay_time_rec;
#X text 233 106 delay_time;
#X obj 302 128 vradio 10 1 1 3 \$0-lfo_snd \$0-lfo_rec LFO 0 -8 0 10
-262144 -1 -1 0;
#X text 311 124 sin;
#X text 311 135 tri;
#X text 311 146 rand;
#X obj 282 262 s \$0-rate_rec;
#X obj 368 262 s \$0-depth_rec;
#X obj 613 262 s \$0-dry_rec;
#X obj 825 262 s \$0-lfo_rec;
#X obj 534 262 s \$0-wet_rec;
#X obj 460 262 s \$0-fb_rec;
#X obj 698 262 s \$0-delay_time_rec;
#X obj 282 240 inlet;
#X obj 368 240 inlet;
#X obj 460 240 inlet;
#X obj 534 240 inlet;
#X obj 613 240 inlet;
#X obj 698 240 inlet;
#X obj 825 240 inlet;
#X text 650 535 sjf \, SAE London 2020;
#X obj 227 304 receive~ \$0-to_delay_line;
#X obj 344 501 send~ \$0-to_delay_line;
#X obj 344 445 *~;
#X msg 540 35 2;
#X obj 311 362 r \$0-rate_snd;
#X obj 402 362 r \$0-depth_snd;
#X obj 243 464 r \$0-wet_snd;
#X obj 145 475 r \$0-dry_snd;
#N canvas -1254 581 1112 467 variSpeed 0;
#X obj 381 44 inlet;
#X obj 381 144 *~, f 14;
#X obj 461 123 line~;
#X obj 381 299 +~, f 33;
#X text 101 102 LFO (this controls how fast the pitch changes);
#X text 101 150 The oscillator outputs from -1 --> 1;
#X text 61 165 multiplying by the depth gives us -depth --> + depth
;
#X text 137 418 This is then used to vary the delay time;
#X text 382 17 rate;
#X obj 461 44 inlet;
#X text 458 17 depth;
#X obj 381 417 outlet~;
#X msg 461 102 \$1 5;
#X obj 381 210 *~, f 27;
#X obj 546 123 line~;
#X obj 546 44 inlet;
#X msg 546 102 \$1 5;
#X text 530 17 delay time;
#X text 172 210 multiplying this by the delay time;
#X text 12 292 Finally we add that to the delay time \, this means
the actual delay time oscillates below and above the delay time set
by the user;
#X text 11 328 --> enabling greater flexibility and control;
#X obj 260 44 inlet;
#X text 244 17 LFO type;
#N canvas 0 23 450 300 LFOs 0;
#X obj 254 39 inlet;
#X text 255 12 rate;
#X obj 133 39 inlet;
#X text 117 12 LFO type;
#X obj 101 122 == 0;
#X obj 142 122 == 1;
#X obj 176 122 == 2;
#X obj 254 123 t f f f;
#N canvas 0 23 450 300 s&h_noise 0;
#X obj 304 34 inlet;
#X obj 244 65 phasor~;
#X obj 177 41 noise~;
#X obj 177 105 samphold~;
#X obj 177 126 lop~ 1, f 15;
#X obj 177 147 outlet~;
#X obj 304 126 / 20;
#X obj 304 145 * 0.8;
#X obj 304 166 + 0.1;
#X floatatom 304 187 5 0 0 0 - - -;
#X connect 0 0 1 0;
#X connect 0 0 6 0;
#X connect 1 0 3 1;
#X connect 2 0 3 0;
#X connect 3 0 4 0;
#X connect 4 0 5 0;
#X connect 6 0 7 0;
#X connect 7 0 8 0;
#X connect 8 0 9 0;
#X connect 9 0 4 1;
#X restore 215 176 pd s&h_noise;
#X obj 89 174 osc~;
#X obj 89 195 *~, f 6;
#X obj 130 241 outlet~;
#X obj 133 196 *~, f 6;
#X floatatom 270 88 5 0 0 0 - - -;
#N canvas 0 23 472 502 triangle 0;
#X obj 114 67 phasor~;
#X obj 114 88 *~ 2;
#X obj 114 130 clip~ 0 1;
#X obj 182 129 clip~ 1 2;
#X obj 181 174 *~ -1;
#X obj 182 150 -~ 1;
#X obj 114 213 +~;
#X obj 114 45 inlet;
#X text 162 67 0 --> 1;
#X text 147 87 0 --> 2;
#X text 43 129 0 --> 1;
#X text 219 174 1 --> 0;
#X obj 114 234 *~ 2;
#X obj 114 255 -~ 1;
#X text 137 212 0 --> 1 --> 0;
#X text 149 235 0 --> 2 --> 0;
#X text 148 256 -1 --> 1 --> -1;
#X obj 114 281 outlet~;
#X connect 0 0 1 0;
#X connect 1 0 2 0;
#X connect 1 0 3 0;
#X connect 2 0 6 0;
#X connect 3 0 5 0;
#X connect 4 0 6 1;
#X connect 5 0 4 0;
#X connect 6 0 12 0;
#X connect 7 0 0 0;
#X connect 12 0 13 0;
#X connect 13 0 17 0;
#X restore 133 175 pd triangle;
#X obj 215 196 *~, f 6;
#X connect 0 0 7 0;
#X connect 2 0 4 0;
#X connect 2 0 5 0;
#X connect 2 0 6 0;
#X connect 4 0 10 1;
#X connect 5 0 12 1;
#X connect 6 0 15 1;
#X connect 7 0 9 0;
#X connect 7 1 14 0;
#X connect 7 2 8 0;
#X connect 8 0 15 0;
#X connect 9 0 10 0;
#X connect 10 0 11 0;
#X connect 12 0 11 0;
#X connect 13 0 7 0;
#X connect 14 0 12 0;
#X connect 15 0 11 0;
#X restore 381 102 pd LFOs;
#X connect 0 0 23 1;
#X connect 1 0 13 0;
#X connect 2 0 1 1;
#X connect 3 0 11 0;
#X connect 9 0 12 0;
#X connect 12 0 2 0;
#X connect 13 0 3 0;
#X connect 14 0 13 1;
#X connect 14 0 3 1;
#X connect 15 0 16 0;
#X connect 16 0 14 0;
#X connect 21 0 23 0;
#X connect 23 0 1 0;
#X restore 228 386 pd variSpeed;
#X f 45;
#X obj 494 362 r \$0-delay_time_snd;
#X obj 228 408 vd~ \$0-delay_line;
#X obj 228 362 r \$0-lfo_snd;
#X obj 130 521 +~;
#X obj 228 497 *~;
#X obj 130 497 *~;
#X obj 227 337 delwrite~ \$0-delay_line 500;
#X text 42 4 A simple modulated delay line with feedback capable of
creating vibrato \, flanger \, and chorus effects;
#X obj 787 426 loadbang;
#X obj 787 447 int \$0;
#X obj 787 468 outlet;
#X obj 769 424 bng 15 250 50 0 empty empty empty 17 7 0 10 -262144
-1 -1;
#X connect 3 0 49 0;
#X connect 3 0 48 0;
#X connect 4 0 5 0;
#X connect 5 0 36 1;
#X connect 8 0 4 0;
#X connect 12 0 37 0;
#X connect 26 0 19 0;
#X connect 27 0 20 0;
#X connect 28 0 24 0;
#X connect 29 0 23 0;
#X connect 30 0 21 0;
#X connect 31 0 25 0;
#X connect 32 0 22 0;
#X connect 34 0 49 0;
#X connect 36 0 35 0;
#X connect 37 0 13 0;
#X connect 38 0 42 1;
#X connect 39 0 42 2;
#X connect 40 0 47 1;
#X connect 41 0 48 1;
#X connect 42 0 44 0;
#X connect 43 0 42 3;
#X connect 44 0 47 0;
#X connect 44 0 36 0;
#X connect 45 0 42 0;
#X connect 46 0 7 0;
#X connect 47 0 46 1;
#X connect 48 0 46 0;
#X connect 51 0 52 0;
#X connect 52 0 53 0;
#X connect 54 0 52 0;
#X coords 0 -1 1 1 240 60 1 100 100;
