#N canvas 0 36 1252 738 10;
#X obj 169 533 *~, f 74;
#X obj 25 32 inlet;
#X obj 365 54 inlet;
#X text 20 7 MIDI Pitch;
#X text 365 37 MIDI Velocity;
#X obj 25 52 t f;
#X obj 25 73 mtof;
#X obj 167 646 outlet~;
#X obj 487 54 inlet;
#X text 387 616 REMEMBER! When creating abstractions you should use
"\$0-"/"\$1-" in the names of any send/receive/arrays so you don't
get any unwanted communication between different instances of the same
abstraction;
#X text 1009 681 sjf \, SAE London \, 2020;
#X obj 430 161 adsr_sjf~ modulator1;
#X obj 97 208 fmMod_sjf~, f 27;
#X obj 169 491 fmMod_sjf~, f 47;
#X obj 747 203 hradio 10 1 1 2 \$0-modOrder_snd \$0-modOrder_rec empty
0 -8 0 10 -262144 -1 -1 0;
#X text 701 202 series;
#X text 767 202 parallel;
#X obj 205 318 r \$0-modOrder_snd;
#X obj 157 440 *~;
#X obj 212 440 *~;
#X obj 236 357 == 0;
#X obj 205 357 == 1;
#X obj 36 417 *~;
#X obj 560 161 adsr_sjf~ modulator2;
#X obj 692 161 adsr_sjf~ amplitude;
#X floatatom 204 594 5 0 0 0 - - -;
#X obj 204 574 r \$0-vol_snd;
#X obj 167 626 *~;
#X obj 725 216 hsl 90 10 0 1 0 1 \$0-vol_snd \$0-vol_rec vol -21 5
0 10 -262144 -1 -1 3560 1;
#X obj 172 157 sig~;
#X obj 171 129 r \$0-mod1Ratio_snd;
#X obj 306 449 sig~;
#X obj 306 416 r \$0-mod2Ratio_snd;
#X obj 289 154 sig~;
#X obj 288 129 r \$0-mod1Index_snd;
#X obj 444 422 sig~;
#X obj 443 394 r \$0-mod2Index_snd;
#X obj 444 443 *~, f 14;
#X obj 289 175 *~, f 13;
#X floatatom 494 216 5 0 10 0 mod1Indx #0-mod1Index_rec #0-mod1Index_snd
;
#X floatatom 625 216 5 0 10 0 mod2Indx #0-mod2Index_rec #0-mod2Index_snd
;
#X floatatom 494 201 5 0 10 0 mod1Ratio #0-mod1Ratio_rec #0-mod1Ratio_snd
;
#X floatatom 625 201 5 0 10 0 mod2ratio #0-mod2Ratio_rec #0-mod2Ratio_snd
;
#X obj 294 343 tgl 15 0 empty empty empty 17 7 0 10 -262144 -1 -1 0
1;
#X obj 656 431 s \$0-mod2Ratio_rec;
#X obj 771 431 s \$0-mod2Index_rec;
#X obj 886 431 s \$0-mod1Ratio_rec;
#X obj 1003 431 s \$0-mod1Index_rec;
#X obj 760 350 loadbang;
#X msg 760 371 1;
#X obj 25 130 line~;
#X msg 25 94 \$1 1;
#X text 162 290 Just so I can easily switch between series and parallel
;
#X obj 218 382 tgl 15 0 empty empty empty 17 7 0 10 -262144 -1 -1 0
1;
#X obj 169 511 osc~;
#X obj 487 73 unpack 0 0 0 0;
#X obj 1025 68 inlet;
#X obj 1025 87 unpack 0 0 0 0;
#X text 1025 51 amplitude envelope;
#X text 487 37 mod 1 envelope;
#X obj 580 52 inlet;
#X text 580 35 ratio 1;
#X obj 628 52 inlet;
#X text 628 35 index 1;
#X obj 581 75 s \$0-mod1Ratio_rec, f 12;
#X obj 660 75 s \$0-mod1Index_rec, f 12;
#X obj 763 43 inlet;
#X obj 763 62 unpack 0 0 0 0;
#X obj 856 41 inlet;
#X obj 904 41 inlet;
#X obj 857 64 s \$0-mod2Ratio_rec, f 12;
#X obj 936 64 s \$0-mod2Index_rec, f 12;
#X text 763 26 mod 2 envelope;
#X text 856 24 ratio 2;
#X text 904 24 index 2;
#X obj 1060 157 s \$0-modOrder_rec;
#X obj 1060 135 inlet;
#X text 1060 118 mod order;
#X obj 1121 197 inlet;
#X text 1121 180 vol;
#X obj 1121 218 s \$0-vol_rec;
#X obj 845 480 loadbang;
#X obj 844 512 t b b;
#X obj 817 537 int \$0;
#X obj 817 558 outlet;
#X obj 810 488 bng 15 250 50 0 empty empty empty 17 7 0 10 -262144
-1 -1;
#X obj 955 540 tgl 15 1 empty \$0-dsp_rec dsp 17 7 0 10 -262144 -1
-1 1 1;
#X obj 955 560 switch~;
#X msg 873 539 1;
#X obj 873 559 s \$0-dsp_rec;
#X connect 0 0 27 0;
#X connect 1 0 5 0;
#X connect 2 0 11 0;
#X connect 2 0 23 0;
#X connect 2 0 24 0;
#X connect 5 0 6 0;
#X connect 6 0 51 0;
#X connect 8 0 55 0;
#X connect 11 0 38 1;
#X connect 12 0 19 0;
#X connect 12 0 22 0;
#X connect 13 0 54 0;
#X connect 17 0 20 0;
#X connect 17 0 21 0;
#X connect 17 0 43 0;
#X connect 18 0 13 0;
#X connect 19 0 13 0;
#X connect 20 0 19 1;
#X connect 21 0 18 1;
#X connect 21 0 22 1;
#X connect 21 0 53 0;
#X connect 22 0 54 0;
#X connect 23 0 37 1;
#X connect 24 0 0 1;
#X connect 25 0 27 1;
#X connect 26 0 25 0;
#X connect 27 0 7 0;
#X connect 29 0 12 1;
#X connect 30 0 29 0;
#X connect 31 0 13 1;
#X connect 32 0 31 0;
#X connect 33 0 38 0;
#X connect 34 0 33 0;
#X connect 35 0 37 0;
#X connect 36 0 35 0;
#X connect 37 0 13 2;
#X connect 38 0 12 2;
#X connect 48 0 49 0;
#X connect 49 0 44 0;
#X connect 49 0 45 0;
#X connect 49 0 46 0;
#X connect 49 0 47 0;
#X connect 50 0 12 0;
#X connect 50 0 18 0;
#X connect 51 0 50 0;
#X connect 54 0 0 0;
#X connect 55 0 11 1;
#X connect 55 1 11 2;
#X connect 55 2 11 3;
#X connect 55 3 11 4;
#X connect 56 0 57 0;
#X connect 57 0 24 1;
#X connect 57 1 24 2;
#X connect 57 2 24 3;
#X connect 57 3 24 4;
#X connect 60 0 64 0;
#X connect 62 0 65 0;
#X connect 66 0 67 0;
#X connect 67 0 23 1;
#X connect 67 1 23 2;
#X connect 67 2 23 3;
#X connect 67 3 23 4;
#X connect 68 0 70 0;
#X connect 69 0 71 0;
#X connect 76 0 75 0;
#X connect 78 0 80 0;
#X connect 81 0 82 0;
#X connect 82 0 83 0;
#X connect 82 1 88 0;
#X connect 83 0 84 0;
#X connect 85 0 82 0;
#X connect 86 0 87 0;
#X connect 88 0 89 0;
#X coords 0 -1 1 1 390 100 1 430 132;
