#N canvas 66 23 1214 751 10;
#X obj 565 127 openpanel;
#X obj 392 103 bng 15 250 50 0 \$0-load_snd empty load 17 7 0 10 -262144
-1 -1;
#X obj 637 154 pack s \$0;
#X obj 637 198 soundfiler;
#X obj 637 219 s \$0-Samp_len;
#X msg 637 178 read -resize \$1 \$2-Samp;
#X obj 199 306 bng 15 250 50 0 empty empty empty 17 7 0 10 -262144
-1 -1;
#X text 50 305 click me for grain --->;
#X floatatom 152 122 5 0 0 0 grn_len #0-grn_len_rec #0-grn_len_snd
;
#X floatatom 152 139 5 -36 36 0 transpos #0-transposition_rec #0-transposition_snd
;
#X obj 196 142 hsl 60 10 0 1 0 1 \$0-pan_snd \$0-pan_rec pan -2 -8
0 10 -262144 -1 -1 2917 1;
#N canvas 746 348 871 322 grainParamsLogic 0;
#X obj 308 153 t b f;
#X obj 189 127 t b f;
#X obj 90 53 inlet;
#X obj 175 53 inlet;
#X obj 304 53 inlet;
#X obj 366 53 inlet;
#X obj 90 247 outlet;
#X obj 580 149 t b f;
#X obj 578 55 inlet;
#X text 61 25 grain length;
#X obj 308 131 *, f 12;
#X obj 390 131 / 44.1;
#X obj 362 86 t b f f, f 20;
#X text 160 25 playback speed;
#X text 279 25 grain start;
#X text 362 25 filesize samples;
#X text 584 27 pan;
#X obj 509 149 t b f;
#X obj 507 55 inlet;
#X text 512 27 vol;
#X obj 660 150 t b f;
#X obj 658 56 inlet;
#X text 663 28 vol;
#X obj 90 226 pack 50 1 0 0.5 0 1 0, f 102;
#X connect 0 0 23 0;
#X connect 0 1 23 2;
#X connect 1 0 23 0;
#X connect 1 1 23 1;
#X connect 2 0 23 0;
#X connect 3 0 1 0;
#X connect 4 0 10 0;
#X connect 5 0 12 0;
#X connect 7 0 23 0;
#X connect 7 1 23 5;
#X connect 8 0 7 0;
#X connect 10 0 0 0;
#X connect 11 0 10 1;
#X connect 12 0 10 0;
#X connect 12 1 11 0;
#X connect 12 2 23 3;
#X connect 17 0 23 0;
#X connect 17 1 23 4;
#X connect 18 0 17 0;
#X connect 20 0 23 0;
#X connect 20 1 23 6;
#X connect 21 0 20 0;
#X connect 23 0 6 0;
#X restore 305 455 pd grainParamsLogic;
#X f 77;
#X obj 119 168 hsl 60 10 0 1 0 0 \$0-grain_start_snd \$0-grain_start_rec
grain_start -2 -8 0 10 -262144 -1 -1 0 1;
#X obj 692 361 r \$0-Samp_len, f 8;
#X obj 199 277 inlet;
#X obj 238 363 r \$0-grn_len_snd;
#X obj 255 303 s \$0-grn_len_rec;
#X obj 369 359 r \$0-transposition_snd;
#X obj 366 303 s \$0-transposition_rec;
#X obj 369 421 expr pow(2 \, $f1/12);
#X obj 505 303 s \$0-grain_start_rec;
#X obj 564 360 r \$0-grain_start_snd;
#X obj 632 303 s \$0-pan_rec;
#X obj 874 353 r \$0-pan_snd;
#X obj 388 669 outlet~;
#X obj 338 668 outlet~;
#X obj 268 168 hsl 60 10 0 1 0 1 \$0-vol_snd \$0-vol_rec vol_out -2
-8 0 10 -262144 -1 -1 4646 1;
#X obj 938 302 s \$0-vol_rec;
#X obj 256 277 inlet;
#X obj 366 277 inlet;
#X obj 503 277 inlet;
#X obj 633 277 inlet;
#X obj 942 276 inlet;
#N canvas 0 22 450 278 (subpatch) 0;
#X array \$0-Samp 4098 float 2;
#X coords 0 1 4098 -1 150 60 1 0 0;
#X restore 333 119 graph;
#X obj 1020 278 inlet;
#X obj 1020 299 s \$0-load_snd;
#X obj 565 85 r \$0-load_snd;
#X obj 312 213 loadbang;
#X msg 312 234 25;
#X obj 565 106 route bang;
#X obj 369 214 r \$0-sin_snd;
#N canvas 0 23 972 332 grains_1-->8 0;
#X text 27 119 grain + envelope is inside;
#X obj 309 215 vol2_sjf~;
#X obj 197 90 sel 0 1 2 3 4 5 6 7, f 102;
#X obj 197 120 grain1_sjf~ \$0-Samp, f 11;
#X obj 271 120 grain1_sjf~ \$0-Samp, f 11;
#X obj 346 120 grain1_sjf~ \$0-Samp, f 12;
#X obj 427 120 grain1_sjf~ \$0-Samp, f 11;
#X obj 504 120 grain1_sjf~ \$0-Samp, f 11;
#X obj 578 120 grain1_sjf~ \$0-Samp, f 11;
#X obj 652 120 grain1_sjf~ \$0-Samp, f 11;
#X obj 726 120 grain1_sjf~ \$0-Samp, f 11;
#X obj 359 262 outlet~;
#X obj 309 261 outlet~;
#X obj 452 236 r \$0-vol_snd;
#X obj 303 28 inlet, f 7;
#X obj 838 126 outlet;
#X obj 197 57 inlet, f 7;
#X connect 1 0 12 0;
#X connect 1 1 11 0;
#X connect 2 0 3 0;
#X connect 2 1 4 0;
#X connect 2 2 5 0;
#X connect 2 3 6 0;
#X connect 2 4 7 0;
#X connect 2 5 8 0;
#X connect 2 6 9 0;
#X connect 2 7 10 0;
#X connect 2 8 15 0;
#X connect 3 0 1 0;
#X connect 3 1 1 1;
#X connect 4 0 1 0;
#X connect 4 1 1 1;
#X connect 5 0 1 0;
#X connect 5 1 1 1;
#X connect 6 0 1 0;
#X connect 6 1 1 1;
#X connect 7 0 1 0;
#X connect 7 1 1 1;
#X connect 8 0 1 0;
#X connect 8 1 1 1;
#X connect 9 0 1 0;
#X connect 9 1 1 1;
#X connect 10 0 1 0;
#X connect 10 1 1 1;
#X connect 13 0 1 2;
#X connect 14 0 3 1;
#X connect 14 0 10 1;
#X connect 14 0 4 1;
#X connect 14 0 5 1;
#X connect 14 0 6 1;
#X connect 14 0 7 1;
#X connect 14 0 8 1;
#X connect 14 0 9 1;
#X connect 16 0 2 0;
#X restore 242 545 pd grains_1-->8;
#X obj 367 545 - 8;
#N canvas 0 23 972 332 grains_1-->8 0;
#X text 27 119 grain + envelope is inside;
#X obj 309 215 vol2_sjf~;
#X obj 197 90 sel 0 1 2 3 4 5 6 7, f 102;
#X obj 197 120 grain1_sjf~ \$0-Samp, f 11;
#X obj 271 120 grain1_sjf~ \$0-Samp, f 11;
#X obj 346 120 grain1_sjf~ \$0-Samp, f 12;
#X obj 427 120 grain1_sjf~ \$0-Samp, f 11;
#X obj 504 120 grain1_sjf~ \$0-Samp, f 11;
#X obj 578 120 grain1_sjf~ \$0-Samp, f 11;
#X obj 652 120 grain1_sjf~ \$0-Samp, f 11;
#X obj 726 120 grain1_sjf~ \$0-Samp, f 11;
#X obj 359 262 outlet~;
#X obj 309 261 outlet~;
#X obj 452 236 r \$0-vol_snd;
#X obj 303 28 inlet, f 7;
#X obj 838 126 outlet;
#X obj 197 57 inlet, f 7;
#X connect 1 0 12 0;
#X connect 1 1 11 0;
#X connect 2 0 3 0;
#X connect 2 1 4 0;
#X connect 2 2 5 0;
#X connect 2 3 6 0;
#X connect 2 4 7 0;
#X connect 2 5 8 0;
#X connect 2 6 9 0;
#X connect 2 7 10 0;
#X connect 2 8 15 0;
#X connect 3 0 1 0;
#X connect 3 1 1 1;
#X connect 4 0 1 0;
#X connect 4 1 1 1;
#X connect 5 0 1 0;
#X connect 5 1 1 1;
#X connect 6 0 1 0;
#X connect 6 1 1 1;
#X connect 7 0 1 0;
#X connect 7 1 1 1;
#X connect 8 0 1 0;
#X connect 8 1 1 1;
#X connect 9 0 1 0;
#X connect 9 1 1 1;
#X connect 10 0 1 0;
#X connect 10 1 1 1;
#X connect 13 0 1 2;
#X connect 14 0 10 1;
#X connect 14 0 3 1;
#X connect 14 0 4 1;
#X connect 14 0 5 1;
#X connect 14 0 6 1;
#X connect 14 0 7 1;
#X connect 14 0 8 1;
#X connect 14 0 9 1;
#X connect 16 0 2 0;
#X restore 367 565 pd grains_1-->8;
#X obj 441 103 bng 15 250 50 0 \$0-sin_snd \$0-sin_rec A440 17 7 0
10 -262144 -1 -1;
#X obj 196 168 hsl 60 10 0 1 0 1 \$0-grain_vol_snd \$0-grain_vol_rec
grain_vol -2 -8 0 10 -262144 -1 -1 5900 1;
#X obj 720 279 inlet;
#X obj 720 303 s \$0-grain_vol_rec;
#X obj 758 356 r \$0-grain_vol_snd;
#X obj 369 380 +;
#X obj 400 380 r \$0-A440_trans;
#X obj 724 220 s \$0-A440_trans;
#X msg 724 201 0;
#N canvas 0 23 585 331 A440_sin_logic 0;
#X obj 25 24 inlet;
#X obj 25 176 uzi_sjf;
#N canvas 0 23 322 265 sin 0;
#X obj 56 22 inlet;
#X obj 56 135 /, f 17;
#X obj 56 45 t f f, f 12;
#X obj 56 225 pack, f 33;
#X obj 56 246 outlet;
#X obj 227 24 inlet;
#X obj 56 101 %;
#X obj 56 156 expr sin(2 * 3.14159 * $f1);
#X obj 251 165 + 1;
#X connect 0 0 2 0;
#X connect 1 0 7 0;
#X connect 2 0 6 0;
#X connect 2 1 8 0;
#X connect 3 0 4 0;
#X connect 5 0 6 1;
#X connect 5 0 1 1;
#X connect 6 0 1 0;
#X connect 7 0 3 0;
#X connect 8 0 3 1;
#X restore 66 196 pd sin;
#X obj 385 185 array size \$0-Samp;
#X obj 54 223 tabwrite \$0-Samp;
#X obj 25 155 t f f, f 6;
#X obj 353 153 s \$0-Samp_len;
#X obj 353 109 + 2;
#X msg 25 47 4096;
#X obj 25 68 t f f f, f 54;
#N canvas 0 23 366 273 calculate_transposition_for_A440 0;
#X obj 110 18 inlet;
#X obj 109 83 1over_sjf;
#X floatatom 109 104 5 0 0 0 - - -;
#X floatatom 109 62 5 0 0 0 - - -;
#X text 148 62 period(s);
#X obj 109 40 / 44100;
#X obj 109 123 ftom;
#X floatatom 109 144 5 0 0 0 - - -;
#X obj 109 164 - 69;
#X floatatom 109 185 5 0 0 0 - - -;
#X obj 109 205 * -1;
#X obj 109 226 outlet;
#X connect 0 0 5 0;
#X connect 1 0 2 0;
#X connect 2 0 6 0;
#X connect 3 0 1 0;
#X connect 5 0 3 0;
#X connect 6 0 7 0;
#X connect 7 0 8 0;
#X connect 8 0 9 0;
#X connect 9 0 10 0;
#X connect 10 0 11 0;
#X restore 185 219 pd calculate_transposition_for_A440;
#X obj 185 240 s \$0-A440_trans;
#X connect 0 0 8 0;
#X connect 1 2 2 0;
#X connect 2 0 4 0;
#X connect 5 0 1 0;
#X connect 5 1 2 1;
#X connect 7 0 6 0;
#X connect 7 0 3 0;
#X connect 8 0 9 0;
#X connect 9 0 5 0;
#X connect 9 1 10 0;
#X connect 9 2 7 0;
#X connect 10 0 11 0;
#X restore 369 235 pd A440_sin_logic;
#X obj 469 596 - 8;
#N canvas 0 23 972 332 grains_1-->8 0;
#X text 27 119 grain + envelope is inside;
#X obj 309 215 vol2_sjf~;
#X obj 197 90 sel 0 1 2 3 4 5 6 7, f 102;
#X obj 197 120 grain1_sjf~ \$0-Samp, f 11;
#X obj 271 120 grain1_sjf~ \$0-Samp, f 11;
#X obj 346 120 grain1_sjf~ \$0-Samp, f 12;
#X obj 427 120 grain1_sjf~ \$0-Samp, f 11;
#X obj 504 120 grain1_sjf~ \$0-Samp, f 11;
#X obj 578 120 grain1_sjf~ \$0-Samp, f 11;
#X obj 652 120 grain1_sjf~ \$0-Samp, f 11;
#X obj 726 120 grain1_sjf~ \$0-Samp, f 11;
#X obj 359 262 outlet~;
#X obj 309 261 outlet~;
#X obj 452 236 r \$0-vol_snd;
#X obj 303 28 inlet, f 7;
#X obj 838 126 outlet;
#X obj 197 57 inlet, f 7;
#X connect 1 0 12 0;
#X connect 1 1 11 0;
#X connect 2 0 3 0;
#X connect 2 1 4 0;
#X connect 2 2 5 0;
#X connect 2 3 6 0;
#X connect 2 4 7 0;
#X connect 2 5 8 0;
#X connect 2 6 9 0;
#X connect 2 7 10 0;
#X connect 2 8 15 0;
#X connect 3 0 1 0;
#X connect 3 1 1 1;
#X connect 4 0 1 0;
#X connect 4 1 1 1;
#X connect 5 0 1 0;
#X connect 5 1 1 1;
#X connect 6 0 1 0;
#X connect 6 1 1 1;
#X connect 7 0 1 0;
#X connect 7 1 1 1;
#X connect 8 0 1 0;
#X connect 8 1 1 1;
#X connect 9 0 1 0;
#X connect 9 1 1 1;
#X connect 10 0 1 0;
#X connect 10 1 1 1;
#X connect 13 0 1 2;
#X connect 14 0 10 1;
#X connect 14 0 3 1;
#X connect 14 0 4 1;
#X connect 14 0 5 1;
#X connect 14 0 6 1;
#X connect 14 0 7 1;
#X connect 14 0 8 1;
#X connect 14 0 9 1;
#X connect 16 0 2 0;
#X restore 469 616 pd grains_1-->8;
#X obj 197 450 counter_sjf 24;
#X floatatom 882 431 5 0 0 0 - - -;
#X obj 882 410 r \$0-env_snd;
#X obj 300 123 vradio 10 1 0 3 \$0-env_snd \$0-env_rec env 0 -8 0 10
-262144 -1 -1 0;
#X text 310 119 sin;
#X text 310 130 tri;
#X text 310 141 rev;
#X obj 859 277 inlet;
#X obj 855 303 s \$0-env_rec;
#X text 41 7 In this example I am using 24 of the same grains \, this
makes it possible to have grains that overlap;
#X text 1009 681 sjf \, SAE London \, 2020;
#X obj 902 477 loadbang;
#X obj 901 509 t b b;
#X obj 874 534 int \$0;
#X obj 874 555 outlet;
#X obj 867 485 bng 15 250 50 0 empty empty empty 17 7 0 10 -262144
-1 -1;
#X obj 1012 537 tgl 15 1 empty \$0-dsp_rec dsp 17 7 0 10 -262144 -1
-1 1 1;
#X obj 1012 557 switch~;
#X msg 930 536 1;
#X obj 930 556 s \$0-dsp_rec;
#X connect 0 0 2 0;
#X connect 2 0 5 0;
#X connect 3 0 4 0;
#X connect 3 0 52 0;
#X connect 5 0 3 0;
#X connect 6 0 56 0;
#X connect 11 0 41 1;
#X connect 11 0 43 1;
#X connect 11 0 55 1;
#X connect 13 0 11 3;
#X connect 14 0 6 0;
#X connect 15 0 11 0;
#X connect 17 0 49 0;
#X connect 19 0 11 1;
#X connect 21 0 11 2;
#X connect 23 0 11 5;
#X connect 28 0 16 0;
#X connect 29 0 18 0;
#X connect 30 0 20 0;
#X connect 31 0 22 0;
#X connect 32 0 27 0;
#X connect 34 0 35 0;
#X connect 36 0 39 0;
#X connect 37 0 38 0;
#X connect 37 0 53 0;
#X connect 38 0 16 0;
#X connect 39 0 0 0;
#X connect 39 1 2 0;
#X connect 40 0 53 0;
#X connect 41 0 25 0;
#X connect 41 1 24 0;
#X connect 41 2 42 0;
#X connect 42 0 43 0;
#X connect 43 0 25 0;
#X connect 43 1 24 0;
#X connect 43 2 54 0;
#X connect 46 0 47 0;
#X connect 48 0 11 4;
#X connect 49 0 19 0;
#X connect 50 0 49 1;
#X connect 52 0 51 0;
#X connect 54 0 55 0;
#X connect 55 0 25 0;
#X connect 55 1 24 0;
#X connect 56 0 41 0;
#X connect 58 0 57 0;
#X connect 58 0 11 6;
#X connect 63 0 64 0;
#X connect 67 0 68 0;
#X connect 68 0 69 0;
#X connect 68 1 74 0;
#X connect 69 0 70 0;
#X connect 71 0 68 0;
#X connect 72 0 73 0;
#X connect 74 0 75 0;
#X coords 0 -1 1 1 385 80 1 100 100;
