#N canvas 0 23 925 437 10;
#X obj 161 68 inlet;
#X obj 161 88 t b f, f 16;
#X msg 161 131 1 \, 0 50;
#X obj 161 152 line~;
#X obj 161 173 *~, f 17;
#X obj 254 110 / 127;
#X obj 161 231 *~, f 29;
#X obj 357 109 noise~;
#X obj 357 130 hip~ 7000;
#X obj 568 60 inlet;
#X obj 568 80 t b f, f 16;
#X obj 568 154 line~;
#X obj 568 175 *~, f 17;
#X obj 485 224 *~, f 29;
#X msg 568 133 1 \, 0 150;
#X obj 362 361 outlet~;
#X obj 657 106 / 127;
#X text 345 89 filtered noise;
#X text 698 101 Convert MIDI to 0--> 1;
#X text 464 133 Open HH envelope;
#X text 26 132 closed hihat envelope;
#X text 154 44 closed hh MIDI vel;
#X text 523 39 open hh MIDI vel;
#X obj 362 326 *~;
#X msg 433 343 \$1 5;
#X obj 433 364 line~;
#X obj 433 321 r \$0-vol_snd;
#X obj 362 305 lop~;
#X obj 415 284 r \$0-tone_snd;
#X obj 15 68 hsl 50 10 0 1 0 1 \$0-vol_snd \$0-vol_rec vol -2 -8 0
10 -262144 -1 -1 4900 1;
#X floatatom 415 305 5 0 0 0 - - -;
#X obj 15 44 hsl 50 10 2000 20000 1 1 \$0-tone_snd \$0-tone_rec tone
-2 -8 0 10 -262144 -1 -1 2300 1;
#X text 752 331 sjf \, SAE London 2020;
#X obj 779 134 loadbang;
#X obj 778 166 t b b;
#X obj 756 192 int \$0;
#X obj 756 213 outlet;
#X obj 719 165 bng 15 250 50 0 empty empty empty 17 7 0 10 -262144
-1 -1;
#X obj 840 154 tgl 15 1 empty \$0-dsp_rec dsp 17 7 0 10 -262144 -1
-1 1 1;
#X obj 840 174 switch~;
#X msg 805 191 1;
#X obj 805 211 s \$0-dsp_rec;
#X connect 0 0 1 0;
#X connect 1 0 2 0;
#X connect 1 1 5 0;
#X connect 2 0 3 0;
#X connect 3 0 4 0;
#X connect 4 0 6 0;
#X connect 5 0 4 1;
#X connect 6 0 27 0;
#X connect 7 0 8 0;
#X connect 8 0 6 1;
#X connect 8 0 13 0;
#X connect 9 0 10 0;
#X connect 10 0 14 0;
#X connect 10 1 16 0;
#X connect 11 0 12 0;
#X connect 12 0 13 1;
#X connect 13 0 27 0;
#X connect 14 0 11 0;
#X connect 16 0 12 1;
#X connect 23 0 15 0;
#X connect 24 0 25 0;
#X connect 25 0 23 1;
#X connect 26 0 24 0;
#X connect 27 0 23 0;
#X connect 28 0 27 1;
#X connect 28 0 30 0;
#X connect 33 0 34 0;
#X connect 34 0 35 0;
#X connect 34 1 40 0;
#X connect 35 0 36 0;
#X connect 37 0 34 0;
#X connect 38 0 39 0;
#X connect 40 0 41 0;
#X coords 0 -1 1 1 59 70 1 10 10;
