#N canvas 471 -113 1142 489 10;
#X text 40 36 comment;
#X msg 539 66 0;
#N canvas 0 22 450 278 (subpatch) 0;
#X array \$0-norgard 3 float 3;
#A 0 0 1 0;
#X coords 0 1 3 -1 200 140 1;
#X restore 765 198 graph;
#X obj 540 45 t b b b, f 24;
#X obj 675 117 array size \$0-norgard;
#X obj 338 229 array size \$0-norgard;
#X floatatom 299 140 5 0 0 0 - - -;
#X msg 299 99 1;
#X obj 299 117 +, f 10;
#X obj 202 44 t b b b, f 15;
#X obj 541 16 bng 15 250 50 0 empty empty empty 17 7 0 10 -262144 -1
-1;
#X obj 202 24 bng 15 250 50 0 empty empty empty 17 7 0 10 -262144 -1
-1;
#X msg 675 71 2, f 1;
#X obj 530 169 tabwrite \$0-norgard;
#X msg 530 144 0 0 \, 1 1;
#X obj 299 163 + 2;
#X obj 245 263 sel 0 1;
#X msg 245 286 -1, f 2;
#X msg 267 286 1, f 2;
#X obj 195 362 *;
#X obj 299 184 t f f;
#X obj 244 229 % 2;
#X obj 227 195 t f f;
#X obj 58 307 tabread \$0-norgard;
#X obj 68 200 / 2;
#X obj 68 221 int;
#X floatatom 22 255 5 0 0 0 - - -;
#X obj 68 242 t f f;
#X obj 114 261 - 1;
#X obj 114 282 tabread \$0-norgard;
#X obj 58 327 -;
#X obj 197 423 tabwrite \$0-norgard;
#X connect 1 0 8 1;
#X connect 3 0 1 0;
#X connect 3 1 14 0;
#X connect 3 2 12 0;
#X connect 6 0 8 1;
#X connect 6 0 15 0;
#X connect 7 0 8 0;
#X connect 8 0 6 0;
#X connect 9 2 7 0;
#X connect 10 0 3 0;
#X connect 11 0 9 0;
#X connect 12 0 4 0;
#X connect 14 0 13 0;
#X connect 15 0 20 0;
#X connect 16 0 17 0;
#X connect 16 1 18 0;
#X connect 17 0 19 1;
#X connect 18 0 19 1;
#X connect 20 0 22 0;
#X connect 20 1 5 0;
#X connect 21 0 16 0;
#X connect 22 0 24 0;
#X connect 22 1 21 0;
#X connect 23 0 30 0;
#X connect 24 0 25 0;
#X connect 25 0 26 0;
#X connect 25 0 27 0;
#X connect 27 0 23 0;
#X connect 27 1 28 0;
#X connect 28 0 29 0;
#X connect 29 0 30 1;
#X connect 30 0 19 0;
