#N canvas 730 61 905 829 10;
#X obj 74 689 vol_sjf~;
#X text 152 707 <-- turn me up;
#X obj 77 191 inlet;
#X text 75 161 MIDI Pitch;
#X obj 168 193 inlet;
#X text 166 163 MIDI velocity;
#X obj 73 731 outlet~;
#X obj 493 30 loadbang;
#X obj 493 72 s \$0-dec_rec;
#X obj 77 28 cnv 15 160 70 empty empty empty 20 12 0 14 -233017 -66577
0;
#X obj 181 88 hsl 50 10 0.1 1 0 1 \$0-sustain_snd \$0-sustain_rec sustain
-2 -8 0 10 -262144 -1 -1 4800 1;
#X obj 181 64 hsl 50 10 0 1 0 1 \$0-brightness_snd \$0-brightness_rec
bright -2 -8 0 10 -262144 -1 -1 2200 1;
#X obj 83 58 hsl 60 10 0.2 20 1 1 \$0-vib_rate_snd \$0-vib_rate_rec
vibrato_rate -2 -8 0 10 -262144 -1 -1 3500 1;
#X floatatom 80 75 5 0 12 1 vdepth(st) #0-vib_depth_rec #0-vib_depth_snd
;
#X text 77 28 string;
#X obj 242 28 cnv 15 160 70 empty empty empty 20 12 0 14 -233017 -66577
0;
#X obj 336 72 hsl 50 10 20 20000 1 1 \$0-attack_brightness_snd \$0-attack_brightness_rec
att_bright -2 -8 0 10 -262144 -1 -1 3300 1;
#X floatatom 298 58 5 0 100 0 att(ms) #0-att_rec #0-att_snd;
#X floatatom 298 75 5 0 100 0 dec(ms) #0-dec_rec #0-dec_snd;
#X text 246 30 pluck;
#X obj 77 254 counter_sjf 6;
#X obj 77 278 pack 0 0 0, f 32;
#X obj 77 331 kpsstring_sjf~ \$0 0;
#X obj 687 331 kpsstring_sjf~ \$0 5;
#X obj 566 331 kpsstring_sjf~ \$0 4;
#X obj 443 331 kpsstring_sjf~ \$0 3;
#X obj 321 331 kpsstring_sjf~ \$0 2;
#X obj 198 331 kpsstring_sjf~ \$0 1;
#X obj 406 35 vsl 15 60 0 1 0 1 \$0-vol_snd \$0-vol_rec vol 0 -9 0
10 -262144 -1 -1 5900 1;
#X obj 157 669 r \$0-vol_snd;
#X text 656 762 sjf \, SAE London \, 2020;
#X text 484 581 This patch simply cycles through 6 differentvoices
of the same algorithm to get brute force polypphony \, no clever voice
allocation or the like...;
#X obj 77 233 t b f, f 16;
#X obj 574 72 s \$0-vib_depth_rec;
#X obj 182 40 hsl 50 10 0 1 0 1 \$0-slide_snd \$0-slide_rec slide -2
-8 0 10 -262144 -1 -1 0 1;
#X msg 529 51 0;
#X msg 493 51 1;
#X obj 709 406 loadbang;
#X obj 708 438 t b b;
#X obj 686 464 int \$0;
#X obj 686 485 outlet;
#X obj 649 437 bng 15 250 50 0 empty empty empty 17 7 0 10 -262144
-1 -1;
#X obj 770 426 tgl 15 1 empty \$0-dsp_rec dsp 17 7 0 10 -262144 -1
-1 1 1;
#X obj 770 446 switch~;
#X msg 735 463 1;
#X obj 735 483 s \$0-dsp_rec;
#X connect 0 0 6 0;
#X connect 2 0 32 0;
#X connect 4 0 21 2;
#X connect 7 0 36 0;
#X connect 7 0 35 0;
#X connect 20 0 21 0;
#X connect 21 0 22 0;
#X connect 21 0 23 0;
#X connect 21 0 27 0;
#X connect 21 0 26 0;
#X connect 21 0 25 0;
#X connect 21 0 24 0;
#X connect 22 0 0 0;
#X connect 23 0 0 0;
#X connect 24 0 0 0;
#X connect 25 0 0 0;
#X connect 26 0 0 0;
#X connect 27 0 0 0;
#X connect 29 0 0 1;
#X connect 32 0 20 0;
#X connect 32 1 21 1;
#X connect 35 0 33 0;
#X connect 36 0 8 0;
#X connect 37 0 38 0;
#X connect 38 0 39 0;
#X connect 38 1 44 0;
#X connect 39 0 40 0;
#X connect 41 0 38 0;
#X connect 42 0 43 0;
#X connect 44 0 45 0;
#X coords 0 -1 1 1 350 100 1 75 0;
