#N canvas 0 23 941 611 10;
#X obj 37 37 inlet~;
#X obj 589 292 *~, f 21;
#X obj 723 334 line~;
#X obj 540 146 line~;
#X obj 540 16 loadbang;
#X obj 540 210 +~, f 7;
#X obj 627 113 osc~;
#X obj 587 190 *~;
#X obj 627 155 *~, f 30;
#X obj 801 118 line~;
#X obj 801 76 - 0.01;
#X obj 350 76 hsl 60 10 0.0002 20 1 1 \$0-rate_snd \$0-rate_rec rate
-2 -8 0 10 -262144 -1 -1 3200 1;
#X obj 535 414 *~;
#X obj 586 412 line~;
#X msg 540 125 \$1 50;
#X msg 801 97 \$1 50;
#X msg 723 313 \$1 50;
#X obj 37 373 *~;
#X obj 74 300 line~;
#X obj 64 78 throw~ \$0-to_variDel;
#X obj 83 137 catch~ \$0-to_variDel;
#X obj 540 270 vd~ \$0-variDel;
#X obj 589 313 throw~ \$0-to_variDel;
#X obj 452 57 vsl 15 50 0 1 0 1 \$0-dry_snd \$0-dry_rec dry 0 -9 0
10 -262144 -1 -1 0 1;
#X msg 74 279 \$1 50;
#X msg 586 391 \$1 50;
#X obj 74 221 r \$0-dry_snd;
#X obj 427 57 vsl 15 50 0 1 0 1 \$0-wet_snd \$0-wet_rec wet 0 -9 0
10 -262144 -1 -1 4900 1;
#X obj 587 358 r \$0-wet_snd;
#X obj 412 57 vsl 15 50 0 1 0 1 \$0-fb_snd \$0-fb_rec fb 0 -9 0 10
-262144 -1 -1 3900 1;
#X obj 350 100 hsl 60 10 0.01 1 1 1 \$0-depth_snd \$0-depth_rec depth
-2 -8 0 10 -262144 -1 -1 3900 1;
#X obj 801 56 r \$0-depth_snd;
#X obj 627 68 r \$0-rate_snd;
#X floatatom 380 45 5 1 150 0 delay #0-del_rec #0-del_snd;
#X obj 540 57 s \$0-del_rec;
#X obj 540 104 r \$0-del_snd;
#N canvas 1065 147 638 300 s&h_noise 0;
#X obj 453 14 inlet;
#X obj 253 66 phasor~;
#X obj 177 41 noise~;
#X obj 177 105 samphold~;
#X obj 242 229 outlet~;
#X obj 453 35 / 20;
#X obj 177 126 lop~ 1, f 12;
#X obj 453 56 * 0.8;
#X obj 453 77 + 0.1;
#X connect 0 0 1 0;
#X connect 0 0 5 0;
#X connect 1 0 3 1;
#X connect 2 0 3 0;
#X connect 3 0 6 0;
#X connect 5 0 7 0;
#X connect 6 0 4 0;
#X connect 7 0 8 0;
#X connect 8 0 6 1;
#X restore 710 109 pd s&h_noise;
#X obj 302 80 vradio 15 1 1 2 \$0-type_snd \$0-type_rec type 0 -8 0
10 -262144 -1 -1 0;
#X text 319 78 sine;
#X text 319 96 rand;
#X obj 186 544 outlet~;
#X obj 667 90 == 0;
#X obj 627 134 *~, f 8;
#X obj 682 25 r \$0-type_snd;
#X obj 710 135 *~, f 8;
#X obj 749 77 == 1;
#X msg 540 37 50;
#X obj 83 161 delwrite~ \$0-variDel 150;
#X obj 709 173 tgl 15 0 empty empty empty 17 7 0 10 -262144 -1 -1 1
1;
#X obj 709 193 metro 50;
#X obj 709 214 snapshot~;
#X floatatom 709 235 20 0 0 0 - - -;
#X obj 827 237 vsl 15 128 -1 1 0 0 empty empty empty 0 -9 0 10 -262144
-1 -1 5970 1;
#X obj 723 292 r \$0-fb_snd;
#X connect 0 0 17 0;
#X connect 0 0 19 0;
#X connect 1 0 22 0;
#X connect 2 0 1 1;
#X connect 3 0 5 0;
#X connect 3 0 7 0;
#X connect 4 0 46 0;
#X connect 5 0 21 0;
#X connect 6 0 42 0;
#X connect 7 0 5 1;
#X connect 8 0 7 1;
#X connect 8 0 50 0;
#X connect 9 0 8 1;
#X connect 10 0 15 0;
#X connect 12 0 40 0;
#X connect 13 0 12 1;
#X connect 14 0 3 0;
#X connect 15 0 9 0;
#X connect 16 0 2 0;
#X connect 17 0 40 0;
#X connect 18 0 17 1;
#X connect 20 0 47 0;
#X connect 21 0 1 0;
#X connect 21 0 12 0;
#X connect 24 0 18 0;
#X connect 25 0 13 0;
#X connect 26 0 24 0;
#X connect 28 0 25 0;
#X connect 31 0 10 0;
#X connect 32 0 6 0;
#X connect 32 0 36 0;
#X connect 35 0 14 0;
#X connect 36 0 44 0;
#X connect 41 0 42 1;
#X connect 42 0 8 0;
#X connect 43 0 41 0;
#X connect 43 0 45 0;
#X connect 44 0 8 0;
#X connect 45 0 44 1;
#X connect 46 0 34 0;
#X connect 48 0 49 0;
#X connect 49 0 50 0;
#X connect 50 0 51 0;
#X connect 50 0 52 0;
#X connect 53 0 16 0;
#X coords 0 -1 1 1 170 80 1 300 30;
