#N canvas 157 23 1019 659 10;
#X obj 203 357 *~;
#X obj 219 324 line~;
#X obj 304 511 *~, f 21;
#X obj 431 455 line~;
#X obj 360 270 line~;
#X text 244 130 name of delay line;
#X text 346 113 ^;
#X text 346 117 |;
#X text 379 113 ^;
#X text 379 117 |;
#X text 379 127 |;
#X text 379 137 |;
#X text 379 147 |;
#X text 331 160 maximum delay time (ms);
#X obj 444 511 *~, f 21;
#X obj 571 455 line~;
#X obj 360 315 vd~ \$0-del;
#X obj 444 532 throw~ \$0-to_del;
#X obj 310 60 catch~ \$0-to_del;
#X obj 203 60 inlet~;
#X text 192 40 audio in;
#X obj 203 466 outlet~;
#X obj 795 78 vsl 15 50 0 1 0 1 \$0-wet_snd \$0-wet_rec wet 0 -9 0
10 -262144 -1 -1 4900 1;
#X obj 795 146 vsl 15 50 0 1 0 1 \$0-dry_snd \$0-dry_rec dry 0 -9 0
10 -262144 -1 -1 4900 1;
#X obj 219 268 r \$0-dry_snd;
#X obj 431 413 r \$0-wet_snd;
#X obj 570 413 r \$0-fb_snd;
#X floatatom 686 87 5 0 1000 0 delay #0-delay_rec #0-delay_snd;
#X obj 849 229 loadbang;
#X msg 849 291 125;
#X obj 849 271 sel 0, f 15;
#X obj 849 250 int \$2;
#X obj 877 321 s \$0-delay_rec;
#X obj 360 229 r \$0-delay_snd;
#X text 766 571 sjf \, SAE London \, 2020;
#X obj 445 17 inlet;
#X obj 445 38 s \$0-delay_rec;
#X obj 533 17 inlet;
#X obj 533 38 s \$0-dry_rec;
#X obj 609 17 inlet;
#X obj 609 38 s \$0-wet_rec;
#X obj 685 17 inlet;
#X obj 685 38 s \$0-fb_rec;
#X obj 360 335 throw~ \$0-to_od;
#X obj 529 84 catch~ \$0-to_od;
#X obj 506 166 throw~ \$0-from_od;
#X obj 301 412 catch~ \$0-from_od;
#X obj 264 99 delwrite~ \$0-del 2000;
#X obj 681 188 hsl 50 10 0.01 1.01 1 1 \$0-depth_snd \$0-depth_rec
depth -2 -8 0 10 -262144 -1 -1 1600 1;
#X obj 360 294 +~;
#X obj 736 188 hsl 50 10 0.0001 20 1 1 \$0-rate_snd \$0-rate_rec rate
-2 -8 0 10 -262144 -1 -1 700 1;
#X obj 544 229 r \$0-rate_snd;
#X obj 629 229 r \$0-delay_snd;
#X obj 720 229 r \$0-depth_snd;
#X obj 721 92 hsl 65 10 0 1 0 1 \$0-fb_snd \$0-fb_rec feedback -2 -8
0 10 -262144 -1 -1 3200 1;
#X floatatom 617 439 5 0 0 0 - - -;
#X obj 653 104 cnv 15 135 70 empty empty empty 20 12 0 14 -191407 -66577
0;
#X obj 653 103 ovrdr_sjf~;
#X obj 655 187 tgl 10 1 \$0-mod_snd \$0-mod_rec mod 0 -5 0 10 -262144
-1 -1 1 1;
#X obj 461 229 r \$0-mod_snd;
#N canvas 0 23 450 300 mod 0;
#X obj 37 37 inlet;
#X obj 83 69 osc~;
#X obj 99 140 *~, f 7;
#X obj 160 111 line~;
#X floatatom 115 71 5 0 0 0 - - -;
#X obj 160 134 *~, f 7;
#X obj 256 119 line~;
#X floatatom 305 93 5 0 0 0 - - -;
#X floatatom 203 91 5 0 0 0 - - -;
#X obj 255 66 - 0.01;
#X obj 37 189 *~, f 19;
#X obj 37 168 line~;
#X text 32 15 on/off;
#X obj 83 48 inlet;
#X text 82 22 rate;
#X obj 160 66 inlet;
#X text 155 47 delaytime;
#X obj 255 45 inlet;
#X text 252 23 depth;
#X obj 37 210 outlet~;
#X msg 160 90 \$1 50;
#X msg 37 147 \$1 50;
#X msg 256 98 \$1 50;
#X connect 0 0 21 0;
#X connect 1 0 2 0;
#X connect 2 0 10 1;
#X connect 3 0 5 0;
#X connect 5 0 2 1;
#X connect 6 0 5 1;
#X connect 9 0 22 0;
#X connect 9 0 7 0;
#X connect 10 0 19 0;
#X connect 11 0 10 0;
#X connect 13 0 1 0;
#X connect 13 0 4 0;
#X connect 15 0 20 0;
#X connect 15 0 8 0;
#X connect 17 0 9 0;
#X connect 20 0 3 0;
#X connect 21 0 11 0;
#X connect 22 0 6 0;
#X restore 486 261 pd mod;
#X f 27;
#X msg 360 249 \$1 50;
#X msg 219 303 \$1 50;
#X msg 571 434 \$1 50;
#X msg 431 434 \$1 50;
#X obj 908 403 loadbang;
#X obj 908 424 int \$0;
#X obj 908 445 outlet;
#X connect 0 0 21 0;
#X connect 1 0 0 1;
#X connect 2 0 21 0;
#X connect 3 0 2 1;
#X connect 4 0 49 0;
#X connect 14 0 17 0;
#X connect 15 0 14 1;
#X connect 16 0 43 0;
#X connect 18 0 47 0;
#X connect 19 0 0 0;
#X connect 19 0 47 0;
#X connect 24 0 62 0;
#X connect 25 0 64 0;
#X connect 26 0 63 0;
#X connect 26 0 55 0;
#X connect 28 0 31 0;
#X connect 29 0 32 0;
#X connect 30 0 29 0;
#X connect 30 1 32 0;
#X connect 31 0 30 0;
#X connect 33 0 61 0;
#X connect 35 0 36 0;
#X connect 37 0 38 0;
#X connect 39 0 40 0;
#X connect 41 0 42 0;
#X connect 44 0 57 0;
#X connect 46 0 2 0;
#X connect 46 0 14 0;
#X connect 49 0 16 0;
#X connect 51 0 60 1;
#X connect 52 0 60 2;
#X connect 53 0 60 3;
#X connect 57 0 45 0;
#X connect 59 0 60 0;
#X connect 60 0 49 1;
#X connect 61 0 4 0;
#X connect 62 0 1 0;
#X connect 63 0 15 0;
#X connect 64 0 3 0;
#X connect 65 0 66 0;
#X connect 66 0 67 0;
#X coords 0 -1 1 1 165 140 1 650 60;
