#N canvas 625 23 704 334 10;
#X obj 141 217 *~;
#X msg 212 234 \$1 5;
#X obj 212 255 line~;
#X obj 541 41 vradio 10 1 1 3 \$0-type_snd \$0-type_rec clip_type 0
-8 0 10 -262144 -1 -1 2;
#X text 550 37 bypass;
#X obj 141 240 outlet~;
#X obj 658 26 vsl 15 50 0 1 0 1 \$0-vol_snd \$0-vol_rec vol 0 -9 0
10 -262144 -1 -1 4900 1;
#X obj 212 212 r \$0-vol_snd;
#X obj 603 26 vsl 15 50 1 2 0 1 \$0-gain_snd \$0-gain_rec gain 0 -9
0 10 -262144 -1 -1 4900 1;
#X obj 72 34 inlet~;
#X obj 630 26 vsl 15 50 20 20000 1 1 \$0-tone_snd \$0-tone_rec tone
0 -9 0 10 -262144 -1 -1 4900 1;
#X obj 141 183 lop~;
#X obj 221 177 r \$0-tone_snd;
#X obj 72 58 send~ \$0-signal2distort;
#N canvas 0 23 590 364 tanh_distortion 0;
#X obj 315 141 == 1;
#N canvas 0 23 747 495 tanh 0;
#X obj 256 173 inlet~;
#X obj 256 450 outlet~;
#X obj 256 227 *~, f 12;
#X obj 325 207 inlet;
#X text 220 153 signal to distort;
#X text 324 184 gain;
#X text 86 226 initial amplification stage;
#X text 353 329 <--- distortion logic;
#X text 30 9 This patch uses the expr~ object to give us the hyperbollic
tangent function of the input;
#X text 31 34 (don't worry \, just look at an example on the internet
to see how the graph of a hyperbollic tangent function compares to
the output of this distortion technique);
#X text 31 72 This approach creates a "soft clipping" style overdrive
;
#X obj 256 331 expr~ tanh($v1);
#X text 320 350 Note: "$v1" is an argument telling the expr~ object
to expect a signal in the first inlet and perform some maths with it
(in this case get the tanh of it);
#X text 320 383 $v2 would imply a signal n a second inlet;
#X text 319 395 $f1 would be a number (float) in the third inlet \,
etc. etc.;
#X connect 0 0 2 0;
#X connect 2 0 11 0;
#X connect 3 0 2 1;
#X connect 11 0 1 0;
#X restore 235 162 pd tanh;
#X obj 143 96 receive~ \$0-signal2distort;
#X obj 235 205 *~;
#X obj 235 226 outlet~;
#X text 94 164 Distortion inside --->;
#X obj 315 118 r \$0-type_snd;
#X obj 229 117 r \$0-gain_snd;
#X connect 0 0 3 1;
#X connect 1 0 3 0;
#X connect 2 0 1 0;
#X connect 3 0 4 0;
#X connect 6 0 0 0;
#X connect 7 0 1 1;
#X restore 137 115 pd tanh_distortion;
#N canvas 0 23 450 300 bypass 0;
#X obj 161 119 *~;
#X obj 176 97 == 0;
#X obj 53 37 receive~ \$0-signal2distort;
#X obj 161 140 outlet~;
#X obj 175 61 r \$0-type_snd;
#X connect 0 0 3 0;
#X connect 1 0 0 1;
#X connect 2 0 0 0;
#X connect 4 0 1 0;
#X restore 73 115 pd bypass;
#N canvas 0 23 450 300 clip_distortion 0;
#X obj 108 56 receive~ \$0-signal2distort;
#X obj 173 196 *~, f 21;
#X obj 173 217 outlet~;
#X obj 297 88 == 2;
#X text 36 120 Distortion inside --->;
#N canvas 0 23 450 300 clip 0;
#X obj 270 103 inlet~;
#X obj 270 245 outlet~;
#X obj 270 171 *~, f 12;
#X obj 371 135 inlet;
#X text 266 81 signal to distort;
#X text 370 112 gain;
#X obj 270 197 clip~ -1 1;
#X text 20 13 This example uses the built in "clip~" object to limit
the output to between -1 and 1;
#X text 24 40 This results in a harder clipped overdrive than tanh
;
#X connect 0 0 2 0;
#X connect 2 0 6 0;
#X connect 3 0 2 1;
#X connect 6 0 1 0;
#X restore 173 120 pd clip;
#X obj 274 54 r \$0-type_snd;
#X obj 192 89 r \$0-gain_snd;
#X connect 0 0 5 0;
#X connect 1 0 2 0;
#X connect 3 0 1 1;
#X connect 5 0 1 0;
#X connect 6 0 3 0;
#X connect 7 0 5 1;
#X restore 253 115 pd clip_distortion;
#X text 551 59 hard;
#X text 550 48 soft;
#X text 565 288 sjf \, SAE London \, 2020;
#X obj 437 217 *~;
#X msg 508 234 \$1 5;
#X obj 508 255 line~;
#X obj 437 240 outlet~;
#X obj 508 212 r \$0-vol_snd;
#X obj 437 183 lop~;
#X obj 517 177 r \$0-tone_snd;
#N canvas 0 23 590 364 tanh_distortion 0;
#X obj 315 141 == 1;
#N canvas 0 23 747 495 tanh 0;
#X obj 256 173 inlet~;
#X obj 256 450 outlet~;
#X obj 256 227 *~, f 12;
#X obj 325 207 inlet;
#X text 220 153 signal to distort;
#X text 324 184 gain;
#X text 86 226 initial amplification stage;
#X text 353 329 <--- distortion logic;
#X text 30 9 This patch uses the expr~ object to give us the hyperbollic
tangent function of the input;
#X text 31 34 (don't worry \, just look at an example on the internet
to see how the graph of a hyperbollic tangent function compares to
the output of this distortion technique);
#X text 31 72 This approach creates a "soft clipping" style overdrive
;
#X obj 256 331 expr~ tanh($v1);
#X text 320 350 Note: "$v1" is an argument telling the expr~ object
to expect a signal in the first inlet and perform some maths with it
(in this case get the tanh of it);
#X text 320 383 $v2 would imply a signal n a second inlet;
#X text 319 395 $f1 would be a number (float) in the third inlet \,
etc. etc.;
#X connect 0 0 2 0;
#X connect 2 0 11 0;
#X connect 3 0 2 1;
#X connect 11 0 1 0;
#X restore 235 162 pd tanh;
#X obj 235 205 *~;
#X obj 235 226 outlet~;
#X text 94 164 Distortion inside --->;
#X obj 315 118 r \$0-type_snd;
#X obj 229 117 r \$0-gain_snd;
#X obj 143 96 receive~ \$0-signal2distort2;
#X connect 0 0 2 1;
#X connect 1 0 2 0;
#X connect 2 0 3 0;
#X connect 5 0 0 0;
#X connect 6 0 1 1;
#X connect 7 0 1 0;
#X restore 433 115 pd tanh_distortion;
#N canvas 0 23 450 300 bypass 0;
#X obj 161 119 *~;
#X obj 176 97 == 0;
#X obj 161 140 outlet~;
#X obj 175 61 r \$0-type_snd;
#X obj 53 37 receive~ \$0-signal2distort2;
#X connect 0 0 2 0;
#X connect 1 0 0 1;
#X connect 3 0 1 0;
#X connect 4 0 0 0;
#X restore 369 115 pd bypass;
#N canvas 0 23 450 300 clip_distortion 0;
#X obj 173 196 *~, f 21;
#X obj 173 217 outlet~;
#X obj 297 88 == 2;
#X text 36 120 Distortion inside --->;
#N canvas 0 23 450 300 clip 0;
#X obj 270 103 inlet~;
#X obj 270 245 outlet~;
#X obj 270 171 *~, f 12;
#X obj 371 135 inlet;
#X text 266 81 signal to distort;
#X text 370 112 gain;
#X obj 270 197 clip~ -1 1;
#X text 20 13 This example uses the built in "clip~" object to limit
the output to between -1 and 1;
#X text 24 40 This results in a harder clipped overdrive than tanh
;
#X connect 0 0 2 0;
#X connect 2 0 6 0;
#X connect 3 0 2 1;
#X connect 6 0 1 0;
#X restore 173 120 pd clip;
#X obj 274 54 r \$0-type_snd;
#X obj 192 89 r \$0-gain_snd;
#X obj 108 56 receive~ \$0-signal2distort2;
#X connect 0 0 1 0;
#X connect 2 0 0 1;
#X connect 4 0 0 0;
#X connect 5 0 2 0;
#X connect 6 0 4 1;
#X connect 7 0 4 0;
#X restore 549 115 pd clip_distortion;
#X obj 223 33 inlet~;
#X obj 223 57 send~ \$0-signal2distort2;
#X obj 643 172 loadbang;
#X obj 643 193 int \$0;
#X obj 643 214 outlet;
#X obj 625 170 bng 15 250 50 0 empty empty empty 17 7 0 10 -262144
-1 -1;
#X connect 0 0 5 0;
#X connect 1 0 2 0;
#X connect 2 0 0 1;
#X connect 7 0 1 0;
#X connect 9 0 13 0;
#X connect 11 0 0 0;
#X connect 12 0 11 1;
#X connect 14 0 11 0;
#X connect 15 0 0 0;
#X connect 16 0 11 0;
#X connect 20 0 23 0;
#X connect 21 0 22 0;
#X connect 22 0 20 1;
#X connect 24 0 21 0;
#X connect 25 0 20 0;
#X connect 26 0 25 1;
#X connect 27 0 25 0;
#X connect 28 0 20 0;
#X connect 29 0 25 0;
#X connect 30 0 31 0;
#X connect 32 0 33 0;
#X connect 33 0 34 0;
#X connect 35 0 33 0;
#X coords 0 -1 1 1 135 70 1 540 10;
