#N canvas 0 23 729 409 10;
#X obj 211 250 *~;
#X obj 123 246 *~;
#X obj 205 69 hsl 50 10 0 1 0 1 empty empty empty -2 -8 0 10 -262144
-1 -1 2450 1;
#X obj 39 181 inlet~;
#X obj 123 267 outlet~;
#X obj 211 271 outlet~;
#X obj 199 31 inlet;
#X obj 202 105 line~;
#X obj 214 168 cos~;
#X obj 168 168 cos~;
#X msg 202 85 \$1 50;
#X obj 202 126 *~ 0.5;
#X obj 202 147 -~ 0.5;
#X obj 168 189 *~ 0.5;
#X obj 168 210 +~ 0.5;
#X obj 214 188 *~ 0.5;
#X obj 214 209 +~ 0.5;
#X text 260 147 By reading the cosine 180 gerees out of phase on the
second channel we get a smoth transition between both speakers;
#X text 252 117 I tend to use a track learned from a MaxMSP tutorial
that uses 180degrees of a cosine wav to create a non linear fade;
#X text 286 189 The output of the cosines needs to be converted from
a range of -1 --> 1 to a range of 0--> 1;
#X connect 0 0 5 0;
#X connect 1 0 4 0;
#X connect 2 0 10 0;
#X connect 3 0 1 0;
#X connect 3 0 0 0;
#X connect 6 0 2 0;
#X connect 7 0 11 0;
#X connect 8 0 15 0;
#X connect 9 0 13 0;
#X connect 10 0 7 0;
#X connect 11 0 9 0;
#X connect 11 0 12 0;
#X connect 12 0 8 0;
#X connect 13 0 14 0;
#X connect 14 0 1 1;
#X connect 15 0 16 0;
#X connect 16 0 0 1;
#X coords 0 -1 1 1 60 30 1 200 50;
