#N canvas 492 242 336 300 12;
#X obj 98 62 inlet;
#X obj 98 190 int;
#X obj 98 262 outlet;
#X obj 189 63 inlet;
#X obj 98 86 t f b;
#X obj 98 238 expr pow($f2 \, $f1);
#X obj 176 117 float \$1;
#X obj 98 166 expr log($f1)/log($f2);
#X text 40 10 This calculates the next multiple of the argument(or value passed into the right input) above the left input, f 39;
#X connect 0 0 4 0;
#X connect 1 0 5 0;
#X connect 3 0 6 1;
#X connect 4 0 7 0;
#X connect 4 1 6 0;
#X connect 5 0 2 0;
#X connect 6 0 7 1;
#X connect 6 0 5 1;
#X connect 7 0 1 0;
