#N canvas 0 25 574 821 12;
#X obj 37 5 inlet;
#X obj 130 788 outlet;
#X msg 135 639 1;
#X obj 155 240 sqrt;
#X obj 155 266 int;
#X msg 59 640 0;
#X obj 228 738 int, f 26;
#X obj 246 409 until;
#X obj 304 450 +;
#X obj 334 451 + 1;
#X obj 304 515 expr $f2/$f1;
#X obj 304 539 t f f;
#X obj 304 563 -;
#X obj 304 587 == 0;
#X obj 339 562 int;
#X obj 304 673 t b b;
#X obj 155 205 t f f, f 28;
#X msg 353 696 0;
#X msg 444 645 1;
#X msg 413 413 2;
#X obj 304 490 pack, f 10;
#X obj 214 369 t b f f b, f 37;
#X obj 304 611 sel 1;
#X text 195 244 no need to check past the sqrt, f 14;
#X obj 37 80 expr if($f1<2 \, 0 \, $f1);
#X obj 82 119 sel 0;
#X obj 119 152 expr if($f1==2 \, 1 \, $f1);
#X obj 119 176 sel 1;
#X text 205 61 only positive integers allowed \; 0 & 1 are not prime numbers \; 2 is prime \; otherwise check;
#X obj 37 29 int;
#X text 164 8 input integer \; output 1 if prime \, 0 if not;
#X connect 0 0 29 0;
#X connect 2 0 1 0;
#X connect 3 0 4 0;
#X connect 4 0 21 0;
#X connect 5 0 1 0;
#X connect 6 0 1 0;
#X connect 7 0 8 0;
#X connect 8 0 9 0;
#X connect 8 0 20 0;
#X connect 9 0 8 1;
#X connect 10 0 11 0;
#X connect 11 0 12 0;
#X connect 11 1 14 0;
#X connect 12 0 13 0;
#X connect 13 0 22 0;
#X connect 14 0 12 1;
#X connect 15 0 7 1;
#X connect 15 1 17 0;
#X connect 16 0 3 0;
#X connect 16 1 20 1;
#X connect 17 0 6 1;
#X connect 18 0 6 1;
#X connect 19 0 8 1;
#X connect 20 0 10 0;
#X connect 21 0 6 0;
#X connect 21 1 7 0;
#X connect 21 3 18 0;
#X connect 21 3 19 0;
#X connect 22 0 15 0;
#X connect 24 0 25 0;
#X connect 25 0 5 0;
#X connect 25 1 26 0;
#X connect 26 0 27 0;
#X connect 27 0 2 0;
#X connect 27 1 16 0;
#X connect 29 0 24 0;
