#N canvas 270 238 828 450 10;
#N canvas 0 23 450 278 (subpatch) 0;
#X array \$0-v2to 3 float 3;
#A 0 0 2 0;
#X coords 0 1 3 0 60 10 1 0 0;
#X restore 125 228 graph;
#N canvas 0 23 450 278 (subpatch) 0;
#X array \$0-v1to 3 float 3;
#A 0 0 14 2;
#X coords 0 1 3 0 60 10 1 0 0;
#X restore 125 190 graph;
#X obj 339 145 array random \$0-v1to;
#N canvas 0 23 450 278 (subpatch) 0;
#X array \$0-v0to 3 float 3;
#A 0 0 1 1;
#X coords 0 1 3 0 60 10 1 0 0;
#X restore 124 154 graph;
#X text 127 164 0;
#X text 147 164 1;
#X text 168 164 2;
#X text 129 201 0;
#X text 149 201 1;
#X text 170 201 2;
#X text 129 240 0;
#X text 149 240 1;
#X text 170 240 2;
#X text 68 164 from 0 to;
#X text 69 201 from 1 to;
#X text 68 239 from 2 to;
#X obj 467 145 array random \$0-v2to;
#X obj 338 275 t f f;
#X obj 304 97 sel 0 1 2;
#X obj 305 78 int;
#X floatatom 262 288 5 0 0 0 - - -;
#X obj 338 296 outlet;
#X obj 307 54 bng 15 250 50 0 empty empty empty 17 7 0 10 -262144 -1
-1;
#X obj 620 163 tabwrite \$0-v0to;
#X obj 650 190 tabwrite \$0-v1to;
#X obj 681 212 tabwrite \$0-v2to;
#X obj 699 71 inlet;
#X obj 699 99 route 0 1 2;
#X obj 307 21 inlet;
#X msg 620 143 \$2 \$1;
#X msg 677 143 \$2 \$1;
#X msg 727 143 \$2 \$1;
#X obj 220 111 bng 15 250 50 0 empty empty empty 17 7 0 10 -262144
-1 -1;
#X obj 212 145 array random \$0-v0to;
#X connect 2 0 17 0;
#X connect 16 0 17 0;
#X connect 17 0 20 0;
#X connect 17 0 21 0;
#X connect 17 1 19 1;
#X connect 18 0 33 0;
#X connect 18 1 2 0;
#X connect 18 2 16 0;
#X connect 19 0 18 0;
#X connect 22 0 19 0;
#X connect 26 0 27 0;
#X connect 27 0 29 0;
#X connect 27 1 30 0;
#X connect 27 2 31 0;
#X connect 28 0 22 0;
#X connect 29 0 23 0;
#X connect 30 0 24 0;
#X connect 31 0 25 0;
#X connect 32 0 33 0;
#X connect 33 0 17 0;
