#N canvas 596 235 635 355 10;
#X obj 152 149 array random \$0-v1to;
#X obj 280 149 array random \$0-v2to;
#X obj 151 279 t f f, f 23;
#X obj 25 123 sel 0 1 2, f 64;
#X obj 118 82 int;
#X obj 151 300 outlet;
#X obj 120 58 bng 15 250 50 0 empty empty empty 17 7 0 10 -262144 -1
-1;
#X obj 433 167 tabwrite \$0-v0to;
#X obj 463 194 tabwrite \$0-v1to;
#X obj 494 216 tabwrite \$0-v2to;
#X obj 512 75 inlet;
#X obj 512 103 route 0 1 2;
#X obj 120 25 inlet;
#X msg 433 147 \$2 \$1;
#X msg 490 147 \$2 \$1;
#X msg 540 147 \$2 \$1;
#X obj 25 150 array random \$0-v0to;
#X obj 324 5 array define -yrange 0 1 \$0-v0to 3;
#X obj 325 26 array define -yrange 0 1 \$0-v1to 3;
#X obj 325 46 array define -yrange 0 1 \$0-v2to 3;
#X obj 199 81 route seed;
#X connect 0 0 2 0;
#X connect 1 0 2 0;
#X connect 2 0 5 0;
#X connect 2 1 4 1;
#X connect 3 0 16 0;
#X connect 3 1 0 0;
#X connect 3 2 1 0;
#X connect 4 0 3 0;
#X connect 6 0 4 0;
#X connect 10 0 11 0;
#X connect 10 0 20 0;
#X connect 11 0 13 0;
#X connect 11 1 14 0;
#X connect 11 2 15 0;
#X connect 12 0 6 0;
#X connect 13 0 7 0;
#X connect 14 0 8 0;
#X connect 15 0 9 0;
#X connect 16 0 2 0;
#X connect 20 0 4 1;
