#N canvas 177 51 865 512 10;
#N canvas 373 50 353 532 retrigger 0;
#X obj 55 39 inlet;
#X obj 145 39 inlet;
#X obj 145 83 int \$1;
#X obj 145 104 t f f, f 10;
#X obj 152 61 loadbang;
#X obj 53 490 outlet;
#X obj 145 125 > 0;
#X obj 112 152 spigot;
#X obj 89 465 list;
#X msg 161 282 1, f 1;
#X obj 112 173 t l b b, f 15;
#X obj 161 324 int;
#X obj 161 224 delay;
#X text 18 17 list to retrigger;
#X text 133 17 number of repetitions;
#X obj 288 39 inlet;
#X text 276 17 delta time;
#X obj 55 83 t l l b, f 10;
#X obj 161 347 moses, f 10;
#X msg 259 228 stop;
#X obj 238 491 outlet;
#X obj 55 321 t l b;
#X msg 83 344 0;
#X obj 218 282 + 1;
#X obj 161 303 + -1;
#X msg 196 282 -1, f 2;
#X obj 164 467 + 1;
#X obj 119 442 t b b f, f 8;
#X obj 259 177 r \$0-on/off_snd, f 9;
#X connect 0 0 17 0;
#X connect 1 0 2 0;
#X connect 2 0 3 0;
#X connect 3 0 6 0;
#X connect 3 1 23 0;
#X connect 4 0 2 0;
#X connect 6 0 7 1;
#X connect 7 0 10 0;
#X connect 8 0 5 0;
#X connect 9 0 24 0;
#X connect 10 0 8 1;
#X connect 10 1 12 0;
#X connect 10 2 25 0;
#X connect 11 0 18 0;
#X connect 11 0 24 1;
#X connect 12 0 9 0;
#X connect 15 0 12 1;
#X connect 17 0 21 0;
#X connect 17 1 7 0;
#X connect 17 2 2 0;
#X connect 18 0 27 0;
#X connect 18 1 19 0;
#X connect 19 0 12 0;
#X connect 21 0 5 0;
#X connect 21 1 22 0;
#X connect 22 0 20 0;
#X connect 23 0 18 1;
#X connect 24 0 11 0;
#X connect 25 0 24 1;
#X connect 26 0 20 0;
#X connect 27 0 8 0;
#X connect 27 1 12 0;
#X connect 27 2 26 0;
#X connect 28 0 19 0;
#X restore 104 270 pd retrigger;
#X f 31;
#X obj 59 112 inlet;
#X text 50 91 input;
#X obj 440 112 inlet;
#X text 439 91 BPM;
#X obj 440 131 s \$0-bpm;
#X obj 549 112 inlet;
#X obj 716 112 inlet;
#X text 549 91 division;
#X obj 549 131 s \$0-division_rec;
#X text 711 91 type;
#X obj 109 12 cnv 15 100 56 empty empty empty 20 12 0 14 -233017 -66577
0;
#X obj 116 25 vradio 8 1 1 5 \$0-division_snd \$0-division_rec division
0 -8 0 10 -262144 -1 -1 1;
#X text 125 19 1/4;
#X text 125 29 1/8;
#X text 125 39 1/16;
#X text 125 48 1/32;
#X obj 171 28 vradio 10 1 1 4 \$0-type_snd \$0-type_rec type 0 -8 0
10 -262144 -1 -1 0;
#X text 181 25 2s;
#X text 181 35 3s;
#X text 181 46 5s;
#X text 181 56 7s;
#X obj 603 369 s \$0-deltaTime;
#X obj 729 235 r \$0-bpm;
#X obj 729 254 t b f, f 8;
#X msg 729 275 60000;
#X obj 603 350 *, f 29;
#X obj 541 252 expr pow(2 \, (-1 * $f1) ), f 13;
#X obj 541 211 r \$0-division_snd, f 11;
#X obj 627 232 r \$0-type_snd;
#X obj 603 296 f;
#X obj 603 317 * 1, f 9;
#X obj 627 272 t b f;
#N canvas 0 23 379 278 tuplet_logic 0;
#X obj 60 28 inlet;
#X obj 60 54 sel 0 1 2 3, f 36;
#X msg 60 75 1, f 2;
#X msg 106 75 2;
#X obj 106 98 / 3;
#X msg 164 75 4;
#X obj 164 98 / 5;
#X msg 216 75 8;
#X obj 216 98 / 7;
#X obj 124 175 outlet;
#X connect 0 0 1 0;
#X connect 1 0 2 0;
#X connect 1 1 3 0;
#X connect 1 2 5 0;
#X connect 1 3 7 0;
#X connect 2 0 9 0;
#X connect 3 0 4 0;
#X connect 4 0 9 0;
#X connect 5 0 6 0;
#X connect 6 0 9 0;
#X connect 7 0 8 0;
#X connect 8 0 9 0;
#X restore 627 252 pd tuplet_logic;
#X obj 729 318 t b f, f 8;
#X obj 287 194 r \$0-deltaTime;
#X obj 729 296 / 120, f 8;
#X obj 333 240 r \$0-division_snd, f 11;
#X obj 419 240 r \$0-type_snd;
#X msg 474 281 7, f 1;
#X obj 419 261 sel 0 1 2 3, f 12;
#X obj 419 307 int;
#X obj 334 281 expr pow(2 \, ($f1) ), f 13;
#X msg 419 281 4, f 1;
#X msg 435 281 6, f 1;
#X msg 452 281 10, f 2;
#X obj 419 348 f;
#X obj 419 369 * 1, f 5;
#X obj 419 327 t b f;
#X obj 419 390 - 1;
#X obj 419 411 s \$0-nReps;
#X obj 188 194 r \$0-nReps;
#X obj 59 318 outlet;
#X obj 13 28 tgl 15 1 \$0-on/off_snd \$0-on/off_rec ON/OFF 17 7 0 10
-262144 -1 -1 0 1;
#X obj 137 149 r \$0-on/off_snd, f 9;
#X obj 59 247 spigot;
#X obj 137 225 == 1;
#X obj 104 247 spigot;
#X text 697 470 sjf \, SAE London \, 2020;
#X obj 68 221 == 0;
#X obj 329 112 inlet;
#X obj 329 131 s \$0-on/off_rec;
#X text 328 91 ON/OFF;
#X obj 199 325 outlet;
#X obj 370 410 outlet;
#X obj 716 131 s \$0-type_rec;
#X text 125 56 1/64;
#X connect 0 0 52 0;
#X connect 0 1 63 0;
#X connect 1 0 57 0;
#X connect 1 0 55 0;
#X connect 3 0 5 0;
#X connect 6 0 9 0;
#X connect 7 0 65 0;
#X connect 23 0 24 0;
#X connect 24 0 25 0;
#X connect 24 1 36 1;
#X connect 25 0 36 0;
#X connect 26 0 22 0;
#X connect 27 0 30 0;
#X connect 28 0 27 0;
#X connect 29 0 33 0;
#X connect 30 0 31 0;
#X connect 31 0 26 0;
#X connect 32 0 30 0;
#X connect 32 1 31 1;
#X connect 33 0 32 0;
#X connect 34 0 26 0;
#X connect 34 1 26 1;
#X connect 35 0 0 2;
#X connect 36 0 34 0;
#X connect 37 0 42 0;
#X connect 38 0 40 0;
#X connect 39 0 41 0;
#X connect 40 0 43 0;
#X connect 40 1 44 0;
#X connect 40 2 45 0;
#X connect 40 3 39 0;
#X connect 41 0 48 0;
#X connect 42 0 46 0;
#X connect 43 0 41 0;
#X connect 44 0 41 0;
#X connect 45 0 41 0;
#X connect 46 0 47 0;
#X connect 47 0 49 0;
#X connect 47 0 64 0;
#X connect 48 0 46 0;
#X connect 48 1 47 1;
#X connect 49 0 50 0;
#X connect 51 0 0 1;
#X connect 54 0 56 0;
#X connect 54 0 59 0;
#X connect 55 0 52 0;
#X connect 56 0 57 1;
#X connect 57 0 0 0;
#X connect 59 0 55 1;
#X connect 60 0 61 0;
#X coords 0 -1 1 1 200 60 1 10 10;
