#N canvas 0 23 1063 535 10;
#X obj 284 249 unpack;
#X obj 284 293 pack, f 6;
#X obj 317 270 *;
#X obj 196 122 r \$0-on/off_snd, f 9;
#X obj 78 196 spigot;
#X obj 216 170 == 1;
#X obj 164 213 spigot;
#X obj 147 166 == 0;
#X obj 19 29 tgl 15 1 \$0-on/off_snd \$0-on/off_rec ON/OFF 17 7 0 10
-262144 -1 -1 0 1;
#X obj 284 423 spigot;
#X obj 316 135 r \$0-on/off_snd, f 9;
#X obj 284 184 repeator_sjf;
#X obj 78 171 inlet;
#X obj 78 469 outlet;
#X obj 449 36 inlet;
#X text 448 15 BPM;
#X obj 449 55 s \$0-bpm;
#X obj 726 39 inlet;
#X text 726 18 division;
#X obj 726 58 s \$0-division_rec;
#X obj 168 12 cnv 15 90 56 empty empty empty 20 12 0 14 -233017 -66577
0;
#X obj 175 27 vradio 10 1 1 4 \$0-division_snd \$0-division_rec division
0 -8 0 10 -262144 -1 -1 3;
#X text 185 23 1/8;
#X text 185 34 1/16;
#X text 185 44 1/32;
#X obj 230 27 vradio 10 1 1 4 \$0-type_snd \$0-type_rec type 0 -8 0
10 -262144 -1 -1 2;
#X text 240 24 2s;
#X text 240 34 3s;
#X text 240 45 5s;
#X text 240 55 7s;
#X obj 338 36 inlet;
#X obj 338 55 s \$0-on/off_rec;
#X text 337 15 ON/OFF;
#X obj 432 102 r \$0-division_snd, f 11;
#X obj 511 129 r \$0-type_snd;
#X text 731 492 sjf \, SAE London \, 2020;
#X obj 271 27 vradio 10 1 1 2 \$0-roll_snd \$0-roll_rec roll 0 -8 0
10 -262144 -1 -1 0;
#X text 281 24 Dwn;
#X text 281 34 Up;
#X obj 380 163 r \$0-bpm;
#N canvas 0 23 450 300 rollTypeLogic 0;
#N canvas 0 23 450 300 rollDown 0;
#X obj 136 56 t b f;
#X obj 136 77 int, f 9;
#X obj 136 98 -;
#X obj 136 119 /, f 10;
#X obj 136 22 inlet;
#X obj 233 28 inlet;
#X obj 136 137 outlet;
#X connect 0 0 1 0;
#X connect 0 1 2 1;
#X connect 1 0 2 0;
#X connect 2 0 3 0;
#X connect 3 0 6 0;
#X connect 4 0 0 0;
#X connect 5 0 1 1;
#X connect 5 0 3 1;
#X restore 144 64 pd rollDown;
#X obj 144 92 spigot;
#X obj 260 89 == 1;
#X obj 227 115 spigot;
#X obj 195 93 == 0;
#X obj 293 65 r \$0-roll_snd;
#N canvas 0 23 450 300 rollUp 0;
#X obj 136 119 /, f 10;
#X obj 136 22 inlet;
#X obj 233 28 inlet;
#X obj 136 137 outlet;
#X obj 136 43 + 1;
#X floatatom 233 49 5 0 0 0 - - -;
#X connect 0 0 3 0;
#X connect 1 0 4 0;
#X connect 2 0 0 1;
#X connect 2 0 5 0;
#X connect 4 0 0 0;
#X restore 226 65 pd rollUp;
#X obj 190 234 outlet;
#X obj 146 8 inlet;
#X obj 224 8 inlet;
#X connect 0 0 1 0;
#X connect 1 0 7 0;
#X connect 2 0 3 1;
#X connect 3 0 7 0;
#X connect 4 0 1 1;
#X connect 5 0 2 0;
#X connect 5 0 4 0;
#X connect 6 0 3 0;
#X connect 8 0 0 0;
#X connect 8 0 6 0;
#X connect 9 0 6 1;
#X connect 9 0 0 1;
#X restore 380 281 pd rollTypeLogic;
#X obj 380 347 +;
#X obj 380 326 * 1;
#X obj 486 328 t b f;
#X msg 486 349 1;
#X obj 486 370 - 1, f 5;
#X obj 23 59 hsl 50 10 0 1 0 1 \$0-min_snd \$0-min_rec min -2 -8 0
10 -262144 -1 -1 1500 1;
#X floatatom 380 368 5 0 0 0 - - -;
#X obj 486 307 r \$0-min_snd;
#X obj 432 145 + 1;
#X obj 119 27 vradio 10 1 1 3 \$0-length_snd \$0-length_rec length
0 -8 0 10 -262144 -1 -1 2;
#X text 129 23 1/1;
#X text 129 34 1/2;
#X text 129 44 1/4;
#X text 185 54 1/64;
#N canvas 0 23 373 386 reps_logic 0;
#X obj 122 37 r \$0-division_snd, f 11;
#X obj 207 66 r \$0-type_snd;
#X msg 262 107 7, f 1;
#X obj 207 87 sel 0 1 2 3, f 12;
#X obj 207 133 int;
#X obj 122 107 expr pow(2 \, ($f1) ), f 13;
#X msg 207 107 4, f 1;
#X msg 223 107 6, f 1;
#X obj 207 174 f;
#X obj 207 195 * 1, f 5;
#X obj 207 153 t b f;
#X obj 207 258 f;
#X obj 207 279 * 1, f 5;
#X obj 207 237 t b f;
#X obj 98 173 r \$0-length_snd;
#X obj 99 214 expr pow(2 \, (-1 * $f1) ), f 13;
#X msg 240 107 5, f 2;
#X obj 122 80 + 1;
#X obj 207 302 outlet;
#X connect 0 0 17 0;
#X connect 1 0 3 0;
#X connect 2 0 4 0;
#X connect 3 0 6 0;
#X connect 3 1 7 0;
#X connect 3 2 16 0;
#X connect 3 3 2 0;
#X connect 4 0 10 0;
#X connect 5 0 8 0;
#X connect 6 0 4 0;
#X connect 7 0 4 0;
#X connect 8 0 9 0;
#X connect 9 0 13 0;
#X connect 10 0 8 0;
#X connect 10 1 9 1;
#X connect 11 0 12 0;
#X connect 12 0 18 0;
#X connect 13 0 11 0;
#X connect 13 1 12 1;
#X connect 14 0 15 0;
#X connect 15 0 11 0;
#X connect 16 0 4 0;
#X connect 17 0 5 0;
#X restore 469 260 pd reps_logic;
#X obj 616 38 inlet;
#X obj 616 57 s \$0-length_rec;
#X text 616 17 length;
#X obj 836 39 inlet;
#X obj 836 58 s \$0-type_rec;
#X text 836 18 type;
#X obj 925 40 inlet;
#X obj 925 59 s \$0-roll_rec;
#X text 925 19 roll;
#X obj 521 38 inlet;
#X text 521 17 min;
#X obj 521 57 s \$0-min_rec;
#X connect 0 0 1 0;
#X connect 0 1 2 0;
#X connect 1 0 9 0;
#X connect 2 0 1 1;
#X connect 3 0 5 0;
#X connect 3 0 7 0;
#X connect 4 0 13 0;
#X connect 5 0 6 1;
#X connect 5 0 9 1;
#X connect 6 0 11 0;
#X connect 7 0 4 1;
#X connect 9 0 13 0;
#X connect 10 0 11 1;
#X connect 11 0 0 0;
#X connect 11 1 40 0;
#X connect 12 0 4 0;
#X connect 12 0 6 0;
#X connect 14 0 16 0;
#X connect 17 0 19 0;
#X connect 30 0 31 0;
#X connect 33 0 49 0;
#X connect 34 0 11 4;
#X connect 39 0 11 2;
#X connect 40 0 42 0;
#X connect 41 0 47 0;
#X connect 41 0 2 1;
#X connect 42 0 41 0;
#X connect 43 0 44 0;
#X connect 43 1 45 1;
#X connect 44 0 45 0;
#X connect 45 0 42 1;
#X connect 48 0 43 0;
#X connect 48 0 41 1;
#X connect 49 0 11 3;
#X connect 55 0 40 1;
#X connect 56 0 57 0;
#X connect 59 0 60 0;
#X connect 62 0 63 0;
#X connect 65 0 67 0;
#X coords 0 -1 1 1 300 60 1 10 10;
