#N canvas 269 110 630 450 12;
#X obj 343 19 bng 16 250 50 0 empty empty empty 0 -8 0 10 #fcfcfc #000000 #000000;
#X obj 343 37 openpanel;
#X obj 343 104 soundfiler;
#X floatatom 343 176 13 0 0 0 - - - 0;
#N canvas 0 22 450 278 (subpatch) 0;
#X array \$0-sample 6.3504e+06 float 2;
#X coords 0 1 6.3504e+06 -1 120 65 1 0 0;
#X restore 10 42 graph;
#X obj 343 196 expr 1/$f1;
#X floatatom 343 217 13 0 0 0 - - - 0;
#X obj 343 320 phasor~;
#X obj 343 155 / 44100;
#X obj 343 348 *~ 1, f 19;
#X floatatom 343 125 5 0 0 0 - - - 0;
#X obj 343 61 pack s \$0;
#X msg 343 83 read -resize \$1 \$2-sample;
#X obj 343 369 tabread4~ \$0-sample;
#X obj 343 393 *~, f 25;
#X obj 343 417 outlet~;
#X obj 343 290 *;
#X obj 131 42 bng 19 250 50 0 \$0-load empty load 20 10 0 12 #fcfcfc #000000 #000000;
#X obj 363 14 r \$0-load;
#X obj 131 61 tgl 19 0 \$0-play empty play 20 10 0 12 #fcfcfc #000000 #000000 0 1;
#X obj 441 220 r \$0-play;
#X obj 441 244 t b f;
#X obj 13 108 hsl 162 19 0 1 0 0 \$0-vol empty volume 10 10 0 12 #fcfcfc #000000 #000000 0 1;
#X obj 509 310 r \$0-vol;
#X obj 509 334 pack 0 5;
#X obj 509 358 line~;
#X connect 0 0 1 0;
#X connect 1 0 11 0;
#X connect 2 0 10 0;
#X connect 3 0 5 0;
#X connect 5 0 6 0;
#X connect 6 0 16 0;
#X connect 7 0 9 0;
#X connect 8 0 3 0;
#X connect 9 0 13 0;
#X connect 10 0 8 0;
#X connect 10 0 9 1;
#X connect 11 0 12 0;
#X connect 12 0 2 0;
#X connect 13 0 14 0;
#X connect 14 0 15 0;
#X connect 16 0 7 0;
#X connect 18 0 0 0;
#X connect 20 0 21 0;
#X connect 21 0 16 0;
#X connect 21 1 16 1;
#X connect 23 0 24 0;
#X connect 24 0 25 0;
#X connect 25 0 14 1;
#X coords 0 -1 1 1 170 130 1 10 10;
