#N canvas 0 23 822 447 10;
#X obj 504 199 array size \$1;
#N canvas 416 313 656 428 write_inversion 0;
#X obj 37 141 sel 0, f 22;
#X msg 37 162 0, f 1;
#X obj 37 183 t f f, f 12;
#X obj 37 243 pack, f 12;
#X obj 37 351 tabwrite \$0-inversion;
#X obj 141 252 -;
#X obj 141 273 * -1;
#X obj 141 294 +;
#X obj 141 315 pack, f 21;
#X obj 141 161 t f b f, f 21;
#X msg 214 190 0;
#X obj 214 224 tabread \$1, f 7;
#X obj 37 224 tabread \$1;
#X obj 141 224 tabread \$1;
#X obj 37 112 uzi_sjf, f 12;
#X obj 37 36 inlet;
#X text 31 16 number of values;
#X obj 179 113 array size \$0-inversion;
#X obj 316 170 inlet;
#X text 302 151 array name;
#X msg 316 191 set \$1;
#X obj 37 57 t b f f, f 24;
#X connect 0 0 1 0;
#X connect 0 1 9 0;
#X connect 1 0 2 0;
#X connect 2 0 12 0;
#X connect 2 1 3 1;
#X connect 3 0 4 0;
#X connect 5 0 6 0;
#X connect 6 0 7 0;
#X connect 7 0 8 0;
#X connect 8 0 4 0;
#X connect 9 0 13 0;
#X connect 9 1 10 0;
#X connect 9 2 8 1;
#X connect 10 0 11 0;
#X connect 11 0 5 1;
#X connect 11 0 7 1;
#X connect 12 0 3 0;
#X connect 13 0 5 0;
#X connect 14 2 0 0;
#X connect 15 0 21 0;
#X connect 18 0 20 0;
#X connect 20 0 11 0;
#X connect 20 0 13 0;
#X connect 20 0 12 0;
#X connect 21 0 14 0;
#X connect 21 1 14 1;
#X connect 21 2 17 0;
#X restore 555 247 pd write_inversion;
#X f 15;
#X obj 496 28 array define \$0-inversion;
#X text 27 2 this patch generates inversion \, retrograde and retrograde
inversion of any array;
#X obj 50 162 inlet;
#X obj 50 183 int;
#X obj 50 213 %, f 8;
#X obj 292 330 tabread \$0-inversion;
#X obj 292 352 outlet;
#X obj 184 352 outlet;
#X obj 50 352 outlet;
#X text 177 368 retrograde;
#X text 280 368 inversion;
#X obj 504 154 inlet;
#X text 470 135 name of array to reference;
#X obj 657 199 symbol;
#X text 31 26 it expects 1 argument --> the name of the EXTERNAL array
to create inversion and retrograde of;
#X obj 50 330 tabread \$0-inversion;
#X text 32 368 retrogradeInversion;
#X msg 184 301 set \$1;
#X obj 680 172 bng 15 250 50 0 empty empty empty 17 7 0 10 -262144
-1 -1;
#X obj 184 330 tabread \$1;
#N canvas 0 23 287 226 reverser 0;
#X obj 97 111 int, f 11;
#X obj 97 83 t b f;
#X obj 97 134 -, f 5;
#X obj 95 46 inlet;
#X obj 167 51 inlet;
#X text 162 23 total steps;
#X text 67 21 current step;
#X obj 97 155 outlet;
#X obj 167 72 - 1;
#X connect 0 0 2 0;
#X connect 1 0 0 0;
#X connect 1 1 2 1;
#X connect 2 0 7 0;
#X connect 3 0 1 0;
#X connect 4 0 8 0;
#X connect 8 0 0 1;
#X restore 50 279 pd reverser;
#X text 30 139 step/index to output;
#X obj 50 235 t f f, f 41;
#X text 31 62 I store the inversion to a dedicated array \, but both
retrogrades are achieved by simply reading the arrays backwards;
#X text 619 404 sjf \, SAE London \, 2020;
#X obj 657 247 s \$0-arrayName;
#X obj 184 282 r \$0-arrayName;
#X obj 468 247 s \$0-nIndices;
#X obj 91 183 r \$0-nIndices;
#X obj 113 257 r \$0-nIndices;
#X obj 504 175 t b a, f 26;
#X connect 0 0 1 0;
#X connect 0 0 29 0;
#X connect 4 0 5 0;
#X connect 5 0 6 0;
#X connect 6 0 24 0;
#X connect 7 0 8 0;
#X connect 13 0 32 0;
#X connect 15 0 1 1;
#X connect 15 0 0 1;
#X connect 15 0 27 0;
#X connect 17 0 10 0;
#X connect 19 0 21 0;
#X connect 20 0 15 0;
#X connect 21 0 9 0;
#X connect 22 0 21 0;
#X connect 22 0 17 0;
#X connect 24 0 22 0;
#X connect 24 1 7 0;
#X connect 28 0 19 0;
#X connect 30 0 6 1;
#X connect 31 0 22 1;
#X connect 32 0 0 0;
#X connect 32 1 15 0;
