#N canvas 0 23 450 300 10;
#X obj 103 143 tgl 15 0 empty empty empty 17 7 0 10 -262144 -1 -1 1
1;
#X obj 89 164 metro 50;
#X obj 89 185 snapshot~;
#X floatatom 122 143 10 0 0 0 - - -;
#X obj 40 87 inlet~;
#X connect 0 0 1 0;
#X connect 1 0 2 0;
#X connect 2 0 3 0;
#X connect 4 0 2 0;
#X coords 0 -1 1 1 85 60 1 100 100;
