#N canvas 0 23 925 402 10;
#X obj 52 22 inlet~;
#X obj 52 207 outlet~;
#X obj 313 207 outlet~;
#X obj 313 110 monoDel_sjf~ 1000 375;
#X obj 52 110 monoDel_sjf~ 1000 250;
#X obj 599 33 snapshot~;
#X obj 599 54 + 1;
#X obj 797 26 tgl 15 0 empty empty empty 17 7 0 10 -262144 -1 -1 1
1;
#X obj 797 46 metro 50;
#X obj 668 167 snapshot~;
#X obj 668 209 + 250;
#X obj 668 188 * 50;
#X obj 749 166 snapshot~;
#X obj 749 187 * 50;
#X obj 749 208 + 375;
#X obj 599 96 + 0.5;
#X obj 599 12 osc~ 0.05;
#X obj 667 146 osc~ 0.075;
#X obj 749 145 osc~ 0.076;
#X obj 599 75 * 0.125;
#X connect 0 0 3 0;
#X connect 0 0 4 0;
#X connect 3 0 2 0;
#X connect 4 0 1 0;
#X connect 5 0 6 0;
#X connect 6 0 19 0;
#X connect 7 0 8 0;
#X connect 8 0 5 0;
#X connect 8 0 9 0;
#X connect 8 0 12 0;
#X connect 9 0 11 0;
#X connect 10 0 4 1;
#X connect 11 0 10 0;
#X connect 12 0 13 0;
#X connect 13 0 14 0;
#X connect 14 0 3 1;
#X connect 15 0 4 4;
#X connect 15 0 3 4;
#X connect 16 0 5 0;
#X connect 17 0 9 0;
#X connect 18 0 12 0;
#X connect 19 0 15 0;
