#N canvas -1186 581 880 746 10;
#X obj 134 106 inlet;
#X obj 101 295 outlet;
#X obj 208 382 hradio 16 1 0 16 empty \$0-currentBeat empty 0 -8 0
10 -1 -258113 -1 15;
#X obj 379 124 inlet;
#X obj 134 133 t f f f;
#X obj 102 269 pack, f 18;
#X obj 102 183 tabread \$0-pitch;
#X obj 510 121 inlet;
#X text 66 380 "currentBeat" ---->;
#X obj 207 184 tabread \$0-velocity;
#X obj 213 159 s \$0-currentBeat;
#X obj 102 244 +;
#X obj 126 237 * 12;
#X obj 126 206 r \$0-octave;
#X obj 208 670 hradio 15 1 0 8 \$0-octave \$0-octave_rec octave 0 -8
0 10 -262144 -1 -1 3;
#X obj 661 99 inlet;
#X obj 661 121 int;
#X obj 661 162 s \$0-octave_rec;
#X text 706 680 sjf \, SAE London \, 2020;
#X obj 379 146 tabwrite \$0-pitch;
#X obj 510 144 tabwrite \$0-velocity;
#X obj 703 110 loadbang;
#X obj 207 432 cnv 7 260 7 empty empty empty 20 12 0 14 -203904 -66577
0;
#X obj 207 440 cnv 7 260 7 empty empty empty 20 12 0 14 -228856 -66577
0;
#X obj 207 424 cnv 7 260 7 empty empty empty 20 12 0 14 -228856 -66577
0;
#X obj 207 448 cnv 7 260 7 empty empty empty 20 12 0 14 -203904 -66577
0;
#X obj 207 456 cnv 7 260 7 empty empty empty 20 12 0 14 -228856 -66577
0;
#X obj 207 464 cnv 7 260 7 empty empty empty 20 12 0 14 -203904 -66577
0;
#X obj 207 472 cnv 7 260 7 empty empty empty 20 12 0 14 -228856 -66577
0;
#X obj 207 479 cnv 7 260 7 empty empty empty 20 12 0 14 -228856 -66577
0;
#X obj 207 487 cnv 7 260 7 empty empty empty 20 12 0 14 -203904 -66577
0;
#X obj 207 495 cnv 7 260 7 empty empty empty 20 12 0 14 -228856 -66577
0;
#X obj 207 503 cnv 7 260 7 empty empty empty 20 12 0 14 -203904 -66577
0;
#X obj 207 511 cnv 7 260 7 empty empty empty 20 12 0 14 -228856 -66577
0;
#X obj 207 526 cnv 7 260 7 empty empty empty 20 12 0 14 -203904 -66577
0;
#X obj 207 534 cnv 7 260 7 empty empty empty 20 12 0 14 -228856 -66577
0;
#X obj 207 518 cnv 7 260 7 empty empty empty 20 12 0 14 -228856 -66577
0;
#X obj 207 542 cnv 7 260 7 empty empty empty 20 12 0 14 -203904 -66577
0;
#X obj 207 550 cnv 7 260 7 empty empty empty 20 12 0 14 -228856 -66577
0;
#X obj 207 558 cnv 7 260 7 empty empty empty 20 12 0 14 -203904 -66577
0;
#X obj 207 566 cnv 7 260 7 empty empty empty 20 12 0 14 -228856 -66577
0;
#X obj 207 573 cnv 7 260 7 empty empty empty 20 12 0 14 -228856 -66577
0;
#X obj 207 581 cnv 7 260 7 empty empty empty 20 12 0 14 -203904 -66577
0;
#X obj 207 589 cnv 7 260 7 empty empty empty 20 12 0 14 -228856 -66577
0;
#X obj 207 597 cnv 7 260 7 empty empty empty 20 12 0 14 -203904 -66577
0;
#X obj 207 605 cnv 7 260 7 empty empty empty 20 12 0 14 -228856 -66577
0;
#N canvas 0 22 450 278 (subpatch) 0;
#X array \$0-pitch 16 float 3;
#A 0 16.5474 14.5263 12.6316 14.4 16.5474 16.5474 16.5474 16.4211 14.5263
14.5263 14.5263 14.5263 12.6316 19.2 19.2 19.2;
#X coords 0 24 16 0 260 190 1 0 0;
#X restore 207 423 graph;
#X text 206 470 -------------------------------------------;
#X text 206 509 -------------------------------------------;
#X text 205 565 -------------------------------------------;
#X text -1 446 I just used "cavas" objects to;
#X text 9 459 make the piano keys;
#X text 7 479 Put >> Canvas;
#X obj 207 626 cnv 15 260 30 empty empty empty 20 12 0 14 -204800 -66577
0;
#N canvas 0 22 450 278 (subpatch) 0;
#X array \$0-velocity 16 float 3;
#A 0 101 76.2 67.7333 63.5002 93.1333 93.1333 93.1333 -16.9344 65 65
80 0 101 100 96 0;
#X coords 0 127 16 0 260 30 1 0 0;
#X restore 207 626 graph;
#X text 16 3 This patch expands on our previous sequencer \, notice
how I've used `\$0' arguments in send/receive/array names - this makes
PD give each copy of the object a unique name \, and means I can use
multiple copies without messages getting transfered between them;
#N canvas 0 23 450 300 onlyGreaterThan0 0;
#X obj 37 37 inlet;
#X obj 37 62 t f f;
#X obj 64 86 > 0;
#X obj 37 128 *;
#X text 91 20 I wanted to make sure we don't get any velocities below
0 when changing the array;
#X text 95 83 First I check if my value is greater than 0;
#X text 95 97 If so I get 1 \, if not 0;
#X text 63 128 X * 1 == X;
#X text 63 144 X * 0 == 0;
#X obj 37 161 outlet;
#X connect 0 0 1 0;
#X connect 1 0 3 0;
#X connect 1 1 2 0;
#X connect 2 0 3 1;
#X connect 3 0 9 0;
#X restore 207 205 pd onlyGreaterThan0;
#X msg 703 131 3;
#X text 653 82 Octave;
#X text 497 80 MIDI Velocity;
#X text 362 82 MIDI Pitch;
#X text 111 88 current beat;
#X text 347 97 (to write pattern);
#X text 482 95 (to write pattern);
#N canvas 0 23 450 300 4thefuture 0;
#X text 68 232 We can resize our array like this;
#X obj 73 213 array size \$0-pitch;
#X obj 204 212 array size \$0-velocity;
#X floatatom 185 254 5 4 32 0 steps #0-steps_rec #0-steps_snd;
#X msg 121 74 set 16;
#X obj 190 107 s \$0-steps_rec;
#X obj 148 174 r \$0-steps_snd;
#X obj 205 37 inlet;
#X obj 205 59 int;
#X text 177 21 number of steps;
#X connect 4 0 5 0;
#X connect 6 0 1 0;
#X connect 6 0 2 0;
#X connect 7 0 8 0;
#X connect 8 0 5 0;
#X restore 727 554 pd 4thefuture;
#X obj 644 349 loadbang;
#X obj 644 370 int \$0;
#X obj 644 391 outlet;
#X text 622 412 output unique identifier;
#X obj 704 349 bng 15 250 50 0 empty empty empty 17 7 0 10 -262144
-1 -1;
#X connect 0 0 4 0;
#X connect 3 0 19 0;
#X connect 4 0 6 0;
#X connect 4 1 9 0;
#X connect 4 2 10 0;
#X connect 5 0 1 0;
#X connect 6 0 11 0;
#X connect 7 0 20 0;
#X connect 9 0 56 0;
#X connect 11 0 5 0;
#X connect 12 0 11 1;
#X connect 13 0 12 0;
#X connect 15 0 16 0;
#X connect 16 0 17 0;
#X connect 21 0 57 0;
#X connect 56 0 5 1;
#X connect 57 0 17 0;
#X connect 65 0 66 0;
#X connect 66 0 67 0;
#X connect 69 0 66 0;
#X coords 0 -1 1 1 280 330 1 200 360;
