#N canvas -1054 581 507 306 10;
#X floatatom 259 142 5 0 0 0 semitone_shift - -;
#X floatatom 259 183 5 0 0 0 multiplication_factor - -;
#X obj 259 207 t b f;
#X obj 121 231 *, f 28;
#X floatatom 121 257 5 0 0 0 - - -;
#X floatatom 121 142 5 0 0 0 frequency - -;
#X obj 121 49 inlet;
#X obj 259 49 inlet;
#X text 255 29 shift;
#X text 110 29 frequency;
#X obj 259 162 expr pow(2 \, $f1/$f2);
#X obj 349 49 inlet;
#X obj 349 119 sel 0;
#X obj 349 70 f \$1;
#X msg 349 142 12, f 2;
#X text 345 29 # divisions;
#X obj 121 277 outlet;
#X text 279 275 sjf \, SAE London \, 2020;
#X floatatom 349 91 5 0 0 0 - - -;
#X obj 386 49 loadbang;
#X connect 0 0 10 0;
#X connect 1 0 2 0;
#X connect 2 0 3 0;
#X connect 2 1 3 1;
#X connect 3 0 4 0;
#X connect 4 0 16 0;
#X connect 5 0 3 0;
#X connect 6 0 5 0;
#X connect 7 0 0 0;
#X connect 10 0 1 0;
#X connect 11 0 13 0;
#X connect 12 0 14 0;
#X connect 12 1 10 1;
#X connect 13 0 18 0;
#X connect 14 0 10 1;
#X connect 18 0 12 0;
#X connect 19 0 13 0;
