#N canvas 0 23 573 357 10;
#X obj 111 122 *~, f 20;
#X msg 302 65 \$1 50;
#X obj 302 87 vline~;
#X obj 305 53 hsl 60 10 0 1 0 0 empty empty volume -2 -8 0 10 -262144
-1 -1 0 1;
#X obj 119 52 inlet~;
#X obj 129 171 outlet~;
#X obj 305 9 inlet;
#X text 320 168 sjf \, SAE London \, \, 2020;
#X obj 350 117 outlet~;
#X obj 198 149 *~, f 20;
#X obj 206 79 inlet~;
#X obj 216 198 outlet~;
#X connect 0 0 5 0;
#X connect 1 0 2 0;
#X connect 2 0 0 1;
#X connect 2 0 8 0;
#X connect 2 0 9 1;
#X connect 3 0 1 0;
#X connect 4 0 0 0;
#X connect 6 0 3 0;
#X connect 9 0 11 0;
#X connect 10 0 9 0;
#X coords 0 -1 1 1 70 35 1 300 30;
