#N canvas 0 25 1319 706 12;
#X obj 225 484 fexpr~ $x1[0] + $x2[0] * ( $y1[-1] - $x1[0] ), f 52;
#X floatatom 271 279 5 0 0 0 - - - 0;
#X floatatom 669 328 5 0 0 0 - - - 0;
#X obj 987 125 inlet;
#X obj 987 150 unpack 0 0 0;
#X obj 844 298 +;
#X obj 844 322 +, f 13;
#X floatatom 844 346 5 0 0 0 - - - 0;
#X obj 738 125 inlet~;
#X obj 844 371 * 0.001, f 13;
#X obj 739 404 expr~ pow(10 \, (-3*$f2/($v1)));
#X text 729 77 size scale;
#X text 886 347 total delayTime ms;
#X obj 290 523 *~, f 74;
#X floatatom 89 275 12 0 0 0 - - - 0;
#X obj 225 125 inlet~;
#N canvas 92 117 450 300 mod 0;
#X obj 163 38 inlet~;
#X obj 74 71 sig~;
#X obj 62 142 +~;
#X obj 123 124 *~;
#X obj 75 40 inlet;
#X obj 62 166 outlet~;
#X connect 0 0 3 1;
#X connect 1 0 2 0;
#X connect 1 0 3 0;
#X connect 2 0 5 0;
#X connect 3 0 2 1;
#X connect 4 0 1 0;
#X restore 271 311 pd mod;
#X f 9;
#X text 215 77 signal in;
#X obj 325 125 inlet~;
#X text 315 77 modulation in;
#X obj 444 125 inlet~;
#X text 441 77 diffusion;
#X obj 579 125 inlet~;
#X text 570 77 damping;
#X text 528 595 allpass -->allpass-->(filter)-->delay \; Keith Barr "reverb unit" \; http://www.spinsemi.com/knowledge_base/effects.html#Reverberation;
#X obj 225 350 ../../filters/allpass1mult_sjf~ 1307 29 0.7, f 29;
#X obj 225 429 ../../filters/allpass1mult_sjf~ 1433 32 0.7, f 48;
#X text 938 77 delayTimes Samps(dt1 \, dt2 \, dt3);
#N canvas 121 146 450 300 convertToMS 0;
#X obj 80 27 inlet;
#X obj 80 56 t f b;
#X obj 114 83 samplerate~;
#X obj 114 107 * 0.001;
#X obj 114 131 t b f;
#X obj 80 178 /;
#X obj 80 202 outlet;
#X connect 0 0 1 0;
#X connect 1 0 5 0;
#X connect 1 1 2 0;
#X connect 2 0 3 0;
#X connect 3 0 4 0;
#X connect 4 0 5 0;
#X connect 4 1 5 1;
#X connect 5 0 6 0;
#X restore 1148 189 pd convertToMS;
#N canvas 121 146 450 300 convertToMS 0;
#X obj 80 27 inlet;
#X obj 80 56 t f b;
#X obj 114 83 samplerate~;
#X obj 114 107 * 0.001;
#X obj 114 131 t b f;
#X obj 80 178 /;
#X obj 80 202 outlet;
#X connect 0 0 1 0;
#X connect 1 0 5 0;
#X connect 1 1 2 0;
#X connect 2 0 3 0;
#X connect 3 0 4 0;
#X connect 4 0 5 0;
#X connect 4 1 5 1;
#X connect 5 0 6 0;
#X restore 1040 189 pd convertToMS;
#N canvas 121 146 450 300 convertToMS 0;
#X obj 80 27 inlet;
#X obj 80 56 t f b;
#X obj 114 83 samplerate~;
#X obj 114 107 * 0.001;
#X obj 114 131 t b f;
#X obj 80 178 /;
#X obj 80 202 outlet;
#X connect 0 0 1 0;
#X connect 1 0 5 0;
#X connect 1 1 2 0;
#X connect 2 0 3 0;
#X connect 3 0 4 0;
#X connect 4 0 5 0;
#X connect 4 1 5 1;
#X connect 5 0 6 0;
#X restore 906 189 pd convertToMS;
#X obj 225 627 outlet~;
#X obj 293 567 delwrite~ \$1 1000;
#X text 1079 479 \$1 - name of this delay line \; \$2 - name of previous delay line;
#X obj 89 315 delread~ \$2, f 12;
#X obj 1090 383 inlet;
#X text 1086 351 freeze;
#X obj 739 428 *~ 1;
#X obj 989 406 == 0;
#X obj 1090 407 sig~;
#X connect 0 0 13 0;
#X connect 0 0 31 0;
#X connect 1 0 16 0;
#X connect 2 0 26 1;
#X connect 3 0 4 0;
#X connect 4 0 30 0;
#X connect 4 1 29 0;
#X connect 4 2 28 0;
#X connect 5 0 6 0;
#X connect 6 0 7 0;
#X connect 7 0 9 0;
#X connect 8 0 10 0;
#X connect 9 0 10 1;
#X connect 10 0 37 0;
#X connect 13 0 32 0;
#X connect 14 0 34 0;
#X connect 15 0 25 0;
#X connect 16 0 25 1;
#X connect 18 0 16 1;
#X connect 20 0 25 2;
#X connect 20 0 26 2;
#X connect 22 0 0 1;
#X connect 25 0 26 0;
#X connect 26 0 0 0;
#X connect 28 0 2 0;
#X connect 28 0 6 1;
#X connect 29 0 1 0;
#X connect 29 0 5 1;
#X connect 30 0 5 0;
#X connect 30 0 14 0;
#X connect 34 0 25 0;
#X connect 35 0 38 0;
#X connect 35 0 39 0;
#X connect 37 0 13 1;
#X connect 38 0 37 1;
#X connect 39 0 13 1;
