#N canvas 0 25 1345 819 12;
#X obj 225 624 fexpr~ $x1[0] + $x2[0] * ( $y1[-1] - $x1[0] ), f 52;
#X floatatom 1085 251 5 0 0 0 ap1\ dt - \$0-ap1DT 0;
#X floatatom 1216 251 5 0 0 0 ap2\ dt - \$0-ap2DT 0;
#X obj 987 125 inlet;
#X obj 987 150 unpack 0 0 0;
#X obj 844 298 +, f 21;
#X obj 844 322 +, f 45;
#X floatatom 844 346 5 0 0 0 - - - 0;
#X obj 738 125 inlet~;
#X obj 845 377 * 0.001, f 13;
#X obj 740 410 expr~ pow(10 \, (-3*$f2/($v1)));
#X text 729 77 size scale;
#X text 886 347 total delayTime ms;
#X obj 279 660 *~, f 98;
#X floatatom 907 249 12 0 0 0 DT\ from\ last\ stage - \$0-lastStageDT 0;
#X obj 225 125 inlet~;
#X text 215 77 signal in;
#X obj 325 125 inlet~;
#X text 315 77 modulation in;
#X obj 444 125 inlet~;
#X text 441 77 diffusion;
#X obj 579 125 inlet~;
#X text 570 77 damping;
#X text 528 685 allpass -->allpass-->(filter)-->delay \; Keith Barr "reverb unit" \; http://www.spinsemi.com/knowledge_base/effects.html#Reverberation;
#X obj 170 399 ../../filters/allpass1mult_sjf~ 1307 29 0.7, f 29;
#X obj 225 569 ../../filters/allpass1mult_sjf~ 1433 32 0.7, f 48;
#X text 938 77 delayTimes Samps(dt1 \, dt2 \, dt3);
#N canvas 121 146 450 300 convertToMS 0;
#X obj 80 27 inlet;
#X obj 80 56 t f b;
#X obj 114 83 samplerate~;
#X obj 114 107 * 0.001;
#X obj 114 131 t b f;
#X obj 80 178 /;
#X obj 80 202 outlet;
#X connect 0 0 1 0;
#X connect 1 0 5 0;
#X connect 1 1 2 0;
#X connect 2 0 3 0;
#X connect 3 0 4 0;
#X connect 4 0 5 0;
#X connect 4 1 5 1;
#X connect 5 0 6 0;
#X restore 1148 189 pd convertToMS;
#N canvas 121 146 450 300 convertToMS 0;
#X obj 80 27 inlet;
#X obj 80 56 t f b;
#X obj 114 83 samplerate~;
#X obj 114 107 * 0.001;
#X obj 114 131 t b f;
#X obj 80 178 /;
#X obj 80 202 outlet;
#X connect 0 0 1 0;
#X connect 1 0 5 0;
#X connect 1 1 2 0;
#X connect 2 0 3 0;
#X connect 3 0 4 0;
#X connect 4 0 5 0;
#X connect 4 1 5 1;
#X connect 5 0 6 0;
#X restore 1040 189 pd convertToMS;
#N canvas 121 146 450 300 convertToMS 0;
#X obj 80 27 inlet;
#X obj 80 56 t f b;
#X obj 114 83 samplerate~;
#X obj 114 107 * 0.001;
#X obj 114 131 t b f;
#X obj 80 178 /;
#X obj 80 202 outlet;
#X connect 0 0 1 0;
#X connect 1 0 5 0;
#X connect 1 1 2 0;
#X connect 2 0 3 0;
#X connect 3 0 4 0;
#X connect 4 0 5 0;
#X connect 4 1 5 1;
#X connect 5 0 6 0;
#X restore 906 189 pd convertToMS;
#X obj 214 764 outlet~;
#X obj 279 694 delwrite~ \$1 1000;
#X text 1079 569 \$1 - name of this delay line \; \$2 - name of previous delay line;
#X obj 1090 473 inlet;
#X text 1086 351 freeze;
#X obj 739 548 *~ 1, f 36;
#X obj 989 526 == 0;
#X obj 1090 497 sig~;
#X obj 163 365 +~;
#X obj 45 141 r \$0-lastStageDT;
#X obj 249 183 r \$0-ap1DT;
#X obj 300 452 r \$0-ap2DT;
#X obj 444 149 s~ \$0-diffusion;
#X obj 444 387 r~ \$0-diffusion;
#X obj 574 159 s~ \$0-damping;
#X obj 597 557 r~ \$0-damping;
#X obj 249 293 ../mod_sjf~;
#X obj 249 207 sig~;
#X obj 251 531 ../mod_sjf~;
#X obj 251 455 sig~;
#X obj 50 187 sig~;
#X obj 49 315 vd~ \$2;
#X obj 718 452 fexpr~ $y1[-1] + 0.000142455 * ( $x1[0] - $y1[-1] );
#X obj 251 501 fexpr~ $y1[-1] + 0.000142455 * ( $x1[0] - $y1[-1] );
#X obj 50 233 fexpr~ $y1[-1] + 0.000142455 * ( $x1[0] - $y1[-1] );
#X obj 249 263 fexpr~ $y1[-1] + 0.000142455 * ( $x1[0] - $y1[-1] );
#X connect 0 0 13 0;
#X connect 0 0 30 0;
#X connect 3 0 4 0;
#X connect 4 0 29 0;
#X connect 4 1 28 0;
#X connect 4 2 27 0;
#X connect 5 0 6 0;
#X connect 6 0 7 0;
#X connect 7 0 9 0;
#X connect 8 0 10 0;
#X connect 9 0 10 1;
#X connect 10 0 52 0;
#X connect 13 0 31 0;
#X connect 15 0 38 1;
#X connect 17 0 46 1;
#X connect 17 0 48 1;
#X connect 19 0 42 0;
#X connect 21 0 44 0;
#X connect 24 0 25 0;
#X connect 25 0 0 0;
#X connect 27 0 2 0;
#X connect 27 0 6 1;
#X connect 28 0 1 0;
#X connect 28 0 5 1;
#X connect 29 0 5 0;
#X connect 29 0 14 0;
#X connect 33 0 36 0;
#X connect 33 0 37 0;
#X connect 35 0 13 1;
#X connect 36 0 35 1;
#X connect 37 0 13 1;
#X connect 38 0 24 0;
#X connect 39 0 50 0;
#X connect 40 0 47 0;
#X connect 41 0 49 0;
#X connect 43 0 24 2;
#X connect 43 0 25 2;
#X connect 45 0 0 1;
#X connect 46 0 24 1;
#X connect 47 0 55 0;
#X connect 48 0 25 1;
#X connect 49 0 53 0;
#X connect 50 0 54 0;
#X connect 51 0 38 0;
#X connect 52 0 35 0;
#X connect 53 0 48 0;
#X connect 54 0 51 0;
#X connect 55 0 46 0;
