#N canvas 564 233 716 488 12;
#X obj 60 26 inlet~;
#X obj 151 221 delread~ \$0-glDiffuse;
#X obj 60 50 delwrite~ \$0-glDiffuse \$3;
#X obj 151 94 r \$2-glDTChange;
#X obj 151 118 t b;
#X obj 151 142 \$1;
#X floatatom 151 190 5 0 0 0 - - - 0;
#X obj 151 405 outlet~;
#X obj 416 128 loadbang;
#X obj 407 187 \$1;
#X obj 408 227 +;
#X obj 399 293 ../../primeCheck_sjf;
#X floatatom 399 317 5 0 0 0 - - - 0;
#X obj 151 373 expr~ if($f2==1 \, -$v1 \, $v1);
#X text 354 377 flip polarity if voice number is a prime number;
#X obj 416 152 t b b b;
#X obj 312 129 r \$2-nVoices;
#X obj 311 293 *, f 6;
#X obj 312 153 sel 0;
#X obj 312 177 8;
#X floatatom 312 201 5 0 0 0 - - - 0;
#X obj 312 224 t f b;
#X obj 334 258 \$4;
#X floatatom 311 317 5 0 0 0 - - - 0;
#X text 304 27 \$1 - voice num \; \$2 - parent unique id \; \$3 - max delayTime \; \$4 - stage \; \$5 - array of delayTimes;
#X obj 151 166 tabread \$5;
#X obj 463 212 s \$2-voiceNum;
#X floatatom 461 243 5 0 0 0 - - - 0;
#N canvas 121 146 450 353 calculateNewBlockSize 0;
#X obj 37 37 inlet;
#X obj 37 122 * 44.1;
#X obj 37 146 int;
#X obj 37 170 + 1;
#X floatatom 37 194 5 0 0 0 - - - 0;
#X floatatom 37 243 5 0 0 0 - - - 0;
#X text 85 243 new block size;
#X obj 37 217 expr if($f1>=64 \, 64 \, pow(2 \, int(log10($f1)/log10(2))));
#X obj 37 299 outlet;
#X msg 37 275 set \$1 1 1 \, 1;
#X connect 0 0 1 0;
#X connect 1 0 2 0;
#X connect 2 0 3 0;
#X connect 3 0 4 0;
#X connect 4 0 7 0;
#X connect 5 0 9 0;
#X connect 7 0 5 0;
#X connect 9 0 8 0;
#X restore 22 253 pd calculateNewBlockSize;
#X obj 6 313 switch~;
#X msg 22 277 64 1 1;
#X text 443 265 skip 0 1 & 2;
#X obj 406 256 + 2;
#X connect 0 0 2 0;
#X connect 1 0 13 0;
#X connect 3 0 4 0;
#X connect 4 0 5 0;
#X connect 5 0 25 0;
#X connect 6 0 1 0;
#X connect 6 0 28 0;
#X connect 8 0 15 0;
#X connect 9 0 10 1;
#X connect 9 0 26 0;
#X connect 10 0 27 0;
#X connect 10 0 32 0;
#X connect 11 0 12 0;
#X connect 12 0 13 1;
#X connect 13 0 7 0;
#X connect 15 0 9 0;
#X connect 16 0 18 0;
#X connect 17 0 23 0;
#X connect 18 0 19 0;
#X connect 18 1 20 0;
#X connect 19 0 20 0;
#X connect 20 0 21 0;
#X connect 21 0 17 0;
#X connect 21 1 22 0;
#X connect 22 0 17 1;
#X connect 23 0 10 0;
#X connect 25 0 6 0;
#X connect 28 0 29 0;
#X connect 28 0 30 0;
#X connect 32 0 11 0;
