#N canvas 63 88 947 567 12;
#X obj 113 70 inlet~;
#X obj 106 447 outlet~;
#X obj 400 28 loadbang;
#X obj 400 52 t b b;
#X obj 434 100 + 1;
#X obj 400 100 +;
#X obj 434 124 expr 8 - $f1;
#X obj 400 124 % 8;
#X obj 106 367 *~;
#X obj 127 339 == 0;
#X obj 187 447 outlet~;
#X obj 187 367 *~;
#X obj 273 447 outlet~;
#X obj 273 367 *~;
#X obj 354 447 outlet~;
#X obj 354 367 *~;
#X obj 436 446 outlet~;
#X obj 436 366 *~;
#X obj 517 446 outlet~;
#X obj 517 366 *~;
#X obj 603 446 outlet~;
#X obj 603 366 *~;
#X obj 684 446 outlet~;
#X obj 684 366 *~;
#X obj 208 339 == 1;
#X obj 294 339 == 2;
#X obj 375 339 == 3;
#X obj 457 338 == 4;
#X obj 538 338 == 5;
#X obj 624 338 == 6;
#X obj 705 338 == 7;
#X floatatom 663 232 5 0 0 0 - - - 0;
#X text 597 82 \$1 - stage \; \$2 - voice \;;
#X obj 400 76 \$2;
#X obj 434 76 \$1;
#X connect 0 0 8 0;
#X connect 0 0 11 0;
#X connect 0 0 13 0;
#X connect 0 0 15 0;
#X connect 0 0 17 0;
#X connect 0 0 19 0;
#X connect 0 0 21 0;
#X connect 0 0 23 0;
#X connect 2 0 3 0;
#X connect 3 0 33 0;
#X connect 3 1 34 0;
#X connect 4 0 6 0;
#X connect 5 0 7 0;
#X connect 6 0 5 1;
#X connect 7 0 9 0;
#X connect 7 0 24 0;
#X connect 7 0 25 0;
#X connect 7 0 26 0;
#X connect 7 0 27 0;
#X connect 7 0 28 0;
#X connect 7 0 29 0;
#X connect 7 0 30 0;
#X connect 7 0 31 0;
#X connect 8 0 1 0;
#X connect 9 0 8 1;
#X connect 11 0 10 0;
#X connect 13 0 12 0;
#X connect 15 0 14 0;
#X connect 17 0 16 0;
#X connect 19 0 18 0;
#X connect 21 0 20 0;
#X connect 23 0 22 0;
#X connect 24 0 11 1;
#X connect 25 0 13 1;
#X connect 26 0 15 1;
#X connect 27 0 17 1;
#X connect 28 0 19 1;
#X connect 29 0 21 1;
#X connect 30 0 23 1;
#X connect 33 0 5 0;
#X connect 34 0 4 0;
