#N canvas 0 25 1367 549 12;
#X text 502 20 based on this \; https://signalsmith-audio.co.uk/writing/2021/lets-write-a-reverb/;
#X obj 28 161 inlet~;
#X obj 184 161 inlet~;
#X obj 336 161 inlet~;
#X obj 492 161 inlet~;
#X obj 654 161 inlet~;
#X obj 810 161 inlet~;
#X obj 962 161 inlet~;
#X obj 1118 161 inlet~;
#X obj 1138 52 max;
#X obj 1138 76 int;
#X obj 1138 100 + 1;
#X obj 1138 28 r \$0-voiceNum;
#X obj 1137 127 s \$0-nVoices;
#X obj 29 476 outlet~;
#X obj 179 476 outlet~;
#X obj 344 476 outlet~;
#X obj 493 476 outlet~;
#X obj 645 476 outlet~;
#X obj 796 476 outlet~;
#X obj 960 476 outlet~;
#X obj 1111 476 outlet~;
#N canvas 92 117 1348 611 shuffle 0;
#X obj 28 161 inlet~;
#X obj 184 161 inlet~;
#X obj 336 161 inlet~;
#X obj 492 161 inlet~;
#X obj 654 161 inlet~;
#X obj 810 161 inlet~;
#X obj 962 161 inlet~;
#X obj 1118 161 inlet~;
#X obj 165 476 outlet~;
#X obj 315 476 outlet~;
#X obj 480 476 outlet~;
#X obj 629 476 outlet~;
#X obj 781 476 outlet~;
#X obj 932 476 outlet~;
#X obj 1096 476 outlet~;
#X obj 1244 476 outlet~;
#X obj 27 307 glDiffuserShuffle8_sjf~ \$1 0, f 17;
#X obj 180 307 glDiffuserShuffle8_sjf~ \$1 1, f 17;
#X obj 341 309 glDiffuserShuffle8_sjf~ \$1 2, f 17;
#X obj 494 309 glDiffuserShuffle8_sjf~ \$1 3, f 17;
#X obj 640 308 glDiffuserShuffle8_sjf~ \$1 4, f 17;
#X obj 793 308 glDiffuserShuffle8_sjf~ \$1 5, f 17;
#X obj 954 310 glDiffuserShuffle8_sjf~ \$1 6, f 17;
#X obj 1107 310 glDiffuserShuffle8_sjf~ \$1 7, f 17;
#X connect 0 0 16 0;
#X connect 1 0 17 0;
#X connect 2 0 18 0;
#X connect 3 0 19 0;
#X connect 4 0 20 0;
#X connect 5 0 21 0;
#X connect 6 0 22 0;
#X connect 7 0 23 0;
#X connect 16 0 8 0;
#X connect 16 1 9 0;
#X connect 16 2 10 0;
#X connect 16 3 11 0;
#X connect 16 4 12 0;
#X connect 16 5 13 0;
#X connect 16 6 14 0;
#X connect 16 7 15 0;
#X connect 17 0 8 0;
#X connect 17 1 9 0;
#X connect 17 2 10 0;
#X connect 17 3 11 0;
#X connect 17 4 12 0;
#X connect 17 5 13 0;
#X connect 17 6 14 0;
#X connect 17 7 15 0;
#X connect 18 0 8 0;
#X connect 18 1 9 0;
#X connect 18 2 10 0;
#X connect 18 3 11 0;
#X connect 18 4 12 0;
#X connect 18 5 13 0;
#X connect 18 6 14 0;
#X connect 18 7 15 0;
#X connect 19 0 8 0;
#X connect 19 1 9 0;
#X connect 19 2 10 0;
#X connect 19 3 11 0;
#X connect 19 4 12 0;
#X connect 19 5 13 0;
#X connect 19 6 14 0;
#X connect 19 7 15 0;
#X connect 20 0 8 0;
#X connect 20 1 9 0;
#X connect 20 2 10 0;
#X connect 20 3 11 0;
#X connect 20 4 12 0;
#X connect 20 5 13 0;
#X connect 20 6 14 0;
#X connect 20 7 15 0;
#X connect 21 0 8 0;
#X connect 21 1 9 0;
#X connect 21 2 10 0;
#X connect 21 3 11 0;
#X connect 21 4 12 0;
#X connect 21 5 13 0;
#X connect 21 6 14 0;
#X connect 21 7 15 0;
#X connect 22 0 8 0;
#X connect 22 1 9 0;
#X connect 22 2 10 0;
#X connect 22 3 11 0;
#X connect 22 4 12 0;
#X connect 22 5 13 0;
#X connect 22 6 14 0;
#X connect 22 7 15 0;
#X connect 23 0 8 0;
#X connect 23 1 9 0;
#X connect 23 2 10 0;
#X connect 23 3 11 0;
#X connect 23 4 12 0;
#X connect 23 5 13 0;
#X connect 23 6 14 0;
#X connect 23 7 15 0;
#X restore 29 261 pd shuffle;
#X f 156;
#X obj 28 336 ../FDN/hadamard8_sjf~, f 156;
#X obj 29 365 *~ 0.353553;
#X obj 181 367 *~ 0.353553;
#X obj 344 367 *~ 0.353553;
#X obj 496 367 *~ 0.353553;
#X obj 644 367 *~ 0.353553;
#X obj 796 367 *~ 0.353553;
#X obj 959 367 *~ 0.353553;
#X obj 1111 367 *~ 0.353553;
#X text 110 18 \$1 - stage \; \$2 - parent unique id \; \$3 - delayTimeArray;
#X obj 28 185 glDiffuserVoice_sjf~ 0 \$0 1000 \$1 \$3, f 20;
#X obj 184 185 glDiffuserVoice_sjf~ 1 \$0 1000 \$1 \$3, f 20;
#X obj 336 185 glDiffuserVoice_sjf~ 2 \$0 1000 \$1 \$3, f 20;
#X obj 492 185 glDiffuserVoice_sjf~ 3 \$0 1000 \$1 \$3, f 20;
#X obj 654 185 glDiffuserVoice_sjf~ 4 \$0 1000 \$1 \$3, f 20;
#X obj 810 185 glDiffuserVoice_sjf~ 5 \$0 1000 \$1 \$3, f 20;
#X obj 962 185 glDiffuserVoice_sjf~ 6 \$0 1000 \$1 \$3, f 20;
#X obj 1118 185 glDiffuserVoice_sjf~ 7 \$0 1000 \$1 \$3, f 20;
#X obj 1161 296 s \$0-glDTChange;
#X obj 1161 248 r \$2-glDTChange;
#X obj 1161 272 bng 19 250 50 0 empty empty empty 0 -10 0 12 #fcfcfc #000000 #000000;
#X connect 1 0 33 0;
#X connect 2 0 34 0;
#X connect 3 0 35 0;
#X connect 4 0 36 0;
#X connect 5 0 37 0;
#X connect 6 0 38 0;
#X connect 7 0 39 0;
#X connect 8 0 40 0;
#X connect 9 0 10 0;
#X connect 10 0 11 0;
#X connect 10 0 9 1;
#X connect 11 0 13 0;
#X connect 12 0 9 0;
#X connect 22 0 23 0;
#X connect 22 1 23 1;
#X connect 22 2 23 2;
#X connect 22 3 23 3;
#X connect 22 4 23 4;
#X connect 22 5 23 5;
#X connect 22 6 23 6;
#X connect 22 7 23 7;
#X connect 23 0 24 0;
#X connect 23 1 25 0;
#X connect 23 2 26 0;
#X connect 23 3 27 0;
#X connect 23 4 28 0;
#X connect 23 5 29 0;
#X connect 23 6 30 0;
#X connect 23 7 31 0;
#X connect 24 0 14 0;
#X connect 25 0 15 0;
#X connect 26 0 16 0;
#X connect 27 0 17 0;
#X connect 28 0 18 0;
#X connect 29 0 19 0;
#X connect 30 0 20 0;
#X connect 31 0 21 0;
#X connect 33 0 22 0;
#X connect 34 0 22 1;
#X connect 35 0 22 2;
#X connect 36 0 22 3;
#X connect 37 0 22 4;
#X connect 38 0 22 5;
#X connect 39 0 22 6;
#X connect 40 0 22 7;
#X connect 42 0 43 0;
#X connect 43 0 41 0;
