#N canvas 120 104 450 300 12;
#X obj 29 101 inlet;
#X obj 29 125 sel \$1;
#X obj 29 149 spigot;
#X obj 29 173 outlet;
#X obj 102 102 tgl 15 0 empty empty empty 17 7 0 10 #fcfcfc #000000
#000000 0 1;
#X connect 0 0 1 0;
#X connect 1 0 2 0;
#X connect 2 0 3 0;
#X connect 4 0 1 1;
#X coords 0 -1 1 1 20 20 2 100 100;
