#N canvas 154 217 778 288 12;
#X obj 20 246 outlet~;
#X obj 20 190 fexpr~ $x1[0] + $x2[0] * ( $y1[-1] - $x1[0] ), f 46;
#X obj 20 218 *~, f 55;
#X obj 20 161 ../../filters/allpass_sjf~ 0 0.7, f 36;
#X obj 293 161 r~ \$2-dampingSig;
#X obj 435 129 r~ \$2-sizeSig;
#X obj 331 5 r \$2-dtChange;
#X obj 331 29 \$1;
#X obj 20 69 tabread \$2-delayTimes;
#X obj 20 108 delread~ \$2-fdn\$1;
#X obj 181 71 tabread \$2-apTimes;
#X obj 600 104 tabread \$2-delayTimes;
#X obj 600 129 * 0.001;
#X obj 435 161 expr~ pow(10 \, (-3*$f2/($v1)));
#N canvas 432 319 483 196 modulation 0;
#N canvas 990 445 450 300 modPhasor 0;
#X obj 65 146 r~ \$2-modPhasor;
#X obj 115 29 loadbang;
#X obj 115 53 \$1;
#X obj 167 78 s \$2-delVoiceNum;
#X obj 293 24 r \$2-delVoiceNum;
#X obj 293 53 max;
#X obj 341 61 int;
#X floatatom 293 77 5 0 0 0 - - - 0;
#X obj 293 100 + 1;
#X obj 293 124 t b f;
#X obj 262 161 / 1;
#X obj 115 77 t f f;
#X floatatom 262 185 5 0 0 0 - - - 0;
#X obj 65 170 +~;
#X obj 65 237 wrap~;
#X obj 65 261 outlet~;
#X connect 0 0 13 0;
#X connect 1 0 2 0;
#X connect 2 0 11 0;
#X connect 4 0 5 0;
#X connect 5 0 7 0;
#X connect 5 0 6 0;
#X connect 6 0 5 1;
#X connect 7 0 8 0;
#X connect 8 0 9 0;
#X connect 9 0 10 0;
#X connect 9 1 10 1;
#X connect 10 0 12 0;
#X connect 11 0 10 0;
#X connect 11 1 3 0;
#X connect 12 0 13 1;
#X connect 13 0 14 0;
#X connect 14 0 15 0;
#X restore 224 26 pd modPhasor;
#X obj 69 27 r~ \$2-modulationSig;
#X obj 224 50 cos~;
#X obj 69 75 *~, f 9;
#X obj 69 123 outlet~;
#X obj 368 52 r \$2-modFlag;
#X obj 368 104 switch~;
#X obj 69 99 *~ 0.5;
#X obj 224 74 *~ 0.5;
#X obj 224 102 -~ 0.5;
#X obj 368 76 tgl 19 0 empty empty empty 0 -10 0 12 #fcfcfc #000000 #000000 0 1;
#X connect 0 0 2 0;
#X connect 1 0 3 0;
#X connect 2 0 8 0;
#X connect 3 0 7 0;
#X connect 5 0 10 0;
#X connect 7 0 4 0;
#X connect 8 0 9 0;
#X connect 9 0 3 1;
#X connect 10 0 6 0;
#X restore 269 103 pd modulation;
#X obj 269 132 +~ 0.7;
#X connect 1 0 2 0;
#X connect 2 0 0 0;
#X connect 3 0 1 0;
#X connect 4 0 1 1;
#X connect 5 0 13 0;
#X connect 6 0 7 0;
#X connect 7 0 8 0;
#X connect 7 0 10 0;
#X connect 7 0 11 0;
#X connect 8 0 9 0;
#X connect 9 0 3 0;
#X connect 10 0 3 1;
#X connect 11 0 12 0;
#X connect 12 0 13 1;
#X connect 13 0 2 1;
#X connect 14 0 15 0;
#X connect 15 0 3 2;
