#N canvas 275 439 698 433 12;
#X obj 20 276 outlet~;
#X obj 20 220 fexpr~ $x1[0] + $x2[0] * ( $y1[-1] - $x1[0] ), f 46;
#X obj 20 248 *~, f 55;
#X obj 293 191 r~ \$2-dampingSig;
#X obj 435 159 r~ \$2-sizeSig;
#X obj 331 5 r \$2-dtChange;
#X obj 331 29 \$1;
#X obj 20 69 tabread \$2-delayTimes;
#X obj 20 138 delread~ \$2-fdn\$1;
#X obj 600 134 tabread \$2-delayTimes;
#X obj 600 159 * 0.001;
#X obj 435 191 expr~ pow(10 \, (-3*$f2/($v1)));
#X connect 1 0 2 0;
#X connect 2 0 0 0;
#X connect 3 0 1 1;
#X connect 4 0 11 0;
#X connect 5 0 6 0;
#X connect 6 0 7 0;
#X connect 6 0 9 0;
#X connect 7 0 8 0;
#X connect 8 0 1 0;
#X connect 9 0 10 0;
#X connect 10 0 11 1;
#X connect 11 0 2 1;
