#N canvas 223 -873 450 300 12;
#X obj 117 33 inlet~;
#X obj 243 34 inlet~;
#X obj 117 172 outlet~;
#X obj 240 173 outlet~;
#X obj 143 86 hadamard2_sjf~;
#X obj 128 120 *~ 0.707107;
#X obj 236 121 *~ 0.707107;
#X connect 0 0 4 0;
#X connect 1 0 4 1;
#X connect 4 0 5 0;
#X connect 4 1 6 0;
#X connect 5 0 2 0;
#X connect 6 0 3 0;
