#N canvas 155 25 626 420 12;
#X obj 117 33 inlet~;
#X obj 200 34 inlet~;
#X obj 79 288 outlet~;
#X obj 202 289 outlet~;
#X obj 266 35 inlet~;
#X obj 349 36 inlet~;
#X text 114 135 a+b;
#X text 77 308 a+b+c+d;
#X text 182 135 a-b;
#X text 273 136 c+d;
#X text 341 136 c-d;
#X text 299 313 a+b-c-d;
#X obj 297 288 outlet~;
#X obj 420 289 outlet~;
#X text 199 313 a-b+c-d;
#X text 419 314 a-b-c+d;
#X obj 258 107 hadamard2_sjf~;
#X obj 106 105 hadamard2_sjf~;
#X obj 107 169 hadamard2_sjf~;
#X obj 258 171 hadamard2_sjf~;
#X text 138 352 4 hadamardMatrix with no scaling \; 2 == 2^1 ==> scaling should be * [1 / 2^(2/2)]=0.5;
#X connect 0 0 17 0;
#X connect 1 0 17 1;
#X connect 4 0 16 0;
#X connect 5 0 16 1;
#X connect 16 0 18 1;
#X connect 16 1 19 1;
#X connect 17 0 18 0;
#X connect 17 1 19 0;
#X connect 18 0 2 0;
#X connect 18 1 12 0;
#X connect 19 0 3 0;
#X connect 19 1 13 0;
