#N canvas 102 25 466 292 12;
#X obj 117 33 inlet~;
#X obj 243 34 inlet~;
#X obj 117 172 outlet~;
#X obj 240 173 outlet~;
#X obj 117 131 +~;
#X obj 240 130 -~;
#X text 69 215 2 hadamardMatrix with no scaling \; 2 == 2^1 ==> scaling should be * [1 / 2^(1/2)]=0.7071;
#X connect 0 0 4 0;
#X connect 0 0 5 0;
#X connect 1 0 4 1;
#X connect 1 0 5 1;
#X connect 4 0 2 0;
#X connect 5 0 3 0;
