#N canvas 16 25 1126 519 12;
#X obj 117 33 inlet~;
#X obj 200 33 inlet~;
#X obj 21 288 outlet~;
#X obj 167 288 outlet~;
#X obj 266 33 inlet~;
#X obj 349 33 inlet~;
#X obj 297 288 outlet~;
#X obj 540 288 outlet~;
#X obj 410 288 outlet~;
#X obj 712 288 outlet~;
#X obj 841 288 outlet~;
#X obj 964 288 outlet~;
#X obj 86 88 hadamard4_sjf~, f 52;
#X obj 598 33 inlet~;
#X obj 681 33 inlet~;
#X obj 747 33 inlet~;
#X obj 830 33 inlet~;
#X obj 546 88 hadamard4_sjf~, f 70;
#X text 284 109 a+b-c-d;
#X text 166 109 a-b+c-d;
#X text 400 109 a-b-c+d;
#X text 528 109 e+f+g+h;
#X text 686 109 e-f+g-h;
#X text 850 109 e+f-g-h;
#X text 1015 109 e-f-g+h;
#X text 43 109 a+b+c+d;
#X text 542 313 a+b+c+d-(e+f+g+h);
#X text 681 313 a-b+c-d-(e-f+g-h);
#X text 809 313 a+b-c-d-(e+f-g-h);
#X text 940 313 a-b-c+d-(e-f-g+h);
#X text 10 313 a+b+c+d+(e+f+g+h);
#X text 149 313 a-b+c-d+(e-f+g-h);
#X text 277 313 a+b-c-d+(e+f-g-h);
#X text 408 313 a-b-c+d+(e-f-g+h);
#X obj 822 178 hadamard2_sjf~, f 15;
#X obj 528 178 hadamard2_sjf~, f 15;
#X obj 359 178 hadamard2_sjf~, f 15;
#X obj 141 178 hadamard2_sjf~, f 15;
#X text 121 394 8 hadamardMatrix with no scaling \; 2 == 2^1 ==> scaling should be * [1 / 2^(3/2)]=0.3535533906;
#X connect 0 0 12 0;
#X connect 1 0 12 1;
#X connect 4 0 12 2;
#X connect 5 0 12 3;
#X connect 12 0 37 0;
#X connect 12 1 36 0;
#X connect 12 2 35 0;
#X connect 12 3 34 0;
#X connect 13 0 17 0;
#X connect 14 0 17 1;
#X connect 15 0 17 2;
#X connect 16 0 17 3;
#X connect 17 0 37 1;
#X connect 17 1 36 1;
#X connect 17 2 35 1;
#X connect 17 3 34 1;
#X connect 34 0 8 0;
#X connect 34 1 11 0;
#X connect 35 0 6 0;
#X connect 35 1 10 0;
#X connect 36 0 3 0;
#X connect 36 1 9 0;
#X connect 37 0 2 0;
#X connect 37 1 7 0;
