#N canvas 0 25 1344 483 12;
#X obj 13 124 hadamard8_sjf~, f 81;
#X obj 16 66 inlet~;
#X obj 97 66 inlet~;
#X obj 183 66 inlet~;
#X obj 262 66 inlet~;
#X obj 340 66 inlet~;
#X obj 417 66 inlet~;
#X obj 503 66 inlet~;
#X obj 592 66 inlet~;
#X obj 28 387 outlet~;
#X obj 85 387 outlet~;
#X obj 140 387 outlet~;
#X obj 251 387 outlet~;
#X obj 195 387 outlet~;
#X obj 307 387 outlet~;
#X obj 362 387 outlet~;
#X obj 417 387 outlet~;
#X obj 507 389 outlet~;
#X obj 564 389 outlet~;
#X obj 619 389 outlet~;
#X obj 730 389 outlet~;
#X obj 674 389 outlet~;
#X obj 786 389 outlet~;
#X obj 841 389 outlet~;
#X obj 896 389 outlet~;
#X obj 685 124 hadamard8_sjf~, f 81;
#X obj 688 66 inlet~;
#X obj 769 66 inlet~;
#X obj 855 66 inlet~;
#X obj 934 66 inlet~;
#X obj 1012 66 inlet~;
#X obj 1089 66 inlet~;
#X obj 1175 66 inlet~;
#X obj 1264 66 inlet~;
#X obj 427 238 hadamard2_sjf~, f 15;
#X obj 310 238 hadamard2_sjf~, f 15;
#X obj 195 237 hadamard2_sjf~, f 15;
#X obj 76 237 hadamard2_sjf~, f 15;
#X obj 896 240 hadamard2_sjf~, f 15;
#X obj 779 240 hadamard2_sjf~, f 15;
#X obj 664 239 hadamard2_sjf~, f 15;
#X obj 545 239 hadamard2_sjf~, f 15;
#X text 97 418 16 hadamardMatrix with no scaling \; 2 == 2^1 ==> scaling should be * [1 / 2^(4/2)]=0.25;
#X connect 0 0 37 0;
#X connect 0 1 36 0;
#X connect 0 2 35 0;
#X connect 0 3 34 0;
#X connect 0 4 41 0;
#X connect 0 5 40 0;
#X connect 0 6 39 0;
#X connect 0 7 38 0;
#X connect 1 0 0 0;
#X connect 2 0 0 1;
#X connect 3 0 0 2;
#X connect 4 0 0 3;
#X connect 5 0 0 4;
#X connect 6 0 0 5;
#X connect 7 0 0 6;
#X connect 8 0 0 7;
#X connect 25 0 37 1;
#X connect 25 1 36 1;
#X connect 25 2 35 1;
#X connect 25 3 34 1;
#X connect 25 4 41 1;
#X connect 25 5 40 1;
#X connect 25 6 39 1;
#X connect 25 7 38 1;
#X connect 26 0 25 0;
#X connect 27 0 25 1;
#X connect 28 0 25 2;
#X connect 29 0 25 3;
#X connect 30 0 25 4;
#X connect 31 0 25 5;
#X connect 32 0 25 6;
#X connect 33 0 25 7;
#X connect 34 0 13 0;
#X connect 34 1 21 0;
#X connect 35 0 11 0;
#X connect 35 1 19 0;
#X connect 36 0 10 0;
#X connect 36 1 18 0;
#X connect 37 0 9 0;
#X connect 37 1 17 0;
#X connect 38 0 16 0;
#X connect 38 1 24 0;
#X connect 39 0 15 0;
#X connect 39 1 23 0;
#X connect 40 0 14 0;
#X connect 40 1 22 0;
#X connect 41 0 12 0;
#X connect 41 1 20 0;
