#N canvas 132 333 1308 527 12;
#X obj 94 455 outlet~;
#X text 682 349 https://ccrma.stanford.edu/~jos/pasp/Freeverb.html \; https://ccrma.stanford.edu/~jos/pasp/Lowpass_Feedback_Comb_Filter.html;
#X text 683 483 sjf \, SAE London \, 2023;
#X obj 93 89 inlet~;
#X text 91 32 signal in;
#X text 502 85 Tuning;
#X obj 504 117 array define \$0-combDelays 8;
#X obj 987 84 bng 19 250 50 0 empty empty empty 0 -10 0 12 #fcfcfc #000000 #000000;
#X text 799 220 values copied from freeverb source code;
#X text 562 193 comb delay times in samples;
#N canvas 589 287 656 399 combDelays 0;
#X obj 47 12 inlet;
#X msg 155 104 1116 1188 1277 1356 1422 1491 1557 1617;
#X obj 80 367 array set \$0-combDelays;
#X obj 150 139 list split 1;
#X obj 225 199 list;
#X obj 150 163 t b f;
#X obj 150 228 expr 1000*$f1/44100;
#X text 287 230 convert to ms;
#X obj 47 37 t b b b, f 55;
#X msg 572 265 set;
#X msg 150 268 add2 \$1;
#X msg 81 314 25.3061 26.9388 28.9569 30.7483 32.2449 33.8095 35.3061 36.6667;
#X text 243 124 values copied from freeverb source code;
#X text 332 75 comb delay times in samples;
#X connect 0 0 8 0;
#X connect 1 0 3 0;
#X connect 3 0 5 0;
#X connect 3 1 4 1;
#X connect 4 0 3 0;
#X connect 5 0 4 0;
#X connect 5 1 6 0;
#X connect 6 0 10 0;
#X connect 8 0 11 0;
#X connect 8 1 1 0;
#X connect 8 2 9 0;
#X connect 9 0 11 0;
#X connect 10 0 11 0;
#X connect 11 0 2 0;
#X restore 987 108 pd combDelays;
#X msg 703 52 0.28;
#X msg 835 86 0.7;
#X obj 835 110 value \$0-offsetroom;
#X obj 703 76 value \$0-scaleroom;
#X obj 766 166 value \$0-scaledamp;
#X msg 766 142 0.4;
#X obj 366 89 inlet~, f 9;
#X text 337 32 dampingScale;
#X obj 176 89 inlet~;
#X text 193 32 spread;
#X obj 296 89 inlet~;
#X text 277 32 size;
#X obj 1105 86 bng 19 250 50 0 empty empty empty 0 -10 0 12 #fcfcfc #000000 #000000;
#N canvas 589 287 656 399 allpDelays 0;
#X obj 66 11 inlet;
#X obj 169 138 list split 1;
#X obj 244 198 list;
#X obj 169 162 t b f;
#X obj 169 227 expr 1000*$f1/44100;
#X text 306 229 convert to ms;
#X obj 66 36 t b b b, f 55;
#X msg 591 264 set;
#X msg 169 267 add2 \$1;
#X text 262 123 values copied from freeverb source code;
#X text 351 74 comb delay times in samples;
#X msg 174 103 556 441 341 225;
#X msg 100 313 12.6077 10 7.73243 5.10204;
#X obj 99 366 array set \$0-allpDelays;
#X connect 0 0 6 0;
#X connect 1 0 3 0;
#X connect 1 1 2 1;
#X connect 2 0 1 0;
#X connect 3 0 2 0;
#X connect 3 1 4 0;
#X connect 4 0 8 0;
#X connect 6 0 12 0;
#X connect 6 1 11 0;
#X connect 6 2 7 0;
#X connect 7 0 12 0;
#X connect 8 0 12 0;
#X connect 11 0 1 0;
#X connect 12 0 13 0;
#X restore 1105 110 pd allpDelays;
#X obj 508 149 array define \$0-allpDelays 4;
#X obj 94 279 freeverbAP_sjf~ 0 \$0;
#X obj 94 309 freeverbAP_sjf~ 1 \$0;
#X obj 94 339 freeverbAP_sjf~ 2 \$0;
#X obj 94 369 freeverbAP_sjf~ 3 \$0;
#X obj 723 13 t b;
#X obj 558 32 loadbang;
#X obj 558 56 t b b;
#X obj 565 80 s \$0-load;
#X obj 645 19 bng 19 250 50 0 empty empty empty 0 -10 0 12 #fcfcfc #000000 #000000;
#X obj 94 181 clone freeverbComb_sjf~ 8 \$0;
#X connect 3 0 35 0;
#X connect 7 0 10 0;
#X connect 11 0 14 0;
#X connect 12 0 13 0;
#X connect 16 0 15 0;
#X connect 17 0 35 3;
#X connect 19 0 26 1;
#X connect 19 0 27 1;
#X connect 19 0 28 1;
#X connect 19 0 29 1;
#X connect 19 0 35 1;
#X connect 21 0 35 2;
#X connect 23 0 24 0;
#X connect 26 0 27 0;
#X connect 27 0 28 0;
#X connect 28 0 29 0;
#X connect 29 0 0 0;
#X connect 30 0 7 0;
#X connect 30 0 11 0;
#X connect 30 0 12 0;
#X connect 30 0 16 0;
#X connect 30 0 23 0;
#X connect 31 0 32 0;
#X connect 32 0 33 0;
#X connect 32 1 30 0;
#X connect 34 0 32 0;
#X connect 35 0 26 0;
