#N canvas 0 -1233 725 806 12;
#X obj 85 188 inlet~;
#X text 70 143 signal in;
#X obj 72 561 outlet~;
#X text 85 596 signal out;
#X obj 325 188 inlet~;
#X text 326 162 delay time;
#X obj 435 221 inlet~;
#X obj 378 2 loadbang;
#X text 505 677 sjf \, SAE London \, 2023;
#X obj 157 385 delwrite~ \$0-del 500;
#X obj 324 238 vd~ \$0-del;
#X obj 175 322 *~, f 21;
#X obj 157 358 +~;
#X obj 539 117 block~ 2;
#X text 436 165 coef;
#X text 312 300 fb;
#X obj 378 26 \$1 \$2;
#X text 33 20 argumets \; \$1 - delay time (ms) \; \$2 - coefficient (0-->1);
#X text 253 551 https://ccrma.stanford.edu/~jos/pasp/Freeverb_Allpass_Approximation.html;
#X obj 66 309 -~;
#X obj 378 69 unpack 0 0;
#X connect 0 0 12 0;
#X connect 0 0 19 1;
#X connect 4 0 10 0;
#X connect 6 0 11 1;
#X connect 7 0 16 0;
#X connect 10 0 11 0;
#X connect 10 0 19 0;
#X connect 11 0 12 1;
#X connect 12 0 9 0;
#X connect 16 0 20 0;
#X connect 19 0 2 0;
#X connect 20 0 4 0;
#X connect 20 1 6 0;
