#N canvas 592 373 848 394 12;
#X obj 53 57 inlet~, f 9;
#X text 55 10 signal In;
#X obj 674 45 inlet~, f 9;
#X text 630 10 dampingScale;
#X obj 621 173 *~ 0.5;
#X obj 55 299 outlet~;
#X text 654 350 sjf \, SAE London \, 2023;
#X obj 221 59 inlet~;
#X obj 80 135 tabread~ \$2-combDelays;
#X obj 80 111 sig~ \$1;
#X text 215 10 spread;
#X obj 80 159 +~, f 26;
#X obj 296 56 inlet~;
#X text 296 10 size;
#X obj 342 84 value \$2-scaleroom;
#X obj 296 152 expr~ ($v1*$f2)+$f3;
#X obj 479 84 value \$2-offsetroom;
#X floatatom 697 102 5 0 0 0 - - - 0;
#X obj 697 78 value \$2-scaledamp;
#X obj 779 52 bng 19 250 50 0 empty empty empty 0 -10 0 12 #fcfcfc #000000 #000000;
#X floatatom 479 108 5 0 0 0 - - - 0;
#X floatatom 342 108 5 0 0 0 - - - 0;
#X obj 453 51 bng 19 250 50 0 empty empty empty 0 -10 0 12 #fcfcfc #000000 #000000;
#X obj 469 11 r \$2-load;
#X obj 54 237 ../../filters/fbcomb2_sjf~, f 47;
#X connect 0 0 24 0;
#X connect 2 0 4 0;
#X connect 4 0 24 3;
#X connect 7 0 11 1;
#X connect 8 0 11 0;
#X connect 9 0 8 0;
#X connect 11 0 24 1;
#X connect 12 0 15 0;
#X connect 14 0 15 1;
#X connect 14 0 21 0;
#X connect 15 0 24 2;
#X connect 16 0 15 2;
#X connect 16 0 20 0;
#X connect 18 0 4 1;
#X connect 18 0 17 0;
#X connect 19 0 18 0;
#X connect 22 0 14 0;
#X connect 22 0 16 0;
#X connect 23 0 14 0;
#X connect 23 0 16 0;
#X connect 23 0 18 0;
#X connect 24 0 5 0;
