#N canvas 92 117 1121 713 12;
#X obj 595 478 inlet~;
#X obj 272 582 outlet~;
#X obj 501 246 loadbang;
#X obj 501 293 \$1;
#X obj 501 333 ../../primeCheck_sjf;
#X floatatom 501 357 5 0 0 0 - - - 0;
#X obj 272 389 expr~ if($f2==1 \, -$v1 \, $v1);
#X text 475 393 flip polarity if voice number is a prime number;
#X obj 545 298 s \$2-ermtvoiceNum;
#X text 653 20 arguments \; \$1 - voice num \; \$2 - parent unique id \; \$3 - delayLine name \; \$4 - delay times array name;
#X obj 271 237 tabread \$2-\$4;
#X floatatom 271 261 5 0 0 0 - - - 0;
#X obj 207 108 t b;
#X obj 207 154 \$1;
#X obj 207 133 bng 19 250 50 0 empty empty empty 0 -10 0 12 #fcfcfc #000000 #000000;
#X floatatom 207 178 5 0 0 0 - - - 0;
#X obj 207 84 r \$2-erDelayTimesChange;
#X obj 271 284 t f f;
#X text 714 263 find nearest power of 2 below value;
#X msg 473 274 1;
#X obj 272 338 delread4~ \$2-\$3;
#X text 596 442 Damping;
#X connect 2 0 3 0;
#X connect 2 0 19 0;
#X connect 3 0 8 0;
#X connect 3 0 4 0;
#X connect 4 0 5 0;
#X connect 5 0 6 1;
#X connect 6 0 1 0;
#X connect 10 0 11 0;
#X connect 11 0 17 0;
#X connect 12 0 14 0;
#X connect 13 0 10 0;
#X connect 13 0 15 0;
#X connect 14 0 13 0;
#X connect 16 0 12 0;
#X connect 17 0 20 0;
#X connect 20 0 6 0;
