#N canvas 0 25 1049 454 12;
#X floatatom 613 100 5 0 0 0 - - - 0;
#N canvas 730 97 541 509 writePrimeNumbersToArray 0;
#X obj 37 37 inlet;
#X obj 37 98 ../../uzi_sjf;
#X obj 37 158 ../../primeCheck_sjf;
#X obj 37 129 t f f, f 25;
#X obj 37 182 sel 1;
#X obj 37 209 int, f 18;
#X obj 37 67 t f b, f 43;
#X obj 184 386 array size \$0-primeNumbers;
#X obj 218 219 0;
#X obj 70 270 +;
#X obj 100 270 + 1;
#X obj 70 294 t f f;
#X obj 107 320 + 1;
#X obj 37 233 t f b;
#X obj 37 369 pack;
#X obj 37 443 tabwrite \$0-primeNumbers;
#X obj 221 359 array size \$0-primeDelays;
#X obj 249 330 array size \$0-timeDifferences;
#X floatatom 107 344 5 0 0 0 - - - 0;
#X connect 0 0 6 0;
#X connect 1 2 3 0;
#X connect 2 0 4 0;
#X connect 3 0 2 0;
#X connect 3 1 5 1;
#X connect 4 0 5 0;
#X connect 5 0 13 0;
#X connect 6 0 1 0;
#X connect 6 1 8 0;
#X connect 8 0 7 0;
#X connect 8 0 9 1;
#X connect 8 0 16 0;
#X connect 8 0 17 0;
#X connect 9 0 10 0;
#X connect 9 0 11 0;
#X connect 10 0 9 1;
#X connect 11 0 14 1;
#X connect 11 1 12 0;
#X connect 12 0 7 0;
#X connect 12 0 16 0;
#X connect 12 0 17 0;
#X connect 12 0 18 0;
#X connect 13 0 14 0;
#X connect 13 1 9 0;
#X connect 14 0 15 0;
#X restore 613 123 pd writePrimeNumbersToArray;
#X obj 651 166 array define \$0-primeNumbers;
#X floatatom 394 198 5 0 0 0 desired\ delay\ in\ ms - - 0;
#X obj 394 221 * 44.1;
#X obj 540 41 loadbang;
#X obj 366 125 \$1;
#X obj 366 149 sel 0, f 8;
#X obj 366 173 50;
#X obj 613 76 1000;
#X obj 19 225 outlet;
#X obj 72 34 inlet;
#X text 65 2 desired length ms;
#X obj 651 189 array define \$0-primeDelays;
#X obj 72 58 t b b f;
#N canvas 0 25 721 723 writePrimeDelaysToArray 0;
#X obj 59 16 inlet;
#X floatatom 147 251 5 0 0 0 prime\ index - - 0;
#X obj 382 325 tabread \$0-primeNumbers;
#X floatatom 382 349 5 0 0 0 prime - - 0;
#X obj 147 322 t f b, f 23;
#X floatatom 147 421 5 0 0 0 mi - - 0;
#X obj 382 372 t f f, f 8;
#X obj 147 397 expr round ( log($f1) / log($f2) );
#X obj 147 444 expr pow($f2 \, $f1), f 42;
#X floatatom 147 468 5 0 0 0 primeDelay\ samps - - 0;
#X obj 382 303 int, f 4;
#X obj 59 207 ../../uzi_sjf;
#X obj 147 518 / 44.1;
#X obj 59 61 array size \$0-primeNumbers;
#X obj 147 274 t b f f, f 75;
#X obj 147 642 tabwrite \$0-primeDelays, f 75;
#X floatatom 147 542 5 0 0 0 primeDelay\ ms - - 0;
#X obj 59 38 bng 19 250 50 0 empty empty empty 0 -10 0 12 #fcfcfc #000000 #000000;
#X obj 147 491 t f f, f 24;
#X obj 312 612 tabwrite \$0-timeDifferences, f 34;
#X obj 59 155 t f f, f 26;
#X obj 217 215 array size \$0-primeDelays;
#X obj 245 186 array size \$0-timeDifferences;
#X obj 147 298 value \$0-desiredDelaySamps;
#X obj 313 528 t b f;
#X obj 313 557 value \$0-desiredDelaySamps;
#X obj 312 588 expr abs($f1-$f2);
#X obj 188 191 outlet;
#X connect 0 0 17 0;
#X connect 1 0 14 0;
#X connect 2 0 3 0;
#X connect 3 0 6 0;
#X connect 4 0 7 0;
#X connect 4 1 10 0;
#X connect 5 0 8 0;
#X connect 6 0 7 1;
#X connect 6 1 8 1;
#X connect 7 0 5 0;
#X connect 8 0 9 0;
#X connect 9 0 18 0;
#X connect 10 0 2 0;
#X connect 11 2 1 0;
#X connect 12 0 16 0;
#X connect 13 0 20 0;
#X connect 14 0 23 0;
#X connect 14 1 10 1;
#X connect 14 2 15 1;
#X connect 14 2 19 1;
#X connect 16 0 15 0;
#X connect 17 0 13 0;
#X connect 18 0 12 0;
#X connect 18 1 24 0;
#X connect 20 0 11 0;
#X connect 20 1 22 0;
#X connect 20 1 21 0;
#X connect 20 1 27 0;
#X connect 23 0 4 0;
#X connect 24 0 25 0;
#X connect 24 1 26 1;
#X connect 25 0 26 0;
#X connect 26 0 19 0;
#X restore 122 145 pd writePrimeDelaysToArray;
#X obj 459 314 tabread \$0-primeNumbers;
#X obj 635 314 tabread \$0-primeDelays;
#X floatatom 626 264 5 0 0 0 - - - 0;
#X floatatom 459 338 5 0 0 0 - - - 0;
#X obj 387 3 bng 19 250 50 0 empty empty empty 0 -10 0 12 #fcfcfc #000000 #000000;
#X listbox 635 338 20 0 0 0 - - - 0;
#X listbox 800 338 20 0 0 0 - - - 0;
#X obj 800 314 tabread \$0-timeDifferences;
#X obj 370 373 bng 19 250 50 0 empty empty empty 0 -10 0 12 #fcfcfc #000000 #000000;
#N canvas 321 219 995 590 findClosestDelayTimes 0;
#X obj 108 7 inlet;
#X obj 108 88 array min \$0-timeDifferences;
#X floatatom 108 112 5 0 0 0 - - - 0;
#X floatatom 300 112 5 0 0 0 - - - 0;
#X obj 306 296 array get \$0-timeDifferences;
#X obj 534 296 array get \$0-primeDelays;
#X obj 605 233 -1;
#X obj 420 227 + 1;
#X obj 306 387 array set \$0-timeDifferences;
#X obj 534 387 array set \$0-primeDelays;
#X obj 338 200 t f b f, f 53;
#X obj 769 265 t f;
#X obj 242 164 t b f;
#X floatatom 17 267 5 0 0 0 - - - 0;
#X obj 17 243 array size \$0-timeDifferences;
#X obj 17 290 - 1;
#X obj 13 330 array size \$0-timeDifferences;
#X obj 41 360 array size \$0-primeDelays;
#X obj 777 128 tabread \$0-primeDelays;
#X obj 300 135 t f f;
#X floatatom 777 152 5 0 0 0 - - - 0;
#X obj 777 175 outlet;
#X obj 731 334 array get \$0-primeNumbers;
#X obj 731 386 array set \$0-primeNumbers;
#X obj 66 403 array size \$0-primeNumbers;
#X connect 0 0 1 0;
#X connect 1 0 2 0;
#X connect 1 1 3 0;
#X connect 3 0 19 0;
#X connect 4 0 8 0;
#X connect 5 0 9 0;
#X connect 6 0 4 1;
#X connect 6 0 5 1;
#X connect 6 0 22 1;
#X connect 7 0 4 0;
#X connect 7 0 5 0;
#X connect 7 0 22 0;
#X connect 10 0 7 0;
#X connect 10 1 6 0;
#X connect 10 2 11 0;
#X connect 11 0 9 1;
#X connect 11 0 8 1;
#X connect 11 0 23 1;
#X connect 12 0 14 0;
#X connect 12 1 10 0;
#X connect 13 0 15 0;
#X connect 14 0 13 0;
#X connect 15 0 16 0;
#X connect 15 0 17 0;
#X connect 15 0 24 0;
#X connect 18 0 20 0;
#X connect 19 0 12 0;
#X connect 19 1 18 0;
#X connect 20 0 21 0;
#X connect 22 0 23 0;
#X restore 19 202 pd findClosestDelayTimes;
#X obj 394 245 value \$0-desiredDelaySamps;
#X obj 169 63 bng 19 250 50 0 empty empty empty 0 -10 0 12 #fcfcfc #000000 #000000;
#X obj 613 41 t b;
#X obj 613 17 inlet;
#X obj 650 145 array define \$0-timeDifferences;
#X obj 122 169 outlet;
#X connect 0 0 1 0;
#X connect 3 0 4 0;
#X connect 4 0 26 0;
#X connect 5 0 9 0;
#X connect 6 0 7 0;
#X connect 7 0 8 0;
#X connect 7 1 3 0;
#X connect 8 0 3 0;
#X connect 9 0 0 0;
#X connect 11 0 14 0;
#X connect 14 0 25 0;
#X connect 14 1 15 0;
#X connect 14 2 6 0;
#X connect 15 0 31 0;
#X connect 16 0 19 0;
#X connect 17 0 21 0;
#X connect 18 0 16 0;
#X connect 18 0 17 0;
#X connect 18 0 23 0;
#X connect 23 0 22 0;
#X connect 25 0 10 0;
#X connect 27 0 15 0;
#X connect 28 0 9 0;
#X connect 29 0 28 0;
