#N canvas 106 25 824 559 12;
#X obj 39 14 inlet~;
#X obj 101 295 outlet~;
#X obj 148 129 tabread \$2-\$3Delays;
#X obj 148 85 bng 19 250 50 0 empty empty empty 0 -10 0 12 #fcfcfc #000000 #000000;
#X obj 148 107 \$1;
#X floatatom 93 146 5 0 0 0 - - - 0;
#X obj 148 63 r \$2-dtChange;
#X obj 267 280 *~;
#X obj 365 180 loadbang;
#X obj 365 204 symbol \$3;
#X obj 365 228 sel axial tangential oblique;
#X msg 365 252 1;
#X msg 420 252 0.5;
#X msg 486 250 0.25;
#X obj 378 320 sig~;
#X floatatom 462 299 5 0 0 0 - - - 0;
#X obj 552 290 inlet~;
#X obj 692 290 * 0.001;
#X obj 549 332 expr~ pow(10 \, (-3*$f2/($v1)));
#X text 563 244 size scale;
#X obj 267 384 *~, f 42;
#X obj 147 208 fexpr~ $x1[0] + $x2[0] * ( $y1[-1] - $x1[0] ), f 25;
#X text 408 137 onepole low pass filter;
#X obj 336 70 inlet~;
#X text 333 41 damping;
#X obj 44 472 delwrite~ \$0-pmDel 1000;
#X obj 148 165 delread~ \$0-pmDel;
#X obj 687 81 r \$2-\$3Onsnd;
#X obj 659 142 switch~;
#X obj 687 105 tgl 19 0 empty empty empty 0 -10 0 12 #fcfcfc #000000 #000000 0 1;
#X obj 663 260 tabread \$2-\$3Delays;
#X obj 663 216 bng 19 250 50 0 empty empty empty 0 -10 0 12 #fcfcfc #000000 #000000;
#X obj 663 238 \$1;
#X obj 663 194 r \$2-dtChange;
#X connect 0 0 25 0;
#X connect 2 0 5 0;
#X connect 2 0 26 0;
#X connect 3 0 4 0;
#X connect 4 0 2 0;
#X connect 6 0 3 0;
#X connect 7 0 20 0;
#X connect 8 0 9 0;
#X connect 9 0 10 0;
#X connect 10 0 11 0;
#X connect 10 1 12 0;
#X connect 10 2 13 0;
#X connect 11 0 14 0;
#X connect 11 0 15 0;
#X connect 12 0 14 0;
#X connect 12 0 15 0;
#X connect 13 0 14 0;
#X connect 13 0 15 0;
#X connect 14 0 7 1;
#X connect 16 0 18 0;
#X connect 17 0 18 1;
#X connect 18 0 20 1;
#X connect 20 0 25 0;
#X connect 21 0 1 0;
#X connect 21 0 7 0;
#X connect 23 0 21 1;
#X connect 26 0 21 0;
#X connect 27 0 28 0;
#X connect 27 0 29 0;
#X connect 30 0 17 0;
#X connect 31 0 32 0;
#X connect 32 0 30 0;
#X connect 33 0 31 0;
