#N canvas 63 88 946 313 12;
#X text 197 22 calculate three primary Axial modes \; first four Tangelential Modes \; lowest Oblique Modes;
#X obj 55 132 inlet;
#X text 51 99 L W H;
#X obj 283 88 loadbang;
#X msg 283 114 344;
#X obj 283 138 value \$0-speedofsound;
#X obj 35 249 outlet;
#N canvas 780 135 660 505 axial 0;
#X obj 46 24 inlet;
#X obj 209 114 unpack 0 0 0, f 29;
#X obj 452 114 value \$0-speedofsound;
#X obj 46 53 t b l b, f 65;
#X msg 45 114 1 0 0 \, 0 1 0 \, 0 0 1;
#X obj 45 138 unpack 0 0 0;
#X obj 43 391 outlet;
#X floatatom 209 138 5 0 0 0 - - - 0;
#X floatatom 289 140 5 0 0 0 - - - 0;
#X floatatom 380 143 5 0 0 0 - - - 0;
#X floatatom 452 138 5 0 0 0 - - - 0;
#X obj 43 353 expr ($f7/2) * sqrt( pow($f1/$f4 \, 2) + pow($f2/$f5 \, 2) + pow($f3/$f6 \, 2) );
#X floatatom 27 185 5 0 0 0 - - - 0;
#X floatatom 67 185 5 0 0 0 - - - 0;
#X floatatom 111 185 5 0 0 0 - - - 0;
#X text 203 15 This just calculates the three lowest axial modes;
#X connect 0 0 3 0;
#X connect 1 0 7 0;
#X connect 1 0 11 3;
#X connect 1 1 8 0;
#X connect 1 1 11 4;
#X connect 1 2 9 0;
#X connect 1 2 11 5;
#X connect 2 0 10 0;
#X connect 2 0 11 6;
#X connect 3 0 4 0;
#X connect 3 1 1 0;
#X connect 3 2 2 0;
#X connect 4 0 5 0;
#X connect 5 0 11 0;
#X connect 5 0 12 0;
#X connect 5 1 11 1;
#X connect 5 1 13 0;
#X connect 5 2 11 2;
#X connect 5 2 14 0;
#X connect 11 0 6 0;
#X restore 35 203 pd axial;
#N canvas 92 117 660 505 tangential 0;
#X obj 46 24 inlet;
#X obj 212 151 unpack 0 0 0, f 29;
#X obj 452 114 value \$0-speedofsound;
#X obj 46 53 t b l b, f 65;
#X obj 45 138 unpack 0 0 0;
#X obj 43 391 outlet;
#X msg 45 114 1 1 0 \, 1 0 1 \, 0 1 1 \, 2 1 0;
#X obj 43 353 expr ($f7/2) * sqrt( pow($f1/$f4 \, 2) + pow($f2/$f5 \, 2) + pow($f3/$f6 \, 2) );
#X floatatom 27 185 5 0 0 0 - - - 0;
#X floatatom 67 185 5 0 0 0 - - - 0;
#X floatatom 111 185 5 0 0 0 - - - 0;
#X text 203 15 This just calculates the four lowest tangential modes;
#X connect 0 0 3 0;
#X connect 1 0 7 3;
#X connect 1 1 7 4;
#X connect 1 2 7 5;
#X connect 2 0 7 6;
#X connect 3 0 6 0;
#X connect 3 1 1 0;
#X connect 3 2 2 0;
#X connect 4 0 7 0;
#X connect 4 0 8 0;
#X connect 4 1 7 1;
#X connect 4 1 9 0;
#X connect 4 2 7 2;
#X connect 4 2 10 0;
#X connect 6 0 4 0;
#X connect 7 0 5 0;
#X restore 129 203 pd tangential;
#N canvas 92 117 660 505 oblique 0;
#X obj 46 24 inlet;
#X obj 212 151 unpack 0 0 0, f 29;
#X obj 452 114 value \$0-speedofsound;
#X obj 46 53 t b l b, f 65;
#X obj 45 138 unpack 0 0 0;
#X obj 43 391 outlet;
#X msg 45 114 1 1 1;
#X obj 43 353 expr ($f7/2) * sqrt( pow($f1/$f4 \, 2) + pow($f2/$f5 \, 2) + pow($f3/$f6 \, 2) );
#X floatatom 27 185 5 0 0 0 - - - 0;
#X floatatom 67 185 5 0 0 0 - - - 0;
#X floatatom 111 185 5 0 0 0 - - - 0;
#X text 203 15 This just calculates the lowest lowest oblique mode;
#X connect 0 0 3 0;
#X connect 1 0 7 3;
#X connect 1 1 7 4;
#X connect 1 2 7 5;
#X connect 2 0 7 6;
#X connect 3 0 6 0;
#X connect 3 1 1 0;
#X connect 3 2 2 0;
#X connect 4 0 7 0;
#X connect 4 0 8 0;
#X connect 4 1 7 1;
#X connect 4 1 9 0;
#X connect 4 2 7 2;
#X connect 4 2 10 0;
#X connect 6 0 4 0;
#X connect 7 0 5 0;
#X restore 261 203 pd oblique;
#X obj 129 249 outlet;
#X obj 261 249 outlet;
#X text 380 192 room mode frequency = c/2 * sqrt( (Q/L)^2 + (P/W)^2) + (R/H)^2) ) \; c = speed of sound = 344 m/s \; L = Length (longest dimension) \; W = Width (middle dimension) \; H = Height (shortest dimension) \; P \, Q \, R are the number of half wavelengths in each dimension, f 65;
#X connect 1 0 7 0;
#X connect 1 0 8 0;
#X connect 1 0 9 0;
#X connect 3 0 4 0;
#X connect 4 0 5 0;
#X connect 7 0 6 0;
#X connect 8 0 10 0;
#X connect 9 0 11 0;
