#N canvas 0 25 1017 621 12;
#X obj 121 186 inlet~;
#X obj 121 326 -~;
#X obj 377 186 inlet~;
#X text 383 163 coef;
#X obj 121 453 outlet~;
#X obj 121 361 *~, f 37;
#X obj 121 405 +~, f 12;
#X obj 202 186 inlet~;
#X text 200 163 delayTime;
#X obj 387 28 loadbang;
#X obj 202 83 \$2;
#X obj 377 83 \$3;
#X floatatom 202 107 5 0 0 0 - - - 0;
#X floatatom 377 107 5 0 0 0 - - - 0;
#X text 121 163 signal;
#X obj 2 405 delwrite~ \$0-delayLine \$1, f 15;
#X obj 202 229 vd~ \$0-delayLine;
#X obj 521 83 \$4;
#X floatatom 521 107 5 0 0 0 - - - 0;
#X obj 521 186 inlet~;
#X text 523 163 damping;
#X text 437 398 one multiply allpass as per \; Moorer \, J.A. \, 1979 About this reverberation business. Computer music journal \, pp.13-28. \; \; This has an added lowpass filter... technically this means it's not an allpass....;
#X obj 202 261 fexpr~ $x1[0] + $x2[0] * ( $y1[-1] - $x1[0] ), f 46;
#X text 347 286 onepole low pass filter;
#X text 734 11 \$1 - max delay Time \; \$2 - initial delay time \; \$3 - coefficient \; \$4 - damping \;;
#X obj 619 75 \$2;
#X obj 654 394 block~ 64;
#X obj 654 319 inlet;
#X floatatom 654 363 5 0 0 0 - - - 0;
#X text 649 290 block size;
#X floatatom 746 291 5 0 0 0 - - - 0;
#X obj 620 250 sel 0;
#X obj 746 331 ../previousMultiple_sjf 2;
#X msg 620 274 64;
#X obj 620 100 t f b;
#X obj 654 127 samplerate~;
#X obj 654 151 * 0.001;
#X obj 654 175 t b f;
#X obj 620 222 *;
#X obj 744 355 expr if($f1 < 64 \, $f1 \, 64);
#X connect 0 0 1 0;
#X connect 0 0 15 0;
#X connect 1 0 5 0;
#X connect 2 0 5 1;
#X connect 5 0 6 0;
#X connect 5 0 15 0;
#X connect 6 0 4 0;
#X connect 7 0 16 0;
#X connect 9 0 10 0;
#X connect 9 0 11 0;
#X connect 9 0 17 0;
#X connect 9 0 25 0;
#X connect 10 0 12 0;
#X connect 11 0 13 0;
#X connect 12 0 7 0;
#X connect 13 0 2 0;
#X connect 16 0 22 0;
#X connect 17 0 18 0;
#X connect 18 0 19 0;
#X connect 19 0 22 1;
#X connect 22 0 1 1;
#X connect 22 0 6 1;
#X connect 25 0 34 0;
#X connect 27 0 28 0;
#X connect 28 0 26 0;
#X connect 30 0 32 0;
#X connect 31 0 33 0;
#X connect 31 1 30 0;
#X connect 32 0 39 0;
#X connect 33 0 28 0;
#X connect 34 0 38 0;
#X connect 34 1 35 0;
#X connect 35 0 36 0;
#X connect 36 0 37 0;
#X connect 37 0 38 0;
#X connect 37 1 38 1;
#X connect 38 0 31 0;
#X connect 39 0 28 0;
