#N canvas 0 -1233 725 806 12;
#X obj 85 188 inlet~;
#X text 70 143 signal in;
#X obj 85 601 outlet~;
#X text 85 636 signal out;
#X obj 325 188 inlet~;
#X text 326 162 delay time;
#X obj 435 188 inlet~;
#X obj 378 2 loadbang;
#X text 505 677 sjf \, SAE London \, 2023;
#X obj 127 465 delwrite~ \$0-del 500;
#X obj 324 238 vd~ \$0-del;
#X obj 103 324 *~, f 21;
#X obj 85 506 *~, f 55;
#X obj 85 540 +~, f 79;
#X obj 85 430 +~;
#X text 253 591 This is copied from \; Zölzer \, U. \, Amatriain \, X. \, Arfib \, D. \, Bonada \, J. \, De Poli \, G. \, Dutilleux \, P. \, Evangelista \, G. \, Keiler \, F. \, Loscos \, A. \, Rocchesso \, D. and Sandler \, M. \, 2002 DAFX-Digital audio effects. John Wiley & Sons. \; p66 The Universal Comb Filter \;;
#X text 436 165 coef;
#X text 240 302 fb;
#X obj 354 326 *~ -1;
#X text 344 479 blend;
#X text 605 490 ff;
#X obj 378 26 \$1 \$2 \$3;
#X obj 378 69 unpack 0 0 0;
#X text 33 20 argumets \; \$1 - delay time (ms) \; \$2 - coefficient (0 --> 1) \; \$3 - damping (0 --> 1);
#X obj 511 189 inlet~;
#X text 512 166 damping;
#X text 481 23 block size to allow feedback loop;
#X obj 103 369 fexpr~ $x1[0] + $x2[0] * ( $y1[-1] - $x1[0] ), f 46;
#X text 248 394 onepole low pass filter;
#X obj 584 58 block~ 4;
#X connect 0 0 14 0;
#X connect 4 0 10 0;
#X connect 6 0 18 0;
#X connect 6 0 12 1;
#X connect 7 0 21 0;
#X connect 10 0 11 0;
#X connect 10 0 13 1;
#X connect 11 0 27 0;
#X connect 12 0 13 0;
#X connect 13 0 2 0;
#X connect 14 0 9 0;
#X connect 14 0 12 0;
#X connect 18 0 11 1;
#X connect 21 0 22 0;
#X connect 22 0 4 0;
#X connect 22 1 6 0;
#X connect 22 2 24 0;
#X connect 24 0 27 1;
#X connect 27 0 14 1;
