#N canvas 0 25 722 603 12;
#X obj 85 128 inlet~;
#X text 70 83 signal in;
#X obj 85 421 outlet~;
#X text 85 456 signal out;
#X obj 275 128 inlet~;
#X text 276 102 delay time;
#X obj 385 128 inlet~;
#X obj 275 2 loadbang;
#X text 505 537 sjf \, SAE London \, 2023;
#X obj 165 285 delwrite~ \$0-del 500;
#X obj 274 178 vd~ \$0-del;
#X obj 103 254 *~, f 21;
#X obj 85 326 *~, f 47;
#X obj 85 360 +~, f 61;
#X obj 85 290 +~;
#X obj 539 38 block~ 2;
#X text 253 411 This is copied from \; Zölzer \, U. \, Amatriain \, X. \, Arfib \, D. \, Bonada \, J. \, De Poli \, G. \, Dutilleux \, P. \, Evangelista \, G. \, Keiler \, F. \, Loscos \, A. \, Rocchesso \, D. and Sandler \, M. \, 2002 DAFX-Digital audio effects. John Wiley & Sons. \; p66 The Universal Comb Filter \;;
#X text 386 105 coef;
#X text 240 192 fb;
#X obj 354 216 *~ -1;
#X text 344 299 blend;
#X text 488 310 ff;
#X obj 275 26 \$1 \$2;
#X text 33 20 argumets \; \$1 - delay time (ms) \; \$2 - coefficient (0-->1);
#X obj 275 69 unpack 0 0, f 16;
#X connect 0 0 14 0;
#X connect 4 0 10 0;
#X connect 6 0 19 0;
#X connect 6 0 12 1;
#X connect 7 0 22 0;
#X connect 10 0 11 0;
#X connect 10 0 13 1;
#X connect 11 0 14 1;
#X connect 12 0 13 0;
#X connect 13 0 2 0;
#X connect 14 0 9 0;
#X connect 14 0 12 0;
#X connect 19 0 11 1;
#X connect 22 0 24 0;
#X connect 24 0 4 0;
#X connect 24 1 6 0;
