#N canvas 90 41 1130 827 12;
#X obj 85 188 inlet~;
#X text 70 143 signal in;
#X obj 85 711 outlet~;
#X text 85 746 signal out;
#X obj 325 188 inlet~;
#X text 326 162 delay time;
#X obj 420 188 inlet~;
#X text 421 163 feedforward;
#X obj 532 188 inlet~;
#X text 533 165 feedback;
#X obj 620 188 inlet~;
#X text 621 167 Blend;
#X obj 378 2 loadbang;
#X text 822 744 sjf \, SAE London \, 2023;
#X obj 127 575 delwrite~ \$0-del 500;
#X obj 103 380 vd~ \$0-del;
#X obj 103 504 *~, f 45;
#X obj 85 616 *~, f 47;
#X obj 85 650 +~, f 61;
#X obj 509 457 *~;
#X obj 85 540 +~;
#X obj 884 124 block~ 2;
#X text 570 618 This is copied from \; Zölzer \, U. \, Amatriain \, X. \, Arfib \, D. \, Bonada \, J. \, De Poli \, G. \, Dutilleux \, P. \, Evangelista \, G. \, Keiler \, F. \, Loscos \, A. \, Rocchesso \, D. and Sandler \, M. \, 2002 DAFX-Digital audio effects. John Wiley & Sons. \; p66 The Universal Comb Filter \;;
#X text 717 76 block size to allow feedback loop;
#X text 33 20 argumets \; \$1 - delay time (ms) \; \$2 - feedforward coefficient (0 --> 1) \; \$3 - feedback coefficient (0 --> 1) \; \$4 - blend coefficient (0 --> 1) \;;
#X obj 378 26 \$1 \$2 \$3 \$4;
#X obj 378 69 unpack 0 0 0 0;
#X connect 0 0 20 0;
#X connect 4 0 15 0;
#X connect 6 0 19 1;
#X connect 8 0 16 1;
#X connect 10 0 17 1;
#X connect 12 0 25 0;
#X connect 15 0 19 0;
#X connect 15 0 16 0;
#X connect 16 0 20 1;
#X connect 17 0 18 0;
#X connect 18 0 2 0;
#X connect 19 0 18 1;
#X connect 20 0 14 0;
#X connect 20 0 17 0;
#X connect 25 0 26 0;
#X connect 26 0 4 0;
#X connect 26 1 6 0;
#X connect 26 2 8 0;
#X connect 26 3 10 0;
