#N canvas 0 -1454 784 711 12;
#X obj 85 283 inlet~;
#X text 70 258 signal in;
#X obj 85 561 outlet~;
#X text 85 596 signal out;
#X obj 181 283 inlet~;
#X text 182 258 delay time;
#X obj 300 283 inlet~;
#X text 301 258 feedback;
#X obj 234 90 loadbang;
#X text 585 635 sjf \, SAE London \, 2023;
#X obj 127 485 delwrite~ \$0-del 500;
#X obj 103 380 vd~ \$0-del;
#X obj 103 414 *~, f 29;
#X obj 85 450 +~;
#X obj 558 223 block~ 2;
#X text 391 175 block size to allow feedback loop;
#X text 33 20 argumets \; \$1 - delay time (ms) \; \$2 - feedback coefficient (0 --> 1) \;;
#X obj 234 114 \$1 \$2;
#X obj 234 157 unpack 0 0;
#X text 333 509 This is copied from \; Zölzer \, U. \, Amatriain \, X. \, Arfib \, D. \, Bonada \, J. \, De Poli \, G. \, Dutilleux \, P. \, Evangelista \, G. \, Keiler \, F. \, Loscos \, A. \, Rocchesso \, D. and Sandler \, M. \, 2002 DAFX-Digital audio effects. John Wiley & Sons. \; p64 IIR Comb Filter \;;
#X connect 0 0 13 0;
#X connect 4 0 11 0;
#X connect 6 0 12 1;
#X connect 8 0 17 0;
#X connect 11 0 12 0;
#X connect 12 0 13 1;
#X connect 13 0 10 0;
#X connect 13 0 2 0;
#X connect 17 0 18 0;
#X connect 18 0 4 0;
#X connect 18 1 6 0;
