#N canvas 353 168 853 489 12;
#X obj 9 107 inlet~;
#X obj 9 240 -~;
#X obj 409 110 inlet~;
#X text 415 87 coef;
#X obj 9 417 outlet~;
#X obj 9 275 *~, f 37;
#X obj 9 317 +~, f 12;
#X obj 234 110 inlet~;
#X text 266 371 one multiply allpass as per \; Moorer \, J.A. \, 1979 About this reverberation business. Computer music journal \, pp.13-28.;
#X text 232 87 delayTime;
#X obj 539 325 block~ 64;
#X obj 329 3 loadbang;
#X obj 234 37 \$2;
#X obj 329 37 \$3;
#X floatatom 234 66 5 0 0 0 - - - 0;
#X floatatom 329 71 5 0 0 0 - - - 0;
#X text 9 84 signal;
#X obj 539 250 inlet;
#X floatatom 539 294 5 0 0 0 - - - 0;
#X text 534 221 block size;
#X floatatom 631 222 5 0 0 0 - - - 0;
#X obj 505 7 \$2;
#X obj 505 181 sel 0;
#X obj 631 262 ../previousMultiple_sjf 2;
#X obj 505 31 t f b;
#X obj 539 58 samplerate~;
#X obj 539 82 * 0.001;
#X obj 539 106 t b f;
#X obj 505 153 *;
#X obj 631 286 expr if($f1 < 64 \, $f1 \, 64);
#X obj 140 315 +~, f 12;
#X obj 140 417 outlet~;
#X text 137 444 output 2 (top line), f 10;
#X text 10 444 output 1 (bottom line), f 13;
#X text 640 39 \$1 - max delay Time \; \$2 - initial delay time \; \$3 - coefficient \; \$4 - delayline;
#X obj 234 153 vd~ \$4;
#X connect 0 0 1 0;
#X connect 0 0 30 1;
#X connect 1 0 5 0;
#X connect 2 0 5 1;
#X connect 5 0 6 0;
#X connect 5 0 30 0;
#X connect 6 0 4 0;
#X connect 7 0 35 0;
#X connect 11 0 12 0;
#X connect 11 0 13 0;
#X connect 11 0 21 0;
#X connect 12 0 14 0;
#X connect 13 0 15 0;
#X connect 14 0 7 0;
#X connect 15 0 2 0;
#X connect 17 0 18 0;
#X connect 18 0 10 0;
#X connect 20 0 23 0;
#X connect 21 0 24 0;
#X connect 22 1 20 0;
#X connect 23 0 29 0;
#X connect 24 0 28 0;
#X connect 24 1 25 0;
#X connect 25 0 26 0;
#X connect 26 0 27 0;
#X connect 27 0 28 0;
#X connect 27 1 28 1;
#X connect 28 0 22 0;
#X connect 29 0 18 0;
#X connect 30 0 31 0;
#X connect 35 0 1 1;
#X connect 35 0 6 1;
