#N canvas 126 -1005 872 717 12;
#X obj 8 194 inlet~;
#X obj 218 456 delwrite~ \$0-del1 500;
#X obj 356 26 loadbang;
#X obj 90 192 inlet~;
#X obj 514 192 inlet~;
#X obj 90 134 \$1;
#X obj 33 554 outlet~;
#X text 71 162 delaytime 1;
#X obj 438 192 inlet~;
#X text 425 162 delaytime 2;
#X text 194 504 one multiply(per delayline) allpass as per \; Moorer \, J.A. \, 1979 About this reverberation business. Computer music journal \, pp.13-28.;
#X obj 438 134 \$3;
#X obj 513 134 \$4;
#X text 519 162 coefficient 2;
#X obj 298 192 inlet~;
#X text 303 162 coefficient 1;
#X obj 297 134 \$2;
#X text 9 165 signal;
#X obj 336 405 allpass1mult_sjf~ 500 \$3 \$4;
#X obj 10 268 nestedAllpassStage_sjf~ 500 \$1 \$2 \$0-del1;
#X obj 633 195 inlet~;
#X text 638 165 coefficient 2;
#X obj 632 137 \$5;
#X text 497 17 \$1 - delay time 1 \; \$2 - coefficient 1 \; \$3 - delayTime 2 \; \$4 - coefficient 2 \; \$5 - damping;
#X connect 0 0 19 0;
#X connect 2 0 5 0;
#X connect 2 0 11 0;
#X connect 2 0 12 0;
#X connect 2 0 16 0;
#X connect 3 0 19 1;
#X connect 4 0 18 2;
#X connect 5 0 3 0;
#X connect 8 0 18 1;
#X connect 11 0 8 0;
#X connect 12 0 4 0;
#X connect 14 0 19 2;
#X connect 16 0 14 0;
#X connect 18 0 1 0;
#X connect 19 0 6 0;
#X connect 19 1 18 0;
#X connect 22 0 20 0;
