#N canvas 126 -1005 885 717 12;
#X obj 8 187 inlet~;
#X obj 338 471 delwrite~ \$0-del1 500;
#X obj 356 59 loadbang;
#X obj 90 185 inlet~;
#X obj 514 185 inlet~;
#X obj 90 127 \$1;
#X obj 33 554 outlet~;
#X text 71 155 delaytime 1;
#X obj 438 185 inlet~;
#X text 425 155 delaytime 2;
#X text 194 504 one multiply(per delayline) allpass as per \; Moorer \, J.A. \, 1979 About this reverberation business. Computer music journal \, pp.13-28.;
#X obj 438 127 \$3;
#X obj 513 127 \$4;
#X text 519 155 coefficient 2;
#X obj 298 185 inlet~;
#X text 303 155 coefficient 1;
#X obj 297 127 \$2;
#X text 9 158 signal;
#X obj 336 438 allpass1mult2_sjf~ 500 \$3 \$4, f 63;
#X obj 630 185 inlet~;
#X text 497 7 \$1 - delay time 1 \; \$2 - coefficient 1 \; \$3 - delayTime 2 \; \$4 - coefficient 2 \; \$5 - damping;
#X obj 629 127 \$5;
#X text 635 155 damping 2;
#X obj 726 130 \$1 \$3;
#X obj 726 154 min;
#X floatatom 726 178 5 0 0 0 - - - 0;
#N canvas 87 72 645 469 calculateBlockSize 0;
#X obj 37 37 inlet;
#X floatatom 163 257 5 0 0 0 - - - 0;
#X obj 37 216 sel 0;
#X obj 163 297 ../previousMultiple_sjf 2;
#X msg 37 240 64;
#X obj 37 66 t f b;
#X obj 71 93 samplerate~;
#X obj 71 117 * 0.001;
#X obj 71 141 t b f;
#X obj 37 188 *;
#X obj 163 322 expr if($f1 < 64 \, $f1 \, 64);
#X obj 94 359 outlet;
#X connect 0 0 5 0;
#X connect 1 0 3 0;
#X connect 2 0 4 0;
#X connect 2 1 1 0;
#X connect 3 0 10 0;
#X connect 4 0 11 0;
#X connect 5 0 9 0;
#X connect 5 1 6 0;
#X connect 6 0 7 0;
#X connect 7 0 8 0;
#X connect 8 0 9 0;
#X connect 8 1 9 1;
#X connect 9 0 2 0;
#X connect 10 0 11 0;
#X restore 726 201 pd calculateBlockSize;
#X floatatom 726 225 5 0 0 0 - - - 0;
#X obj 10 301 nestedAllpassStage2_sjf~ 500 \$1 \$2 \$0-del1;
#X obj 797 132 inlet;
#X text 790 102 blockSize;
#X connect 0 0 28 0;
#X connect 2 0 5 0;
#X connect 2 0 11 0;
#X connect 2 0 12 0;
#X connect 2 0 16 0;
#X connect 2 0 21 0;
#X connect 2 0 23 0;
#X connect 3 0 28 1;
#X connect 4 0 18 2;
#X connect 5 0 3 0;
#X connect 8 0 18 1;
#X connect 11 0 8 0;
#X connect 12 0 4 0;
#X connect 14 0 28 2;
#X connect 16 0 14 0;
#X connect 18 0 1 0;
#X connect 19 0 18 3;
#X connect 19 0 28 3;
#X connect 21 0 19 0;
#X connect 23 0 24 0;
#X connect 24 0 25 0;
#X connect 25 0 26 0;
#X connect 26 0 27 0;
#X connect 27 0 18 4;
#X connect 27 0 28 4;
#X connect 28 0 6 0;
#X connect 28 1 18 0;
#X connect 29 0 27 0;
