#N canvas 0 25 1440 847 12;
#X obj 83 50 inlet;
#X text 81 15 freq;
#X text 671 15 depth;
#X obj 673 50 inlet~;
#X obj 83 174 * 2;
#X obj 73 547 randMod_sjf~ 0;
#X obj 73 571 outlet~;
#X obj 245 159 /, f 5;
#X obj 277 134 samplerate~;
#X floatatom 245 183 13 0 0 0 - - - 0;
#X obj 245 206 * 2;
#X obj 245 230 * 3.14159;
#X floatatom 245 254 12 0 0 0 - - - 0;
#X obj 211 571 outlet~;
#X obj 353 571 outlet~;
#X obj 501 571 outlet~;
#X obj 675 571 outlet~;
#X obj 871 573 outlet~;
#X obj 1075 571 outlet~;
#X obj 1263 571 outlet~;
#X obj 211 547 randMod_sjf~ 0.1;
#X obj 353 547 randMod_sjf~ 0.2;
#X obj 501 547 randMod_sjf~ 0.3;
#X obj 675 547 randMod_sjf~ 0.4;
#X obj 871 549 randMod_sjf~ 0.5;
#X obj 1075 547 randMod_sjf~ 0.6;
#X obj 1263 547 randMod_sjf~ 0.7;
#X obj 245 107 t f b;
#X obj 673 74 s~ \$0-modD;
#X obj 245 301 s \$0-cutOff;
#X obj 245 277 expr $f1/(1+$f1);
#X obj 1355 508 r~ \$0-modD;
#X obj 854 107 s~ \$0-noise;
#X obj 854 61 noise~;
#X obj 7 494 r~ \$0-noise;
#X obj 180 506 r~ \$0-noise;
#X obj 327 505 r~ \$0-noise;
#X obj 478 511 r~ \$0-noise;
#X obj 662 498 r~ \$0-noise;
#X obj 861 504 r~ \$0-noise;
#X obj 1062 511 r~ \$0-noise;
#X obj 1245 508 r~ \$0-noise;
#X obj 83 198 phasor~;
#X obj 83 222 s~ \$0-phasor;
#X obj 73 444 r~ \$0-phasor;
#X obj 222 445 r~ \$0-phasor;
#X obj 368 451 r~ \$0-phasor;
#X obj 506 447 r~ \$0-phasor;
#X obj 684 443 r~ \$0-phasor;
#X obj 859 462 r~ \$0-phasor;
#X obj 1075 453 r~ \$0-phasor;
#X obj 1236 450 r~ \$0-phasor;
#X obj 114 418 r \$0-cutOff;
#X obj 252 416 r \$0-cutOff;
#X obj 380 423 r \$0-cutOff;
#X obj 533 421 r \$0-cutOff;
#X obj 699 410 r \$0-cutOff;
#X obj 885 423 r \$0-cutOff;
#X obj 1088 418 r \$0-cutOff;
#X obj 1295 420 r \$0-cutOff;
#X obj 1156 498 r~ \$0-modD;
#X obj 938 483 r~ \$0-modD;
#X obj 734 475 r~ \$0-modD;
#X obj 574 481 r~ \$0-modD;
#X obj 418 482 r~ \$0-modD;
#X obj 280 475 r~ \$0-modD;
#X obj 144 476 r~ \$0-modD;
#X connect 0 0 4 0;
#X connect 0 0 27 0;
#X connect 3 0 28 0;
#X connect 4 0 42 0;
#X connect 5 0 6 0;
#X connect 7 0 9 0;
#X connect 8 0 7 1;
#X connect 9 0 10 0;
#X connect 10 0 11 0;
#X connect 11 0 12 0;
#X connect 12 0 30 0;
#X connect 20 0 13 0;
#X connect 21 0 14 0;
#X connect 22 0 15 0;
#X connect 23 0 16 0;
#X connect 24 0 17 0;
#X connect 25 0 18 0;
#X connect 26 0 19 0;
#X connect 27 0 7 0;
#X connect 27 1 8 0;
#X connect 30 0 29 0;
#X connect 31 0 26 3;
#X connect 33 0 32 0;
#X connect 34 0 5 0;
#X connect 35 0 20 0;
#X connect 36 0 21 0;
#X connect 37 0 22 0;
#X connect 38 0 23 0;
#X connect 39 0 24 0;
#X connect 40 0 25 0;
#X connect 41 0 26 0;
#X connect 42 0 43 0;
#X connect 44 0 5 1;
#X connect 45 0 20 1;
#X connect 46 0 21 1;
#X connect 47 0 22 1;
#X connect 48 0 23 1;
#X connect 49 0 24 1;
#X connect 50 0 25 1;
#X connect 51 0 26 1;
#X connect 52 0 5 2;
#X connect 53 0 20 2;
#X connect 54 0 21 2;
#X connect 55 0 22 2;
#X connect 56 0 23 2;
#X connect 57 0 24 2;
#X connect 58 0 25 2;
#X connect 59 0 26 2;
#X connect 60 0 25 3;
#X connect 61 0 24 3;
#X connect 62 0 23 3;
#X connect 63 0 22 3;
#X connect 64 0 21 3;
#X connect 65 0 20 3;
#X connect 66 0 5 3;
