#N canvas 0 25 1440 847 12;
#X obj 273 9 inlet~;
#X obj 453 818 outlet~;
#X obj 539 818 outlet~;
#X obj 273 59 fexpr~ $x1[0] + $x2[0] * ( $y1[-1] - $x1[0] ), f 46;
#X obj 1203 46 loadbang;
#X obj 1203 70 bng 19 250 50 0 empty empty empty 0 -10 0 12 #fcfcfc #000000 #000000;
#X obj 1203 94 s \$0-lbang;
#X obj 1225 420 hsl 162 19 0 1 0 1 \$0-decaySnd empty decay -2 -10 0 12 #fcfcfc #000000 #000000 8000 1;
#X obj 1225 375 hsl 162 19 0 1 0 0 \$0-dampingSnd empty damping -2 -10 0 12 #fcfcfc #000000 #000000 0 1;
#X obj 1225 465 hsl 162 19 0 1 0 1 \$0-modD empty modulation_depth -2 -10 0 12 #fcfcfc #000000 #000000 4500 1;
#X obj 1225 510 hsl 162 19 0 2 0 1 \$0-modR empty modulation_rate -2 -10 0 12 #fcfcfc #000000 #000000 9000 1;
#X obj 1225 555 hsl 162 19 0 1 0 1 \$0-diffuse2 empty diffuse2 -2 -10 0 12 #fcfcfc #000000 #000000 16100 1;
#N canvas 0 25 1054 818 params 0;
#X floatatom 440 431 5 0 0 0 - - - 0;
#X obj 440 478 line~;
#X obj 440 502 s~ \$0-damp;
#X obj 440 403 r \$0-dampingSnd;
#X obj 440 230 r \$0-diffuse2;
#X floatatom 440 254 5 0 0 0 - - - 0;
#X floatatom 440 301 5 0 0 0 - - - 0;
#X obj 440 348 line~;
#X obj 440 372 s~ \$0-difLate;
#X msg 440 454 \$1 50;
#X floatatom 21 42 5 0 0 0 - - - 0;
#X obj 21 89 line~;
#X msg 21 65 \$1 50;
#X obj 21 14 r \$0-inputdampingSnd;
#X obj 21 113 s~ \$0-indamp;
#X floatatom 176 40 5 0 0 0 - - - 0;
#X floatatom 176 87 5 0 0 0 - - - 0;
#X obj 176 134 line~;
#X obj 176 16 r \$0-indiffuse;
#X obj 176 158 s~ \$0-difEarly;
#X floatatom 290 272 5 0 0 0 - - - 0;
#X obj 290 467 line~;
#X obj 290 295 min 1;
#X obj 290 319 max 0;
#X obj 290 418 + 0.5;
#X floatatom 290 367 5 0 0 0 - - - 0;
#X obj 290 343 expr pow($f1 \, 2);
#X floatatom 367 442 5 0 0 0 - - - 0;
#X obj 290 248 r \$0-decaySnd;
#X obj 290 491 s~ \$0-decay;
#X obj 290 394 * 9.5;
#N canvas 0 125 1195 531 modulationLogic 0;
#X floatatom 460 285 5 0 0 0 - - - 0;
#X obj 460 385 line~;
#X floatatom 460 332 13 0 0 0 - - - 0;
#X obj 460 308 expr pow($f1 \, 5);
#X obj 460 261 r \$0-modD;
#X obj 460 409 s~ \$0-modulationD;
#X floatatom 315 140 5 0 0 0 - - - 0;
#X obj 315 355 line~;
#X floatatom 315 187 13 0 0 0 - - - 0;
#X obj 315 163 expr pow($f1 \, 5);
#X obj 315 116 r \$0-modR;
#X obj 315 379 s~ \$0-modulationR;
#X msg 460 361 \$1 50;
#X msg 315 331 \$1 50;
#X obj 206 162 cos~;
#X obj 206 111 cos~;
#X obj 206 65 phasor~ 0.05;
#X obj 206 33 r~ \$0-modulationR;
#X obj 117 189 cos~;
#X obj 117 144 +~ 0.75;
#X obj 117 277 s~ \$0-mod1;
#X obj 206 277 s~ \$0-mod2;
#X obj 206 253 *~ 1;
#X obj 117 253 *~ 1;
#X obj 632 125 noise~;
#X obj 646 193 samphold~;
#X obj 502 88 /, f 5;
#X obj 534 63 samplerate~;
#X floatatom 502 112 13 0 0 0 - - - 0;
#X obj 502 36 t f b f, f 22;
#X obj 502 135 * 2;
#X obj 502 159 * 3.14159;
#X floatatom 502 183 12 0 0 0 - - - 0;
#X floatatom 687 59 13 0 0 0 - - - 0;
#X obj 692 125 phasor~ 1;
#X obj 886 236 sig~ 1e-12;
#X obj 502 206 expr $f1/(1+$f1);
#X floatatom 502 230 14 0 0 0 - - - 0;
#X obj 669 81 * 2;
#X obj 653 317 s~ \$0-modR1;
#X obj 778 333 samphold~;
#X obj 1018 376 sig~ 1e-12;
#X obj 777 124 phasor~ 1;
#X obj 831 42 loadbang;
#X msg 831 66 0.2;
#X obj 785 457 s~ \$0-modR2;
#X obj 1002 153 samphold~;
#X obj 1242 196 sig~ 1e-12;
#X obj 1009 277 s~ \$0-modR3;
#X obj 1000 120 phasor~ 1;
#X msg 901 72 0.4;
#X obj 653 293 fexpr~ $y1[-1] + $x2[0] * ( $x1[-1] - $y1[-1] );
#X obj 785 433 fexpr~ $y1[-1] + $x2[0] * ( $x1[-1] - $y1[-1] );
#X obj 1009 253 fexpr~ $y1[-1] + $x2[0] * ( $x1[-1] - $y1[-1] );
#X connect 0 0 3 0;
#X connect 1 0 5 0;
#X connect 2 0 12 0;
#X connect 3 0 2 0;
#X connect 4 0 0 0;
#X connect 6 0 9 0;
#X connect 6 0 29 0;
#X connect 7 0 11 0;
#X connect 8 0 13 0;
#X connect 9 0 8 0;
#X connect 10 0 6 0;
#X connect 12 0 1 0;
#X connect 13 0 7 0;
#X connect 14 0 22 0;
#X connect 15 0 14 0;
#X connect 15 0 19 0;
#X connect 16 0 15 0;
#X connect 17 0 16 0;
#X connect 18 0 23 0;
#X connect 19 0 18 0;
#X connect 22 0 21 0;
#X connect 23 0 20 0;
#X connect 24 0 25 0;
#X connect 24 0 40 0;
#X connect 24 0 46 0;
#X connect 25 0 51 0;
#X connect 26 0 28 0;
#X connect 27 0 26 1;
#X connect 28 0 30 0;
#X connect 29 0 26 0;
#X connect 29 1 27 0;
#X connect 29 2 33 0;
#X connect 29 2 38 0;
#X connect 30 0 31 0;
#X connect 31 0 32 0;
#X connect 32 0 36 0;
#X connect 34 0 25 1;
#X connect 35 0 51 1;
#X connect 36 0 37 0;
#X connect 36 0 35 0;
#X connect 38 0 34 0;
#X connect 38 0 42 0;
#X connect 38 0 49 0;
#X connect 40 0 52 0;
#X connect 41 0 52 1;
#X connect 42 0 40 1;
#X connect 43 0 44 0;
#X connect 43 0 50 0;
#X connect 44 0 42 1;
#X connect 46 0 53 0;
#X connect 47 0 53 1;
#X connect 49 0 46 1;
#X connect 50 0 49 1;
#X connect 51 0 39 0;
#X connect 52 0 45 0;
#X connect 53 0 48 0;
#X restore 695 96 pd modulationLogic;
#X obj 290 443 pack 0 50;
#X msg 440 324 \$1 100;
#X msg 176 110 \$1 100;
#X obj 176 63 expr pow($f1 \, 3)*0.6 + 0.2;
#X obj 440 277 expr pow($f1 \, 3)*0.6 + 0.1;
#X connect 0 0 9 0;
#X connect 1 0 2 0;
#X connect 3 0 0 0;
#X connect 4 0 5 0;
#X connect 5 0 36 0;
#X connect 6 0 33 0;
#X connect 7 0 8 0;
#X connect 9 0 1 0;
#X connect 10 0 12 0;
#X connect 11 0 14 0;
#X connect 12 0 11 0;
#X connect 13 0 10 0;
#X connect 15 0 35 0;
#X connect 16 0 34 0;
#X connect 17 0 19 0;
#X connect 18 0 15 0;
#X connect 20 0 22 0;
#X connect 21 0 29 0;
#X connect 22 0 23 0;
#X connect 23 0 26 0;
#X connect 24 0 27 0;
#X connect 24 0 32 0;
#X connect 25 0 30 0;
#X connect 26 0 25 0;
#X connect 28 0 20 0;
#X connect 30 0 24 0;
#X connect 32 0 21 0;
#X connect 33 0 7 0;
#X connect 34 0 17 0;
#X connect 35 0 16 0;
#X connect 36 0 6 0;
#X restore 1103 687 pd params;
#X obj 1225 280 hsl 162 19 0 1 0 0 \$0-inputdampingSnd empty input\ damping -2 -10 0 12 #fcfcfc #000000 #000000 0 1;
#X obj 584 33 r~ \$0-indamp;
#X obj 1225 325 hsl 162 19 0 1 0 1 \$0-indiffuse empty input\ diffuse -2 -10 0 12 #fcfcfc #000000 #000000 16100 1;
#X obj 938 604 r \$0-lbang;
#X msg 938 628 2389 1307 1433;
#X obj 743 652 r~ \$0-difLate;
#X obj 758 677 r~ \$0-damp;
#X obj 841 630 r~ \$0-decay;
#X obj 327 644 r \$0-lbang;
#X obj 128 614 r~ \$0-difLate;
#X obj 179 645 r~ \$0-damp;
#X obj 238 598 r~ \$0-decay;
#X msg 327 668 2659 1129 1621;
#X obj 965 415 r \$0-lbang;
#X obj 756 460 r~ \$0-difLate;
#X obj 807 491 r~ \$0-damp;
#X obj 866 444 r~ \$0-decay;
#X obj 257 332 r \$0-lbang;
#X obj 135 463 r~ \$0-difLate;
#X obj 181 514 r~ \$0-damp;
#X obj 269 487 r~ \$0-decay;
#X obj 1105 535 tgl 19 1 empty empty empty 0 -10 0 12 #fcfcfc #000000 #000000 0 1;
#X obj 1105 559 s \$0-freeze;
#X obj 995 523 r \$0-freeze;
#X obj 976 680 r \$0-freeze;
#X obj 377 497 r \$0-freeze;
#X obj 458 659 r \$0-freeze;
#X obj 637 210 r \$0-freeze;
#X obj 637 234 == 0;
#X obj 494 378 *~;
#X obj 968 863 r \$0-lbang;
#X obj 756 883 r~ \$0-difLate;
#X obj 807 914 r~ \$0-damp;
#X obj 866 867 r~ \$0-decay;
#X obj 344 857 r \$0-lbang;
#X obj 135 886 r~ \$0-difLate;
#X obj 186 917 r~ \$0-damp;
#X obj 245 870 r~ \$0-decay;
#X obj 995 946 r \$0-freeze;
#X obj 477 925 r \$0-freeze;
#X obj 83 969 allpassLoop/KB_APLoop_sjf~ \$0-del5 \$0-del4;
#X obj 596 971 allpassLoop/KB_APLoop_sjf~ \$0-del6 \$0-del5;
#X msg 344 881 3167 1789 1409;
#X msg 968 887 4219 2113 2111;
#X text 965 802 allpass loop reverb \; somewhat in the style of keith barr \; http://www.spinsemi.com/knowledge_base/effects.html#Reverberation;
#X obj 83 546 allpassLoop/KB_APLoop2_sjf~ \$0-del1 \$0-del6;
#X obj 76 727 allpassLoop/KB_APLoop2_sjf~ \$0-del2 \$0-del1;
#X obj 589 727 allpassLoop/KB_APLoop2_sjf~ \$0-del4 \$0-del3;
#X obj 596 548 allpassLoop/KB_APLoop2_sjf~ \$0-del3 \$0-del2;
#X msg 965 439 1951 1217 821;
#X msg 257 356 2203 1181 991;
#X obj 621 384 *~;
#X obj 967 26 tgl 19 0 empty empty empty 0 -10 0 12 #fcfcfc #000000 #000000 0 1;
#X obj 390 769 +~;
#X obj 666 769 +~;
#X obj 62 840 *~;
#X obj 75 812 r~ \$0-modulationD;
#X obj 25 663 *~;
#X obj 38 635 r~ \$0-modulationD;
#X obj 91 428 *~;
#X obj 104 400 r~ \$0-modulationD;
#X obj 716 438 *~;
#X obj 729 410 r~ \$0-modulationD;
#X obj 691 634 *~;
#X obj 740 601 r~ \$0-modulationD;
#X obj 732 842 *~;
#X obj 767 809 r~ \$0-modulationD;
#X obj 35 369 r~ \$0-modR1;
#X obj 23 597 r~ \$0-modR2;
#X obj 29 772 r~ \$0-modR3;
#X obj 686 378 r~ \$0-modR1;
#X obj 686 402 *~ -1;
#X obj 672 576 r~ \$0-modR2;
#X obj 672 600 *~ -1;
#X obj 712 767 r~ \$0-modR3;
#X obj 713 810 *~ -1;
#N canvas 295 320 960 315 nap 0;
#X obj 37 37 inlet~;
#X obj 36 129 ../filters/nestedAllpass_sjf~ 449 0.7 769 0.7;
#X obj 36 161 ../filters/nestedAllpass_sjf~ 449 0.7 769 0.7;
#X obj 806 150 *~ -1;
#X obj 914 92 tgl 19 0 empty empty empty 0 -10 0 12 #fcfcfc #000000 #000000 0 1;
#X obj 914 116 == 0;
#X obj 914 140 sel 0;
#X msg 914 164 -1;
#X obj 289 14 inlet;
#X floatatom 446 63 5 0 0 0 - - - 0;
#X obj 36 97 ../filters/nestedAllpass_sjf~ 449 0.7 769 0.7;
#X obj 36 245 outlet~;
#X obj 38 199 ../filters/nestedAllpass_sjf~ 449 0.7 769 0.7;
#X obj 289 38 unpack 0 0 0 0 0 0 0 0;
#X floatatom 516 28 5 0 0 0 - - - 0;
#X obj 670 6 r~ \$0-difEarly;
#X obj 673 47 *~ 0.7;
#X floatatom 910 203 5 0 0 0 - - - 0;
#X connect 0 0 10 0;
#X connect 1 0 2 0;
#X connect 2 0 12 0;
#X connect 3 0 2 4;
#X connect 3 0 1 4;
#X connect 3 0 10 4;
#X connect 3 0 12 4;
#X connect 4 0 5 0;
#X connect 5 0 6 0;
#X connect 6 0 7 0;
#X connect 6 1 3 1;
#X connect 6 1 17 0;
#X connect 7 0 3 1;
#X connect 7 0 17 0;
#X connect 8 0 13 0;
#X connect 10 0 1 0;
#X connect 12 0 11 0;
#X connect 13 0 10 1;
#X connect 13 1 10 3;
#X connect 13 2 1 1;
#X connect 13 3 1 3;
#X connect 13 4 2 1;
#X connect 13 5 2 3;
#X connect 13 5 9 0;
#X connect 13 6 12 1;
#X connect 13 7 12 3;
#X connect 13 7 14 0;
#X connect 15 0 16 0;
#X connect 16 0 2 2;
#X connect 16 0 3 0;
#X connect 16 0 1 2;
#X connect 16 0 10 2;
#X connect 16 0 12 2;
#X restore 369 166 pd nap;
#N canvas 152 25 1226 847 sap 0;
#X obj 37 37 inlet~;
#X obj 39 314 ../filters/allpass1mult_sjf~ 1307 29 0.7, f 29;
#X obj 38 495 ../filters/allpass1mult_sjf~ 1307 29 0.7, f 29;
#X obj 39 624 ../filters/allpass1mult_sjf~ 1307 29 0.7, f 29;
#X obj 39 744 ../filters/allpass1mult_sjf~ 1307 29 0.7, f 29;
#X obj 418 359 ../filters/allpass1mult_sjf~ 1307 29 0.7, f 29;
#X obj 417 474 ../filters/allpass1mult_sjf~ 1307 29 0.7, f 29;
#X obj 417 773 outlet~;
#X obj 175 283 r~ \$0-difEarly;
#X obj 181 4 inlet;
#X obj 264 309 r \$0-lbang;
#X msg 264 333 32;
#X obj 444 198 8voiceRmod_sjf~, f 89;
#X obj 172 458 r~ \$0-difEarly;
#X obj 191 580 r~ \$0-difEarly;
#X obj 228 682 r~ \$0-difEarly;
#X obj 611 287 r~ \$0-difEarly;
#X obj 621 402 r~ \$0-difEarly;
#X obj 444 227 s~ \$0-rmod1;
#X obj 532 228 s~ \$0-rmod2;
#X obj 621 228 s~ \$0-rmod3;
#X obj 709 229 s~ \$0-rmod4;
#X obj 796 229 s~ \$0-rmod5;
#X obj 884 230 s~ \$0-rmod6;
#X obj 973 230 s~ \$0-rmod7;
#X obj 1061 231 s~ \$0-rmod8;
#X obj 196 222 r~ \$0-rmod1;
#X obj 70 176 r \$0-dt1;
#X obj 176 56 s \$0-dt1;
#X obj 181 28 unpack 0 0 0 0 0 0 0 0, f 72;
#X obj 241 56 s \$0-dt2;
#X obj 310 56 s \$0-dt3;
#X obj 375 56 s \$0-dt4;
#X obj 451 56 s \$0-dt5;
#X obj 516 56 s \$0-dt6;
#X obj 585 56 s \$0-dt7;
#X obj 650 56 s \$0-dt8;
#X obj 53 420 r \$0-dt2;
#X obj 57 554 r \$0-dt3;
#X obj 65 675 r \$0-dt4;
#X obj 434 283 r \$0-dt5;
#X obj 436 404 r \$0-dt6;
#X obj 503 404 r~ \$0-rmod6;
#X obj 501 283 r~ \$0-rmod5;
#X obj 132 675 r~ \$0-rmod4;
#X obj 124 554 r~ \$0-rmod3;
#X obj 120 420 r~ \$0-rmod2;
#X obj 263 490 r \$0-lbang;
#X msg 263 514 32;
#X obj 258 616 r \$0-lbang;
#X msg 258 640 32;
#X obj 257 741 r \$0-lbang;
#X msg 257 765 32;
#X obj 638 337 r \$0-lbang;
#X msg 638 361 32;
#X obj 638 462 r \$0-lbang;
#X msg 638 486 32;
#X obj 418 615 ../filters/allpass1mult_sjf~ 1307 29 0.7, f 29;
#X obj 417 730 ../filters/allpass1mult_sjf~ 1307 29 0.7, f 29;
#X obj 611 543 r~ \$0-difEarly;
#X obj 621 658 r~ \$0-difEarly;
#X obj 638 593 r \$0-lbang;
#X msg 638 617 32;
#X obj 638 718 r \$0-lbang;
#X msg 638 742 32;
#X obj 434 539 r \$0-dt7;
#X obj 501 539 r~ \$0-rmod7;
#X obj 436 660 r \$0-dt8;
#X obj 503 660 r~ \$0-rmod8;
#X obj 1064 171 r~ \$0-modulationD;
#X floatatom 444 123 5 0 0 0 - - - 0;
#X floatatom 444 170 13 0 0 0 - - - 0;
#X obj 444 146 expr pow($f1 \, 5);
#X obj 444 99 r \$0-modR;
#N canvas 295 320 450 300 modLogic 0;
#X obj 37 37 inlet;
#X obj 37 190 mod_sjf~, f 10;
#X obj 36 66 sig~;
#X obj 37 214 outlet~;
#X obj 164 109 inlet~;
#X obj 36 112 fexpr~ $y1[-1] + 0.000142455 * ( $x1[-1] - $y1[-1] ), f 15;
#X connect 0 0 2 0;
#X connect 1 0 3 0;
#X connect 2 0 5 0;
#X connect 4 0 1 1;
#X connect 5 0 1 0;
#X restore 80 272 pd modLogic;
#N canvas 295 320 450 300 modLogic 0;
#X obj 37 37 inlet;
#X obj 37 190 mod_sjf~, f 10;
#X obj 36 66 sig~;
#X obj 37 214 outlet~;
#X obj 240 70 inlet~;
#X obj 36 112 fexpr~ $y1[-1] + 0.000142455 * ( $x1[-1] - $y1[-1] );
#X connect 0 0 2 0;
#X connect 1 0 3 0;
#X connect 2 0 5 0;
#X connect 4 0 1 1;
#X connect 5 0 1 0;
#X restore 67 471 pd modLogic;
#N canvas 295 320 450 300 modLogic 0;
#X obj 37 37 inlet;
#X obj 37 190 mod_sjf~, f 10;
#X obj 36 66 sig~;
#X obj 37 214 outlet~;
#X obj 162 147 inlet~;
#X obj 36 112 fexpr~ $y1[-1] + 0.000142455 * ( $x1[-1] - $y1[-1] );
#X connect 0 0 2 0;
#X connect 1 0 3 0;
#X connect 2 0 5 0;
#X connect 4 0 1 1;
#X connect 5 0 1 0;
#X restore 70 591 pd modLogic;
#N canvas 295 320 450 300 modLogic 0;
#X obj 37 37 inlet;
#X obj 37 190 mod_sjf~, f 10;
#X obj 36 66 sig~;
#X obj 37 214 outlet~;
#X obj 187 166 inlet~;
#X obj 36 112 fexpr~ $y1[-1] + 0.000142455 * ( $x1[-1] - $y1[-1] );
#X connect 0 0 2 0;
#X connect 1 0 3 0;
#X connect 2 0 5 0;
#X connect 4 0 1 1;
#X connect 5 0 1 0;
#X restore 76 707 pd modLogic;
#N canvas 295 320 450 300 modLogic 0;
#X obj 37 37 inlet;
#X obj 37 190 mod_sjf~, f 10;
#X obj 36 66 sig~;
#X obj 37 214 outlet~;
#X obj 185 156 inlet~;
#X obj 36 112 fexpr~ $y1[-1] + 0.000142455 * ( $x1[-1] - $y1[-1] );
#X connect 0 0 2 0;
#X connect 1 0 3 0;
#X connect 2 0 5 0;
#X connect 4 0 1 1;
#X connect 5 0 1 0;
#X restore 460 694 pd modLogic;
#N canvas 295 320 450 300 modLogic 0;
#X obj 37 37 inlet;
#X obj 37 190 mod_sjf~, f 10;
#X obj 36 66 sig~;
#X obj 37 214 outlet~;
#X obj 177 161 inlet~;
#X obj 36 112 fexpr~ $y1[-1] + 0.000142455 * ( $x1[-1] - $y1[-1] );
#X connect 0 0 2 0;
#X connect 1 0 3 0;
#X connect 2 0 5 0;
#X connect 4 0 1 1;
#X connect 5 0 1 0;
#X restore 443 574 pd modLogic;
#N canvas 295 320 450 300 modLogic 0;
#X obj 37 37 inlet;
#X obj 37 190 mod_sjf~, f 10;
#X obj 36 66 sig~;
#X obj 37 214 outlet~;
#X obj 167 146 inlet~;
#X obj 36 112 fexpr~ $y1[-1] + 0.000142455 * ( $x1[-1] - $y1[-1] );
#X connect 0 0 2 0;
#X connect 1 0 3 0;
#X connect 2 0 5 0;
#X connect 4 0 1 1;
#X connect 5 0 1 0;
#X restore 445 432 pd modLogic;
#N canvas 295 320 450 300 modLogic 0;
#X obj 37 37 inlet;
#X obj 37 190 mod_sjf~, f 10;
#X obj 36 66 sig~;
#X obj 37 214 outlet~;
#X obj 180 156 inlet~;
#X obj 36 112 fexpr~ $y1[-1] + 0.000142455 * ( $x1[-1] - $y1[-1] );
#X connect 0 0 2 0;
#X connect 1 0 3 0;
#X connect 2 0 5 0;
#X connect 4 0 1 1;
#X connect 5 0 1 0;
#X restore 442 317 pd modLogic;
#X connect 0 0 1 0;
#X connect 1 0 2 0;
#X connect 2 0 3 0;
#X connect 3 0 4 0;
#X connect 4 0 5 0;
#X connect 5 0 6 0;
#X connect 6 0 57 0;
#X connect 8 0 1 2;
#X connect 9 0 29 0;
#X connect 10 0 11 0;
#X connect 11 0 1 3;
#X connect 12 0 18 0;
#X connect 12 1 19 0;
#X connect 12 2 20 0;
#X connect 12 3 21 0;
#X connect 12 4 22 0;
#X connect 12 5 23 0;
#X connect 12 6 24 0;
#X connect 12 7 25 0;
#X connect 13 0 2 2;
#X connect 14 0 3 2;
#X connect 15 0 4 2;
#X connect 16 0 5 2;
#X connect 17 0 6 2;
#X connect 26 0 74 1;
#X connect 27 0 74 0;
#X connect 29 0 28 0;
#X connect 29 1 30 0;
#X connect 29 2 31 0;
#X connect 29 3 32 0;
#X connect 29 4 33 0;
#X connect 29 5 34 0;
#X connect 29 6 35 0;
#X connect 29 7 36 0;
#X connect 37 0 75 0;
#X connect 38 0 76 0;
#X connect 39 0 77 0;
#X connect 40 0 81 0;
#X connect 41 0 80 0;
#X connect 42 0 80 1;
#X connect 43 0 81 1;
#X connect 44 0 77 1;
#X connect 45 0 76 1;
#X connect 46 0 75 1;
#X connect 47 0 48 0;
#X connect 48 0 2 3;
#X connect 49 0 50 0;
#X connect 50 0 3 3;
#X connect 51 0 52 0;
#X connect 52 0 4 3;
#X connect 53 0 54 0;
#X connect 54 0 5 3;
#X connect 55 0 56 0;
#X connect 56 0 6 3;
#X connect 57 0 58 0;
#X connect 58 0 7 0;
#X connect 59 0 57 2;
#X connect 60 0 58 2;
#X connect 61 0 62 0;
#X connect 62 0 57 3;
#X connect 63 0 64 0;
#X connect 64 0 58 3;
#X connect 65 0 79 0;
#X connect 66 0 79 1;
#X connect 67 0 78 0;
#X connect 68 0 78 1;
#X connect 69 0 12 1;
#X connect 70 0 72 0;
#X connect 71 0 12 0;
#X connect 72 0 71 0;
#X connect 73 0 70 0;
#X connect 74 0 1 1;
#X connect 75 0 2 1;
#X connect 76 0 3 1;
#X connect 77 0 4 1;
#X connect 78 0 58 1;
#X connect 79 0 57 1;
#X connect 80 0 6 1;
#X connect 81 0 5 1;
#X restore 297 165 pd sap;
#X obj 569 98 r \$0-lbang;
#X obj 297 113 mt_ER_sjf~ 32 500;
#N canvas 121 146 800 666 apTimes 0;
#X obj 44 42 inlet;
#X obj 44 137 / 44.1;
#X floatatom 44 161 5 0 0 0 - - - 0;
#X obj 123 137 / 44.1;
#X floatatom 123 161 5 0 0 0 - - - 0;
#X msg 44 113 449;
#X msg 123 113 769;
#X obj 195 137 / 44.1;
#X floatatom 195 161 5 0 0 0 - - - 0;
#X obj 274 137 / 44.1;
#X floatatom 274 161 5 0 0 0 - - - 0;
#X msg 195 113 223;
#X msg 274 113 107;
#X obj 354 137 / 44.1;
#X floatatom 354 161 5 0 0 0 - - - 0;
#X obj 433 137 / 44.1;
#X floatatom 433 161 5 0 0 0 - - - 0;
#X msg 354 113 61;
#X msg 433 113 71;
#X obj 500 137 / 44.1;
#X floatatom 500 161 5 0 0 0 - - - 0;
#X msg 500 113 307;
#X obj 44 77 t b b b b b b b b, f 77;
#X obj 44 213 pack 0 0 0 0 0 0 0 0, f 77;
#X obj 580 137 / 44.1;
#X floatatom 580 161 5 0 0 0 - - - 0;
#X obj 40 273 outlet;
#X msg 580 113 523;
#N canvas 179 204 753 496 sizeLogic 0;
#X obj 37 37 inlet;
#X obj 405 60 r \$0-size;
#X obj 122 83 t b f;
#X msg 308 200 set;
#X msg 70 354 8.64485 14.806 4.29354 2.06013 1.17447 1.367 5.91084 10.0696, f 95;
#X obj 68 145 t b l b, f 38;
#X obj 123 180 list split 1, f 15;
#X obj 123 204 * 1;
#X msg 99 271 add2 \$1;
#X obj 184 217 list;
#X obj 123 228 t b f;
#X obj 405 84 expr pow(2 \, $f1);
#X floatatom 405 108 5 0 0 0 - - - 0;
#X obj 35 113 list;
#X obj 36 68 t b l;
#X obj 70 378 outlet;
#X connect 0 0 14 0;
#X connect 1 0 11 0;
#X connect 2 0 13 0;
#X connect 2 1 7 1;
#X connect 3 0 4 0;
#X connect 4 0 15 0;
#X connect 5 0 4 0;
#X connect 5 1 6 0;
#X connect 5 2 3 0;
#X connect 6 0 7 0;
#X connect 6 1 9 1;
#X connect 7 0 10 0;
#X connect 8 0 4 0;
#X connect 9 0 6 0;
#X connect 10 0 9 0;
#X connect 10 1 8 0;
#X connect 11 0 12 0;
#X connect 12 0 2 0;
#X connect 13 0 5 0;
#X connect 14 0 13 0;
#X connect 14 1 13 1;
#X restore 44 237 pd sizeLogic;
#X connect 0 0 22 0;
#X connect 1 0 2 0;
#X connect 2 0 23 0;
#X connect 3 0 4 0;
#X connect 4 0 23 1;
#X connect 5 0 1 0;
#X connect 6 0 3 0;
#X connect 7 0 8 0;
#X connect 8 0 23 2;
#X connect 9 0 10 0;
#X connect 10 0 23 3;
#X connect 11 0 7 0;
#X connect 12 0 9 0;
#X connect 13 0 14 0;
#X connect 14 0 23 4;
#X connect 15 0 16 0;
#X connect 16 0 23 5;
#X connect 17 0 13 0;
#X connect 18 0 15 0;
#X connect 19 0 20 0;
#X connect 20 0 23 6;
#X connect 21 0 19 0;
#X connect 22 0 5 0;
#X connect 22 1 6 0;
#X connect 22 2 11 0;
#X connect 22 3 12 0;
#X connect 22 4 17 0;
#X connect 22 5 18 0;
#X connect 22 6 21 0;
#X connect 22 7 27 0;
#X connect 23 0 28 0;
#X connect 24 0 25 0;
#X connect 25 0 23 7;
#X connect 27 0 24 0;
#X connect 28 0 26 0;
#X restore 569 122 pd apTimes;
#X obj 384 270 *~ 0.408248;
#X obj 702 71 tgl 19 0 empty empty empty 0 -10 0 12 #fcfcfc #000000 #000000 0 1;
#X obj 685 106 == 0;
#X obj 685 130 pack 0 5;
#X obj 685 154 line~;
#X obj 753 130 pack 0 5;
#X obj 753 154 line~;
#X obj 297 219 *~;
#X obj 369 220 *~;
#X obj 1227 605 hsl 162 19 -1 2 0 1 \$0-size empty size -2 -10 0 12 #fcfcfc #000000 #000000 4100 1;
#N canvas 179 204 753 496 sizeLogic 0;
#X obj 37 37 inlet;
#X obj 405 60 r \$0-size;
#X obj 122 83 t b f;
#X msg 308 200 set;
#X msg 70 354 1870.53 1002.77 841.44, f 95;
#X obj 68 145 t b l b, f 38;
#X obj 123 180 list split 1, f 15;
#X obj 123 204 * 1;
#X msg 99 271 add2 \$1;
#X obj 184 217 list;
#X obj 123 228 t b f;
#X obj 405 84 expr pow(2 \, $f1);
#X floatatom 405 108 5 0 0 0 - - - 0;
#X obj 35 113 list;
#X obj 36 68 t b l;
#X obj 70 378 outlet;
#X connect 0 0 14 0;
#X connect 1 0 11 0;
#X connect 2 0 13 0;
#X connect 2 1 7 1;
#X connect 3 0 4 0;
#X connect 4 0 15 0;
#X connect 5 0 4 0;
#X connect 5 1 6 0;
#X connect 5 2 3 0;
#X connect 6 0 7 0;
#X connect 6 1 9 1;
#X connect 7 0 10 0;
#X connect 8 0 4 0;
#X connect 9 0 6 0;
#X connect 10 0 9 0;
#X connect 10 1 8 0;
#X connect 11 0 12 0;
#X connect 12 0 2 0;
#X connect 13 0 5 0;
#X connect 14 0 13 0;
#X connect 14 1 13 1;
#X restore 258 382 pd sizeLogic;
#N canvas 179 204 753 496 sizeLogic 0;
#X obj 37 37 inlet;
#X obj 405 60 r \$0-size;
#X obj 122 83 t b f;
#X msg 308 200 set;
#X msg 70 354 2257.71 958.613 1376.36, f 95;
#X obj 68 145 t b l b, f 38;
#X obj 123 180 list split 1, f 15;
#X obj 123 204 * 1;
#X msg 99 271 add2 \$1;
#X obj 184 217 list;
#X obj 123 228 t b f;
#X obj 405 84 expr pow(2 \, $f1);
#X floatatom 405 108 5 0 0 0 - - - 0;
#X obj 35 113 list;
#X obj 36 68 t b l;
#X obj 70 378 outlet;
#X connect 0 0 14 0;
#X connect 1 0 11 0;
#X connect 2 0 13 0;
#X connect 2 1 7 1;
#X connect 3 0 4 0;
#X connect 4 0 15 0;
#X connect 5 0 4 0;
#X connect 5 1 6 0;
#X connect 5 2 3 0;
#X connect 6 0 7 0;
#X connect 6 1 9 1;
#X connect 7 0 10 0;
#X connect 8 0 4 0;
#X connect 9 0 6 0;
#X connect 10 0 9 0;
#X connect 10 1 8 0;
#X connect 11 0 12 0;
#X connect 12 0 2 0;
#X connect 13 0 5 0;
#X connect 14 0 13 0;
#X connect 14 1 13 1;
#X restore 327 694 pd sizeLogic;
#N canvas 179 204 753 496 sizeLogic 0;
#X obj 37 37 inlet;
#X obj 405 60 r \$0-size;
#X obj 122 83 t b f;
#X msg 308 200 set;
#X msg 70 354 2689.04 1519.01 1196.36, f 95;
#X obj 68 145 t b l b, f 38;
#X obj 123 180 list split 1, f 15;
#X obj 123 204 * 1;
#X msg 99 271 add2 \$1;
#X obj 184 217 list;
#X obj 123 228 t b f;
#X obj 405 84 expr pow(2 \, $f1);
#X floatatom 405 108 5 0 0 0 - - - 0;
#X obj 35 113 list;
#X obj 36 68 t b l;
#X obj 70 378 outlet;
#X connect 0 0 14 0;
#X connect 1 0 11 0;
#X connect 2 0 13 0;
#X connect 2 1 7 1;
#X connect 3 0 4 0;
#X connect 4 0 15 0;
#X connect 5 0 4 0;
#X connect 5 1 6 0;
#X connect 5 2 3 0;
#X connect 6 0 7 0;
#X connect 6 1 9 1;
#X connect 7 0 10 0;
#X connect 8 0 4 0;
#X connect 9 0 6 0;
#X connect 10 0 9 0;
#X connect 10 1 8 0;
#X connect 11 0 12 0;
#X connect 12 0 2 0;
#X connect 13 0 5 0;
#X connect 14 0 13 0;
#X connect 14 1 13 1;
#X restore 341 904 pd sizeLogic;
#N canvas 179 204 753 496 sizeLogic 0;
#X obj 37 37 inlet;
#X obj 405 60 r \$0-size;
#X obj 122 83 t b f;
#X msg 308 200 set;
#X msg 70 354 1656.56 1033.33 697.096, f 95;
#X obj 68 145 t b l b, f 38;
#X obj 123 180 list split 1, f 15;
#X obj 123 204 * 1;
#X msg 99 271 add2 \$1;
#X obj 184 217 list;
#X obj 123 228 t b f;
#X obj 405 84 expr pow(2 \, $f1);
#X floatatom 405 108 5 0 0 0 - - - 0;
#X obj 35 113 list;
#X obj 36 68 t b l;
#X obj 70 378 outlet;
#X connect 0 0 14 0;
#X connect 1 0 11 0;
#X connect 2 0 13 0;
#X connect 2 1 7 1;
#X connect 3 0 4 0;
#X connect 4 0 15 0;
#X connect 5 0 4 0;
#X connect 5 1 6 0;
#X connect 5 2 3 0;
#X connect 6 0 7 0;
#X connect 6 1 9 1;
#X connect 7 0 10 0;
#X connect 8 0 4 0;
#X connect 9 0 6 0;
#X connect 10 0 9 0;
#X connect 10 1 8 0;
#X connect 11 0 12 0;
#X connect 12 0 2 0;
#X connect 13 0 5 0;
#X connect 14 0 13 0;
#X connect 14 1 13 1;
#X restore 960 467 pd sizeLogic;
#N canvas 179 204 753 496 sizeLogic 0;
#X obj 37 37 inlet;
#X obj 405 60 r \$0-size;
#X obj 122 83 t b f;
#X msg 308 200 set;
#X msg 70 354 2028.46 1109.75 1216.73, f 95;
#X obj 68 145 t b l b, f 38;
#X obj 123 180 list split 1, f 15;
#X obj 123 204 * 1;
#X msg 99 271 add2 \$1;
#X obj 184 217 list;
#X obj 123 228 t b f;
#X obj 405 84 expr pow(2 \, $f1);
#X floatatom 405 108 5 0 0 0 - - - 0;
#X obj 35 113 list;
#X obj 36 68 t b l;
#X obj 70 378 outlet;
#X connect 0 0 14 0;
#X connect 1 0 11 0;
#X connect 2 0 13 0;
#X connect 2 1 7 1;
#X connect 3 0 4 0;
#X connect 4 0 15 0;
#X connect 5 0 4 0;
#X connect 5 1 6 0;
#X connect 5 2 3 0;
#X connect 6 0 7 0;
#X connect 6 1 9 1;
#X connect 7 0 10 0;
#X connect 8 0 4 0;
#X connect 9 0 6 0;
#X connect 10 0 9 0;
#X connect 10 1 8 0;
#X connect 11 0 12 0;
#X connect 12 0 2 0;
#X connect 13 0 5 0;
#X connect 14 0 13 0;
#X connect 14 1 13 1;
#X restore 939 653 pd sizeLogic;
#N canvas 179 204 753 496 sizeLogic 0;
#X obj 37 37 inlet;
#X obj 405 60 r \$0-size;
#X obj 122 83 t b f;
#X msg 308 200 set;
#X msg 70 354 3582.28 1794.11 1792.41, f 95;
#X obj 68 145 t b l b, f 38;
#X obj 123 180 list split 1, f 15;
#X obj 123 204 * 1;
#X msg 99 271 add2 \$1;
#X obj 184 217 list;
#X obj 123 228 t b f;
#X obj 405 84 expr pow(2 \, $f1);
#X floatatom 405 108 5 0 0 0 - - - 0;
#X obj 35 113 list;
#X obj 36 68 t b l;
#X obj 70 378 outlet;
#X connect 0 0 14 0;
#X connect 1 0 11 0;
#X connect 2 0 13 0;
#X connect 2 1 7 1;
#X connect 3 0 4 0;
#X connect 4 0 15 0;
#X connect 5 0 4 0;
#X connect 5 1 6 0;
#X connect 5 2 3 0;
#X connect 6 0 7 0;
#X connect 6 1 9 1;
#X connect 7 0 10 0;
#X connect 8 0 4 0;
#X connect 9 0 6 0;
#X connect 10 0 9 0;
#X connect 10 1 8 0;
#X connect 11 0 12 0;
#X connect 12 0 2 0;
#X connect 13 0 5 0;
#X connect 14 0 13 0;
#X connect 14 1 13 1;
#X restore 966 915 pd sizeLogic;
#X floatatom 1240 661 5 0 0 0 - - - 0;
#X obj 1240 637 r \$0-size;
#X msg 1180 588 0;
#X obj 637 323 line~;
#X obj 637 267 pack 0 10;
#X connect 0 0 3 0;
#X connect 3 0 92 0;
#X connect 4 0 5 0;
#X connect 5 0 6 0;
#X connect 14 0 3 1;
#X connect 16 0 17 0;
#X connect 17 0 108 0;
#X connect 18 0 60 2;
#X connect 19 0 60 3;
#X connect 20 0 60 4;
#X connect 21 0 25 0;
#X connect 22 0 59 2;
#X connect 23 0 59 3;
#X connect 24 0 59 4;
#X connect 25 0 105 0;
#X connect 26 0 62 0;
#X connect 27 0 61 2;
#X connect 28 0 61 3;
#X connect 29 0 61 4;
#X connect 30 0 63 0;
#X connect 31 0 58 2;
#X connect 32 0 58 3;
#X connect 33 0 58 4;
#X connect 34 0 35 0;
#X connect 36 0 61 6;
#X connect 37 0 60 6;
#X connect 38 0 58 6;
#X connect 39 0 59 6;
#X connect 40 0 41 0;
#X connect 41 0 114 0;
#X connect 42 0 53 0;
#X connect 42 0 66 1;
#X connect 42 0 58 0;
#X connect 42 0 59 0;
#X connect 43 0 56 0;
#X connect 44 0 54 2;
#X connect 45 0 54 3;
#X connect 46 0 54 4;
#X connect 47 0 55 0;
#X connect 48 0 53 2;
#X connect 49 0 53 3;
#X connect 50 0 53 4;
#X connect 51 0 54 6;
#X connect 52 0 53 6;
#X connect 53 0 66 0;
#X connect 54 0 67 0;
#X connect 55 0 106 0;
#X connect 56 0 109 0;
#X connect 58 0 67 0;
#X connect 59 0 66 0;
#X connect 60 0 67 0;
#X connect 61 0 66 0;
#X connect 62 0 107 0;
#X connect 63 0 104 0;
#X connect 64 0 54 0;
#X connect 64 0 67 1;
#X connect 64 0 61 0;
#X connect 64 0 60 0;
#X connect 66 0 1 0;
#X connect 67 0 2 0;
#X connect 68 0 53 1;
#X connect 69 0 68 1;
#X connect 70 0 59 1;
#X connect 71 0 70 1;
#X connect 72 0 58 1;
#X connect 73 0 72 1;
#X connect 74 0 61 1;
#X connect 75 0 74 1;
#X connect 76 0 60 1;
#X connect 77 0 76 1;
#X connect 78 0 54 1;
#X connect 79 0 78 1;
#X connect 80 0 72 0;
#X connect 81 0 70 0;
#X connect 82 0 68 0;
#X connect 83 0 84 0;
#X connect 84 0 74 0;
#X connect 85 0 86 0;
#X connect 86 0 76 0;
#X connect 87 0 88 0;
#X connect 88 0 78 0;
#X connect 89 0 102 0;
#X connect 90 0 101 0;
#X connect 91 0 93 0;
#X connect 92 0 89 0;
#X connect 92 0 90 0;
#X connect 93 0 90 1;
#X connect 93 0 89 1;
#X connect 94 0 64 0;
#X connect 94 0 42 0;
#X connect 95 0 96 0;
#X connect 95 0 99 0;
#X connect 96 0 97 0;
#X connect 97 0 98 0;
#X connect 98 0 101 1;
#X connect 99 0 100 0;
#X connect 100 0 102 1;
#X connect 101 0 94 0;
#X connect 102 0 94 0;
#X connect 104 0 58 5;
#X connect 105 0 59 5;
#X connect 106 0 53 5;
#X connect 107 0 61 5;
#X connect 108 0 60 5;
#X connect 109 0 54 5;
#X connect 111 0 110 0;
#X connect 112 0 103 0;
#X connect 113 0 42 1;
#X connect 113 0 64 1;
#X connect 114 0 113 0;
