#N canvas 0 25 1440 847 12;
#X obj 745 35 inlet~;
#X obj 48 353 delwrite~ \$0-d1 1000;
#X obj 49 521 delread~ \$0-d1;
#X obj 49 802 delwrite~ \$0-d2 1000;
#X obj 374 134 delread~ \$0-d2;
#X obj 374 353 delwrite~ \$0-d3 1000;
#X obj 470 498 delread~ \$0-d3;
#X obj 470 803 delwrite~ \$0-d4 1000;
#X obj 48 142 delread~ \$0-d4;
#X obj 470 676 fexpr~ $x1[0] + $x2[0] * ( $y1[-1] - $x1[0] ), f 46;
#X obj 49 675 fexpr~ $x1[0] + $x2[0] * ( $y1[-1] - $x1[0] ), f 46;
#X msg 49 450 2659;
#X floatatom 49 498 12 0 0 0 - - - 0;
#X obj 49 474 / 44.1;
#X floatatom 470 471 12 0 0 0 - - - 0;
#X obj 470 447 / 44.1;
#X msg 470 423 2389;
#X floatatom 374 111 12 0 0 0 - - - 0;
#X obj 374 87 / 44.1;
#X msg 374 63 1951;
#X floatatom 48 115 12 0 0 0 - - - 0;
#X obj 48 91 / 44.1;
#X msg 48 67 2203;
#X obj 196 395 outlet~;
#X obj 312 395 outlet~;
#X obj 773 314 +~;
#X msg 191 67 1181;
#X obj 191 91 / 44.1;
#X floatatom 191 115 5 0 0 0 - - - 0;
#X obj 270 91 / 44.1;
#X floatatom 270 115 5 0 0 0 - - - 0;
#X msg 270 67 991;
#X obj 492 87 / 44.1;
#X floatatom 492 111 5 0 0 0 - - - 0;
#X obj 571 87 / 44.1;
#X floatatom 571 111 5 0 0 0 - - - 0;
#X msg 492 63 1217;
#X msg 571 63 821;
#X obj 222 474 / 44.1;
#X floatatom 222 498 5 0 0 0 - - - 0;
#X obj 301 474 / 44.1;
#X floatatom 301 498 5 0 0 0 - - - 0;
#X msg 222 450 1129;
#X msg 301 450 1621;
#X obj 602 447 / 44.1;
#X floatatom 602 471 5 0 0 0 - - - 0;
#X obj 681 447 / 44.1;
#X floatatom 681 471 5 0 0 0 - - - 0;
#X msg 602 423 1307;
#X msg 681 423 1433;
#X obj 1006 85 / 44.1;
#X floatatom 1006 109 5 0 0 0 - - - 0;
#X obj 1085 88 / 44.1;
#X floatatom 1085 112 5 0 0 0 - - - 0;
#X msg 1006 61 449;
#X msg 1085 64 769;
#X obj 773 194 fexpr~ $x1[0] + $x2[0] * ( $y1[-1] - $x1[0] ), f 46;
#X obj 1187 87 / 44.1;
#X floatatom 1187 111 5 0 0 0 - - - 0;
#X obj 1266 90 / 44.1;
#X floatatom 1266 114 5 0 0 0 - - - 0;
#X msg 1187 63 223;
#X msg 1266 66 107;
#N canvas 92 117 450 300 mod 0;
#X obj 163 38 inlet~;
#X obj 74 71 sig~;
#X obj 62 142 +~;
#X obj 123 124 *~;
#X obj 75 40 inlet;
#X obj 62 166 outlet~;
#X connect 0 0 3 1;
#X connect 1 0 2 0;
#X connect 1 0 3 0;
#X connect 2 0 5 0;
#X connect 3 0 2 1;
#X connect 4 0 1 0;
#X restore 158 183 pd mod;
#N canvas 92 117 450 300 mod 0;
#X obj 163 38 inlet~;
#X obj 74 71 sig~;
#X obj 62 142 +~;
#X obj 123 124 *~;
#X obj 75 40 inlet;
#X obj 62 166 outlet~;
#X connect 0 0 3 1;
#X connect 1 0 2 0;
#X connect 1 0 3 0;
#X connect 2 0 5 0;
#X connect 3 0 2 1;
#X connect 4 0 1 0;
#X restore 486 169 pd mod;
#X obj 1324 166 loadbang;
#X obj 1324 190 bng 19 250 50 0 empty empty empty 0 -10 0 12 #fcfcfc #000000 #000000;
#X obj 1324 214 s \$0-lbang;
#X obj 455 34 r \$0-lbang;
#X obj 163 32 r \$0-lbang;
#X obj 151 422 r \$0-lbang;
#X obj 538 375 r \$0-lbang;
#X obj 1043 22 r \$0-lbang;
#X obj 773 226 ../filters/nestedAllpass_sjf~ 449 0.7 769 0.7;
#X obj 773 258 ../filters/nestedAllpass_sjf~ 449 0.7 769 0.7;
#X obj 1213 631 hsl 162 19 0 1 0 1 \$0-decaySnd empty decay -2 -10 0 12 #fcfcfc #000000 #000000 8500 1;
#X obj 789 631 r~ \$0-damp;
#X obj 340 637 r~ \$0-damp;
#X obj 1213 586 hsl 162 19 0 1 0 0 \$0-dampingSnd empty damping -2 -10 0 12 #fcfcfc #000000 #000000 0 1;
#X obj 773 290 ../filters/nestedAllpass_sjf~ 449 0.7 769 0.7;
#X obj 1326 85 / 44.1;
#X floatatom 1326 109 5 0 0 0 - - - 0;
#X obj 1405 88 / 44.1;
#X floatatom 1405 112 5 0 0 0 - - - 0;
#X msg 1326 61 61;
#X msg 1405 64 71;
#X obj 49 555 ../filters/allpass1mult_sjf~ 1129 25 0.7;
#X obj 49 597 ../filters/allpass1mult_sjf~ 1621 36 0.7;
#X obj 470 539 ../filters/allpass1mult_sjf~ 1307 29 0.7;
#X obj 470 581 ../filters/allpass1mult_sjf~ 1433 32 0.7;
#X obj 374 283 ../filters/allpass1mult_sjf~ 1217 27 0.7;
#X obj 374 319 ../filters/allpass1mult_sjf~ 821 18 0.7;
#X obj 48 283 ../filters/allpass1mult_sjf~ 1181 26 0.7;
#X obj 55 319 ../filters/allpass1mult_sjf~ 991 22 0.7;
#X obj 488 615 r~ \$0-decay;
#X obj 470 640 *~;
#X obj 128 641 r~ \$0-decay;
#X obj 49 639 *~;
#X obj 1213 676 hsl 162 19 0 1 0 1 \$0-modD empty modulation_depth -2 -10 0 12 #fcfcfc #000000 #000000 0 1;
#X obj 1213 721 hsl 162 19 0 1 0 1 \$0-modR empty modulation_rate -2 -10 0 12 #fcfcfc #000000 #000000 8300 1;
#X obj 1213 766 hsl 162 19 0 1 0 1 \$0-diffuse2 empty diffuse2 -2 -10 0 12 #fcfcfc #000000 #000000 13700 1;
#X obj 776 496 r~ \$0-difLate;
#X obj 327 528 r~ \$0-difLate;
#X obj 240 236 r~ \$0-difLate;
#X obj 588 217 r~ \$0-difLate;
#N canvas 0 -1895 1054 818 params 1;
#X floatatom 324 229 5 0 0 0 - - - 0;
#X obj 324 276 line~;
#X obj 324 300 s~ \$0-damp;
#X floatatom 67 364 5 0 0 0 - - - 0;
#X obj 67 459 line~;
#X obj 67 340 r \$0-decaySnd;
#X obj 67 483 s~ \$0-decay;
#X obj 324 201 r \$0-dampingSnd;
#X floatatom 197 176 5 0 0 0 - - - 0;
#X obj 197 276 line~;
#X floatatom 197 223 13 0 0 0 - - - 0;
#X obj 197 199 expr pow($f1 \, 5);
#X obj 197 152 r \$0-modD;
#X obj 197 300 s~ \$0-modulationD;
#X floatatom 67 181 5 0 0 0 - - - 0;
#X obj 67 276 line~;
#X floatatom 67 228 13 0 0 0 - - - 0;
#X obj 67 204 expr pow($f1 \, 5);
#X obj 67 157 r \$0-modR;
#X obj 67 300 s~ \$0-modulationR;
#X obj 339 17 r \$0-diffuse2;
#X floatatom 339 41 5 0 0 0 - - - 0;
#X floatatom 339 88 5 0 0 0 - - - 0;
#X obj 339 135 line~;
#X obj 339 159 s~ \$0-difLate;
#X msg 339 111 \$1 50;
#X msg 197 252 \$1 50;
#X msg 67 252 \$1 50;
#X msg 324 252 \$1 50;
#X msg 67 435 \$1 50;
#X obj 674 215 cos~;
#X obj 674 164 cos~;
#X obj 674 118 phasor~ 0.05;
#X obj 674 306 *~;
#X obj 585 306 *~;
#X obj 731 243 r~ \$0-modulationD;
#X obj 674 86 r~ \$0-modulationR;
#X obj 585 242 cos~;
#X obj 585 197 +~ 0.75;
#X obj 585 330 s~ \$0-mod1;
#X obj 674 330 s~ \$0-mod2;
#X obj 339 64 expr pow($f1 \, 3)*0.5 + 0.2;
#X floatatom 317 406 5 0 0 0 - - - 0;
#X obj 317 453 line~;
#X msg 317 429 \$1 50;
#X obj 317 378 r \$0-inputdampingSnd;
#X obj 317 477 s~ \$0-indamp;
#X floatatom 524 443 5 0 0 0 - - - 0;
#X floatatom 524 490 5 0 0 0 - - - 0;
#X obj 524 537 line~;
#X msg 524 513 \$1 50;
#X obj 524 419 r \$0-indiffuse;
#X obj 524 561 s~ \$0-difEarly;
#X obj 524 466 expr pow($f1 \, 3)*0.6 + 0.2;
#X obj 67 387 * 0.9025;
#X obj 657 655 inlet~;
#X obj 762 634 * 0.001;
#X obj 657 697 expr~ pow(10 \, (-3*$f2/($v1)));
#X text 648 635 size scale;
#X obj 762 605 tabread \$2-\$3Delays;
#X obj 762 561 bng 19 250 50 0 empty empty empty 0 -10 0 12 #fcfcfc #000000 #000000;
#X obj 762 583 \$1;
#X obj 762 539 r \$2-dtChange;
#X floatatom 115 555 5 0 0 0 - - - 0;
#X obj 114 726 pack 0 5;
#X obj 114 750 line~;
#X obj 115 578 min 1;
#X obj 115 602 max 0;
#X obj 114 677 * 9.5;
#X obj 114 701 + 0.5;
#X obj 115 531 r \$0-decay;
#X obj 114 774 s~ \$0-decaySig;
#X floatatom 115 650 5 0 0 0 - - - 0;
#X obj 115 626 expr pow($f1 \, 2);
#X floatatom 195 739 5 0 0 0 - - - 0;
#X connect 0 0 28 0;
#X connect 1 0 2 0;
#X connect 3 0 54 0;
#X connect 4 0 6 0;
#X connect 5 0 3 0;
#X connect 7 0 0 0;
#X connect 8 0 11 0;
#X connect 9 0 13 0;
#X connect 10 0 26 0;
#X connect 11 0 10 0;
#X connect 12 0 8 0;
#X connect 14 0 17 0;
#X connect 15 0 19 0;
#X connect 16 0 27 0;
#X connect 17 0 16 0;
#X connect 18 0 14 0;
#X connect 20 0 21 0;
#X connect 21 0 41 0;
#X connect 22 0 25 0;
#X connect 23 0 24 0;
#X connect 25 0 23 0;
#X connect 26 0 9 0;
#X connect 27 0 15 0;
#X connect 28 0 1 0;
#X connect 29 0 4 0;
#X connect 30 0 33 0;
#X connect 31 0 30 0;
#X connect 31 0 38 0;
#X connect 32 0 31 0;
#X connect 33 0 40 0;
#X connect 34 0 39 0;
#X connect 35 0 33 1;
#X connect 35 0 34 1;
#X connect 36 0 32 0;
#X connect 37 0 34 0;
#X connect 38 0 37 0;
#X connect 41 0 22 0;
#X connect 42 0 44 0;
#X connect 43 0 46 0;
#X connect 44 0 43 0;
#X connect 45 0 42 0;
#X connect 47 0 53 0;
#X connect 48 0 50 0;
#X connect 49 0 52 0;
#X connect 50 0 49 0;
#X connect 51 0 47 0;
#X connect 53 0 48 0;
#X connect 54 0 29 0;
#X connect 55 0 57 0;
#X connect 56 0 57 1;
#X connect 59 0 56 0;
#X connect 60 0 61 0;
#X connect 61 0 59 0;
#X connect 62 0 60 0;
#X connect 63 0 66 0;
#X connect 64 0 65 0;
#X connect 65 0 71 0;
#X connect 66 0 67 0;
#X connect 67 0 73 0;
#X connect 68 0 69 0;
#X connect 69 0 64 0;
#X connect 69 0 74 0;
#X connect 70 0 63 0;
#X connect 72 0 68 0;
#X connect 73 0 72 0;
#X restore 1103 687 pd params;
#X obj 198 153 r~ \$0-mod1;
#X obj 523 143 r~ \$0-mod2;
#X obj 1213 481 hsl 162 19 0 1 0 0 \$0-inputdampingSnd empty input\ damping -2 -10 0 12 #fcfcfc #000000 #000000 0 1;
#X obj 1143 196 r~ \$0-indamp;
#X obj 1213 526 hsl 162 19 0 1 0 1 \$0-indiffuse empty input\ diffuse -2 -10 0 12 #fcfcfc #000000 #000000 12800 1;
#X obj 1138 245 r~ \$0-difEarly;
#X obj 776 539 *~;
#X obj 340 559 *~;
#X obj 918 384 allpassLoop/KB_APLoop_sjf~;
#X obj 1095 325 r \$0-lbang;
#X msg 1095 349 2389 1307 1433;
#X connect 0 0 56 0;
#X connect 2 0 86 0;
#X connect 4 0 90 0;
#X connect 6 0 88 0;
#X connect 8 0 92 0;
#X connect 9 0 23 0;
#X connect 9 0 7 0;
#X connect 10 0 24 0;
#X connect 10 0 3 0;
#X connect 11 0 13 0;
#X connect 12 0 2 0;
#X connect 13 0 12 0;
#X connect 14 0 6 0;
#X connect 15 0 14 0;
#X connect 16 0 15 0;
#X connect 17 0 4 0;
#X connect 18 0 17 0;
#X connect 19 0 18 0;
#X connect 20 0 8 0;
#X connect 21 0 20 0;
#X connect 22 0 21 0;
#X connect 25 0 90 0;
#X connect 25 0 92 0;
#X connect 25 0 88 0;
#X connect 25 0 86 0;
#X connect 26 0 27 0;
#X connect 27 0 28 0;
#X connect 28 0 63 0;
#X connect 29 0 30 0;
#X connect 30 0 93 1;
#X connect 31 0 29 0;
#X connect 32 0 33 0;
#X connect 33 0 64 0;
#X connect 34 0 35 0;
#X connect 35 0 91 1;
#X connect 36 0 32 0;
#X connect 37 0 34 0;
#X connect 38 0 39 0;
#X connect 39 0 86 1;
#X connect 40 0 41 0;
#X connect 41 0 87 1;
#X connect 42 0 38 0;
#X connect 43 0 40 0;
#X connect 44 0 45 0;
#X connect 45 0 88 1;
#X connect 46 0 47 0;
#X connect 47 0 89 1;
#X connect 48 0 44 0;
#X connect 49 0 46 0;
#X connect 50 0 51 0;
#X connect 51 0 73 1;
#X connect 52 0 53 0;
#X connect 53 0 73 3;
#X connect 54 0 50 0;
#X connect 55 0 52 0;
#X connect 56 0 73 0;
#X connect 57 0 58 0;
#X connect 58 0 74 1;
#X connect 59 0 60 0;
#X connect 60 0 74 3;
#X connect 61 0 57 0;
#X connect 62 0 59 0;
#X connect 63 0 92 1;
#X connect 64 0 90 1;
#X connect 65 0 66 0;
#X connect 66 0 67 0;
#X connect 68 0 19 0;
#X connect 68 0 36 0;
#X connect 68 0 37 0;
#X connect 69 0 22 0;
#X connect 69 0 26 0;
#X connect 69 0 31 0;
#X connect 70 0 11 0;
#X connect 70 0 42 0;
#X connect 70 0 43 0;
#X connect 71 0 16 0;
#X connect 71 0 48 0;
#X connect 71 0 49 0;
#X connect 72 0 54 0;
#X connect 72 0 55 0;
#X connect 72 0 61 0;
#X connect 72 0 62 0;
#X connect 72 0 84 0;
#X connect 72 0 85 0;
#X connect 73 0 74 0;
#X connect 74 0 79 0;
#X connect 76 0 9 1;
#X connect 77 0 10 1;
#X connect 79 0 25 0;
#X connect 80 0 81 0;
#X connect 81 0 79 1;
#X connect 82 0 83 0;
#X connect 83 0 79 3;
#X connect 84 0 80 0;
#X connect 85 0 82 0;
#X connect 86 0 87 0;
#X connect 87 0 97 0;
#X connect 88 0 89 0;
#X connect 89 0 95 0;
#X connect 90 0 24 0;
#X connect 90 0 91 0;
#X connect 91 0 5 0;
#X connect 92 0 93 0;
#X connect 92 0 23 0;
#X connect 93 0 1 0;
#X connect 94 0 95 1;
#X connect 95 0 9 0;
#X connect 96 0 97 1;
#X connect 97 0 10 0;
#X connect 101 0 88 2;
#X connect 101 0 112 0;
#X connect 102 0 86 2;
#X connect 102 0 113 0;
#X connect 103 0 92 2;
#X connect 103 0 93 2;
#X connect 104 0 90 2;
#X connect 104 0 91 2;
#X connect 106 0 63 1;
#X connect 107 0 64 1;
#X connect 109 0 56 1;
#X connect 111 0 73 2;
#X connect 111 0 74 2;
#X connect 111 0 79 2;
#X connect 111 0 73 4;
#X connect 111 0 74 4;
#X connect 111 0 79 4;
#X connect 112 0 89 2;
#X connect 113 0 87 2;
#X connect 115 0 116 0;
#X connect 116 0 114 5;
