#N canvas 14 25 1410 721 12;
#X obj 47 333 inlet~;
#X obj 111 334 inlet~;
#X obj 59 391 FDN/had2_sjf~;
#X obj 19 44 hsl 162 19 0 1 0 0 \$0-decay \$0-decay decay 10 10 0 12 #fcfcfc #000000 #000000 0 1;
#X obj 19 63 hsl 162 19 0 1 0 0 \$0-damping \$0-damping damping 10 10 0 12 #fcfcfc #000000 #000000 0 1;
#N canvas 521 303 743 300 params 0;
#X obj 21 41 r \$0-spread;
#X floatatom 21 65 5 0 0 0 - - - 0;
#X obj 21 136 * 10;
#X text 57 134 ms;
#X obj 21 160 pack 0 5;
#X obj 21 184 line~;
#X obj 21 208 s~ \$0-spreadSig;
#X floatatom 284 69 5 0 0 0 - - - 0;
#X obj 282 186 pack 0 5;
#X obj 283 211 line~;
#X obj 284 45 r \$0-damping;
#X obj 283 235 s~ \$0-dampingSig;
#X obj 21 88 min 1;
#X obj 21 112 max 0;
#X obj 284 92 min 1;
#X obj 284 116 max 0;
#X obj 284 140 * 0.6;
#X obj 284 164 + 0.35;
#X floatatom 181 30 5 0 0 0 - - - 0;
#X obj 181 193 pack 0 5;
#X obj 181 217 line~;
#X obj 181 241 s~ \$0-sizeSig;
#X obj 181 53 min 1;
#X obj 181 77 max 0;
#X obj 181 144 * 9.5;
#X obj 181 168 + 0.5;
#X obj 181 101 expr pow($f1 \, 3), f 11;
#X obj 181 6 r \$0-decay;
#X floatatom 434 70 5 0 0 0 - - - 0;
#X obj 434 174 line~;
#X obj 434 93 min 1;
#X obj 434 119 max 0;
#X obj 493 16 r \$0-modulation;
#X obj 434 200 s~ \$0-modulationSig;
#X obj 536 157 s~ \$0-modPhasor;
#X obj 434 147 pack 0 5;
#X obj 493 40 > 0;
#X obj 494 64 s \$0-modFlag;
#X obj 536 133 phasor~ 1;
#X connect 0 0 1 0;
#X connect 1 0 12 0;
#X connect 2 0 4 0;
#X connect 4 0 5 0;
#X connect 5 0 6 0;
#X connect 7 0 14 0;
#X connect 8 0 9 0;
#X connect 9 0 11 0;
#X connect 10 0 7 0;
#X connect 12 0 13 0;
#X connect 13 0 2 0;
#X connect 14 0 15 0;
#X connect 15 0 16 0;
#X connect 16 0 17 0;
#X connect 17 0 8 0;
#X connect 18 0 22 0;
#X connect 19 0 20 0;
#X connect 20 0 21 0;
#X connect 22 0 23 0;
#X connect 23 0 26 0;
#X connect 24 0 25 0;
#X connect 25 0 19 0;
#X connect 26 0 24 0;
#X connect 27 0 18 0;
#X connect 28 0 30 0;
#X connect 29 0 33 0;
#X connect 30 0 31 0;
#X connect 31 0 35 0;
#X connect 32 0 28 0;
#X connect 32 0 36 0;
#X connect 35 0 29 0;
#X connect 36 0 37 0;
#X connect 38 0 34 0;
#X restore 917 363 pd params;
#N canvas 990 561 450 300 load 0;
#X obj 154 56 bng 19 250 50 0 empty empty empty 0 -10 0 12 #fcfcfc #000000 #000000;
#X obj 154 80 \$0;
#X obj 154 33 loadbang;
#X obj 154 104 outlet;
#X msg 61 146 \; \$1-spread 0.052 \; \$1-decay 0.5 \; \$1-damping 0.5 \; \$1-dimensionR 20 \; \$1-dsp 0 \; \$1-modulation 0.2;
#X connect 0 0 1 0;
#X connect 1 0 3 0;
#X connect 1 0 4 0;
#X connect 2 0 0 0;
#X restore 917 315 pd load;
#X obj 917 339 outlet;
#X obj 139 526 delwrite~ \$0-fdn0 500, f 11;
#X obj 227 526 delwrite~ \$0-fdn1 500, f 11;
#X obj 207 441 FDN/hadamard8_sjf~, f 63;
#X obj 315 526 delwrite~ \$0-fdn2 500, f 11;
#X obj 400 526 delwrite~ \$0-fdn3 500, f 11;
#X obj 485 526 delwrite~ \$0-fdn4 500, f 11;
#X obj 570 526 delwrite~ \$0-fdn5 500, f 11;
#X obj 654 526 delwrite~ \$0-fdn6 500, f 11;
#X obj 739 526 delwrite~ \$0-fdn7 500, f 11;
#X obj 981 447 array define \$0-delayTimes 8;
#X obj 1015 312 t f b, f 17;
#X obj 1113 338 +;
#X obj 1150 338 + 1;
#X obj 1014 374 tabwrite \$0-delayTimes;
#X floatatom 1046 499 5 0 0 0 - - - 0;
#X obj 926 532 tabread \$0-delayTimes;
#X floatatom 926 556 12 0 0 0 - - - 0;
#X obj 174 300 outlet~;
#X obj 248 300 outlet~;
#X obj 146 485 *~ 0.353553;
#X obj 231 485 *~ 0.353553;
#X obj 315 485 *~ 0.353553;
#X obj 400 485 *~ 0.353553;
#X obj 485 485 *~ 0.353553;
#X obj 570 485 *~ 0.353553;
#X obj 654 485 *~ 0.353553;
#X obj 739 485 *~ 0.353553;
#X floatatom 906 124 5 0 0 0 - - - 0;
#X obj 1015 198 t f b, f 43;
#X msg 1301 235 0;
#X text 1033 49 c = d/t \; t = d/c \; t = d/344;
#X floatatom 16 101 5 1 50 1 m \$0-dimensionR \$0-dimensionS 0;
#X floatatom 85 101 5 2.906 145.3 1 ms \$0-timeR \$0-timeS 0;
#X obj 1015 238 FDN/primePowerDelayLineLengths_sjf 50 8, f 34;
#N canvas 730 97 450 300 dimensionsCalculation 0;
#X obj 106 63 / 344;
#X floatatom 106 87 10 0 0 0 s - - 0;
#X obj 106 110 * 1000;
#X obj 224 46 change 0;
#X obj 224 70 abs;
#X obj 224 94 / 1000;
#X obj 224 118 * 344;
#X obj 106 42 change 0;
#X obj 106 20 r \$0-dimensionS;
#X obj 224 142 s \$0-dimensionR;
#X obj 224 22 r \$0-timeS;
#X obj 60 155 s \$0-timeR;
#X connect 0 0 1 0;
#X connect 1 0 2 0;
#X connect 2 0 11 0;
#X connect 3 0 4 0;
#X connect 4 0 5 0;
#X connect 5 0 6 0;
#X connect 6 0 9 0;
#X connect 7 0 0 0;
#X connect 8 0 7 0;
#X connect 10 0 3 0;
#X restore 1018 101 pd dimensionsCalculation;
#X obj 981 473 array define \$0-apTimes 8;
#X obj 1201 312 t f b, f 17;
#X obj 1299 338 +;
#X obj 1336 338 + 1;
#X obj 1200 374 tabwrite \$0-apTimes;
#X obj 255 182 FDN/fdnDelRead2_sjf~ 0 \$0, f 19;
#X obj 325 219 FDN/fdnDelRead2_sjf~ 1 \$0, f 19;
#X obj 351 254 FDN/fdnDelRead2_sjf~ 2 \$0, f 19;
#X obj 384 290 FDN/fdnDelRead2_sjf~ 3 \$0, f 19;
#X obj 604 178 FDN/fdnDelRead2_sjf~ 4 \$0, f 19;
#X obj 625 214 FDN/fdnDelRead2_sjf~ 5 \$0, f 19;
#X obj 656 250 FDN/fdnDelRead2_sjf~ 6 \$0, f 19;
#X obj 677 286 FDN/fdnDelRead2_sjf~ 7 \$0, f 19;
#X obj 906 101 r \$0-timeS;
#X obj 187 102 tgl 19 0 \$0-dsp \$0-dsp on 2 10 0 10 #fcfcfc #000000 #000000 0 1;
#X obj 807 58 r \$0-dsp;
#X obj 807 101 switch~;
#X floatatom 1087 557 12 0 0 0 - - - 0;
#X obj 1087 533 tabread \$0-apTimes;
#X obj 906 147 t b f;
#X obj 906 197 s \$0-dtChange;
#X obj 19 82 hsl 162 19 0 1 0 0 \$0-modulation \$0-modulation modulation 10 10 0 12 #fcfcfc #000000 #000000 0 1;
#X obj 191 255 FDN/had2_sjf~;
#X connect 0 0 2 0;
#X connect 1 0 2 1;
#X connect 2 0 10 0;
#X connect 2 1 10 1;
#X connect 6 0 7 0;
#X connect 10 0 27 0;
#X connect 10 1 28 0;
#X connect 10 2 29 0;
#X connect 10 3 30 0;
#X connect 10 4 31 0;
#X connect 10 5 32 0;
#X connect 10 6 33 0;
#X connect 10 7 34 0;
#X connect 18 0 21 0;
#X connect 18 1 19 0;
#X connect 19 0 20 0;
#X connect 19 0 21 1;
#X connect 20 0 19 1;
#X connect 22 0 23 0;
#X connect 22 0 61 0;
#X connect 23 0 24 0;
#X connect 27 0 8 0;
#X connect 28 0 9 0;
#X connect 29 0 11 0;
#X connect 30 0 12 0;
#X connect 31 0 13 0;
#X connect 32 0 14 0;
#X connect 33 0 15 0;
#X connect 34 0 16 0;
#X connect 35 0 62 0;
#X connect 36 0 41 0;
#X connect 36 1 37 0;
#X connect 37 0 19 1;
#X connect 37 0 45 1;
#X connect 41 0 18 0;
#X connect 41 1 44 0;
#X connect 44 0 47 0;
#X connect 44 1 45 0;
#X connect 45 0 46 0;
#X connect 45 0 47 1;
#X connect 46 0 45 1;
#X connect 48 0 10 0;
#X connect 48 0 65 0;
#X connect 49 0 10 1;
#X connect 49 0 65 1;
#X connect 50 0 10 2;
#X connect 51 0 10 3;
#X connect 52 0 10 4;
#X connect 53 0 10 5;
#X connect 54 0 10 6;
#X connect 55 0 10 7;
#X connect 56 0 35 0;
#X connect 58 0 59 0;
#X connect 61 0 60 0;
#X connect 62 0 63 0;
#X connect 62 1 36 0;
#X connect 65 0 25 0;
#X connect 65 1 26 0;
#X coords 0 -1 1 1 200 120 1 10 10;
