#N canvas 14 25 1410 721 12;
#X obj 47 333 inlet~;
#X obj 111 334 inlet~;
#X obj 59 391 FDN/had2_sjf~;
#X obj 19 44 hsl 162 19 0 1 0 0 \$0-decay \$0-decay decay 10 10 0 12 #fcfcfc #000000 #000000 0 1;
#X obj 19 63 hsl 162 19 0 1 0 0 \$0-damping \$0-damping damping 10 10 0 12 #fcfcfc #000000 #000000 0 1;
#N canvas 990 532 450 300 params 0;
#X obj 21 41 r \$0-spread;
#X floatatom 21 65 5 0 0 0 - - - 0;
#X obj 21 136 * 10;
#X text 57 134 ms;
#X obj 21 160 pack 0 5;
#X obj 21 184 line~;
#X obj 21 208 s~ \$0-spreadSig;
#X floatatom 284 69 5 0 0 0 - - - 0;
#X obj 282 186 pack 0 5;
#X obj 283 211 line~;
#X obj 284 45 r \$0-damping;
#X obj 283 235 s~ \$0-dampingSig;
#X obj 21 88 min 1;
#X obj 21 112 max 0;
#X obj 284 92 min 1;
#X obj 284 116 max 0;
#X obj 284 140 * 0.6;
#X obj 284 164 + 0.35;
#X floatatom 181 30 5 0 0 0 - - - 0;
#X obj 181 193 pack 0 5;
#X obj 181 217 line~;
#X obj 181 241 s~ \$0-sizeSig;
#X obj 181 53 min 1;
#X obj 181 77 max 0;
#X obj 181 144 * 9.5;
#X obj 181 168 + 0.5;
#X obj 181 101 expr pow($f1 \, 3), f 11;
#X obj 181 6 r \$0-decay;
#X connect 0 0 1 0;
#X connect 1 0 12 0;
#X connect 2 0 4 0;
#X connect 4 0 5 0;
#X connect 5 0 6 0;
#X connect 7 0 14 0;
#X connect 8 0 9 0;
#X connect 9 0 11 0;
#X connect 10 0 7 0;
#X connect 12 0 13 0;
#X connect 13 0 2 0;
#X connect 14 0 15 0;
#X connect 15 0 16 0;
#X connect 16 0 17 0;
#X connect 17 0 8 0;
#X connect 18 0 22 0;
#X connect 19 0 20 0;
#X connect 20 0 21 0;
#X connect 22 0 23 0;
#X connect 23 0 26 0;
#X connect 24 0 25 0;
#X connect 25 0 19 0;
#X connect 26 0 24 0;
#X connect 27 0 18 0;
#X restore 942 648 pd params;
#N canvas 990 561 450 300 load 0;
#X obj 154 56 bng 19 250 50 0 empty empty empty 0 -10 0 12 #fcfcfc #000000 #000000;
#X obj 154 80 \$0;
#X obj 154 33 loadbang;
#X obj 154 104 outlet;
#X msg 61 146 \; \$1-spread 0.052 \; \$1-decay 0.5 \; \$1-damping 0.5 \; \$1-dimensionR 10 \; \$1-dsp 0;
#X connect 0 0 1 0;
#X connect 1 0 4 0;
#X connect 1 0 3 0;
#X connect 2 0 0 0;
#X restore 967 315 pd load;
#X obj 967 339 outlet;
#X obj 49 571 delwrite~ \$0-fdn0 500, f 11;
#X obj 137 571 delwrite~ \$0-fdn1 500, f 11;
#X obj 207 441 FDN/hadamard8_sjf~, f 63;
#X obj 315 527 delwrite~ \$0-fdn2 500, f 11;
#X obj 400 527 delwrite~ \$0-fdn3 500, f 11;
#X obj 485 526 delwrite~ \$0-fdn4 500, f 11;
#X obj 570 526 delwrite~ \$0-fdn5 500, f 11;
#X obj 654 525 delwrite~ \$0-fdn6 500, f 11;
#X obj 739 525 delwrite~ \$0-fdn7 500, f 11;
#X obj 285 182 FDN/fdnDelRead_sjf~ 0 \$0, f 19;
#X obj 1031 447 array define \$0-delayTimes 8;
#X obj 325 219 FDN/fdnDelRead_sjf~ 1 \$0, f 19;
#X obj 351 254 FDN/fdnDelRead_sjf~ 2 \$0, f 19;
#X obj 384 290 FDN/fdnDelRead_sjf~ 3 \$0, f 19;
#X obj 604 178 FDN/fdnDelRead_sjf~ 4 \$0, f 19;
#X obj 625 214 FDN/fdnDelRead_sjf~ 5 \$0, f 19;
#X obj 656 250 FDN/fdnDelRead_sjf~ 6 \$0, f 19;
#X obj 677 286 FDN/fdnDelRead_sjf~ 7 \$0, f 19;
#X obj 1065 292 t f b, f 17;
#X obj 1163 318 +;
#X obj 1200 318 + 1;
#X obj 1064 374 tabwrite \$0-delayTimes;
#X floatatom 976 509 5 0 0 0 - - - 0;
#X obj 976 532 tabread \$0-delayTimes;
#X floatatom 976 556 12 0 0 0 - - - 0;
#X obj 359 359 outlet~;
#X obj 435 363 outlet~;
#X obj 146 485 *~ 0.353553;
#X obj 231 485 *~ 0.353553;
#X obj 315 484 *~ 0.353553;
#X obj 400 484 *~ 0.353553;
#X obj 485 483 *~ 0.353553;
#X obj 570 483 *~ 0.353553;
#X obj 654 482 *~ 0.353553;
#X obj 739 482 *~ 0.353553;
#X floatatom 1065 175 5 0 0 0 - - - 0;
#X obj 1065 198 t f b, f 43;
#X msg 1351 235 0;
#X text 474 107 c = d/t \; t = d/c \; t = d/344;
#N canvas 730 97 450 300 dimensionsCalculation 0;
#X obj 106 63 / 344;
#X floatatom 106 87 10 0 0 0 s - - 0;
#X obj 106 110 * 1000;
#X obj 224 46 change 0;
#X obj 224 70 abs;
#X obj 224 94 / 1000;
#X obj 224 118 * 344;
#X obj 106 42 change 0;
#X obj 106 20 r \$0-dimensionS;
#X obj 224 142 s \$0-dimensionR;
#X obj 224 22 r \$0-timeS;
#X obj 60 155 s \$0-timeR;
#X connect 0 0 1 0;
#X connect 1 0 2 0;
#X connect 2 0 11 0;
#X connect 3 0 4 0;
#X connect 4 0 5 0;
#X connect 5 0 6 0;
#X connect 6 0 9 0;
#X connect 7 0 0 0;
#X connect 8 0 7 0;
#X connect 10 0 3 0;
#X restore 1068 100 pd dimensionsCalculation;
#X obj 954 128 r \$0-timeS;
#X obj 772 48 r \$0-dsp;
#X obj 772 81 switch~;
#X floatatom 16 88 5 1 50 1 m \$0-dimensionR \$0-dimensionS 0;
#X floatatom 85 88 5 2.906 145.3 1 ms \$0-timeR \$0-timeS 0;
#X obj 187 84 tgl 19 0 \$0-dsp \$0-dsp on 2 10 0 10 #fcfcfc #000000 #000000 0 1;
#X obj 1065 238 FDN/primePowerDelayLineLengths_sjf 50 8, f 30;
#X obj 954 152 t b f, f 16;
#X obj 954 176 s \$0-dtChange;
#X connect 0 0 2 0;
#X connect 1 0 2 1;
#X connect 2 0 10 0;
#X connect 2 1 10 1;
#X connect 6 0 7 0;
#X connect 10 0 35 0;
#X connect 10 1 36 0;
#X connect 10 2 37 0;
#X connect 10 3 38 0;
#X connect 10 4 39 0;
#X connect 10 5 40 0;
#X connect 10 6 41 0;
#X connect 10 7 42 0;
#X connect 17 0 10 0;
#X connect 19 0 10 1;
#X connect 20 0 10 2;
#X connect 20 0 33 0;
#X connect 21 0 10 3;
#X connect 21 0 34 0;
#X connect 22 0 10 4;
#X connect 23 0 10 5;
#X connect 24 0 10 6;
#X connect 25 0 10 7;
#X connect 26 0 29 0;
#X connect 26 1 27 0;
#X connect 27 0 28 0;
#X connect 27 0 29 1;
#X connect 28 0 27 1;
#X connect 30 0 31 0;
#X connect 31 0 32 0;
#X connect 35 0 8 0;
#X connect 36 0 9 0;
#X connect 37 0 11 0;
#X connect 38 0 12 0;
#X connect 39 0 13 0;
#X connect 40 0 14 0;
#X connect 41 0 15 0;
#X connect 42 0 16 0;
#X connect 43 0 44 0;
#X connect 44 0 54 0;
#X connect 44 1 45 0;
#X connect 45 0 27 1;
#X connect 48 0 55 0;
#X connect 49 0 50 0;
#X connect 54 0 26 0;
#X connect 55 0 56 0;
#X connect 55 1 43 0;
#X coords 0 -1 1 1 200 100 1 10 10;
