#N canvas 132 164 1062 533 12;
#X obj 93 479 outlet~;
#X text 900 492 sjf \, SAE London \, 2023;
#X obj 145 152 inlet~;
#X text 66 145 signal in;
#X obj 276 481 outlet~;
#X obj 19 45 hsl 162 19 0 1 0 0 \$0-spread \$0-spread spread 10 10 0 12 #fcfcfc #000000 #000000 0 1;
#X obj 541 274 r \$0-spread;
#X floatatom 541 298 5 0 0 0 - - - 0;
#X obj 541 369 * 10;
#X text 577 367 ms;
#X obj 541 393 pack 0 5;
#X obj 541 417 line~;
#X obj 19 64 hsl 162 19 0 1 0 0 \$0-size \$0-size size 10 10 0 12 #fcfcfc #000000 #000000 0 1;
#X floatatom 685 302 5 0 0 0 - - - 0;
#X obj 685 373 pack 0 5;
#X obj 685 397 line~;
#X obj 541 441 s~ \$0-spreadSig;
#X obj 301 227 r~ \$0-spreadSig;
#X obj 685 278 r \$0-size;
#X obj 685 421 s~ \$0-sizeSig;
#X obj 334 255 r~ \$0-sizeSig;
#X obj 102 323 r~ \$0-sizeSig;
#X floatatom 804 302 5 0 0 0 - - - 0;
#X obj 804 373 pack 0 5;
#X obj 804 397 line~;
#X obj 804 278 r \$0-damping;
#X obj 804 421 s~ \$0-dampingSig;
#X obj 19 83 hsl 162 19 0 1 0 0 \$0-damping \$0-damping damping 10 10 0 12 #fcfcfc #000000 #000000 0 1;
#X obj 411 281 r~ \$0-dampingSig;
#X obj 162 348 r~ \$0-dampingSig;
#X obj 795 93 bng 19 250 50 0 empty empty empty 0 -10 0 12 #fcfcfc #000000 #000000;
#X obj 795 117 \$0;
#X obj 739 41 loadbang;
#X obj 795 141 outlet;
#X obj 541 321 min 1;
#X obj 541 345 max 0;
#X obj 685 325 min 1;
#X obj 685 349 max 0;
#X obj 804 325 min 1;
#X obj 804 349 max 0;
#X obj 282 311 freeverb/freeverbChannel_sjf~;
#X obj 67 399 freeverb/freeverbChannel_sjf~;
#X obj 534 47 r \$0-dsp;
#X obj 534 80 switch~;
#X msg 702 183 \; \$1-spread 0.052 \; \$1-size 0.5 \; \$1-damping 0.5 \; \$1-dsp 0;
#X obj 187 84 tgl 19 0 \$0-dsp \$0-dsp on 2 10 0 10 #fcfcfc #000000 #000000 0 1;
#X connect 2 0 41 0;
#X connect 2 0 40 0;
#X connect 6 0 7 0;
#X connect 7 0 34 0;
#X connect 8 0 10 0;
#X connect 10 0 11 0;
#X connect 11 0 16 0;
#X connect 13 0 36 0;
#X connect 14 0 15 0;
#X connect 15 0 19 0;
#X connect 17 0 40 1;
#X connect 18 0 13 0;
#X connect 20 0 40 2;
#X connect 21 0 41 2;
#X connect 22 0 38 0;
#X connect 23 0 24 0;
#X connect 24 0 26 0;
#X connect 25 0 22 0;
#X connect 28 0 40 3;
#X connect 29 0 41 3;
#X connect 30 0 31 0;
#X connect 31 0 44 0;
#X connect 31 0 33 0;
#X connect 32 0 30 0;
#X connect 34 0 35 0;
#X connect 35 0 8 0;
#X connect 36 0 37 0;
#X connect 37 0 14 0;
#X connect 38 0 39 0;
#X connect 39 0 23 0;
#X connect 40 0 4 0;
#X connect 41 0 0 0;
#X connect 42 0 43 0;
#X coords 0 -1 1 1 200 100 1 10 10;
