#N canvas 0 25 1080 526 12;
#X obj 117 63 inlet~;
#X text 377 139 3 * allpass;
#X text 498 352 Based on John Chowning's JCREV;
#X text 498 371 https://ccrma.stanford.edu/~jos/pasp/Schroeder_Reverberators.html#eq:APdef \; (Delay times in those diagrams are in samples so here I have set the delaytimes in ms );
#X text 1047 259 4 * feedback comb filters;
#X obj 221 346 +~;
#X obj 117 108 ../filters/allpass_sjf~ 13.88 0.7;
#X obj 117 146 ../filters/allpass_sjf~ 4.52 0.7;
#X obj 117 184 ../filters/allpass_sjf~ 1.48 0.7;
#X obj 29 262 ../filters/fbcomb_sjf~ 67.48 0.773;
#X obj 295 262 ../filters/fbcomb_sjf~ 64.08 0.802;
#X obj 541 262 ../filters/fbcomb_sjf~ 82.12 0.753;
#X obj 796 261 ../filters/fbcomb_sjf~ 90.04 0.733;
#X obj 212 450 outlet~;
#X obj 321 450 outlet~;
#N canvas 556 572 450 300 decorrelation 0;
#X obj 112 37 inlet~;
#X obj 112 87 delwrite~ \$0-output 100;
#X obj 28 122 delread~ \$0-output 46;
#X obj 137 157 delread~ \$0-output 57;
#X text 197 115 Decorrelation delayLines;
#X obj 28 146 outlet~;
#X obj 137 181 outlet~;
#X connect 0 0 1 0;
#X connect 2 0 5 0;
#X connect 3 0 6 0;
#X restore 217 377 pd decorrelation;
#X obj 620 157 tgl 19 0 empty empty empty 0 -10 0 12 #fcfcfc #000000 #000000 0 1;
#X obj 620 181 switch~;
#X obj 612 110 loadbang;
#X msg 612 134 0;
#X text 649 154 Turn on;
#X connect 0 0 6 0;
#X connect 5 0 15 0;
#X connect 6 0 7 0;
#X connect 7 0 8 0;
#X connect 8 0 9 0;
#X connect 8 0 10 0;
#X connect 8 0 11 0;
#X connect 8 0 12 0;
#X connect 9 0 5 0;
#X connect 10 0 5 0;
#X connect 11 0 5 1;
#X connect 12 0 5 1;
#X connect 15 0 13 0;
#X connect 15 1 14 0;
#X connect 16 0 17 0;
#X connect 18 0 19 0;
#X connect 19 0 16 0;
