#N canvas 63 88 450 300 12;
#X obj 163 38 inlet~;
#X obj 62 142 +~;
#X obj 117 98 *~;
#X obj 62 166 outlet~;
#X obj 60 37 inlet~;
#X text 52 9 base;
#X text 163 8 modulator;
#X connect 0 0 2 1;
#X connect 1 0 3 0;
#X connect 2 0 1 1;
#X connect 4 0 1 0;
#X connect 4 0 2 0;
