#N canvas 121 146 796 642 12;
#X obj 59 468 outlet~;
#X obj 259 468 outlet~;
#X obj 74 10 inlet~;
#X obj 249 11 inlet~;
#X obj 59 444 clone mtOut_sjf~ \$1 \$0 L;
#X obj 259 444 clone mtOut_sjf~ \$1 \$0 R;
#X obj 315 375 array define \$0-dt_L \$1;
#X obj 502 373 array define \$0-dt_R \$1;
#X obj 357 4 loadbang;
#X obj 454 168 tabwrite \$0-dt_L;
#N canvas 150 175 457 576 velvetDT 0;
#X obj 37 7 inlet;
#X obj 37 179 \$1;
#X obj 37 203 until;
#X obj 37 227 +;
#X obj 68 227 + 1;
#X obj 37 32 t b b, f 16;
#X obj 150 187 /;
#X obj 37 345 random;
#X obj 37 369 +, f 15;
#X obj 132 345 *;
#X obj 37 470 pack, f 28;
#X obj 37 494 outlet;
#X obj 37 251 t b f f, f 28;
#X obj 147 54 \$2;
#X obj 147 78 t f b;
#X obj 267 105 samplerate~;
#X obj 147 132 *;
#X obj 150 161 pack 0 \$1;
#X obj 150 214 t f;
#X obj 267 129 * 0.001;
#X obj 35 400 / 1, f 43;
#X floatatom 267 153 5 0 0 0 - - - 0;
#X obj 147 102 * 0.001;
#X obj 220 13 inlet;
#X msg 220 37 0;
#X connect 0 0 5 0;
#X connect 1 0 2 0;
#X connect 2 0 3 0;
#X connect 3 0 4 0;
#X connect 3 0 12 0;
#X connect 4 0 3 1;
#X connect 5 0 1 0;
#X connect 5 1 13 0;
#X connect 6 0 18 0;
#X connect 7 0 8 0;
#X connect 8 0 20 0;
#X connect 9 0 8 1;
#X connect 10 0 11 0;
#X connect 12 0 7 0;
#X connect 12 1 9 0;
#X connect 12 2 10 1;
#X connect 13 0 14 0;
#X connect 14 0 22 0;
#X connect 14 1 15 0;
#X connect 15 0 19 0;
#X connect 15 0 16 1;
#X connect 16 0 17 0;
#X connect 17 0 6 0;
#X connect 18 0 9 1;
#X connect 18 0 7 1;
#X connect 19 0 20 1;
#X connect 19 0 21 0;
#X connect 20 0 10 0;
#X connect 22 0 16 0;
#X connect 23 0 24 0;
#X connect 24 0 3 1;
#X restore 454 141 pd velvetDT;
#X obj 580 166 tabwrite \$0-dt_R;
#X obj 358 142 s \$0-lbang;
#X obj 359 39 bng 19 250 50 0 empty empty empty 0 -10 0 12 #fcfcfc #000000 #000000;
#X obj 74 34 delwrite~ \$0-L \$2, f 9;
#X obj 249 35 delwrite~ \$0-R \$2, f 9;
#X msg 59 340 vis 16 1;
#X obj 358 88 t b b b;
#N canvas 150 175 457 576 velvetDT 0;
#X obj 37 7 inlet;
#X obj 37 179 \$1;
#X obj 37 203 until;
#X obj 37 227 +;
#X obj 68 227 + 1;
#X obj 37 32 t b b, f 16;
#X obj 150 187 /;
#X obj 37 345 random;
#X obj 37 369 +, f 15;
#X obj 132 345 *;
#X obj 37 470 pack, f 28;
#X obj 37 494 outlet;
#X obj 37 251 t b f f, f 28;
#X obj 147 54 \$2;
#X obj 147 78 t f b;
#X obj 267 105 samplerate~;
#X obj 147 132 *;
#X obj 150 161 pack 0 \$1;
#X obj 150 214 t f;
#X obj 267 129 * 0.001;
#X obj 35 400 / 1, f 43;
#X floatatom 267 153 5 0 0 0 - - - 0;
#X obj 147 102 * 0.001;
#X obj 220 13 inlet;
#X msg 220 37 0;
#X connect 0 0 5 0;
#X connect 1 0 2 0;
#X connect 2 0 3 0;
#X connect 3 0 4 0;
#X connect 3 0 12 0;
#X connect 4 0 3 1;
#X connect 5 0 1 0;
#X connect 5 1 13 0;
#X connect 6 0 18 0;
#X connect 7 0 8 0;
#X connect 8 0 20 0;
#X connect 9 0 8 1;
#X connect 10 0 11 0;
#X connect 12 0 7 0;
#X connect 12 1 9 0;
#X connect 12 2 10 1;
#X connect 13 0 14 0;
#X connect 14 0 22 0;
#X connect 14 1 15 0;
#X connect 15 0 19 0;
#X connect 15 0 16 1;
#X connect 16 0 17 0;
#X connect 17 0 6 0;
#X connect 18 0 9 1;
#X connect 18 0 7 1;
#X connect 19 0 20 1;
#X connect 19 0 21 0;
#X connect 20 0 10 0;
#X connect 22 0 16 0;
#X connect 23 0 24 0;
#X connect 24 0 3 1;
#X restore 579 138 pd velvetDT;
#X connect 2 0 14 0;
#X connect 3 0 15 0;
#X connect 4 0 0 0;
#X connect 5 0 1 0;
#X connect 8 0 13 0;
#X connect 10 0 9 0;
#X connect 13 0 17 0;
#X connect 16 0 4 0;
#X connect 17 0 12 0;
#X connect 17 1 10 0;
#X connect 17 1 18 0;
#X connect 17 2 10 1;
#X connect 17 2 18 1;
#X connect 18 0 11 0;
