#N canvas 121 77 959 518 12;
#X obj 312 240 outlet~;
#X obj 312 203 *~, f 16;
#X obj 533 161 s \$2-mtVoiceNum;
#X obj 533 186 r \$2-mtVoiceNum;
#X obj 533 210 max;
#X floatatom 533 234 5 0 0 0 - - - 0;
#X obj 533 257 t b f;
#X floatatom 519 451 10 0 0 0 - - - 0;
#X obj 519 113 \$1;
#X obj 519 283 swap, f 5;
#X obj 519 307 -, f 5;
#X obj 519 331 /, f 7;
#X obj 533 137 + 1;
#X obj 312 166 delread~ \$2-\$3;
#X obj 312 134 tabread \$2-dt_\$3;
#X obj 312 43 r \$2-lbang;
#X floatatom 260 161 5 0 0 0 - - - 0;
#X obj 312 97 \$1;
#X obj 84 370 block~ 64;
#X obj 84 295 inlet;
#X floatatom 84 339 5 0 0 0 - - - 0;
#X text 79 266 block size;
#X floatatom 176 267 5 0 0 0 - - - 0;
#X obj 50 226 sel 0;
#X obj 176 307 ../previousMultiple_sjf 2;
#X msg 50 250 64;
#X obj 50 76 t f b;
#X obj 84 103 samplerate~;
#X obj 84 127 * 0.001;
#X obj 84 151 t b f;
#X obj 50 198 *;
#X obj 176 331 expr if($f1 < 64 \, $f1 \, 64);
#X obj 312 73 t b b b, f 60;
#X obj 718 121 \$1;
#X obj 718 145 % 3;
#X obj 718 243 sel 0, f 10;
#X floatatom 718 291 5 0 0 0 - - - 0;
#X obj 519 419 *;
#X obj 519 355 t f f;
#X obj 519 379 *;
#X obj 752 90 bng 19 250 50 0 empty empty empty 0 -10 0 12 #fcfcfc #000000 #000000;
#X floatatom 758 145 5 0 0 0 - - - 0;
#X floatatom 748 193 5 0 0 0 - - - 0;
#X msg 718 267 -1;
#X floatatom 579 403 5 0 0 0 - - - 0;
#X floatatom 579 355 5 0 0 0 - - - 0;
#X obj 718 169 < 2;
#X connect 1 0 0 0;
#X connect 3 0 4 0;
#X connect 4 0 5 0;
#X connect 5 0 4 1;
#X connect 5 0 6 0;
#X connect 6 0 9 0;
#X connect 6 1 9 1;
#X connect 6 1 11 1;
#X connect 8 0 12 0;
#X connect 8 0 9 0;
#X connect 9 0 10 0;
#X connect 9 1 10 1;
#X connect 10 0 11 0;
#X connect 11 0 38 0;
#X connect 11 0 45 0;
#X connect 12 0 2 0;
#X connect 13 0 1 0;
#X connect 14 0 13 0;
#X connect 14 0 16 0;
#X connect 14 0 26 0;
#X connect 15 0 32 0;
#X connect 17 0 14 0;
#X connect 19 0 20 0;
#X connect 20 0 18 0;
#X connect 22 0 24 0;
#X connect 23 0 25 0;
#X connect 23 1 22 0;
#X connect 24 0 31 0;
#X connect 25 0 20 0;
#X connect 26 0 30 0;
#X connect 26 1 27 0;
#X connect 27 0 28 0;
#X connect 28 0 29 0;
#X connect 29 0 30 0;
#X connect 29 1 30 1;
#X connect 30 0 23 0;
#X connect 31 0 20 0;
#X connect 32 0 17 0;
#X connect 32 1 8 0;
#X connect 32 2 33 0;
#X connect 33 0 34 0;
#X connect 33 0 41 0;
#X connect 34 0 46 0;
#X connect 35 0 43 0;
#X connect 35 1 36 0;
#X connect 36 0 37 1;
#X connect 37 0 7 0;
#X connect 37 0 1 1;
#X connect 38 0 39 0;
#X connect 38 1 39 1;
#X connect 39 0 37 0;
#X connect 39 0 44 0;
#X connect 40 0 33 0;
#X connect 43 0 36 0;
#X connect 46 0 35 0;
#X connect 46 0 42 0;
