#N canvas 0 25 548 390 12;
#X obj 132 79 inlet~;
#X obj 132 293 outlet~;
#X text 126 47 noise in;
#X text 231 45 phasor in;
#X obj 132 158 samphold~;
#X obj 235 76 inlet~;
#X obj 235 100 +~ \$1;
#X obj 235 124 wrap~;
#X obj 338 114 inlet~;
#X text 329 60 freqIn;
#X obj 478 71 loadbang;
#X msg 478 95 1;
#X obj 478 119 inlet~;
#X obj 132 257 *~, f 52;
#X obj 132 192 fexpr~ $y1[-1] + $x2[0] * ( $x1[0] - $y1[-1] );
#X connect 0 0 4 0;
#X connect 4 0 14 0;
#X connect 5 0 6 0;
#X connect 6 0 7 0;
#X connect 7 0 4 1;
#X connect 8 0 14 1;
#X connect 10 0 11 0;
#X connect 11 0 12 0;
#X connect 12 0 13 1;
#X connect 13 0 1 0;
#X connect 14 0 13 0;
