#N canvas 208 233 1139 482 12;
#X obj 65 110 inlet~;
#X text 63 84 sig in;
#X obj 300 111 inlet~;
#X text 297 85 size scale;
#X obj 416 110 inlet~;
#X text 413 84 damping;
#X obj 65 335 outlet~;
#X obj 274 3 loadbang;
#X obj 274 27 0.01;
#X floatatom 274 51 5 0 0 0 - - - 0;
#X obj 347 9 bng 19 250 50 0 empty empty empty 0 -10 0 12 #fcfcfc #000000 #000000;
#X obj 134 139 sig~ \$1;
#X obj 134 163 tabread~ \$2-combDelays;
#X obj 215 192 *~ 0.001;
#X obj 215 224 expr~ pow(10 \, (-3*$v1/($v2)));
#X text 502 193 pow(10.0 \, (-3.0 * combDelays_[i].getDelay() / (T60 * Stk::sampleRate()))) \; https://github.com/thestk/stk/blob/master/src/JCRev.cpp#L86;
#X obj 109 295 ../filters/fbcomb2_sjf~ 90.04 0.733, f 52;
#X connect 0 0 16 0;
#X connect 2 0 14 1;
#X connect 4 0 16 3;
#X connect 7 0 8 0;
#X connect 8 0 2 0;
#X connect 8 0 9 0;
#X connect 10 0 8 0;
#X connect 11 0 12 0;
#X connect 12 0 13 0;
#X connect 12 0 16 1;
#X connect 13 0 14 0;
#X connect 14 0 16 2;
#X connect 16 0 6 0;
