#N canvas 324 237 934 484 12;
#X obj 222 6 inlet~;
#X text 552 66 4 * feedback combfilters;
#X text 398 187 3 * allpass;
#X obj 177 377 outlet~;
#X obj 259 345 *~ -1;
#X obj 259 376 outlet~;
#X text 444 342 https://ccrma.stanford.edu/~jos/pasp/Example_Schroeder_Reverberators.html \; (Delay times in those diagrams are in samples so here I have set the delaytimes in ms );
#X text 444 321 Based on John Chowning's SATREV;
#X obj 12 62 ../filters/fbcomb_sjf~ 36.04 0.805, f 17;
#X obj 146 62 ../filters/fbcomb_sjf~ 31.12 0.827, f 17;
#X obj 281 62 ../filters/fbcomb_sjf~ 40.44 0.783, f 17;
#X obj 414 62 ../filters/fbcomb_sjf~ 44.92 0.764, f 17;
#X obj 232 149 ../filters/allpass_sjf~ 5 0.7, f 20;
#X obj 232 194 ../filters/allpass_sjf~ 1.68 0.7, f 20;
#X obj 232 239 ../filters/allpass_sjf~ 0.48 0.7, f 20;
#X obj 600 186 tgl 19 0 empty empty empty 0 -10 0 12 #fcfcfc #000000 #000000 0 1;
#X obj 600 210 switch~;
#X obj 592 139 loadbang;
#X msg 592 163 0;
#X text 629 183 Turn on;
#X connect 0 0 8 0;
#X connect 0 0 9 0;
#X connect 0 0 10 0;
#X connect 0 0 11 0;
#X connect 4 0 5 0;
#X connect 8 0 12 0;
#X connect 9 0 12 0;
#X connect 10 0 12 0;
#X connect 11 0 12 0;
#X connect 12 0 13 0;
#X connect 13 0 14 0;
#X connect 14 0 3 0;
#X connect 14 0 4 0;
#X connect 15 0 16 0;
#X connect 17 0 18 0;
#X connect 18 0 15 0;
